<svg width="29" height="29" viewBox="0 0 29 29" fill="none" xmlns="http://www.w3.org/2000/svg">
<g id="Group 1597883802">
<g id="Group 1597883794">
<path id="Union" fill-rule="evenodd" clip-rule="evenodd" d="M13.5217 6.69455V6.69922V12.2913C13.5217 12.917 13.0145 13.4243 12.3887 13.4243H6.81837C6.81714 13.4243 6.8159 13.4243 6.81466 13.4243C4.96427 13.4222 3.46484 11.9176 3.46484 10.0617C3.46484 8.20591 4.96427 6.70123 6.81466 6.69922L6.81467 6.69922L6.81466 6.69455C6.81466 4.83748 8.31609 3.33203 10.1682 3.33203C12.0203 3.33203 13.5217 4.83748 13.5217 6.69455Z" fill="black"/>
<path id="Union_2" fill-rule="evenodd" clip-rule="evenodd" d="M13.5217 21.9695V21.9648V16.3728C13.5217 15.7471 13.0145 15.2398 12.3887 15.2398H6.81837C6.81714 15.2398 6.8159 15.2398 6.81466 15.2398C4.96427 15.2418 3.46484 16.7465 3.46484 18.6023C3.46484 20.4582 4.96427 21.9628 6.81466 21.9648L6.81467 21.9648L6.81466 21.9695C6.81466 23.8266 8.31609 25.332 10.1682 25.332C12.0203 25.332 13.5217 23.8266 13.5217 21.9695Z" fill="black"/>
<path id="Union_3" fill-rule="evenodd" clip-rule="evenodd" d="M15.3572 6.69455V6.69922V12.2913C15.3572 12.917 15.8644 13.4243 16.4902 13.4243H22.0605C22.0618 13.4243 22.063 13.4243 22.0642 13.4243C23.9146 13.4222 25.4141 11.9176 25.4141 10.0617C25.4141 8.20591 23.9146 6.70123 22.0642 6.69922L22.0642 6.69922L22.0642 6.69455C22.0642 4.83748 20.5628 3.33203 18.7107 3.33203C16.8586 3.33203 15.3572 4.83748 15.3572 6.69455Z" fill="black"/>
<path id="Union_4" fill-rule="evenodd" clip-rule="evenodd" d="M15.196 15.9822V21.0164V21.5742H15.2419C15.507 23.1658 16.887 24.3789 18.5495 24.3789C20.2121 24.3789 21.5921 23.1658 21.8571 21.5742H21.9031V21.5678C21.9719 21.5721 22.0414 21.5742 22.1113 21.5742C23.9634 21.5742 25.4648 20.0688 25.4648 18.2117C25.4648 16.3546 23.9634 14.8492 22.1113 14.8492C22.0414 14.8492 21.9719 14.8513 21.9031 14.8556V14.8492H16.329C15.7033 14.8492 15.196 15.3564 15.196 15.9822Z" fill="black"/>
</g>
</g>
</svg>
