<svg width="29" height="29" viewBox="0 0 29 29" fill="none" xmlns="http://www.w3.org/2000/svg">
<g id="Group 1597883802">
<g id="Group 1597883794">
<path id="Union" fill-rule="evenodd" clip-rule="evenodd" d="M13.8889 7.32736V7.33203V12.9241C13.8889 13.5498 13.3817 14.0571 12.7559 14.0571H7.18556C7.18432 14.0571 7.18309 14.0571 7.18185 14.0571C5.33145 14.0551 3.83203 12.5504 3.83203 10.6945C3.83203 8.83872 5.33145 7.33404 7.18185 7.33203L7.18185 7.33203L7.18185 7.32736C7.18185 5.47029 8.68328 3.96484 10.5354 3.96484C12.3875 3.96484 13.8889 5.47029 13.8889 7.32736Z" fill="white"/>
<path id="Union_2" fill-rule="evenodd" clip-rule="evenodd" d="M13.8889 22.6023V22.5977V17.0056C13.8889 16.3799 13.3817 15.8726 12.7559 15.8726H7.18556C7.18432 15.8726 7.18309 15.8726 7.18185 15.8726C5.33145 15.8746 3.83203 17.3793 3.83203 19.2351C3.83203 21.091 5.33145 22.5956 7.18185 22.5977L7.18185 22.5977L7.18185 22.6023C7.18185 24.4594 8.68328 25.9648 10.5354 25.9648C12.3875 25.9648 13.8889 24.4594 13.8889 22.6023Z" fill="white"/>
<path id="Union_3" fill-rule="evenodd" clip-rule="evenodd" d="M15.7244 7.32736V7.33203V12.9241C15.7244 13.5498 16.2316 14.0571 16.8574 14.0571H22.4277C22.429 14.0571 22.4302 14.0571 22.4314 14.0571C24.2818 14.0551 25.7812 12.5504 25.7812 10.6945C25.7812 8.83872 24.2818 7.33404 22.4314 7.33203L22.4314 7.33203L22.4314 7.32736C22.4314 5.47029 20.93 3.96484 19.0779 3.96484C17.2258 3.96484 15.7244 5.47029 15.7244 7.32736Z" fill="white"/>
<path id="Union_4" fill-rule="evenodd" clip-rule="evenodd" d="M15.5632 16.615V21.6492V22.207H15.6091C15.8742 23.7986 17.2542 25.0117 18.9167 25.0117C20.5793 25.0117 21.9593 23.7986 22.2243 22.207H22.2703V22.2007C22.3391 22.2049 22.4086 22.207 22.4785 22.207C24.3306 22.207 25.832 20.7016 25.832 18.8445C25.832 16.9874 24.3306 15.482 22.4785 15.482C22.4086 15.482 22.3391 15.4841 22.2703 15.4884V15.482H16.6962C16.0705 15.482 15.5632 15.9893 15.5632 16.615Z" fill="white"/>
</g>
</g>
</svg>
