<svg width="22" height="25" viewBox="0 0 22 25" fill="none" xmlns="http://www.w3.org/2000/svg">
<path d="M11.4419 2.95834C11.3056 2.90007 11.3122 2.6992 11.4491 2.73569L19.7792 4.95502C19.9327 4.99593 20.063 5.15712 20.0702 5.31503L20.4593 13.8811C20.4657 14.022 20.267 13.9851 20.2391 13.8402L18.8253 6.50546C18.7763 6.25123 18.5815 6.01024 18.3423 5.90799L11.4419 2.95834Z" fill="#FABD00" stroke="#FABD00" stroke-width="2" stroke-linecap="round"/>
<path d="M1.89896 10.5833C1.76267 10.525 1.76918 10.3242 1.90617 10.3607L10.2362 12.58C10.3897 12.6209 10.52 12.7821 10.5272 12.94L10.9163 21.5061C10.9227 21.647 10.724 21.6101 10.6961 21.4652L9.28232 14.1305C9.2333 13.8762 9.03848 13.6352 8.79932 13.533L1.89896 10.5833Z" fill="#FABD00" stroke="#FABD00" stroke-width="2" stroke-linecap="round"/>
<path d="M6.67045 6.77084C6.53415 6.71254 6.54068 6.5117 6.67765 6.54819L15.0077 8.76752C15.1612 8.80843 15.2915 8.96964 15.2987 9.12753L15.6878 17.6936C15.6942 17.8345 15.4955 17.7976 15.4676 17.6528L14.136 10.7441C14.0379 10.2357 13.6482 9.7536 13.17 9.54912L6.67045 6.77084Z" fill="#FABD00" stroke="#FABD00" stroke-width="2" stroke-linecap="round"/>
</svg>
