<svg width="144" height="34" viewBox="0 0 144 34" fill="none" xmlns="http://www.w3.org/2000/svg">
<path d="M40.3212 12.8821C43.0354 12.8821 45.7471 12.8821 48.4613 12.8821C49.0566 12.8821 49.0086 12.8342 49.0086 13.4093C49.0086 14.7917 49.0086 16.1715 49.0086 17.5538C49.0086 17.6698 49.0086 17.7859 49.0036 17.9019C48.9985 17.9978 48.9456 18.0532 48.8497 18.0583C48.7009 18.0633 48.5495 18.0659 48.4007 18.0659C45.0054 18.0659 41.6102 18.0659 38.2149 18.0659C38.114 18.0659 38.0156 18.0608 37.9147 18.0659C37.7709 18.076 37.6196 18.0305 37.4833 18.1062C37.4707 18.3055 37.6498 18.3736 37.7558 18.4846C38.3965 19.1379 39.0574 19.7736 39.6905 20.4345C39.915 20.6666 40.1446 20.7649 40.4725 20.7649C43.053 20.7523 45.6335 20.7574 48.2115 20.7574C48.3957 20.7574 48.5773 20.7548 48.7614 20.7574C48.9708 20.7624 48.9985 20.7902 49.0086 20.9819C49.0137 21.0651 49.0086 21.1484 49.0086 21.2316C49.0086 22.6467 49.0086 24.0618 49.0086 25.477C49.0086 25.5779 49.0086 25.6762 49.0011 25.7771C48.9935 25.8705 48.9405 25.9285 48.8447 25.9335C48.7286 25.9386 48.6126 25.9411 48.4966 25.9411C45.1013 25.9411 41.706 25.9386 38.3107 25.9461C38.0257 25.9461 37.8138 25.873 37.6095 25.6662C35.6974 23.7415 33.7778 21.8219 31.8531 19.9098C31.6614 19.7181 31.5757 19.5264 31.5782 19.254C31.5883 17.2738 31.5832 15.2911 31.5832 13.311C31.5832 13.2605 31.5832 13.2101 31.5832 13.1621C31.5958 12.9149 31.6236 12.8872 31.8834 12.8821C32.0675 12.8771 32.2492 12.8821 32.4333 12.8821C35.0643 12.8821 37.6927 12.8821 40.3237 12.8821H40.3212Z" fill="#FABD00"/>
<path d="M31.6437 22.0289C31.8001 22.1777 31.9111 22.2786 32.0145 22.382C33.4851 23.8527 34.9557 25.3258 36.4289 26.7964C36.4869 26.8544 36.5449 26.915 36.608 26.9705C36.7164 27.0663 36.7543 27.1824 36.7517 27.3261C36.7467 27.6591 36.7467 27.9921 36.7517 28.325C36.7543 28.5268 36.7921 28.5647 36.9762 28.5748C37.1251 28.5823 37.2764 28.5773 37.4252 28.5773C41.0879 28.5773 44.7481 28.5773 48.4107 28.5773C49.0741 28.5773 49.0086 28.5142 49.0086 29.1549C49.0086 30.5196 49.006 31.8843 49.0035 33.249C49.0035 33.365 49.0035 33.481 48.9985 33.5971C48.996 33.6954 48.9354 33.7459 48.8421 33.7509C48.726 33.7585 48.61 33.756 48.494 33.756C43.0353 33.756 37.5741 33.756 32.1154 33.756C32.0145 33.756 31.9161 33.756 31.8152 33.756C31.6235 33.7484 31.5957 33.7181 31.5857 33.5163C31.5806 33.4003 31.5831 33.2843 31.5831 33.1657C31.5831 29.6544 31.5831 26.1406 31.5831 22.6292C31.5831 22.4527 31.5529 22.2685 31.6412 22.0264L31.6437 22.0289Z" fill="#FABD00"/>
<path d="M136.033 25.605C135.851 25.605 135.801 25.5091 135.735 25.441C134.191 23.9023 132.65 22.3585 131.101 20.8248C130.922 20.6483 130.836 20.4692 130.844 20.2144C130.862 19.5812 130.852 18.9506 130.847 18.3175C130.847 18.093 130.814 18.0677 130.584 18.0602C130.451 18.0551 130.317 18.0602 130.186 18.0602C128.006 18.0602 125.827 18.0602 123.645 18.0602C123.511 18.0602 123.377 18.0627 123.246 18.0602C123.057 18.0526 123.032 18.0223 123.022 17.8155C123.017 17.7146 123.022 17.6162 123.022 17.5153C123.022 16.1506 123.022 14.786 123.022 13.4213C123.022 12.8209 122.989 12.8764 123.551 12.8764C126.73 12.8764 129.908 12.8764 133.087 12.8764C136.497 12.8764 139.91 12.8764 143.32 12.8764C143.931 12.8764 143.898 12.8058 143.898 13.4289C143.898 14.7935 143.898 16.1582 143.898 17.5229C143.898 17.6566 143.895 17.7903 143.885 17.9214C143.88 17.9946 143.83 18.045 143.759 18.0501C143.61 18.0602 143.462 18.0627 143.31 18.0627C141.146 18.0627 138.984 18.0627 136.82 18.0627C136.719 18.0627 136.621 18.0627 136.52 18.0627C136.008 18.0627 136.033 18.0249 136.033 18.5495C136.033 20.7138 136.033 22.8756 136.033 25.0399V25.61V25.605Z" fill="#FABD00"/>
<path d="M130.852 28.3246C130.852 26.7253 130.852 25.1286 130.852 23.5293C130.852 23.3956 130.852 23.2619 130.859 23.1308C130.859 23.1055 130.884 23.0677 130.907 23.0576C130.932 23.0475 130.978 23.0475 130.998 23.0652C131.086 23.1408 131.167 23.2241 131.25 23.3073C132.746 24.8032 134.242 26.299 135.735 27.7923C135.793 27.8503 135.854 27.9109 135.912 27.9664C136 28.0521 136.043 28.153 136.035 28.2792C136.03 28.3624 136.035 28.4457 136.035 28.5289C136.035 30.0954 136.035 31.6593 136.035 33.2258C136.035 33.3267 136.035 33.4251 136.035 33.526C136.028 33.7202 136.003 33.7429 135.793 33.753C135.677 33.758 135.561 33.753 135.443 33.753C134.111 33.753 132.779 33.753 131.447 33.753C131.313 33.753 131.179 33.753 131.048 33.7505C130.932 33.7479 130.862 33.695 130.859 33.5714C130.859 33.4377 130.857 33.304 130.857 33.1728C130.857 31.5584 130.857 29.9415 130.857 28.3271L130.852 28.3246Z" fill="#FABD00"/>
<path d="M24.0728 18.5818C25.8133 16.5159 26.5272 14.1371 26.0984 11.4734C25.6696 8.80962 24.262 6.76135 21.9463 5.36136C20.5615 4.52389 19.048 4.143 17.426 4.14552C11.9825 4.15309 6.53892 4.14804 1.09537 4.14804C1.01212 4.14804 0.928884 4.14804 0.845642 4.14804C0.575735 4.15813 0.555546 4.17075 0.553023 4.42804C0.547978 4.87704 0.553023 5.32605 0.553023 5.77758C0.553023 9.17286 0.553023 12.5707 0.553023 15.9659C0.553023 16.2207 0.57826 16.4326 0.785104 16.6369C3.06544 18.8996 5.33569 21.1749 7.60846 23.4452C7.67405 23.5107 7.72449 23.6116 7.87332 23.6016C7.93386 23.4174 7.88845 23.2181 7.91367 23.0264C7.92629 22.9331 7.97926 22.8776 8.07512 22.8726C8.15836 22.87 8.2416 22.8675 8.32484 22.8675C10.7893 22.8675 13.2513 22.8675 15.7158 22.8675C15.9176 22.8675 16.1143 22.8877 16.3086 22.9306C17.3276 23.1525 18.0642 24.0077 18.092 25.0596C18.1222 26.2552 17.3176 27.017 16.5381 27.2667C16.2631 27.355 15.9832 27.3676 15.7006 27.3676C13.269 27.3676 10.8398 27.3676 8.40809 27.3676C8.29205 27.3676 8.17602 27.3676 8.05746 27.3626C7.98683 27.3601 7.91872 27.3248 7.9162 27.2516C7.90611 27.0221 7.73459 26.9035 7.59585 26.7648C6.65496 25.8214 5.71154 24.8805 4.77065 23.9396C3.51192 22.6808 2.25068 21.4196 0.991951 20.1609C0.898619 20.0675 0.805285 19.9717 0.706908 19.8809C0.686728 19.8632 0.648881 19.8582 0.618611 19.8582C0.578251 19.8582 0.563123 19.8834 0.563123 19.9263C0.563123 20.06 0.555548 20.1911 0.555548 20.3248C0.555548 24.6206 0.555548 28.9139 0.555548 33.2098C0.555548 33.3107 0.555548 33.409 0.555548 33.5099C0.563116 33.7168 0.588347 33.7445 0.78258 33.7521C0.883479 33.7571 0.981858 33.7521 1.08276 33.7521C6.5591 33.7521 12.0355 33.7521 17.5143 33.7521C18.15 33.7521 18.7756 33.684 19.3961 33.5478C23.137 32.733 26.1337 29.4411 26.2144 25.1983C26.2573 22.9785 25.5258 21.0185 24.0854 19.3259C23.7071 18.882 23.7171 19.0005 24.0753 18.5767L24.0728 18.5818ZM16.137 15.2773C15.9403 15.3025 15.7385 15.3101 15.5392 15.3101C13.7936 15.3126 12.0455 15.3051 10.3 15.3177C9.99222 15.3177 9.76771 15.2395 9.55582 15.0124C9.10177 14.5281 8.62503 14.0615 8.14828 13.5973C7.98432 13.4359 7.89349 13.2719 7.89854 13.0323C7.91115 12.384 7.89855 11.7357 7.90611 11.0874C7.90611 10.8377 7.94647 10.8049 8.19872 10.7999C8.58214 10.7948 8.96305 10.7999 9.34647 10.7999C10.2445 10.7999 11.1425 10.7999 12.0405 10.7999C13.221 10.7999 14.4015 10.7999 15.5821 10.7999C15.7814 10.7999 15.9832 10.8074 16.1774 10.8377C17.2747 10.9991 18.097 11.9501 18.0995 13.0499C18.0995 14.1674 17.252 15.1335 16.1345 15.2748L16.137 15.2773Z" fill="#FABD00"/>
<path d="M96.3628 22.957C96.5545 23.0226 96.6277 23.1361 96.7185 23.2269C98.2244 24.7303 99.7253 26.2363 101.236 27.7346C101.441 27.9364 101.531 28.1433 101.529 28.4334C101.516 30.0453 101.524 31.6597 101.524 33.2715C101.524 33.3548 101.524 33.438 101.521 33.5213C101.511 33.7104 101.476 33.7407 101.277 33.7483C101.178 33.7533 101.077 33.7483 100.976 33.7483C99.6143 33.7483 98.2496 33.7483 96.8875 33.7483C96.7538 33.7483 96.6226 33.7483 96.4889 33.7407C96.4158 33.7382 96.3628 33.7004 96.3578 33.6222C96.3502 33.5238 96.3477 33.4229 96.3477 33.3245C96.3477 29.9822 96.3477 26.6424 96.3477 23.3001C96.3477 23.2017 96.3577 23.1033 96.3653 22.9596L96.3628 22.957Z" fill="#FABD00"/>
<path d="M117.024 33.1404C116.86 32.9739 116.694 32.8125 116.527 32.6485C116.348 32.4744 116.172 32.2979 115.993 32.1238C115.826 31.9598 115.662 31.7959 115.496 31.6319C115.317 31.4579 115.14 31.2838 114.961 31.1072C114.782 30.9332 114.605 30.7566 114.429 30.58C114.262 30.4161 114.096 30.2546 113.929 30.0907C113.75 29.9166 113.574 29.74 113.394 29.566C113.228 29.402 113.064 29.2381 112.898 29.0766C112.718 28.9026 112.539 28.7285 112.363 28.5545C112.184 28.3804 112.007 28.2038 111.831 28.0273C111.664 27.8633 111.498 27.7019 111.331 27.5379C111.152 27.3639 110.975 27.1873 110.796 27.0132C110.63 26.8493 110.461 26.6903 110.299 26.5239C110.13 26.3498 109.936 26.1934 109.782 25.9891C109.878 25.9058 109.961 25.921 110.04 25.9134C110.355 25.8831 110.673 25.8756 110.983 25.815C113.094 25.4039 114.653 24.2435 115.65 22.3365C116.227 21.2317 116.409 20.036 116.374 18.805C116.323 16.9308 115.546 15.3996 114.103 14.2166C112.993 13.306 111.702 12.8721 110.272 12.8696C105.794 12.862 101.317 12.8696 96.8393 12.8696C96.7737 12.8696 96.7056 12.8696 96.64 12.8696C96.3752 12.8771 96.3575 12.8948 96.3449 13.1496C96.3449 13.2 96.3449 13.2505 96.3449 13.2984C96.3449 15.5787 96.3474 17.8591 96.3398 20.1394C96.3398 20.3891 96.3852 20.5935 96.5896 20.7549C96.7056 20.8482 96.804 20.9643 96.9099 21.0702C99.3265 23.4792 101.743 25.8882 104.16 28.2947C105.893 30.0226 107.628 31.748 109.356 33.4784C109.527 33.6499 109.694 33.7559 109.959 33.7533C112.406 33.7407 114.852 33.7458 117.299 33.7433C117.375 33.7433 117.468 33.776 117.531 33.655C117.393 33.4607 117.198 33.3094 117.029 33.1353L117.024 33.1404ZM109.22 20.7423C107.689 20.7423 106.16 20.7423 104.629 20.7423C104.475 20.7423 104.341 20.7221 104.223 20.6036C103.509 19.8821 102.79 19.1657 102.073 18.4493C102.038 18.414 102.01 18.3737 102.031 18.3207C102.053 18.2576 102.111 18.2702 102.157 18.2702C102.422 18.2677 102.689 18.2702 102.954 18.2702C104.117 18.2702 105.282 18.2702 106.445 18.2702C107.742 18.2702 109.038 18.2702 110.337 18.2702C110.453 18.2702 110.569 18.2677 110.685 18.2702C110.89 18.2778 110.91 18.298 110.97 18.4796C111.255 19.3499 110.743 20.3463 109.853 20.6414C109.649 20.7095 109.434 20.7448 109.215 20.7423H109.22Z" fill="#FABD00"/>
<path fill-rule="evenodd" clip-rule="evenodd" d="M55.5396 23.4979C55.2689 20.949 58.4631 18.3501 60.5547 16.9326C60.1873 17.818 59.9325 18.7951 59.9332 19.802C59.9357 22.1303 61.25 23.4824 63.6161 24.8546C65.725 26.0777 69.1144 26.385 69.8263 26.4373C72.0836 26.702 74.3164 26.6301 76.05 26.4442C77.6611 26.2658 78.8098 25.8493 79.6245 25.3805C78.7162 29.4732 74.7246 33.1718 71.095 33.408C69.6056 33.4825 67.9317 33.0597 65.8213 32.0416C60.8343 29.6326 55.9306 27.1681 55.5396 23.4979Z" fill="#FABD00"/>
<path fill-rule="evenodd" clip-rule="evenodd" d="M71.6876 13.1994C72.8371 12.0073 73.6731 11.4086 75.0376 11.1023C77.7659 10.4914 80.7327 12.1618 84.8225 16.1344C83.5324 13.8246 77.5279 4.0828 76.5207 2.71077C75.4284 1.22754 74.5884 0.385026 72.9639 0.412774C71.4883 0.437999 70.5474 1.17961 67.0108 6.57524C67.0108 6.57524 67.0058 6.58533 66.9932 6.60551C66.9898 6.60887 66.9865 6.61448 66.9831 6.62008L66.9781 6.62821C66.973 6.6383 66.9654 6.65344 66.9553 6.66605L66.946 6.68117C66.9403 6.69027 66.9339 6.70037 66.9276 6.71145C66.9233 6.71787 66.919 6.7252 66.9146 6.73286L66.9146 6.73287L66.9146 6.73288C66.9085 6.74327 66.9021 6.75427 66.8948 6.76443L66.8696 6.80479C66.8696 6.80815 66.8673 6.81152 66.8651 6.81488C66.8645 6.81578 66.8639 6.81667 66.8633 6.81757C66.8629 6.81835 66.8624 6.81914 66.862 6.81992L66.857 6.82497C66.8544 6.83253 66.8494 6.8401 66.8444 6.84767C66.8051 6.9119 66.7593 6.98662 66.7075 7.07109C66.6026 7.24205 66.4733 7.45295 66.3247 7.69775C66.3074 7.72667 66.2893 7.75596 66.2709 7.78576L66.2709 7.78577C66.2411 7.83394 66.2105 7.88344 66.1809 7.93486C65.7672 8.61594 65.235 9.49377 64.6674 10.4523C64.6498 10.4826 64.6321 10.5122 64.6145 10.5419C64.5968 10.5715 64.5791 10.6012 64.5615 10.6314L64.5371 10.6728C64.3177 11.0458 64.0916 11.4302 63.8678 11.817C63.8502 11.8472 63.8325 11.8781 63.8149 11.909L63.8148 11.9091L63.8148 11.9092C63.7971 11.9401 63.7795 11.9709 63.7619 12.0011C63.2321 12.9218 62.7075 13.8501 62.2534 14.6977C62.1323 14.9247 62.0163 15.1442 61.9078 15.3561C61.821 15.5218 61.7404 15.6829 61.6623 15.8394C61.1373 16.9598 60.6671 18.1916 60.6118 19.0999C60.5856 19.5879 60.5919 20.2005 60.8516 20.9043C61.0786 21.4976 61.5053 22.2159 62.3075 22.9812C62.514 23.1767 62.745 23.3756 63.0031 23.5773C63.874 24.2581 64.852 24.6742 65.6609 24.9356C65.6032 24.4822 65.4069 22.4901 66.1961 21.1074C66.2902 20.9429 66.3974 20.7512 66.5174 20.5366L66.5175 20.5365C67.4678 18.8374 69.2229 15.6992 71.6876 13.1994Z" fill="#FABD00"/>
<path fill-rule="evenodd" clip-rule="evenodd" d="M73.2109 12.4727C73.4524 12.599 73.822 12.859 74.3489 13.3921C75.174 14.2292 76.9348 16.1337 78.4713 18.5935L78.4492 18.5576C80.0157 20.7067 80.7245 22.311 80.6892 24.6544C80.6358 28.1941 77.1567 31.9388 73.9248 33.4241C76.0438 33.7745 77.1121 33.3633 77.7921 33.1016C77.8294 33.0872 77.8656 33.0733 77.9006 33.06C85.3939 30.0256 87.5238 27.583 88.4181 26.5574L88.4181 26.5574C88.4598 26.5096 88.4988 26.4649 88.5355 26.4233C89.4663 25.3714 89.8144 24.597 89.8119 23.4392C89.8093 22.0947 89.4184 21.3682 88.9012 20.6165C88.2334 19.6994 87.2609 18.6492 86.1913 17.6075C80.3454 12.5509 77.4775 10.8158 74.6549 11.7374C74.0871 11.9231 73.6081 12.1947 73.2109 12.4727Z" fill="#FABD00"/>
</svg>
