<svg width="186" height="70" viewBox="0 0 186 70" fill="none" xmlns="http://www.w3.org/2000/svg">
<g id="Group 1597883467">
<g id="Group 1321316456">
<g id="Group 1321316230">
<path id="Vector" fill-rule="evenodd" clip-rule="evenodd" d="M57.2946 33.9464C57.8977 33.6052 58.3809 33.1802 58.7326 32.6792C59.1334 32.1088 59.3371 31.4573 59.3371 30.7437C59.3371 29.408 58.8358 28.3654 57.8482 27.6444C56.8724 26.9318 55.5296 26.5708 53.8561 26.5708H47.8047V42.0434H54.0979C55.8603 42.0434 57.2715 41.6352 58.2918 40.8293C59.3202 40.0168 59.8424 38.8787 59.8424 37.4465C59.8424 36.5745 59.5969 35.8242 59.1132 35.217C58.6793 34.6741 58.0686 34.2471 57.2951 33.9464H57.2946ZM51.0796 29.3594H53.5928C54.3812 29.3594 54.9764 29.5117 55.363 29.8112C55.745 30.1068 55.9304 30.4954 55.9304 30.9984C55.9304 31.5015 55.745 31.9098 55.363 32.2067C54.9764 32.5062 54.3812 32.6583 53.5928 32.6583H51.0796V29.3594ZM55.8111 38.7304C55.3755 39.0783 54.7102 39.2543 53.8343 39.2543H51.0796V35.4679H53.8343C54.7098 35.4679 55.376 35.638 55.8133 35.9721C56.2469 36.3055 56.4577 36.7455 56.4577 37.3189C56.4577 37.9219 56.2461 38.3836 55.8111 38.7307V38.7304Z" fill="white"/>
<path id="Vector_2" d="M64.2635 30.4746H60.9668V42.0439H64.2635V30.4746Z" fill="white"/>
<path id="Vector_3" fill-rule="evenodd" clip-rule="evenodd" d="M96.8263 32.2153C96.3046 31.5964 95.6506 31.1111 94.8825 30.7728C94.1152 30.4349 93.2522 30.2627 92.3187 30.2627C91.1744 30.2627 90.1423 30.5215 89.2499 31.0317C88.3556 31.5436 87.6457 32.2545 87.1396 33.1462C86.6334 34.0369 86.377 35.0708 86.377 36.218C86.377 37.365 86.6258 38.4671 87.1164 39.3717C87.6084 40.2792 88.3157 40.991 89.2181 41.489C90.1189 41.9842 91.177 42.2355 92.3628 42.2355C93.8185 42.2355 95.0541 41.8709 96.0363 41.1512C96.9824 40.4585 97.633 39.4817 97.9873 38.2588H94.6684C94.4938 38.675 94.2479 39.0292 93.8957 39.2787C93.4793 39.5733 92.9415 39.7225 92.2969 39.7225C91.7378 39.7225 91.2588 39.5871 90.8731 39.3202C90.4857 39.0534 90.1897 38.659 89.9954 38.1467C89.8787 37.8423 89.7961 37.4923 89.7474 37.1029H98.0452L98.0615 36.9999C98.2097 36.067 98.1723 35.1829 97.949 34.3723C97.7253 33.5598 97.3476 32.8342 96.8263 32.2153ZM89.7999 34.9608C89.8507 34.7253 89.919 34.4802 90.006 34.257C90.2082 33.738 90.5004 33.3386 90.8748 33.0717C91.2476 32.8049 91.7113 32.6702 92.2537 32.6702C92.9332 32.6702 93.4911 32.8899 93.9116 33.3219C94.3104 33.7329 94.5366 34.2947 94.5849 34.9608H89.7999Z" fill="white"/>
<path id="Vector_4" d="M64.3347 26.5718H60.9004V29.3604H64.3347V26.5718Z" fill="white"/>
<path id="Vector_5" fill-rule="evenodd" clip-rule="evenodd" d="M82.3851 31.7879C81.9952 31.3212 81.5381 30.9594 81.0227 30.7092C80.4073 30.4128 79.6874 30.2627 78.8828 30.2627C77.8978 30.2627 77.0146 30.5047 76.2591 30.9815C75.5043 31.4579 74.9058 32.1312 74.4806 32.9814C74.0571 33.8295 73.8418 34.8253 73.8418 35.9423C73.8418 37.0594 74.068 37.9966 74.5147 38.8505C74.9621 39.7075 75.5824 40.39 76.3581 40.8802C77.1354 41.3715 78.022 41.6208 78.9932 41.6208C79.7265 41.6208 80.3963 41.4627 80.9832 41.1503C81.4478 40.9032 81.8369 40.576 82.1438 40.1768V41.4364C82.1438 42.2172 81.9377 42.8165 81.5326 43.2159C81.1264 43.6153 80.5085 43.8167 79.6958 43.8167C78.9958 43.8167 78.4451 43.6588 78.0596 43.3463C77.7444 43.0908 77.4691 42.7554 77.405 42.0453H74.2267C74.256 43.039 74.549 43.7085 74.9625 44.2953C75.4262 44.9527 76.0786 45.4666 76.9029 45.8217C77.7193 46.1726 78.6666 46.3507 79.7181 46.3507C81.483 46.3507 82.8884 45.9086 83.8936 45.038C84.9052 44.1622 85.4181 42.936 85.4181 41.3941V30.4751H82.3851V31.7879ZM81.8046 37.4792C81.5956 37.9092 81.3005 38.2463 80.9265 38.4796C80.553 38.7129 80.1021 38.8318 79.5859 38.8318C78.8396 38.8318 78.2595 38.5787 77.8112 38.0577C77.3647 37.5394 77.1383 36.8277 77.1383 35.9419C77.1383 35.0561 77.3647 34.3444 77.8112 33.8254C78.2537 33.3114 78.8509 33.0513 79.5859 33.0513C80.3209 33.0513 80.9702 33.3152 81.4269 33.8371C81.8877 34.3632 82.1216 35.0788 82.1216 35.9624C82.1216 36.5349 82.0149 37.0447 81.8046 37.4789V37.4792Z" fill="white"/>
<path id="Vector_6" d="M106.042 33.2418V30.475H103.663V26.5718H100.388V30.475H98.3555V33.2418H100.388V37.7711C100.388 40.2892 100.886 42.1398 103.989 42.0824L105.937 42.0443V39.4502H104.97C103.662 39.4502 103.664 38.729 103.667 37.3846V37.3805C103.667 37.3091 103.668 37.2358 103.668 37.1609L103.662 33.2418H106.042Z" fill="white"/>
<path id="Vector_7" d="M73.0422 33.2418V30.475H70.6626V26.5718H67.3879V30.475H65.3555V33.2418H67.3879V37.7711C67.3879 40.2892 67.8856 42.1398 70.9889 42.0824L72.9368 42.0443V39.4502H71.9701C70.6617 39.4502 70.6636 38.729 70.6673 37.3846V37.3805C70.6676 37.3091 70.6677 37.2358 70.6677 37.1609L70.6623 33.2418H73.0422Z" fill="white"/>
<path id="Vector_8" d="M145.664 26.5718H142.367V42.0436H145.664V26.5718Z" fill="white"/>
<path id="Vector_9" fill-rule="evenodd" clip-rule="evenodd" d="M120.852 33.2186L123.225 42.047H127.242L131.572 26.5752H127.786L125.46 36.6293L125.255 37.6037L125.05 36.6266L122.383 26.5752H119.163L116.475 36.6264L116.269 37.6037L116.064 36.6293L113.738 26.5752H109.764L114.093 42.047H118.153L120.504 33.2195L120.683 32.4161L120.852 33.2186ZM125.256 38.4671L125.256 38.4683L125.635 36.6676L127.929 26.7528L127.928 26.7526L125.634 36.6676L125.256 38.4671ZM123.362 41.8696L121.026 33.1774L120.689 31.5767L120.689 31.5778L121.026 33.1773L123.361 41.8696H123.362ZM119.3 26.7528L116.649 36.6676L116.27 38.4683L116.27 38.4671L116.648 36.6676L119.3 26.7526L119.3 26.7528ZM109.999 26.7528L114.228 41.8696H114.228L109.998 26.7526L109.999 26.7528Z" fill="white"/>
<path id="Vector_10" fill-rule="evenodd" clip-rule="evenodd" d="M130.594 34.3515H133.91C134.062 33.4708 134.668 32.8627 135.796 32.8627C137.074 32.8627 137.703 33.5127 137.703 34.7499V35.0014C135.904 35.0225 134.452 35.1693 132.934 35.6514C131.092 36.2805 130.182 37.4548 130.182 38.9855C130.182 41.1452 131.829 42.2355 134.04 42.2355C135.427 42.2355 136.814 41.7113 137.725 40.4952C137.746 41.0403 137.811 41.5226 137.92 41.9001H141.344C141.149 41.3129 141.019 40.5581 141.019 39.0902V34.7709C141.019 32.1498 139.285 30.2627 135.947 30.2627C132.956 30.2627 130.94 31.8142 130.594 34.3515ZM135.059 40.0128C134.083 40.0128 133.498 39.5307 133.498 38.7758C133.498 37.7273 134.343 36.9306 137.703 36.8677V37.308C137.703 38.8597 136.533 40.0128 135.059 40.0128Z" fill="white"/>
<path id="Vector_11" d="M150.31 26.5718H147.014V42.0436H150.31V26.5718Z" fill="white"/>
<path id="Vector_12" fill-rule="evenodd" clip-rule="evenodd" d="M161.781 32.2153C161.259 31.5964 160.606 31.1111 159.838 30.7728C159.07 30.4349 158.208 30.2627 157.274 30.2627C156.129 30.2627 155.098 30.5215 154.205 31.0317C153.31 31.5436 152.6 32.2545 152.094 33.1462C151.588 34.0369 151.332 35.0708 151.332 36.218C151.332 37.365 151.581 38.4671 152.071 39.3717C152.564 40.2792 153.271 40.991 154.173 41.489C155.075 41.9842 156.132 42.2355 157.317 42.2355C158.773 42.2355 160.01 41.8709 160.992 41.1512C161.937 40.4585 162.589 39.4817 162.942 38.2588H159.623C159.448 38.675 159.202 39.0292 158.85 39.2787C158.434 39.5733 157.896 39.7225 157.252 39.7225C156.693 39.7225 156.213 39.5871 155.828 39.3202C155.441 39.0534 155.144 38.659 154.951 38.1467C154.833 37.8423 154.752 37.4923 154.702 37.1029H163L163.016 36.9999C163.165 36.067 163.127 35.1829 162.904 34.3723C162.68 33.5598 162.302 32.8342 161.781 32.2153ZM154.755 34.9608C154.805 34.7253 154.874 34.4802 154.961 34.257C155.163 33.738 155.456 33.3386 155.829 33.0717C156.203 32.8049 156.666 32.6702 157.208 32.6702C157.888 32.6702 158.446 32.8899 158.866 33.3219C159.265 33.7329 159.492 34.2947 159.54 34.9608H154.755Z" fill="white"/>
<path id="Vector_13" d="M171.002 33.2418V30.475H168.622V26.5718H165.348V30.475H163.314V33.2418H165.348V37.7711C165.348 40.2892 165.845 42.1398 168.948 42.0824L170.897 42.0443V39.4502H169.93C168.621 39.4502 168.623 38.729 168.626 37.3846V37.3805V37.3536V37.3398V37.253C168.628 37.2226 168.628 37.1919 168.628 37.1609L168.622 33.2418H171.002Z" fill="white"/>
</g>
<g id="Group 1321316229">
<rect id="Rectangle 34624375" x="15" y="21" width="27.3642" height="27.3642" rx="4" fill="white"/>
<g id="Group 1597883464">
<path id="Vector_14" d="M25.0892 37.5528H30.1643L24.3912 31.7636L30.2385 25.9743L31.8311 24.4316H26.5633L19.8544 31.1502C19.5159 31.4889 19.5176 32.0369 19.8579 32.3737L25.0892 37.5528Z" fill="black"/>
<path id="Vector_15" d="M28.1009 31.7768H28.1399L33.9126 37.5656L28.0653 43.3549L26.4727 44.8975H31.7405L38.4494 38.1793C38.7879 37.8407 38.7862 37.2927 38.4459 36.9558L33.2146 31.7768H28.1399L28.1395 31.7764L28.1009 31.7768Z" fill="black"/>
</g>
</g>
</g>
</g>
</svg>
