<svg xmlns="http://www.w3.org/2000/svg" width="611" height="755" fill="none"><g filter="url(#a)"><rect width="419.963" height="623.487" x="197.215" y="35.279" fill="#202020" rx="29" transform="rotate(15 197.215 35.279)"/><rect width="419.963" height="623.487" x="197.215" y="35.279" stroke="url(#b)" stroke-width="2" rx="29" transform="rotate(15 197.215 35.279)"/><rect width="419.963" height="623.487" x="197.215" y="35.279" stroke="url(#c)" stroke-width="2" rx="29" transform="rotate(15 197.215 35.279)"/><path fill="#FABD00" fill-rule="evenodd" d="m378.962 128.722-31.137 10.628-31.178 10.694-.069.024-.063.044a150.98 150.98 0 0 0-6.113 4.45 182.811 182.811 0 0 0-5.915 4.696 183.671 183.671 0 0 0-11.248 10.094l-2.703 2.602-2.731 2.584-5.486 5.15-11.019 10.253-22.101 20.448-33.211 30.604-2.772 2.543-.693.633-.347.315-.086.08-.1.095-.196.189a13.771 13.771 0 0 0-1.367 1.6 25.076 25.076 0 0 0-2.064 3.417 45.006 45.006 0 0 0-1.609 3.542c-.97 2.385-1.775 4.812-2.497 7.256a114.454 114.454 0 0 0-1.899 7.388l-.804 3.68-.2.905-.216.912-.435 1.824a768.22 768.22 0 0 1-1.801 7.297c-2.441 9.726-4.959 19.443-7.476 29.158l-.001.003a9027.706 9027.706 0 0 1-7.591 29.026l-.021.054-.064.172-.111.324c-.047.137-.085.271-.124.404-.022.076-.044.152-.068.229-.112.419-.217.835-.299 1.252-.065.284-.109.567-.154.85a30.6 30.6 0 0 1-.065.403l-.021.168c-.044.36-.089.722-.121 1.083a25.243 25.243 0 0 0 .061 4.987c.019.288.063.572.106.855l.001.003c.018.124.038.248.054.373l.084.603c.019.131.047.26.074.388.015.073.031.146.044.22l.251 1.212.317 1.19.161.595.192.583.386 1.166.718 2.138c.908 2.875 1.649 5.85 2.33 8.835.259 1.093.487 2.196.716 3.298l.25 1.198.65 3.393.596 3.404.544 3.414.494 3.422c.401 3.044.777 6.094 1.05 9.15.301 3.053.482 6.11.63 9.166l.093 3.393.017.371.022.386c.005.102.015.179.024.254v.001l.01.084.04.311.081.624.094.592.016.102c.056.361.113.722.176 1.074.135.775.27 1.548.416 2.315 1.152 6.133 2.433 12.194 3.718 18.265a2906.62 2906.62 0 0 0 3.934 18.18 5339.973 5339.973 0 0 0 8.118 36.294l.056.249.114.226a358.042 358.042 0 0 0 5.221 9.881 313.307 313.307 0 0 0 5.53 9.716c1.914 3.206 3.887 6.384 6.036 9.489 1.075 1.552 2.19 3.087 3.406 4.585l.935 1.117c.328.367.657.733.995 1.097l1.03 1.041c.308.308.617.615.927.944.75.784 1.499 1.599 2.258 2.425l.004.004c.493.537.99 1.078 1.494 1.617a103.387 103.387 0 0 0 3.963 4.05 72.667 72.667 0 0 0 4.292 3.797c.244.197.493.389.741.581l.393.305.57.441.584.422.389.281c.26.187.519.375.782.559l1.201.799.056.037.039.026.105.071.002.001c.133.089.265.178.401.262l.617.374 1.236.748 1.265.698.633.349.647.324 1.296.642c.289.141.585.27.881.399l.438.192c.162.069.322.14.483.212l.004.002c.279.124.558.247.841.357l1.349.52a56.557 56.557 0 0 0 11.134 2.921c3.786.6 7.607.836 11.408.8 3.801-.04 7.591-.308 11.329-.85l.142-.018.272-.035c.331-.042.662-.085.992-.133l1.403-.236 2.105-.358c.232-.039.465-.074.71-.138l1.452-.344 1.417-.403a41.83 41.83 0 0 0 2.768-.959c3.456-1.329 6.638-3.079 9.717-4.771l.485-.267c1.619-.889 3.216-1.756 4.829-2.551.276-.141.555-.272.834-.404h.002l.135-.064.24-.114.62-.298.732-.374c.064-.032.122-.064.178-.096l.115-.067.05-.03.326-.195.241-.143.09-.053.112-.067c.07-.042.138-.084.203-.127l.41-.267.006-.004a38.214 38.214 0 0 0 .804-.531c1.595-1.083 3.09-2.217 4.58-3.362a211.214 211.214 0 0 0 4.388-3.493c5.768-4.725 11.353-9.622 16.878-14.586a746.697 746.697 0 0 0 16.326-15.154c5.359-5.141 10.655-10.35 15.802-15.738 4.895-5.159 9.714-10.347 14.539-15.541l.652-.702 15.094-16.305c2.844-3.073 5.686-6.149 8.527-9.225l.017-.018c7.201-7.795 14.401-15.589 21.645-23.332a845.12 845.12 0 0 1 7.612-8.053c.462-.489.927-.962 1.393-1.435l.264-.269.263-.269.962-.98.943-.901.158-.151c.072-.07.144-.14.217-.208l.1-.091.506-.422c.242-.211.504-.418.766-.626l.002-.001.001-.001.003-.002.152-.121.116-.092 1.096-.863.617-.506c.172-.14.344-.282.516-.443l.567-.514.085-.081.079-.079.073-.074.12-.127.008-.008.001-.002.001-.001.098-.103.083-.086.271-.286.136-.144.125-.157.498-.625c.164-.194.298-.406.433-.618l.452-.707c.185-.322.349-.651.514-.98l.208-.411c.852-1.887 1.323-3.803 1.728-5.698.723-3.791 1.01-7.546 1.221-11.287l.007-.127-.008-.091-.231-2.283-.298-2.238-.652-4.404c-.161-1.048-.305-2.09-.449-3.132l-.001-.004-.001-.008-.001-.007-.003-.021-.002-.019-.1-.717-.065-.465-.403-3.276-.111-1.094c-.617-5.828-.9-11.691-.899-17.562l.043-4.406.169-4.408c.033-1.202.115-2.402.196-3.602v-.001l.001-.009.053-.793.147-2.203c.016-.217.03-.433.044-.65v-.002c.033-.516.066-1.032.122-1.548l.414-4.4.212-2.199.797-6.585.134-1.097 1.121-7.702.08-.551c.027-.184.036-.378.055-.567l.099-1.139.02-.241.008-.091c.016-.18.031-.361.045-.541l.02-.262.071-1.123c.05-.749.097-1.497.117-2.248l.042-1.126c.017-.376.027-.752.026-1.128l.014-2.256-.055-2.256a21.235 21.235 0 0 0-.05-1.127l-.135-2.254-.106-1.122c-.026-.257-.05-.515-.073-.772-.045-.492-.089-.984-.154-1.473l-.294-2.237c-.45-2.974-.995-5.932-1.728-8.838-1.422-5.827-3.329-11.509-5.543-17.047l-1.716-4.129a73.585 73.585 0 0 1-1.601-4.067c-.983-2.742-1.833-5.55-2.406-8.374a28.077 28.077 0 0 1-.35-2.112c-.035-.226-.054-.449-.073-.671a8.727 8.727 0 0 0-.013-.154l-.01-.111-.01-.107c-.009-.114-.012-.227-.015-.34l-.005-.17-.001-.032-.002-.05-.002-.039a3.188 3.188 0 0 1 .001-.379l.021-.487.003-.077.003-.046c.01-.193.021-.399.003-.58-.016-.462-.1-.881-.192-1.29a13.69 13.69 0 0 0-.801-2.27c-.64-1.426-1.407-2.741-2.224-4.016a52.472 52.472 0 0 0-2.618-3.697l-.089-.113-.046-.056-.058-.071-.178-.213-.348-.42-.69-.854a142.002 142.002 0 0 1-3.998-5.272 162.41 162.41 0 0 1-4.983-7.29c-3.189-4.95-6.107-10.077-8.657-15.382a107.245 107.245 0 0 1-3.495-8.1 87.118 87.118 0 0 1-2.751-8.371 116.32 116.32 0 0 1-.564-2.119c-.188-.725-.376-1.454-.578-2.173a160.75 160.75 0 0 0-1.232-4.284 124.74 124.74 0 0 0-2.874-8.44c-2.132-5.545-4.715-10.956-8.073-15.882-1.679-2.459-3.57-4.779-5.687-6.874-2.115-2.094-4.465-3.956-7.023-5.475a32.665 32.665 0 0 0-8.179-3.468c-2.867-.77-5.83-1.14-8.787-1.191Zm0 0-30.988 11.232-30.879 11.142a153.453 153.453 0 0 0-5.928 4.461 194.345 194.345 0 0 0-5.804 4.753 182.307 182.307 0 0 0-11.026 10.154l-2.686 2.652-2.704 2.623-5.424 5.227-10.89 10.4a6380.271 6380.271 0 0 1-21.862 20.71l-21.923 20.648-10.983 10.301-2.752 2.574-.691.642-.346.323-.086.08-.07.07-.141.138c-.372.379-.728.808-1.062 1.271a22.2 22.2 0 0 0-1.792 3.041c-.148.297-.293.598-.434.901 2.076.297 4.154.556 6.234.785 2.158.236 4.319.455 6.482.61 2.161.155 4.327.255 6.479.229 1.072-.017 2.148-.07 3.181-.224.515-.077 1.026-.183 1.475-.35.222-.082.435-.182.587-.296.156-.116.23-.229.247-.311l.018-.087.066-.099c1.297-1.929 2.903-3.585 4.609-5.09 1.711-1.505 3.524-2.876 5.388-4.158 3.735-2.56 7.668-4.8 11.703-6.819a127.543 127.543 0 0 1 12.412-5.415 80.195 80.195 0 0 1 6.472-2.115 45.308 45.308 0 0 1 3.355-.802c.57-.111 1.146-.21 1.739-.281a13.82 13.82 0 0 1 1.842-.115 6.3 6.3 0 0 1 1.025.091l.136.025a.954.954 0 0 1 .122.025l.211.048.424.1c.561.138 1.118.282 1.667.438 1.101.308 2.181.645 3.251.982l.689.218c.837.265 1.669.528 2.496.773 1.051.311 2.101.594 3.121.787.508.099 1.01.168 1.481.186.464.019.91-.01 1.21-.114.031-.012.062-.022.095-.032l.015-.004.026-.01a.27.27 0 0 0 .029-.016c.011-.006.023-.013.036-.018.042-.015.072-.037.1-.057.017-.012.033-.024.052-.034a.093.093 0 0 0 .034-.031l.013-.014.003-.003.006-.005c.008-.009.013-.012.019-.017a.861.861 0 0 0 .094-.086c.149-.143.314-.3.451-.393.576-.435 1.103-.721 1.64-.996 1.066-.544 2.127-.986 3.193-1.407a82.441 82.441 0 0 1 3.207-1.172c4.291-1.464 8.63-2.691 13.006-3.781a157.694 157.694 0 0 1 6.612-1.466c1.109-.217 2.221-.429 3.34-.614l.418-.072.37-.078c.092-.021.184-.039.276-.058.155-.03.31-.061.462-.105l.729-.218c.156-.044.309-.104.461-.165.085-.034.171-.068.257-.099l.358-.137a8.58 8.58 0 0 0 .218-.1l.132-.062.104-.05.078-.036.064-.03c.151-.07.303-.14.45-.217l.283-.157c.358-.198.718-.396 1.062-.63.324-.195.633-.42.942-.645.116-.084.231-.168.348-.251l.617-.496.309-.25.298-.265c1.599-1.401 3.024-3.032 4.321-4.767a45.454 45.454 0 0 0 3.504-5.507 45.983 45.983 0 0 0 1.465-2.93c.454-.992.877-1.997 1.249-3.015.371-1.012.702-2.05.906-3.038.02-.082.031-.157.043-.232l.011-.075.009-.05.028-.179.051-.272c.051-.308.129-.554.208-.801v-.002c.019-.059.039-.119.057-.18.074-.21.153-.411.231-.611l.098-.248.359-.809c1.002-2.1 2.126-4.053 3.284-5.992 1.941-3.24 3.952-6.415 5.962-9.587l.002-.004c.388-.613.777-1.226 1.164-1.84l1.865-2.947.001-.002.003-.004a902.434 902.434 0 0 0 5.285-8.412 303.763 303.763 0 0 0 6.818-11.544l.281-.509.001-.003c.176-.318.351-.636.523-.955l.771-1.477.722-1.498c.082-.188.167-.376.251-.563v-.002l.001-.001v-.001c.142-.317.285-.634.418-.954.853-2.046 1.571-4.149 2.047-6.315.46-2.162.685-4.391.472-6.6-.11-1.1-.322-2.2-.685-3.25a10.523 10.523 0 0 0-.659-1.532c-.254-.486-.55-.963-.925-1.379Zm0 0c2.955.112 5.902.545 8.744 1.371a32.352 32.352 0 0 1 8.05 3.588c2.501 1.551 4.788 3.434 6.84 5.54 2.051 2.108 3.876 4.431 5.492 6.889 3.241 4.919 5.713 10.31 7.741 15.842a124.407 124.407 0 0 1 2.719 8.416c.404 1.419.793 2.842 1.156 4.273.185.706.356 1.41.527 2.117v.001l.001.003c.176.725.353 1.454.546 2.188 1.471 5.789 3.591 11.389 6.094 16.794 2.51 5.403 5.394 10.625 8.551 15.668a164.325 164.325 0 0 0 4.94 7.436 139.263 139.263 0 0 0 3.982 5.394l.695.88.353.439.177.214.15.194a49.601 49.601 0 0 1 2.466 3.58c.763 1.225 1.474 2.486 2.028 3.771.274.642.507 1.291.654 1.921.067.311.123.625.126.904.008.096.003.179-.002.265a2.957 2.957 0 0 0-.007.141l-.035.623c-.013.169-.009.329-.006.489l.002.12.005.2c.003.134.005.268.013.4.011.127.02.256.029.385.019.262.038.526.072.781.09.768.208 1.525.352 2.273.135.7.284 1.394.446 2.083a20.624 20.624 0 0 0-.353-.109l-1.383-.417-.113-.033a28.108 28.108 0 0 0-1.298-.359 16.85 16.85 0 0 0-1.464-.303c-.504-.077-1.024-.131-1.592-.089a3.471 3.471 0 0 0-.881.172 2.877 2.877 0 0 0-1.513 1.197 4.878 4.878 0 0 0-.406.793c-.383 1-.533 1.944-.682 2.874l-.023.144c-.109.75-.195 1.493-.281 2.232v.002l-.001.006-.076.649a209.134 209.134 0 0 1-.727 5.681 117.698 117.698 0 0 1-.96 5.615c-.177.932-.365 1.86-.565 2.789l-.082.375-.001.002a50.755 50.755 0 0 1-.559 2.377 38.759 38.759 0 0 1-1.688 5.253c-.689 1.689-1.482 3.323-2.451 4.829a22.717 22.717 0 0 1-3.347 4.131 22.61 22.61 0 0 1-4.214 3.212 25.45 25.45 0 0 1-4.019 1.879l-.237-.411c-.034-.056-.066-.112-.099-.169-.113-.195-.226-.391-.357-.572l-.736-1.08-.264-.345c-.117-.149-.232-.301-.347-.452-.237-.31-.474-.621-.725-.917a59.053 59.053 0 0 0-1.123-1.325l-1.164-1.289a39.002 39.002 0 0 0-.771-.805l-.001-.002a20.011 20.011 0 0 1-.203-.209 56.633 56.633 0 0 0-1.447-1.462 58.67 58.67 0 0 0-1.679-1.61c-.696-.652-1.393-1.305-2.105-1.936a137.14 137.14 0 0 0-2.192-1.916l-.409-.353a147.974 147.974 0 0 0-5.34-4.361 150.19 150.19 0 0 0-5.523-4.11 304.698 304.698 0 0 0-5.642-3.937 235.76 235.76 0 0 0-5.722-3.812 219.832 219.832 0 0 0-4.607-2.864l-1.238-.756-.799-.489-.007-.004c-1.686-1.03-3.372-2.059-5.035-3.122a200.006 200.006 0 0 1-5.724-3.785c-1.885-1.294-3.733-2.65-5.579-4.011l-2.776-2.032c-.357-.264-.72-.519-1.083-.774l-.317-.224-1.392-.987c-1.831-1.286-3.603-2.63-5.279-4.079a39.6 39.6 0 0 1-2.41-2.277c-.758-.799-1.504-1.616-2.181-2.485-1.368-1.725-2.549-3.602-3.455-5.623-.447-1.012-.848-2.054-1.128-3.136a16.416 16.416 0 0 1-.367-1.64 11.843 11.843 0 0 1-.185-1.673l-.038-.004a40.832 40.832 0 0 0 1.732-2.179 43.09 43.09 0 0 0 1.93-2.871 46.475 46.475 0 0 0 1.71-2.995 47.312 47.312 0 0 0 1.502-3.1c.465-1.05.9-2.117 1.284-3.209.384-1.097.728-2.202.965-3.412a4.88 4.88 0 0 0 .063-.375l.013-.095.034-.236.03-.14c.013-.129.064-.297.115-.467l.05-.171c.054-.162.118-.33.181-.498l.081-.215.314-.731c.867-1.889 1.921-3.759 2.974-5.624l.119-.212c1.856-3.252 3.803-6.473 5.751-9.695.37-.611.739-1.221 1.107-1.832l.939-1.554.008-.013.011-.019.007-.01c.837-1.386 1.675-2.772 2.503-4.165a633.75 633.75 0 0 0 3.405-5.806c2.246-3.886 4.45-7.804 6.486-11.814 2.068-3.993 3.843-8.236 4.616-12.714.367-2.234.509-4.529.17-6.773-.172-1.119-.449-2.224-.876-3.27a10.645 10.645 0 0 0-.75-1.513c-.288-.48-.614-.943-1.01-1.339Zm43.88 158.209c-1.395-1.594-2.949-3.018-4.527-4.415a150.922 150.922 0 0 0-2.601-2.197c-.433-.366-.877-.72-1.323-1.073a34.297 34.297 0 0 1-.662-.534l-.001-.001c-.219-.179-.438-.359-.663-.533l-.121-.095-.001-.001a209.637 209.637 0 0 0-2.566-2.002c-.776-.615-1.567-1.216-2.356-1.816l-.346-.264-5.453-4.108-10.897-8.261-2.74-2.051c-.319-.241-.64-.48-.961-.719l-.001-.001c-.594-.443-1.188-.886-1.773-1.341l-1.364-1.038-1.354-1.051-2.718-2.092c-.26-.196-.519-.394-.778-.592-.65-.496-1.3-.992-1.96-1.474l-1.379-1.019-1.394-.996a132.254 132.254 0 0 0-5.697-3.811c-1.932-1.222-3.916-2.362-5.909-3.483l-2.996-1.67a47.217 47.217 0 0 1-.88-.494 74.137 74.137 0 0 0-.614-.346c-.15-.087-.301-.171-.452-.256a26.361 26.361 0 0 1-1.042-.606 34.259 34.259 0 0 1-5.656-4.178c-.884-.781-1.699-1.64-2.498-2.513-.127-.142-.25-.289-.373-.436l-.087-.104a16.174 16.174 0 0 1-.676-.825l-.543-.703-.51-.729c-1.346-1.953-2.433-4.1-3.119-6.372a18.273 18.273 0 0 1-.7-3.471 14.832 14.832 0 0 1-.07-1.762c.011-.463.04-.92.113-1.378a29.774 29.774 0 0 1-2.636 2.658l-.33.294-.342.282-.69.558-.378.276-.001.001c-.353.259-.705.518-1.082.75-.419.284-.865.532-1.311.78l-.073.041-.167.093c-.177.093-.36.179-.543.265-.092.042-.184.085-.274.129l-.085.04-.068.033-.091.043-.017.008-.049.023-.102.046-.427.166c-.102.037-.203.078-.304.118-.182.072-.364.144-.554.201l-.878.264c-.192.056-.39.097-.588.138-.104.022-.208.043-.31.067l-.452.096-.409.072c-1.089.186-2.175.398-3.261.617-2.171.443-4.338.933-6.494 1.469-4.314 1.054-8.606 2.249-12.797 3.66a82.363 82.363 0 0 0-3.107 1.12c-1.018.395-2.028.814-2.956 1.284-.462.232-.917.49-1.235.731-.062.04-.096.073-.127.103-.019.018-.036.035-.058.052l-.008.006a.748.748 0 0 0-.062.057l-.125.119a3.435 3.435 0 0 0-.064.059 1.803 1.803 0 0 1-.197.164 3.43 3.43 0 0 1-.564.345 3.49 3.49 0 0 1-.577.231c-.77.241-1.462.251-2.114.227a12.307 12.307 0 0 1-1.736-.217c2.203 3.548 4.185 7.236 6.062 10.973a178.033 178.033 0 0 1 5.944 13.119l1.333 3.35 1.263 3.379c.809 2.264 1.614 4.533 2.34 6.83 1.468 4.585 2.799 9.222 3.916 13.918.193.776.365 1.555.538 2.335v.002l.001.002c.088.397.176.794.266 1.191l.389 1.769.746 3.852c.097.494.193.988.272 1.486l.597 3.577c.1.556.175 1.116.25 1.676l.498 3.715c.053.384.092.769.132 1.155l.039.384.029.265.378 3.611.268 3.624.047.673c.028.379.056.759.076 1.14l.071 1.817c.015.422.032.844.049 1.266v.01c.032.786.064 1.572.083 2.358l.019 3.638c-.001.203.001.405.003.607.003.405.007.809-.006 1.214l-.06 1.819c-.015.409-.028.817-.041 1.225-.025.805-.05 1.61-.09 2.415l-.253 3.634c-.017.221-.031.441-.046.662v.002l-.001.001c-.025.384-.051.768-.085 1.152l-.194 1.812-.417 3.806-.066.216-.034.108-.049.152a201.17 201.17 0 0 0 8.146-2.617c3.611-1.248 7.186-2.571 10.682-4.06 3.493-1.489 6.91-3.125 10.205-4.946l.696-.406.002-.001c.579-.339 1.158-.678 1.741-1.009.398-.247.791-.502 1.183-.758l.002-.001c.392-.255.784-.51 1.181-.756l.593-.376c.118-.077.236-.157.353-.238l.004-.002.236-.16 3.569-2.408a806.792 806.792 0 0 1 6.963-4.613l.002-.001c4.096-2.694 8.197-5.39 12.204-8.21a514.235 514.235 0 0 0 9.355-6.748l9.276-6.885a259.267 259.267 0 0 1 4.7-3.386c.792-.555 1.586-1.108 2.394-1.647.403-.27.809-.537 1.22-.798l.446-.287c.26-.168.52-.337.786-.498l1.252-.769 1.282-.735.494-.26.003-.002c.275-.146.55-.292.831-.435l.693-.329.346-.163c.083-.036.169-.07.254-.104l.117-.046c.088-.034.174-.069.26-.104h.001c.161-.065.322-.129.492-.189.281-.085.565-.164.849-.241.506-.113.977-.204 1.458-.294l.803-.152c.679-.127 1.349-.253 2.013-.386a58.112 58.112 0 0 0 2.731-.613 40.276 40.276 0 0 0 2.645-.771c.097-.033.193-.065.289-.099l.272-.095Zm29.202-42.279-.708-.122-1.421-.236c-.47-.077-.942-.145-1.408-.209-.466-.061-.93-.109-1.384-.128-.451-.015-.896-.006-1.282.07-.801.163-1.113.525-1.351 1.314-.217.772-.286 1.711-.339 2.64-.045.807-.076 1.63-.106 2.457v.006l-.001.009v.002l-.014.383c-.069 1.924-.149 3.869-.315 5.807-.16 1.941-.364 3.878-.629 5.81-.139.965-.289 1.927-.449 2.889l-.092.533-.001.005-.001.004-.001.005a51.348 51.348 0 0 1-.443 2.344c-.038.172-.073.345-.108.518v.003c-.064.314-.128.629-.208.94l-.377 1.453c-.086.322-.188.64-.289.958-.052.16-.103.322-.153.483l-.068.216v.001c-.052.168-.105.335-.165.502l-.263.71a30.418 30.418 0 0 1-2.648 5.496 24.773 24.773 0 0 1-3.88 4.82 24.014 24.014 0 0 1-6.609 4.493 62.694 62.694 0 0 1 1.616 3.601c.223.539.436 1.083.648 1.627l.23.588c.28.744.556 1.489.813 2.241a85.303 85.303 0 0 1 1.472 4.535c.204.663.393 1.332.582 2l.082.29c.18.614.339 1.233.498 1.852l.117.452c1.559 6.165 2.683 12.458 3.151 18.808.196 3.178.305 6.358.25 9.538l-.009 1.19-.031 1.19-.055 2.378-.1 2.377-.039 1.187c-.007.225-.021.449-.034.673-.01.171-.021.342-.028.513-.305 6.326-.776 12.646-1.607 18.951l-.533 3.537-.09.591-.107.586-.433 2.349-.457 2.334c-.206 1.057-.427 2.109-.648 3.161a382.5 382.5 0 0 0-.307 1.467l-.49 2.311-.45 2.317-.892 4.636a62.55 62.55 0 0 0-.368 2.015l-.053.307-.406 2.324c-.342 1.889-.654 3.782-.967 5.675a558.66 558.66 0 0 1-.606 3.624c-.137.895-.277 1.789-.417 2.683a310.51 310.51 0 0 0-.992 6.638l-.333 2.334-.286 2.339-.299 2.338c-.062.483-.112.967-.163 1.451-.031.297-.062.594-.095.89-.566 5.268-1.05 10.56-1.162 15.869l1.948-2.088a3921.533 3921.533 0 0 1 15.213-16.203 951.3 951.3 0 0 1 7.691-8.049c.451-.471.915-.939 1.379-1.406l.003-.003.582-.587.987-.997 1.07-1.01c.826-.78 1.722-1.475 2.573-2.135a37.97 37.97 0 0 0 1.738-1.401l.465-.415a4.31 4.31 0 0 0 .27-.271l.046-.049.026-.027.046-.047.036-.037.208-.216.105-.107.091-.116.368-.46c.132-.147.234-.314.342-.482l.323-.496c.122-.209.232-.427.344-.645v-.001l.001-.003c.072-.141.144-.283.219-.422.688-1.491 1.131-3.186 1.508-4.906.682-3.447.997-7.055 1.222-10.666-.161-2.137-.477-4.33-.796-6.541l-.001-.007c-.098-.678-.196-1.357-.29-2.037-.156-1.065-.297-2.141-.439-3.215l-.001-.005-.16-1.208-.389-3.34-.107-1.117c-.595-5.955-.826-11.946-.78-17.918l.08-4.478.209-4.47c.043-1.232.136-2.458.23-3.685l.059-.777.168-2.23.051-.672c.037-.519.075-1.038.136-1.555l.456-4.445.232-2.222.856-6.642.146-1.105.169-1.098 1.108-7.126c.019-.119.028-.234.038-.349.005-.063.01-.127.017-.19l.1-1.073.032-.346.009-.087v-.006l.001-.007c.02-.209.041-.419.057-.63l.079-1.093.002-.031c.053-.718.107-1.438.132-2.156l.05-1.094c.018-.364.033-.729.035-1.093l.035-2.185-.034-2.185a18.9 18.9 0 0 0-.038-1.091l-.108-2.181-.092-1.089-.012-.137-.011-.121a30.715 30.715 0 0 1-.025-.302l-.02-.237v-.001c-.037-.46-.074-.92-.129-1.378l-.265-2.171c-.41-2.886-.911-5.765-1.6-8.608-1.325-5.697-3.134-11.292-5.255-16.774l-1.649-4.091a75.046 75.046 0 0 1-1.608-4.214 70.434 70.434 0 0 1-1.771-5.885Zm-28.33 190.608-.005-.037-.118-1.184c-.04-.396-.076-.791-.101-1.187a100.893 100.893 0 0 1-.239-4.76l-.013-.811c-.023-1.318-.045-2.638-.009-3.953l.036-2.384c.02-.6.048-1.2.076-1.799l.027-.581c.015-.291.028-.582.04-.874.022-.502.044-1.004.077-1.504l.165-2.376.183-2.375.233-2.369.236-2.371c.049-.52.116-1.038.184-1.556.035-.269.071-.538.103-.808.202-1.575.405-3.149.634-4.72l.188-1.165c.443-2.745.885-5.489 1.461-8.208l.466-2.334.064-.321c.133-.67.267-1.342.419-2.008l1.046-4.637.528-2.318.575-2.305.355-1.404c.269-1.068.538-2.135.824-3.198l.593-2.286.603-2.275.152-.569.924-4.016c1.314-6.145 2.08-12.427 2.196-18.724.025-.684.017-1.369.01-2.054l-.004-.307-.044-2.36-.124-2.358-.064-1.177-.097-1.177-.199-2.349-.188-1.751a82.825 82.825 0 0 0-2.124 2.109 109.003 109.003 0 0 0-3.34 3.595 128.365 128.365 0 0 0-3.192 3.724 133.434 133.434 0 0 0-3.031 3.85c-1.958 2.614-3.839 5.283-5.582 8.038a112.431 112.431 0 0 0-4.872 8.469c-.221.425-.436.853-.65 1.282-.15.299-.3.599-.452.897l-1.049 2.201a112.486 112.486 0 0 0-1.936 4.483 341.309 341.309 0 0 0-3.566 9.133 2657.435 2657.435 0 0 0-6.829 18.422l-3.405 9.221c-1.14 3.072-2.302 6.138-3.469 9.203a1019.087 1019.087 0 0 1-7.167 18.329 536.276 536.276 0 0 1-7.704 18.131c-2.688 5.997-5.501 11.944-8.564 17.781-3.085 5.823-6.396 11.553-10.325 16.937-.996 1.335-2.022 2.655-3.121 3.926-1.095 1.267-2.3 2.499-3.465 3.628a176.884 176.884 0 0 1-7.228 6.751c-4.957 4.362-10.207 8.413-15.768 11.995-5.553 3.594-11.432 6.7-17.557 9.197l-1.149.466-1.157.446c-.769.302-1.549.58-2.326.857a47.494 47.494 0 0 1-4.789 1.457c-3.238.805-6.538 1.294-9.845 1.534-6.618.475-13.246.041-19.75-.998a105.917 105.917 0 0 1-9.657-2.044 101.844 101.844 0 0 1-9.409-2.932c-3.084-1.133-6.116-2.403-9.059-3.856a76.488 76.488 0 0 1-3.526-1.865 124.017 124.017 0 0 1 2.629 3.673l.393.566.002.003c1.258 1.816 2.503 3.611 3.795 5.355 2.858 3.842 6.075 7.37 9.779 10.393a59.42 59.42 0 0 0 5.815 4.222c2.034 1.284 4.15 2.446 6.295 3.566l1.631.797.274.134.007.004.26.127a55243152948.141 55243152948.141 0 0 1 .276.132l.827.374 1.66.746 1.682.701.241.103c2.51.258 5.041.364 7.578.341a81.285 81.285 0 0 0 10.787-.803c.291-.039.584-.076.876-.114l.469-.062 3.331-.561.096-.016c.19-.032.381-.063.555-.11l1.248-.293 1.255-.356a37.697 37.697 0 0 0 2.475-.856c3.222-1.235 6.327-2.942 9.52-4.699l.167-.092c1.627-.891 3.283-1.791 4.992-2.631.323-.165.652-.32.982-.475l.307-.144.487-.229c.055-.025.109-.051.147-.071l.504-.258c.082-.039.17-.092.261-.147l.001-.001.271-.16.191-.113c.116-.068.233-.136.352-.214.133-.088.266-.173.399-.259.233-.151.466-.301.7-.463 1.47-.996 2.927-2.095 4.373-3.205a193.996 193.996 0 0 0 4.301-3.42c5.69-4.65 11.258-9.5 16.758-14.422a735.814 735.814 0 0 0 16.265-15.03c5.341-5.094 10.61-10.266 15.711-15.568 4.937-5.167 9.842-10.408 14.74-15.641l.473-.506 27.732-29.735Zm11.182-105.047-.053-.495-.121-1.171-.43-3.503a516.79 516.79 0 0 0-1.298-9.309 218.087 218.087 0 0 0-2.141-11.556l-.069-.329c-.139-.658-.278-1.317-.435-1.97l-.262-1.148-.276-1.144c-.174-.765-.363-1.529-.555-2.291l-.006-.024a172.256 172.256 0 0 0-1.202-4.538 129.502 129.502 0 0 0-1.089-3.737 31.625 31.625 0 0 1-3.658 1.362c-1.934.58-3.892.983-5.823 1.302-.707.118-1.412.226-2.108.333l-.752.116-.175.028c-.408.064-.821.13-1.201.203-.179.049-.36.093-.541.134-.116.035-.235.078-.356.12l-.081.029-.161.056-.302.105-.31.131-.621.261c-.29.132-.579.271-.869.409l-.002.001-.378.18-1.248.641-1.25.664a211.76 211.76 0 0 0-9.874 5.806l-2.438 1.528c-.815.51-1.619 1.032-2.421 1.556l-2.409 1.581-.258.172c-.712.478-1.423.954-2.129 1.439a273.23 273.23 0 0 0-9.374 6.704c-3.08 2.298-6.09 4.692-9.098 7.093l-4.512 3.603a314.066 314.066 0 0 1-4.564 3.543c-.767.583-1.541 1.159-2.322 1.727-.39.285-.78.57-1.173.85l-.117.083-.079.057c-.131.094-.262.187-.396.278l-.616.408a93.82 93.82 0 0 1-1.322.865l-.087.056-.256.166c-.27.177-.54.353-.816.519-.568.326-1.138.646-1.708.967l-.855.482c-3.458 1.851-7.041 3.415-10.689 4.758-3.65 1.343-7.377 2.435-11.138 3.347-2.965.706-5.951 1.312-8.964 1.733-.48 1.227-1.077 2.331-1.713 3.383-.111.182-.223.361-.337.54 1.273.926 2.523 1.884 3.763 2.857a157.464 157.464 0 0 1 5.545 4.592c3.611 3.164 7.109 6.477 10.397 10.002a109.429 109.429 0 0 1 4.775 5.443 91.684 91.684 0 0 1 4.391 5.79 70.576 70.576 0 0 1 3.854 6.208 49.68 49.68 0 0 1 3.059 6.706c.411 1.168.792 2.348 1.084 3.562.131.489.232.988.333 1.487l.07.342c.042.207.075.417.107.627l.001.002.047.299c.049.31.101.62.128.933l.099.938.052.946c.023.314.023.631.021.948-.001.11 0 .22.001.33.002.207.003.414-.01.621a22.421 22.421 0 0 1-.465 3.786 21.894 21.894 0 0 1-1.172 3.642c-.227.51-.458 1.008-.691 1.509l-.074.16c-.044.092-.086.185-.128.278-.085.185-.17.37-.264.551l-.422.813c-.509 1.025-1.088 2.017-1.665 3.006l-.118.203-.994 1.546c-.225.348-.466.684-.707 1.021-.116.162-.232.323-.346.486-1.446 1.98-3.062 3.844-4.867 5.511-1.806 1.662-3.774 3.152-5.91 4.349-2.135 1.195-4.407 2.137-6.763 2.727a24.57 24.57 0 0 1-3.573.63c-1.201.105-2.413.155-3.604.013 1.198-.015 2.382-.18 3.544-.416a24.613 24.613 0 0 0 3.42-.944c1.111-.401 2.2-.846 3.25-1.373.167-.081.33-.169.493-.257.095-.051.191-.103.287-.152l.387-.207.378-.223.757-.448.733-.482c1.963-1.275 3.749-2.802 5.362-4.484a39.621 39.621 0 0 0 4.361-5.459c.111-.174.225-.347.338-.519l.001-.001c.207-.315.414-.63.606-.955l.887-1.511.171-.319.116-.216c.457-.851.915-1.702 1.318-2.584l.381-.792c.086-.177.162-.359.239-.541.037-.089.074-.177.113-.266l.691-1.611c.409-1.041.728-2.113.953-3.208.195-1.099.336-2.211.354-3.338.01-.177.006-.355.002-.533a16.021 16.021 0 0 1-.004-.311c-.003-.281-.003-.563-.029-.846l-.058-.846-.102-.844a13.603 13.603 0 0 0-.121-.844c-.02-.111-.037-.222-.055-.333a12.903 12.903 0 0 0-.088-.51l-.073-.347a20.341 20.341 0 0 0-.306-1.326c-.272-1.113-.634-2.21-1.018-3.298a47.987 47.987 0 0 0-2.863-6.358c-1.097-2.065-2.326-4.071-3.624-6.035-2.616-3.919-5.538-7.656-8.628-11.258a175.044 175.044 0 0 0-2.349-2.679c-.795-.883-1.6-1.76-2.406-2.632a179.534 179.534 0 0 0-4.965-5.139 226.552 226.552 0 0 0-8.565-8.173 39.379 39.379 0 0 1-2.212 3.049 47.86 47.86 0 0 1-6.439 6.592l-.915.74-.915.689a9.105 9.105 0 0 0-.236.185l-.114.091-.4.33-.817.686a318.93 318.93 0 0 0-3.284 2.836l-6.562 5.747a4719.492 4719.492 0 0 0-26.095 23.226c-8.664 7.784-17.326 15.571-25.884 23.469-4.276 3.952-8.534 7.921-12.713 11.973-2.089 2.024-4.163 4.066-6.157 6.181-1.002 1.053-1.995 2.116-2.934 3.223a34.105 34.105 0 0 0-1.363 1.699l-.073.102-.216.303c-.056.079-.112.159-.166.239l.057.145v.001c.172.439.345.879.501 1.321.067.203.137.405.207.608.141.405.281.809.397 1.218.753 2.444 1.298 4.915 1.732 7.389.432 2.476.741 4.958.965 7.44l.146 1.862.114 1.855a211.716 211.716 0 0 0 .886 10.821c.5 4.796 1.185 9.568 2.101 14.275.919 4.701 2.093 9.35 3.746 13.753.835 2.195 1.808 4.32 2.987 6.271.088.163.189.315.291.465.055.083.111.166.164.25l.153.233.003.005.001.001c.102.157.204.315.311.468l.503.667.251.334c.065.083.134.16.203.237l.067.075.541.62c.043.051.093.107.15.168l.161.176.322.353c.332.352.643.718.954 1.083l.001.001.001.001c.099.116.198.233.298.348a54.798 54.798 0 0 1 1.486 1.862 75.997 75.997 0 0 0 4.039 1.943 92.565 92.565 0 0 0 9.13 3.515c6.198 2.027 12.57 3.508 19.015 4.37 6.439.872 12.969 1.155 19.406.544 3.214-.314 6.405-.832 9.507-1.658a46.576 46.576 0 0 0 4.579-1.477 84.18 84.18 0 0 0 2.267-.878l1.127-.456 1.118-.476a109.986 109.986 0 0 0 4.422-2.016 112.09 112.09 0 0 0 4.319-2.227 117.133 117.133 0 0 0 4.225-2.402 117.343 117.343 0 0 0 4.113-2.589c5.417-3.564 10.527-7.587 15.361-11.927 2.414-2.174 4.783-4.4 7.097-6.694 1.18-1.154 2.264-2.27 3.308-3.483 1.041-1.209 2.021-2.483 2.979-3.775 3.786-5.215 7.031-10.874 10.064-16.631 3.043-5.758 5.856-11.652 8.546-17.604 2.692-5.951 5.24-11.973 7.748-18.015a998.268 998.268 0 0 0 7.326-18.214l7.111-18.316 3.547-9.168.02-.051c1.181-3.038 2.362-6.077 3.586-9.101 1.226-3.042 2.469-6.08 3.786-9.096a118.554 118.554 0 0 1 2.06-4.495l1.115-2.207.086-.162.081-.152.2-.379c.263-.498.527-.996.802-1.487a113.932 113.932 0 0 1 11.035-16.345 132.765 132.765 0 0 1 3.178-3.765 116.592 116.592 0 0 1 3.333-3.623 106.69 106.69 0 0 1 3.495-3.464 91.564 91.564 0 0 1 2.26-2.055ZM272.053 545.132c-6.967-1.114-13.662-3.597-19.538-7.443l-1.108-.735-1.083-.777-.541-.39-.527-.409a11.233 11.233 0 0 0-.172-.133l-.218-.168c-.222-.172-.445-.343-.663-.52a68.004 68.004 0 0 1-4.023-3.552 97.55 97.55 0 0 1-3.801-3.88c-.501-.534-.997-1.074-1.498-1.619-.751-.816-1.509-1.641-2.302-2.468-.325-.345-.67-.69-1.018-1.034l-.257-.256-.221-.226-.444-.448a47.005 47.005 0 0 1-.668-.735l-.002-.002-.015-.017-.185-.206-.846-1.011c-1.118-1.375-2.182-2.836-3.213-4.325-2.066-2.985-4.009-6.092-5.894-9.237a313.602 313.602 0 0 1-5.476-9.571 365.333 365.333 0 0 1-5.06-9.518 6368.397 6368.397 0 0 1-8.142-35.991 3046.153 3046.153 0 0 1-3.996-18.14c-1.303-6.048-2.607-12.107-3.765-18.149a140.33 140.33 0 0 1-.414-2.257c-.051-.273-.094-.541-.137-.808l-.05-.308-.09-.556-.071-.53-.035-.264-.01-.078c-.008-.063-.016-.124-.016-.162l-.027-.402-.11-3.577c-.163-3.134-.36-6.263-.685-9.374-.294-3.115-.692-6.215-1.117-9.311l-.519-3.477-.572-3.468-.624-3.458-.225-1.149-.454-2.3-.265-1.236c-.238-1.117-.476-2.236-.744-3.349-.714-3.052-1.485-6.091-2.459-9.121l-.774-2.262-.348-1.037-.174-.52-.432-1.577-.225-1.063c-.012-.063-.026-.125-.04-.187-.025-.115-.051-.23-.067-.346l-.081-.535a15.82 15.82 0 0 0-.056-.371 7.57 7.57 0 0 1-.091-.702c-.04-.332-.072-.665-.095-.999.816 1.469 1.503 3.008 2.144 4.558.929 2.24 1.721 4.533 2.433 6.85l.12.412.001.001c.299 1.027.598 2.051.867 3.085.054.204.109.408.165.611.104.38.207.76.298 1.144l.635 2.649.566 2.668c.098.461.194.928.29 1.397l.001.003c.15.732.302 1.468.462 2.195 1.056 4.788 2.251 9.533 3.504 14.259a569.452 569.452 0 0 0 3.96 14.124 530.937 530.937 0 0 0 4.324 14.023c1.503 4.663 3.081 9.294 4.842 13.917.44 1.155.908 2.314 1.408 3.473l.085.188c.234.522.468 1.041.739 1.576.106.227.244.473.381.719l.048.085.067.12.431.767c.554.954 1.008 1.995 1.449 3.04l.193.514c.138.364.276.728.402 1.1.06.187.123.374.185.56.121.36.242.72.342 1.091 1.323 4.456 2.045 9.182 2.46 13.928l.143 1.784.116 1.796a209.328 209.328 0 0 0 .946 11.051c.574 4.9 1.306 9.792 2.338 14.643a106.313 106.313 0 0 0 1.796 7.243 68.597 68.597 0 0 0 2.444 7.119c.961 2.334 2.074 4.639 3.482 6.826.107.181.231.355.355.528l.001.002c.067.092.133.184.196.278.052.072.103.145.153.217l.191.27c.074.104.149.208.226.312l.622.772.312.386.063.073c.039.044.08.087.12.13l.033.035.061.065.021.022.041.044.686.734.619.636c.292.288.57.594.849.9l.347.379c1.797 2.016 3.46 4.223 5.148 6.462 1.247 1.655 2.508 3.327 3.847 4.955 1.577 1.916 3.243 3.775 5.04 5.508a53.856 53.856 0 0 0 5.717 4.808 60.87 60.87 0 0 0 6.281 3.973 73.541 73.541 0 0 0 6.661 3.196l1.837.728.161.064c.19.076.38.151.571.223l1.457.525Zm-84.727-194.68a40.162 40.162 0 0 0-.983-1.497 22.523 22.523 0 0 1 .041-2.859c.022-.262.052-.525.082-.788l.03-.268c.019-.114.036-.229.053-.343.035-.233.07-.467.122-.695.064-.342.148-.677.232-1.008a8.87 8.87 0 0 0 .056-.193c.028-.098.056-.195.086-.285l.076-.226.06-.166.074-.205.015-.054c2.493-9.73 4.968-19.462 7.428-29.198 2.458-9.737 4.901-19.477 7.269-29.245.594-2.44 1.174-4.886 1.748-7.338l.636-2.766.201-.934.77-3.685c.52-2.423 1.113-4.83 1.791-7.209.681-2.375 1.442-4.724 2.341-6.998.324-.818.665-1.625 1.032-2.415 2.056.411 4.12.781 6.191 1.125 2.145.356 4.302.658 6.466.916 2.164.251 4.338.463 6.536.511 1.1.022 2.203.011 3.325-.112.56-.065 1.125-.155 1.704-.344.289-.097.583-.211.878-.411.145-.1.291-.22.423-.379a1.21 1.21 0 0 0 .143-.204l.029-.048.007-.012c.029-.053.053-.111.075-.17 1.265-1.732 2.855-3.241 4.524-4.64 1.694-1.407 3.499-2.691 5.36-3.892a87.478 87.478 0 0 1 5.732-3.378 125.714 125.714 0 0 1 18.252-8.083c2.093-.72 4.2-1.402 6.322-1.96a44.304 44.304 0 0 1 3.186-.72c.529-.095 1.06-.179 1.578-.235a11.215 11.215 0 0 1 1.506-.078c.234.008.465.024.646.062l.069.014a.618.618 0 0 1 .084.017l.197.047.392.096c.525.136 1.049.278 1.575.435 1.052.309 2.104.653 3.163 1.001l.611.202.015.005c.854.282 1.713.565 2.588.836 1.055.325 2.128.641 3.265.868a139.09 139.09 0 0 1 2.329 4.962c.971 2.181 1.935 4.361 2.823 6.574.906 2.206 1.753 4.432 2.598 6.657l1.217 3.357 1.169 3.37a223.782 223.782 0 0 1 7.377 27.482c.891 4.65 1.697 9.314 2.264 14.006.067.454.116.912.165 1.37l.043.389.381 3.52c.043.382.072.764.101 1.146v.002c.015.206.031.411.048.617l.279 3.529.175 3.531.032.606c.022.386.043.772.057 1.159l.035 1.767c.007.426.017.851.026 1.277v.001c.017.752.034 1.504.037 2.255l-.046 3.532c-.005.215-.007.43-.009.644v.001c-.003.374-.006.748-.024 1.121l-.078 1.763c-.012.241-.023.483-.033.724l-.023.532v.009l-.001.002c-.032.752-.064 1.505-.109 2.257l-.285 3.516c-.016.192-.031.385-.045.578-.031.393-.061.787-.101 1.179l-.208 1.75-.383 3.297c-.345 1.04-.906 2.131-1.554 3.186a32.752 32.752 0 0 1-2.346 3.295 44.304 44.304 0 0 1-2.756 3.084 41.055 41.055 0 0 1-3.007 2.819l-.783.637-.83.627c-.16.121-.277.215-.393.31l-.113.092-.444.366-.855.724a341.043 341.043 0 0 0-3.324 2.89 606.041 606.041 0 0 0-5.843 5.213h-.001l-.695.626c-8.679 7.815-17.221 15.767-25.675 23.816l-6.313 6.064a1289.797 1289.797 0 0 0-6.261 6.121c-4.156 4.1-8.28 8.232-12.345 12.429-4.066 4.197-8.079 8.444-11.969 12.811-1.935 2.193-3.852 4.402-5.689 6.681a68.01 68.01 0 0 0-2.655 3.5 33.809 33.809 0 0 0-1.214 1.834l-.038.067c-.101.175-.202.351-.3.528l-.066-.169c-.516-1.196-1.054-2.388-1.736-3.538l-.474-.823-.12-.212a6.138 6.138 0 0 1-.255-.472 32.334 32.334 0 0 1-.622-1.288l-.118-.254a101.511 101.511 0 0 1-1.393-3.284 226.41 226.41 0 0 1-2.592-6.766 556.402 556.402 0 0 1-2.463-6.852c-.809-2.293-1.594-4.594-2.38-6.894a719.789 719.789 0 0 1-2.326-6.918l-2.278-6.934-2.219-6.955c-1.458-4.644-2.887-9.296-4.203-13.971-.205-.712-.399-1.422-.594-2.136-.124-.457-.25-.916-.379-1.378l-.744-2.664-.814-2.642a37.577 37.577 0 0 0-.369-1.12c-.071-.21-.143-.419-.212-.629-.299-.932-.646-1.849-.992-2.764l-.005-.015-.002-.006-.257-.681c-.899-2.286-1.873-4.543-2.992-6.728l-.427-.815c-.096-.18-.196-.358-.297-.536l-.15-.267c-.265-.484-.55-.955-.836-1.427l-.095-.158Z" clip-rule="evenodd"/><path stroke="#FABD00" stroke-width=".5" d="m378.962 128.722-30.988 11.232-30.879 11.142a153.453 153.453 0 0 0-5.928 4.461 194.345 194.345 0 0 0-5.804 4.753 182.307 182.307 0 0 0-11.026 10.154l-2.686 2.652-2.704 2.623-5.424 5.227-10.89 10.4a6380.271 6380.271 0 0 1-21.862 20.71l-21.923 20.648-10.983 10.301-2.752 2.574-.691.642-.346.323-.086.08-.07.07-.141.138c-.372.379-.728.808-1.062 1.271a22.2 22.2 0 0 0-1.792 3.041c-.148.297-.293.598-.434.901 2.076.297 4.154.556 6.234.785 2.158.236 4.319.455 6.482.61 2.161.155 4.327.255 6.479.229 1.072-.017 2.148-.07 3.181-.224.515-.077 1.026-.183 1.475-.35.222-.082.435-.182.587-.296.156-.116.23-.229.247-.311l.018-.087.066-.099c1.297-1.929 2.903-3.585 4.609-5.09 1.711-1.505 3.524-2.876 5.388-4.158 3.735-2.56 7.668-4.8 11.703-6.819a127.543 127.543 0 0 1 12.412-5.415 80.195 80.195 0 0 1 6.472-2.115 45.308 45.308 0 0 1 3.355-.802c.57-.111 1.146-.21 1.739-.281a13.82 13.82 0 0 1 1.842-.115 6.3 6.3 0 0 1 1.025.091l.136.025a.954.954 0 0 1 .122.025l.211.048.424.1c.561.138 1.118.282 1.667.438 1.101.308 2.181.645 3.251.982l.689.218c.837.265 1.669.528 2.496.773 1.051.311 2.101.594 3.121.787.508.099 1.01.168 1.481.186.464.019.91-.01 1.21-.114.031-.012.062-.022.095-.032l.015-.004.026-.01a.27.27 0 0 0 .029-.016c.011-.006.023-.013.036-.018.042-.015.072-.037.1-.057.017-.012.033-.024.052-.034a.093.093 0 0 0 .034-.031l.013-.014.003-.003.006-.005c.008-.009.013-.012.019-.017a.861.861 0 0 0 .094-.086c.149-.143.314-.3.451-.393.576-.435 1.103-.721 1.64-.996 1.066-.544 2.127-.986 3.193-1.407a82.441 82.441 0 0 1 3.207-1.172c4.291-1.464 8.63-2.691 13.006-3.781a157.694 157.694 0 0 1 6.612-1.466c1.109-.217 2.221-.429 3.34-.614l.418-.072.37-.078c.092-.021.184-.039.276-.058.155-.03.31-.061.462-.105l.729-.218c.156-.044.309-.104.461-.165.085-.034.171-.068.257-.099l.358-.137a8.58 8.58 0 0 0 .218-.1l.132-.062.104-.05.078-.036.064-.03c.151-.07.303-.14.45-.217l.283-.157c.358-.198.718-.396 1.062-.63.324-.195.633-.42.942-.645.116-.084.231-.168.348-.251l.617-.496.309-.25.298-.265c1.599-1.401 3.024-3.032 4.321-4.767a45.454 45.454 0 0 0 3.504-5.507 45.983 45.983 0 0 0 1.465-2.93c.454-.992.877-1.997 1.249-3.015.371-1.012.702-2.05.906-3.038.02-.082.031-.157.043-.232l.011-.075.009-.05.028-.179.051-.272c.051-.308.129-.554.208-.801v-.002c.019-.059.039-.119.057-.18.074-.21.153-.411.231-.611l.098-.248.359-.809c1.002-2.1 2.126-4.053 3.284-5.992 1.941-3.24 3.952-6.415 5.962-9.587l.002-.004c.388-.613.777-1.226 1.164-1.84l1.865-2.947.001-.002.003-.004a902.434 902.434 0 0 0 5.285-8.412 303.763 303.763 0 0 0 6.818-11.544l.281-.509.001-.003c.176-.318.351-.636.523-.955l.771-1.477.722-1.498c.082-.188.167-.376.251-.563v-.002l.001-.001v-.001c.142-.317.285-.634.418-.954.853-2.046 1.571-4.149 2.047-6.315.46-2.162.685-4.391.472-6.6-.11-1.1-.322-2.2-.685-3.25a10.523 10.523 0 0 0-.659-1.532c-.254-.486-.55-.963-.925-1.379Zm0 0-.002-.001m.002.001-31.137 10.628-31.178 10.694-.069.024-.063.044a150.98 150.98 0 0 0-6.113 4.45 182.811 182.811 0 0 0-5.915 4.696 183.671 183.671 0 0 0-11.248 10.094l-2.703 2.602-2.731 2.584-5.486 5.15-11.019 10.253-22.101 20.448-33.211 30.604-2.772 2.543-.693.633-.347.315-.086.08-.1.095-.196.189a13.771 13.771 0 0 0-1.367 1.6 25.076 25.076 0 0 0-2.064 3.417 45.006 45.006 0 0 0-1.609 3.542c-.97 2.385-1.775 4.812-2.497 7.256a114.454 114.454 0 0 0-1.899 7.388l-.804 3.68-.2.905-.216.912-.435 1.824a768.22 768.22 0 0 1-1.801 7.297c-2.441 9.726-4.959 19.443-7.476 29.158l-.001.003a9027.706 9027.706 0 0 1-7.591 29.026l-.021.054-.064.172-.111.324c-.047.137-.085.271-.124.404-.022.076-.044.152-.068.229-.112.419-.217.835-.299 1.252-.065.284-.109.567-.154.85a30.6 30.6 0 0 1-.065.403l-.021.168c-.044.36-.089.722-.121 1.083a25.243 25.243 0 0 0 .061 4.987c.019.288.063.572.106.855l.001.003c.018.124.038.248.054.373l.084.603c.019.131.047.26.074.388.015.073.031.146.044.22l.251 1.212.317 1.19.161.595.192.583.386 1.166.718 2.138c.908 2.875 1.649 5.85 2.33 8.835.259 1.093.487 2.196.716 3.298l.25 1.198.65 3.393.596 3.404.544 3.414.494 3.422c.401 3.044.777 6.094 1.05 9.15.301 3.053.482 6.11.63 9.166l.093 3.393.017.371.022.386c.005.102.015.179.024.254v.001l.01.084.04.311.081.624.094.592.016.102c.056.361.113.722.176 1.074.135.775.27 1.548.416 2.315 1.152 6.133 2.433 12.194 3.718 18.265a2906.62 2906.62 0 0 0 3.934 18.18 5339.973 5339.973 0 0 0 8.118 36.294l.056.249.114.226a358.042 358.042 0 0 0 5.221 9.881 313.307 313.307 0 0 0 5.53 9.716c1.914 3.206 3.887 6.384 6.036 9.489 1.075 1.552 2.19 3.087 3.406 4.585l.935 1.117c.328.367.657.733.995 1.097l1.03 1.041c.308.308.617.615.927.944.75.784 1.499 1.599 2.258 2.425l.004.004c.493.537.99 1.078 1.494 1.617a103.387 103.387 0 0 0 3.963 4.05 72.667 72.667 0 0 0 4.292 3.797c.244.197.493.389.741.581l.393.305.57.441.584.422.389.281c.26.187.519.375.782.559l1.201.799.056.037.039.026.105.071.002.001c.133.089.265.178.401.262l.617.374 1.236.748 1.265.698.633.349.647.324 1.296.642c.289.141.585.27.881.399l.438.192c.162.069.322.14.483.212l.004.002c.279.124.558.247.841.357l1.349.52a56.557 56.557 0 0 0 11.134 2.921c3.786.6 7.607.836 11.408.8 3.801-.04 7.591-.308 11.329-.85l.142-.018.272-.035c.331-.042.662-.085.992-.133l1.403-.236 2.105-.358c.232-.039.465-.074.71-.138l1.452-.344 1.417-.403a41.83 41.83 0 0 0 2.768-.959c3.456-1.329 6.638-3.079 9.717-4.771l.485-.267c1.619-.889 3.216-1.756 4.829-2.551.276-.141.555-.272.834-.404h.002l.135-.064.24-.114.62-.298.732-.374c.064-.032.122-.064.178-.096l.115-.067.05-.03.326-.195.241-.143.09-.053.112-.067c.07-.042.138-.084.203-.127l.41-.267.006-.004a38.214 38.214 0 0 0 .804-.531c1.595-1.083 3.09-2.217 4.58-3.362a211.214 211.214 0 0 0 4.388-3.493c5.768-4.725 11.353-9.622 16.878-14.586a746.697 746.697 0 0 0 16.326-15.154c5.359-5.141 10.655-10.35 15.802-15.738 4.895-5.159 9.714-10.347 14.539-15.541l.652-.702 15.094-16.305c2.844-3.073 5.686-6.149 8.527-9.225l.017-.018c7.201-7.795 14.401-15.589 21.645-23.332a845.12 845.12 0 0 1 7.612-8.053c.462-.489.927-.962 1.393-1.435l.264-.269.263-.269.962-.98.943-.901.158-.151c.072-.07.144-.14.217-.208l.1-.091.506-.422c.242-.211.504-.418.766-.626l.002-.001.001-.001.003-.002.152-.121.116-.092 1.096-.863.617-.506c.172-.14.344-.282.516-.443l.567-.514.085-.081.079-.079.073-.074.12-.127.008-.008.001-.002.001-.001.098-.103.083-.086.271-.286.136-.144.125-.157.498-.625c.164-.194.298-.406.433-.618l.452-.707c.185-.322.349-.651.514-.98l.208-.411c.852-1.887 1.323-3.803 1.728-5.698.723-3.791 1.01-7.546 1.221-11.287l.007-.127-.008-.091-.231-2.283-.298-2.238-.652-4.404c-.161-1.048-.305-2.09-.449-3.132l-.001-.004-.001-.008-.001-.007-.003-.021-.002-.019-.1-.717-.065-.465-.403-3.276-.111-1.094c-.617-5.828-.9-11.691-.899-17.562l.043-4.406.169-4.408c.033-1.202.115-2.402.196-3.602v-.001l.001-.009.053-.793.147-2.203c.016-.217.03-.433.044-.65v-.002c.033-.516.066-1.032.122-1.548l.414-4.4.212-2.199.797-6.585.134-1.097 1.121-7.702.08-.551c.027-.184.036-.378.055-.567l.099-1.139.02-.241.008-.091c.016-.18.031-.361.045-.541l.02-.262.071-1.123c.05-.749.097-1.497.117-2.248l.042-1.126c.017-.376.027-.752.026-1.128l.014-2.256-.055-2.256a21.235 21.235 0 0 0-.05-1.127l-.135-2.254-.106-1.122c-.026-.257-.05-.515-.073-.772-.045-.492-.089-.984-.154-1.473l-.294-2.237c-.45-2.974-.995-5.932-1.728-8.838-1.422-5.827-3.329-11.509-5.543-17.047l-1.716-4.129a73.585 73.585 0 0 1-1.601-4.067c-.983-2.742-1.833-5.55-2.406-8.374a28.077 28.077 0 0 1-.35-2.112c-.035-.226-.054-.449-.073-.671a8.727 8.727 0 0 0-.013-.154l-.01-.111-.01-.107c-.009-.114-.012-.227-.015-.34l-.005-.17-.001-.032-.002-.05-.002-.039a3.188 3.188 0 0 1 .001-.379l.021-.487.003-.077.003-.046c.01-.193.021-.399.003-.58-.016-.462-.1-.881-.192-1.29a13.69 13.69 0 0 0-.801-2.27c-.64-1.426-1.407-2.741-2.224-4.016a52.472 52.472 0 0 0-2.618-3.697l-.089-.113-.046-.056-.058-.071-.178-.213-.348-.42-.69-.854a142.002 142.002 0 0 1-3.998-5.272 162.41 162.41 0 0 1-4.983-7.29c-3.189-4.95-6.107-10.077-8.657-15.382a107.245 107.245 0 0 1-3.495-8.1 87.118 87.118 0 0 1-2.751-8.371 116.32 116.32 0 0 1-.564-2.119c-.188-.725-.376-1.454-.578-2.173a160.75 160.75 0 0 0-1.232-4.284 124.74 124.74 0 0 0-2.874-8.44c-2.132-5.545-4.715-10.956-8.073-15.882-1.679-2.459-3.57-4.779-5.687-6.874-2.115-2.094-4.465-3.956-7.023-5.475a32.665 32.665 0 0 0-8.179-3.468c-2.867-.77-5.83-1.14-8.787-1.191Zm0 0c2.955.112 5.902.545 8.744 1.371a32.352 32.352 0 0 1 8.05 3.588c2.501 1.551 4.788 3.434 6.84 5.54 2.051 2.108 3.876 4.431 5.492 6.889 3.241 4.919 5.713 10.31 7.741 15.842a124.407 124.407 0 0 1 2.719 8.416c.404 1.419.793 2.842 1.156 4.273.185.706.356 1.41.527 2.117v.001l.001.003c.176.725.353 1.454.546 2.188 1.471 5.789 3.591 11.389 6.094 16.794 2.51 5.403 5.394 10.625 8.551 15.668a164.325 164.325 0 0 0 4.94 7.436 139.263 139.263 0 0 0 3.982 5.394l.695.88.353.439.177.214.15.194a49.601 49.601 0 0 1 2.466 3.58c.763 1.225 1.474 2.486 2.028 3.771.274.642.507 1.291.654 1.921.067.311.123.625.126.904.008.096.003.179-.002.265a2.957 2.957 0 0 0-.007.141l-.035.623c-.013.169-.009.329-.006.489l.002.12.005.2c.003.134.005.268.013.4.011.127.02.256.029.385.019.262.038.526.072.781.09.768.208 1.525.352 2.273.135.7.284 1.394.446 2.083a20.624 20.624 0 0 0-.353-.109l-1.383-.417-.113-.033a28.108 28.108 0 0 0-1.298-.359 16.85 16.85 0 0 0-1.464-.303c-.504-.077-1.024-.131-1.592-.089a3.471 3.471 0 0 0-.881.172 2.877 2.877 0 0 0-1.513 1.197 4.878 4.878 0 0 0-.406.793c-.383 1-.533 1.944-.682 2.874l-.023.144c-.109.75-.195 1.493-.281 2.232v.002l-.001.006-.076.649a209.134 209.134 0 0 1-.727 5.681 117.698 117.698 0 0 1-.96 5.615c-.177.932-.365 1.86-.565 2.789l-.082.375-.001.002a50.755 50.755 0 0 1-.559 2.377 38.759 38.759 0 0 1-1.688 5.253c-.689 1.689-1.482 3.323-2.451 4.829a22.717 22.717 0 0 1-3.347 4.131 22.61 22.61 0 0 1-4.214 3.212 25.45 25.45 0 0 1-4.019 1.879l-.237-.411c-.034-.056-.066-.112-.099-.169-.113-.195-.226-.391-.357-.572l-.736-1.08-.264-.345c-.117-.149-.232-.301-.347-.452-.237-.31-.474-.621-.725-.917a59.053 59.053 0 0 0-1.123-1.325l-1.164-1.289a39.002 39.002 0 0 0-.771-.805l-.001-.002a20.011 20.011 0 0 1-.203-.209 56.633 56.633 0 0 0-1.447-1.462 58.67 58.67 0 0 0-1.679-1.61c-.696-.652-1.393-1.305-2.105-1.936a137.14 137.14 0 0 0-2.192-1.916l-.409-.353a147.974 147.974 0 0 0-5.34-4.361 150.19 150.19 0 0 0-5.523-4.11 304.698 304.698 0 0 0-5.642-3.937 235.76 235.76 0 0 0-5.722-3.812 219.832 219.832 0 0 0-4.607-2.864l-1.238-.756-.799-.489-.007-.004c-1.686-1.03-3.372-2.059-5.035-3.122a200.006 200.006 0 0 1-5.724-3.785c-1.885-1.294-3.733-2.65-5.579-4.011l-2.776-2.032c-.357-.264-.72-.519-1.083-.774l-.317-.224-1.392-.987c-1.831-1.286-3.603-2.63-5.279-4.079a39.6 39.6 0 0 1-2.41-2.277c-.758-.799-1.504-1.616-2.181-2.485-1.368-1.725-2.549-3.602-3.455-5.623-.447-1.012-.848-2.054-1.128-3.136a16.416 16.416 0 0 1-.367-1.64 11.843 11.843 0 0 1-.185-1.673l-.038-.004a40.832 40.832 0 0 0 1.732-2.179 43.09 43.09 0 0 0 1.93-2.871 46.475 46.475 0 0 0 1.71-2.995 47.312 47.312 0 0 0 1.502-3.1c.465-1.05.9-2.117 1.284-3.209.384-1.097.728-2.202.965-3.412a4.88 4.88 0 0 0 .063-.375l.013-.095.034-.236.03-.14c.013-.129.064-.297.115-.467l.05-.171c.054-.162.118-.33.181-.498l.081-.215.314-.731c.867-1.889 1.921-3.759 2.974-5.624l.119-.212c1.856-3.252 3.803-6.473 5.751-9.695.37-.611.739-1.221 1.107-1.832l.939-1.554.008-.013.011-.019.007-.01c.837-1.386 1.675-2.772 2.503-4.165a633.75 633.75 0 0 0 3.405-5.806c2.246-3.886 4.45-7.804 6.486-11.814 2.068-3.993 3.843-8.236 4.616-12.714.367-2.234.509-4.529.17-6.773-.172-1.119-.449-2.224-.876-3.27a10.645 10.645 0 0 0-.75-1.513c-.288-.48-.614-.943-1.01-1.339Zm39.353 153.794c1.578 1.397 3.132 2.821 4.527 4.415l-.272.095c-.096.034-.192.066-.289.099-.868.283-1.748.545-2.645.771-.898.224-1.806.429-2.731.613-.664.133-1.334.259-2.013.386l-.803.152c-.481.09-.952.181-1.458.294-.284.077-.568.156-.849.241-.17.06-.331.124-.492.189h-.001c-.086.035-.172.07-.26.104l-.117.046c-.085.034-.171.068-.254.104l-.346.163-.693.329c-.281.143-.556.289-.831.435l-.003.002-.494.26-1.282.735-1.252.769c-.266.161-.526.33-.786.498l-.446.287c-.411.261-.817.528-1.22.798-.808.539-1.602 1.092-2.394 1.647a259.267 259.267 0 0 0-4.7 3.386l-9.276 6.885a514.235 514.235 0 0 1-9.355 6.748c-4.007 2.82-8.108 5.516-12.204 8.21l-.002.001a806.792 806.792 0 0 0-6.963 4.613l-3.569 2.408-.236.16-.004.002a15.59 15.59 0 0 1-.353.238l-.593.376c-.397.246-.789.501-1.181.756l-.002.001c-.392.256-.785.511-1.183.758-.583.331-1.162.67-1.741 1.009l-.002.001-.696.406c-3.295 1.821-6.712 3.457-10.205 4.946-3.496 1.489-7.071 2.812-10.682 4.06a201.17 201.17 0 0 1-8.146 2.617l.049-.152.034-.108.066-.216.417-3.806.194-1.812c.034-.384.06-.768.085-1.152l.001-.001v-.002c.015-.221.029-.441.046-.662l.253-3.634c.04-.805.065-1.61.09-2.415.013-.408.026-.816.041-1.225l.06-1.819c.013-.405.009-.809.006-1.214-.002-.202-.004-.404-.003-.607l-.019-3.638c-.019-.786-.051-1.572-.083-2.358v-.01c-.017-.422-.034-.844-.049-1.266l-.071-1.817a53.62 53.62 0 0 0-.076-1.14l-.047-.673-.268-3.624-.378-3.611-.029-.265-.039-.384c-.04-.386-.079-.771-.132-1.155l-.498-3.715c-.075-.56-.15-1.12-.25-1.676l-.597-3.577a41.289 41.289 0 0 0-.272-1.486l-.746-3.852-.389-1.769c-.09-.397-.178-.794-.266-1.191l-.001-.002v-.002c-.173-.78-.345-1.559-.538-2.335-1.117-4.696-2.448-9.333-3.916-13.918-.726-2.297-1.531-4.566-2.34-6.83l-1.263-3.379-1.333-3.35a178.033 178.033 0 0 0-5.944-13.119c-1.877-3.737-3.859-7.425-6.062-10.973.555.106 1.128.188 1.736.217.652.024 1.344.014 2.114-.227a3.49 3.49 0 0 0 .577-.231 3.43 3.43 0 0 0 .564-.345c.07-.048.134-.106.197-.164l.064-.059.125-.119a.748.748 0 0 1 .062-.057l.008-.006c.022-.017.039-.034.058-.052.031-.03.065-.063.127-.103.318-.241.773-.499 1.235-.731.928-.47 1.938-.889 2.956-1.284a82.363 82.363 0 0 1 3.107-1.12c4.191-1.411 8.483-2.606 12.797-3.66a157.187 157.187 0 0 1 6.494-1.469c1.086-.219 2.172-.431 3.261-.617l.409-.072.452-.096c.102-.024.206-.045.31-.067.198-.041.396-.082.588-.138l.878-.264c.19-.057.372-.129.554-.201.101-.04.202-.081.304-.118l.427-.166.102-.046.049-.023.017-.008.091-.043.068-.033.085-.04c.09-.044.182-.087.274-.129.183-.086.366-.172.543-.265l.167-.093.073-.041c.446-.248.892-.496 1.311-.78.377-.232.729-.491 1.082-.75l.001-.001.378-.276.69-.558.342-.282.33-.294a29.774 29.774 0 0 0 2.636-2.658c-.073.458-.102.915-.113 1.378-.008.586.008 1.176.07 1.762.117 1.173.357 2.337.7 3.471.686 2.272 1.773 4.419 3.119 6.372l.51.729.543.703a16.174 16.174 0 0 0 .676.825l.087.104c.123.147.246.294.373.436.799.873 1.614 1.732 2.498 2.513a34.259 34.259 0 0 0 5.656 4.178c.349.217.696.412 1.042.606.151.085.302.169.452.256.205.114.41.23.614.346.292.167.584.333.88.494l2.996 1.67c1.993 1.121 3.977 2.261 5.909 3.483a132.254 132.254 0 0 1 5.697 3.811l1.394.996 1.379 1.019c.66.482 1.31.978 1.96 1.474.259.198.518.396.778.592l2.718 2.092 1.354 1.051 1.364 1.038c.585.455 1.179.898 1.773 1.341l.001.001c.321.239.642.478.961.719l2.74 2.051 10.897 8.261 5.453 4.108.346.264c.789.6 1.58 1.201 2.356 1.816.864.66 1.714 1.33 2.566 2.002l.001.001.121.095c.225.174.444.354.663.533l.001.001c.219.18.438.359.662.534.446.353.89.707 1.323 1.073.878.721 1.739 1.456 2.601 2.197Zm33.021-37.986.708.122a70.434 70.434 0 0 0 1.771 5.885 75.046 75.046 0 0 0 1.608 4.214l1.649 4.091c2.121 5.482 3.93 11.077 5.255 16.774.689 2.843 1.19 5.722 1.6 8.608l.265 2.171c.055.458.092.918.129 1.378v.001l.02.237.025.302.011.121.012.137.092 1.089.108 2.181c.021.363.038.727.038 1.091l.034 2.185-.035 2.185a24.93 24.93 0 0 1-.035 1.093l-.05 1.094c-.025.718-.079 1.438-.132 2.156l-.002.031-.079 1.093c-.016.211-.037.421-.057.63l-.001.007v.006l-.009.087-.032.346-.1 1.073c-.007.063-.012.127-.017.19-.01.115-.019.23-.038.349l-1.108 7.126-.169 1.098-.146 1.105-.856 6.642-.232 2.222-.456 4.445a33.728 33.728 0 0 0-.136 1.555l-.051.672-.168 2.23-.059.777a88.739 88.739 0 0 0-.23 3.685l-.209 4.47-.08 4.478c-.046 5.972.185 11.963.78 17.918l.107 1.117.389 3.34.16 1.208.001.005c.142 1.074.283 2.15.439 3.215.094.68.192 1.359.29 2.037l.001.007c.319 2.211.635 4.404.796 6.541-.225 3.611-.54 7.219-1.222 10.666-.377 1.72-.82 3.415-1.508 4.906-.075.139-.147.281-.219.422l-.001.003v.001c-.112.218-.222.436-.344.645l-.323.496c-.108.168-.21.335-.342.482l-.368.46-.091.116-.105.107-.208.216a1.274 1.274 0 0 0-.036.037l-.046.047-.026.027-.046.049a4.31 4.31 0 0 1-.27.271l-.465.415a37.97 37.97 0 0 1-1.738 1.401c-.851.66-1.747 1.355-2.573 2.135l-1.07 1.01-.987.997-.582.587-.003.003c-.464.467-.928.935-1.379 1.406a951.3 951.3 0 0 0-7.691 8.049 3921.533 3921.533 0 0 0-15.213 16.203l-1.948 2.088c.112-5.309.596-10.601 1.162-15.869.033-.296.064-.593.095-.89.051-.484.101-.968.163-1.451l.299-2.338.286-2.339.333-2.334c.299-2.217.645-4.427.992-6.638.14-.894.28-1.788.417-2.683.207-1.207.407-2.416.606-3.624.313-1.893.625-3.786.967-5.675l.406-2.324.053-.307a62.55 62.55 0 0 1 .368-2.015l.892-4.636.45-2.317.49-2.311c.101-.489.204-.978.307-1.467.221-1.052.442-2.104.648-3.161l.457-2.334.433-2.349.107-.586.09-.591.533-3.537c.831-6.305 1.302-12.625 1.607-18.951.007-.171.018-.342.028-.513.013-.224.027-.448.034-.673l.039-1.187.1-2.377.055-2.378.031-1.19.009-1.19c.055-3.18-.054-6.36-.25-9.538-.468-6.35-1.592-12.643-3.151-18.808l-.117-.452a56.82 56.82 0 0 0-.58-2.142c-.189-.668-.378-1.337-.582-2a85.303 85.303 0 0 0-1.472-4.535 77.803 77.803 0 0 0-.813-2.241l-.23-.588a84.708 84.708 0 0 0-.648-1.627 62.694 62.694 0 0 0-1.616-3.601 24.014 24.014 0 0 0 6.609-4.493 24.773 24.773 0 0 0 3.88-4.82 30.418 30.418 0 0 0 2.648-5.496l.263-.71c.06-.167.113-.334.165-.502v-.001l.068-.216c.05-.161.101-.323.153-.483.101-.318.203-.636.289-.958l.377-1.453c.08-.311.144-.626.208-.94v-.003c.035-.173.07-.346.108-.518.175-.795.309-1.567.443-2.344l.001-.005.001-.004.001-.005.092-.533c.16-.962.31-1.924.449-2.889.265-1.932.469-3.869.629-5.81.166-1.938.246-3.883.315-5.807l.014-.383v-.002l.001-.009v-.006c.03-.827.061-1.65.106-2.457.053-.929.122-1.868.339-2.64.238-.789.55-1.151 1.351-1.314.386-.076.831-.085 1.282-.07.454.019.918.067 1.384.128.466.064.938.132 1.408.209l1.421.236Zm-27.622 190.73-.005-.037-.118-1.184c-.04-.396-.076-.791-.101-1.187a100.893 100.893 0 0 1-.239-4.76l-.013-.811c-.023-1.318-.045-2.638-.009-3.953l.036-2.384c.02-.6.048-1.2.076-1.799l.027-.581c.015-.291.028-.582.04-.874.022-.502.044-1.004.077-1.504l.165-2.376.183-2.375.233-2.369.236-2.371c.049-.52.116-1.038.184-1.556.035-.269.071-.538.103-.808.202-1.575.405-3.149.634-4.72l.188-1.165c.443-2.745.885-5.489 1.461-8.208l.466-2.334.064-.321c.133-.67.267-1.342.419-2.008l1.046-4.637.528-2.318.575-2.305.355-1.404c.269-1.068.538-2.135.824-3.198l.593-2.286.603-2.275.152-.569.924-4.016c1.314-6.145 2.08-12.427 2.196-18.724.025-.684.017-1.369.01-2.054l-.004-.307-.044-2.36-.124-2.358-.064-1.177-.097-1.177-.199-2.349-.188-1.751a82.825 82.825 0 0 0-2.124 2.109 109.003 109.003 0 0 0-3.34 3.595 128.365 128.365 0 0 0-3.192 3.724 133.434 133.434 0 0 0-3.031 3.85c-1.958 2.614-3.839 5.283-5.582 8.038a112.431 112.431 0 0 0-4.872 8.469c-.221.425-.436.853-.65 1.282-.15.299-.3.599-.452.897l-1.049 2.201a112.486 112.486 0 0 0-1.936 4.483 341.309 341.309 0 0 0-3.566 9.133 2657.435 2657.435 0 0 0-6.829 18.422l-3.405 9.221c-1.14 3.072-2.302 6.138-3.469 9.203a1019.087 1019.087 0 0 1-7.167 18.329 536.276 536.276 0 0 1-7.704 18.131c-2.688 5.997-5.501 11.944-8.564 17.781-3.085 5.823-6.396 11.553-10.325 16.937-.996 1.335-2.022 2.655-3.121 3.926-1.095 1.267-2.3 2.499-3.465 3.628a176.884 176.884 0 0 1-7.228 6.751c-4.957 4.362-10.207 8.413-15.768 11.995-5.553 3.594-11.432 6.7-17.557 9.197l-1.149.466-1.157.446c-.769.302-1.549.58-2.326.857a47.494 47.494 0 0 1-4.789 1.457c-3.238.805-6.538 1.294-9.845 1.534-6.618.475-13.246.041-19.75-.998a105.917 105.917 0 0 1-9.657-2.044 101.844 101.844 0 0 1-9.409-2.932c-3.084-1.133-6.116-2.403-9.059-3.856a76.488 76.488 0 0 1-3.526-1.865 124.017 124.017 0 0 1 2.629 3.673l.393.566.002.003c1.258 1.816 2.503 3.611 3.795 5.355 2.858 3.842 6.075 7.37 9.779 10.393a59.42 59.42 0 0 0 5.815 4.222c2.034 1.284 4.15 2.446 6.295 3.566l1.631.797.274.134.007.004.26.127a55243152948.141 55243152948.141 0 0 1 .276.132l.827.374 1.66.746 1.682.701.241.103c2.51.258 5.041.364 7.578.341a81.285 81.285 0 0 0 10.787-.803c.291-.039.584-.076.876-.114l.469-.062 3.331-.561.096-.016c.19-.032.381-.063.555-.11l1.248-.293 1.255-.356a37.697 37.697 0 0 0 2.475-.856c3.222-1.235 6.327-2.942 9.52-4.699l.167-.092c1.627-.891 3.283-1.791 4.992-2.631.323-.165.652-.32.982-.475l.307-.144.487-.229c.055-.025.109-.051.147-.071l.504-.258c.082-.039.17-.092.261-.147l.001-.001.271-.16.191-.113c.116-.068.233-.136.352-.214.133-.088.266-.173.399-.259.233-.151.466-.301.7-.463 1.47-.996 2.927-2.095 4.373-3.205a193.996 193.996 0 0 0 4.301-3.42c5.69-4.65 11.258-9.5 16.758-14.422a735.814 735.814 0 0 0 16.265-15.03c5.341-5.094 10.61-10.266 15.711-15.568 4.937-5.167 9.842-10.408 14.74-15.641l.473-.506 27.732-29.735Zm11.182-105.047-.053-.495-.121-1.171-.43-3.503a516.79 516.79 0 0 0-1.298-9.309 218.087 218.087 0 0 0-2.141-11.556l-.069-.329c-.139-.658-.278-1.317-.435-1.97l-.262-1.148-.276-1.144c-.174-.765-.363-1.529-.555-2.291l-.006-.024a172.256 172.256 0 0 0-1.202-4.538 129.502 129.502 0 0 0-1.089-3.737 31.625 31.625 0 0 1-3.658 1.362c-1.934.58-3.892.983-5.823 1.302-.707.118-1.412.226-2.108.333l-.752.116-.175.028c-.408.064-.821.13-1.201.203-.179.049-.36.093-.541.134-.116.035-.235.078-.356.12l-.081.029-.161.056-.302.105-.31.131-.621.261c-.29.132-.579.271-.869.409l-.002.001-.378.18-1.248.641-1.25.664a211.76 211.76 0 0 0-9.874 5.806l-2.438 1.528c-.815.51-1.619 1.032-2.421 1.556l-2.409 1.581-.258.172c-.712.478-1.423.954-2.129 1.439a273.23 273.23 0 0 0-9.374 6.704c-3.08 2.298-6.09 4.692-9.098 7.093l-4.512 3.603a314.066 314.066 0 0 1-4.564 3.543c-.767.583-1.541 1.159-2.322 1.727-.39.285-.78.57-1.173.85l-.117.083-.079.057c-.131.094-.262.187-.396.278l-.616.408a93.82 93.82 0 0 1-1.322.865l-.087.056-.256.166c-.27.177-.54.353-.816.519-.568.326-1.138.646-1.708.967l-.855.482c-3.458 1.851-7.041 3.415-10.689 4.758-3.65 1.343-7.377 2.435-11.138 3.347-2.965.706-5.951 1.312-8.964 1.733-.48 1.227-1.077 2.331-1.713 3.383-.111.182-.223.361-.337.54 1.273.926 2.523 1.884 3.763 2.857a157.464 157.464 0 0 1 5.545 4.592c3.611 3.164 7.109 6.477 10.397 10.002a109.429 109.429 0 0 1 4.775 5.443 91.684 91.684 0 0 1 4.391 5.79 70.576 70.576 0 0 1 3.854 6.208 49.68 49.68 0 0 1 3.059 6.706c.411 1.168.792 2.348 1.084 3.562.131.489.232.988.333 1.487l.07.342c.042.207.075.417.107.627l.001.002.047.299c.049.31.101.62.128.933l.099.938.052.946c.023.314.023.631.021.948-.001.11 0 .22.001.33.002.207.003.414-.01.621a22.421 22.421 0 0 1-.465 3.786 21.894 21.894 0 0 1-1.172 3.642c-.227.51-.458 1.008-.691 1.509l-.074.16c-.044.092-.086.185-.128.278-.085.185-.17.37-.264.551l-.422.813c-.509 1.025-1.088 2.017-1.665 3.006l-.118.203-.994 1.546c-.225.348-.466.684-.707 1.021-.116.162-.232.323-.346.486-1.446 1.98-3.062 3.844-4.867 5.511-1.806 1.662-3.774 3.152-5.91 4.349-2.135 1.195-4.407 2.137-6.763 2.727a24.57 24.57 0 0 1-3.573.63c-1.201.105-2.413.155-3.604.013 1.198-.015 2.382-.18 3.544-.416a24.613 24.613 0 0 0 3.42-.944c1.111-.401 2.2-.846 3.25-1.373.167-.081.33-.169.493-.257.095-.051.191-.103.287-.152l.387-.207.378-.223.757-.448.733-.482c1.963-1.275 3.749-2.802 5.362-4.484a39.621 39.621 0 0 0 4.361-5.459c.111-.174.225-.347.338-.519l.001-.001c.207-.315.414-.63.606-.955l.887-1.511.171-.319.116-.216c.457-.851.915-1.702 1.318-2.584l.381-.792c.086-.177.162-.359.239-.541.037-.089.074-.177.113-.266l.691-1.611c.409-1.041.728-2.113.953-3.208.195-1.099.336-2.211.354-3.338.01-.177.006-.355.002-.533a16.021 16.021 0 0 1-.004-.311c-.003-.281-.003-.563-.029-.846l-.058-.846-.102-.844a13.603 13.603 0 0 0-.121-.844c-.02-.111-.037-.222-.055-.333a12.903 12.903 0 0 0-.088-.51l-.073-.347a20.341 20.341 0 0 0-.306-1.326c-.272-1.113-.634-2.21-1.018-3.298a47.987 47.987 0 0 0-2.863-6.358c-1.097-2.065-2.326-4.071-3.624-6.035-2.616-3.919-5.538-7.656-8.628-11.258a175.044 175.044 0 0 0-2.349-2.679c-.795-.883-1.6-1.76-2.406-2.632a179.534 179.534 0 0 0-4.965-5.139 226.552 226.552 0 0 0-8.565-8.173 39.379 39.379 0 0 1-2.212 3.049 47.86 47.86 0 0 1-6.439 6.592l-.915.74-.915.689a9.105 9.105 0 0 0-.236.185l-.114.091-.4.33-.817.686a318.93 318.93 0 0 0-3.284 2.836l-6.562 5.747a4719.492 4719.492 0 0 0-26.095 23.226c-8.664 7.784-17.326 15.571-25.884 23.469-4.276 3.952-8.534 7.921-12.713 11.973-2.089 2.024-4.163 4.066-6.157 6.181-1.002 1.053-1.995 2.116-2.934 3.223a34.105 34.105 0 0 0-1.363 1.699l-.073.102-.216.303c-.056.079-.112.159-.166.239l.057.145v.001c.172.439.345.879.501 1.321.067.203.137.405.207.608.141.405.281.809.397 1.218.753 2.444 1.298 4.915 1.732 7.389.432 2.476.741 4.958.965 7.44l.146 1.862.114 1.855a211.716 211.716 0 0 0 .886 10.821c.5 4.796 1.185 9.568 2.101 14.275.919 4.701 2.093 9.35 3.746 13.753.835 2.195 1.808 4.32 2.987 6.271.088.163.189.315.291.465.055.083.111.166.164.25l.153.233.003.005.001.001c.102.157.204.315.311.468l.503.667.251.334c.065.083.134.16.203.237l.067.075.541.62c.043.051.093.107.15.168l.161.176.322.353c.332.352.643.718.954 1.083l.001.001.001.001c.099.116.198.233.298.348a54.798 54.798 0 0 1 1.486 1.862 75.997 75.997 0 0 0 4.039 1.943 92.565 92.565 0 0 0 9.13 3.515c6.198 2.027 12.57 3.508 19.015 4.37 6.439.872 12.969 1.155 19.406.544 3.214-.314 6.405-.832 9.507-1.658a46.576 46.576 0 0 0 4.579-1.477 84.18 84.18 0 0 0 2.267-.878l1.127-.456 1.118-.476a109.986 109.986 0 0 0 4.422-2.016 112.09 112.09 0 0 0 4.319-2.227 117.133 117.133 0 0 0 4.225-2.402 117.343 117.343 0 0 0 4.113-2.589c5.417-3.564 10.527-7.587 15.361-11.927 2.414-2.174 4.783-4.4 7.097-6.694 1.18-1.154 2.264-2.27 3.308-3.483 1.041-1.209 2.021-2.483 2.979-3.775 3.786-5.215 7.031-10.874 10.064-16.631 3.043-5.758 5.856-11.652 8.546-17.604 2.692-5.951 5.24-11.973 7.748-18.015a998.268 998.268 0 0 0 7.326-18.214l7.111-18.316 3.547-9.168.02-.051c1.181-3.038 2.362-6.077 3.586-9.101 1.226-3.042 2.469-6.08 3.786-9.096a118.554 118.554 0 0 1 2.06-4.495l1.115-2.207.086-.162.081-.152.2-.379c.263-.498.527-.996.802-1.487a113.932 113.932 0 0 1 11.035-16.345 132.765 132.765 0 0 1 3.178-3.765 116.592 116.592 0 0 1 3.333-3.623 106.69 106.69 0 0 1 3.495-3.464 91.564 91.564 0 0 1 2.26-2.055ZM272.053 545.132c-6.967-1.114-13.662-3.597-19.538-7.443l-1.108-.735-1.083-.777-.541-.39-.527-.409a11.233 11.233 0 0 0-.172-.133l-.218-.168c-.222-.172-.445-.343-.663-.52a68.004 68.004 0 0 1-4.023-3.552 97.55 97.55 0 0 1-3.801-3.88c-.501-.534-.997-1.074-1.498-1.619-.751-.816-1.509-1.641-2.302-2.468-.325-.345-.67-.69-1.018-1.034l-.257-.256-.221-.226-.444-.448a47.005 47.005 0 0 1-.668-.735l-.002-.002-.015-.017-.185-.206-.846-1.011c-1.118-1.375-2.182-2.836-3.213-4.325-2.066-2.985-4.009-6.092-5.894-9.237a313.602 313.602 0 0 1-5.476-9.571 365.333 365.333 0 0 1-5.06-9.518 6368.397 6368.397 0 0 1-8.142-35.991 3046.153 3046.153 0 0 1-3.996-18.14c-1.303-6.048-2.607-12.107-3.765-18.149a140.33 140.33 0 0 1-.414-2.257c-.051-.273-.094-.541-.137-.808l-.05-.308-.09-.556-.071-.53-.035-.264-.01-.078c-.008-.063-.016-.124-.016-.162l-.027-.402-.11-3.577c-.163-3.134-.36-6.263-.685-9.374-.294-3.115-.692-6.215-1.117-9.311l-.519-3.477-.572-3.468-.624-3.458-.225-1.149-.454-2.3-.265-1.236c-.238-1.117-.476-2.236-.744-3.349-.714-3.052-1.485-6.091-2.459-9.121l-.774-2.262-.348-1.037-.174-.52-.432-1.577-.225-1.063c-.012-.063-.026-.125-.04-.187-.025-.115-.051-.23-.067-.346l-.081-.535a15.82 15.82 0 0 0-.056-.371 7.57 7.57 0 0 1-.091-.702c-.04-.332-.072-.665-.095-.999.816 1.469 1.503 3.008 2.144 4.558.929 2.24 1.721 4.533 2.433 6.85l.12.412.001.001c.299 1.027.598 2.051.867 3.085.054.204.109.408.165.611.104.38.207.76.298 1.144l.635 2.649.566 2.668c.098.461.194.928.29 1.397l.001.003c.15.732.302 1.468.462 2.195 1.056 4.788 2.251 9.533 3.504 14.259a569.452 569.452 0 0 0 3.96 14.124 530.937 530.937 0 0 0 4.324 14.023c1.503 4.663 3.081 9.294 4.842 13.917.44 1.155.908 2.314 1.408 3.473l.085.188c.234.522.468 1.041.739 1.576.106.227.244.473.381.719l.048.085.067.12.431.767c.554.954 1.008 1.995 1.449 3.04l.193.514c.138.364.276.728.402 1.1.06.187.123.374.185.56.121.36.242.72.342 1.091 1.323 4.456 2.045 9.182 2.46 13.928l.143 1.784.116 1.796a209.328 209.328 0 0 0 .946 11.051c.574 4.9 1.306 9.792 2.338 14.643a106.313 106.313 0 0 0 1.796 7.243 68.597 68.597 0 0 0 2.444 7.119c.961 2.334 2.074 4.639 3.482 6.826.107.181.231.355.355.528l.001.002c.067.092.133.184.196.278.052.072.103.145.153.217l.191.27c.074.104.149.208.226.312l.622.772.312.386.063.073c.039.044.08.087.12.13l.033.035.061.065.021.022.041.044.686.734.619.636c.292.288.57.594.849.9l.347.379c1.797 2.016 3.46 4.223 5.148 6.462 1.247 1.655 2.508 3.327 3.847 4.955 1.577 1.916 3.243 3.775 5.04 5.508a53.856 53.856 0 0 0 5.717 4.808 60.87 60.87 0 0 0 6.281 3.973 73.541 73.541 0 0 0 6.661 3.196l1.837.728.161.064c.19.076.38.151.571.223l1.457.525Zm-85.71-196.177c.341.49.664.992.983 1.497l.095.158a37.703 37.703 0 0 1 .986 1.694c.101.178.201.356.297.536l.427.815c1.119 2.185 2.093 4.442 2.992 6.728l.257.681.002.006.005.015c.346.915.693 1.832.992 2.764.069.21.141.419.212.629.127.372.254.745.369 1.12l.814 2.642.744 2.664c.129.462.255.921.379 1.378.195.714.389 1.424.594 2.136 1.316 4.675 2.745 9.327 4.203 13.971l2.219 6.955 2.278 6.934c.764 2.31 1.539 4.617 2.326 6.918.786 2.3 1.571 4.601 2.38 6.894a556.402 556.402 0 0 0 2.463 6.852 226.41 226.41 0 0 0 2.592 6.766c.446 1.116.919 2.209 1.393 3.284l.118.254c.205.441.41.881.622 1.288.084.177.17.326.255.472l.12.212.474.823c.682 1.15 1.22 2.342 1.736 3.538l.066.169c.098-.177.199-.353.3-.528l.038-.067c.383-.625.791-1.235 1.214-1.834a68.01 68.01 0 0 1 2.655-3.5c1.837-2.279 3.754-4.488 5.689-6.681 3.89-4.367 7.903-8.614 11.969-12.811a769.603 769.603 0 0 1 12.345-12.429c2.082-2.047 4.166-4.089 6.261-6.121l6.313-6.064c8.454-8.049 16.996-16.001 25.675-23.816l.695-.626h.001a606.041 606.041 0 0 1 5.843-5.213c1.1-.967 2.202-1.929 3.324-2.89l.855-.724.444-.366.113-.092c.116-.095.233-.189.393-.31l.83-.627.783-.637a41.055 41.055 0 0 0 3.007-2.819 44.304 44.304 0 0 0 2.756-3.084 32.752 32.752 0 0 0 2.346-3.295c.648-1.055 1.209-2.146 1.554-3.186l.383-3.297.208-1.75c.04-.392.07-.786.101-1.179.014-.193.029-.386.045-.578l.285-3.516c.045-.752.077-1.505.109-2.257l.001-.002v-.009l.023-.532c.01-.241.021-.483.033-.724l.078-1.763c.018-.373.021-.747.024-1.121v-.001c.002-.214.004-.429.009-.644l.046-3.532c-.003-.751-.02-1.503-.037-2.255v-.001c-.009-.426-.019-.851-.026-1.277l-.035-1.767a55.832 55.832 0 0 0-.057-1.159l-.032-.606-.175-3.531-.279-3.529a64.025 64.025 0 0 1-.048-.617v-.002c-.029-.382-.058-.764-.101-1.146l-.381-3.52-.043-.389a34.594 34.594 0 0 0-.165-1.37c-.567-4.692-1.373-9.356-2.264-14.006a223.782 223.782 0 0 0-7.377-27.482l-1.169-3.37-1.217-3.357c-.845-2.225-1.692-4.451-2.598-6.657-.888-2.213-1.852-4.393-2.823-6.574a139.09 139.09 0 0 0-2.329-4.962c-1.137-.227-2.21-.543-3.265-.868-.875-.271-1.734-.554-2.588-.836l-.015-.005-.611-.202a104.619 104.619 0 0 0-3.163-1.001 44.554 44.554 0 0 0-1.575-.435l-.392-.096-.197-.047a.618.618 0 0 0-.084-.017l-.069-.014a4.013 4.013 0 0 0-.646-.062c-.472-.014-.99.022-1.506.078-.518.056-1.049.14-1.578.235a44.304 44.304 0 0 0-3.186.72c-2.122.558-4.229 1.24-6.322 1.96a125.714 125.714 0 0 0-18.252 8.083 87.478 87.478 0 0 0-5.732 3.378c-1.861 1.201-3.666 2.485-5.36 3.892-1.669 1.399-3.259 2.908-4.524 4.64a1.305 1.305 0 0 1-.075.17l-.007.012-.029.048a1.21 1.21 0 0 1-.143.204 2.05 2.05 0 0 1-.423.379c-.295.2-.589.314-.878.411-.579.189-1.144.279-1.704.344-1.122.123-2.225.134-3.325.112-2.198-.048-4.372-.26-6.536-.511-2.164-.258-4.321-.56-6.466-.916a192.398 192.398 0 0 1-6.191-1.125c-.367.79-.708 1.597-1.032 2.415-.899 2.274-1.66 4.623-2.341 6.998a112.216 112.216 0 0 0-1.791 7.209l-.77 3.685-.201.934-.636 2.766a852.988 852.988 0 0 1-1.748 7.338c-2.368 9.768-4.811 19.508-7.269 29.245a9042.467 9042.467 0 0 1-7.428 29.198l-.015.054-.074.205-.06.166-.076.226c-.03.09-.058.187-.086.285a8.87 8.87 0 0 1-.056.193c-.084.331-.168.666-.232 1.008-.052.228-.087.462-.122.695-.017.114-.034.229-.053.343l-.03.268c-.03.263-.06.526-.082.788a22.523 22.523 0 0 0-.041 2.859Z"/></g><defs><linearGradient id="b" x1="204.478" x2="615.294" y1="171.488" y2="78.463" gradientUnits="userSpaceOnUse"><stop stop-color="#FDD88F" stop-opacity=".6"/><stop offset="1" stop-color="#FEB425"/></linearGradient><linearGradient id="c" x1="231.153" x2="667.148" y1="659.541" y2="128.521" gradientUnits="userSpaceOnUse"><stop stop-color="#E65E01" stop-opacity=".52"/><stop offset=".515" stop-color="#F3AF80"/><stop offset="1" stop-color="#FEDDA5"/></linearGradient><filter id="a" width="609.604" height="753.516" x=".555" y=".989" color-interpolation-filters="sRGB" filterUnits="userSpaceOnUse"><feFlood flood-opacity="0" result="BackgroundImageFix"/><feColorMatrix in="SourceAlpha" result="hardAlpha" values="0 0 0 0 0 0 0 0 0 0 0 0 0 0 0 0 0 0 127 0"/><feOffset dx="-14" dy="-13"/><feGaussianBlur stdDeviation="13.4"/><feComposite in2="hardAlpha" operator="out"/><feColorMatrix values="0 0 0 0 0 0 0 0 0 0 0 0 0 0 0 0 0 0 0.5 0"/><feBlend in2="BackgroundImageFix" result="effect1_dropShadow_2039_4609"/><feBlend in="SourceGraphic" in2="effect1_dropShadow_2039_4609" result="shape"/></filter></defs></svg>