<svg width="476" height="578" viewBox="0 0 476 578" fill="none" xmlns="http://www.w3.org/2000/svg">
<rect x="1.29297" y="1" width="473" height="576" rx="29" fill="#202020"/>
<rect x="1.29297" y="1" width="473" height="576" rx="29" stroke="url(#paint0_linear_2522_3424)" stroke-width="2"/>
<rect x="1.29297" y="1" width="473" height="576" rx="29" stroke="url(#paint1_linear_2522_3424)" stroke-width="2"/>
<g clip-path="url(#clip0_2522_3424)">
<path d="M126.988 272.16C126.105 273.852 125.3 275.492 124.495 277.105C119.562 287.646 115.096 299.151 113.901 308.234C113.875 308.468 113.849 308.703 113.823 308.911C113.823 309.015 113.798 309.093 113.798 309.171C113.72 309.822 113.694 310.498 113.642 311.149C113.408 315.756 113.486 321.404 115.589 327.859C115.589 327.885 115.615 327.911 115.615 327.963C115.823 328.588 116.057 329.212 116.316 329.863C118.393 335.12 121.977 341.315 128.208 347.926C128.416 348.16 128.65 348.394 128.883 348.629C129.455 349.227 130.026 349.826 130.649 350.425C131.61 351.361 132.622 352.272 133.687 353.209C133.947 353.444 134.232 353.678 134.492 353.912C135.608 354.875 136.777 355.838 137.997 356.827C138.127 356.931 138.257 357.035 138.387 357.14C147.345 364.141 157.368 368.409 165.65 371.09C165.053 366.509 163.002 345.896 171.155 331.555C179.724 316.511 198.886 279.448 227.189 250.479C239.288 237.856 247.909 231.557 262.112 228.382C290.233 222.057 320.898 239.418 363.092 280.567C350.161 257.298 287.896 155.974 277.458 141.763C266.189 126.407 257.542 117.74 240.82 118C225.631 118.26 215.946 125.912 179.542 181.585C179.542 181.585 179.464 181.689 179.36 181.897C179.308 181.975 179.256 182.053 179.204 182.131C179.127 182.235 179.075 182.366 178.971 182.522C178.893 182.652 178.789 182.808 178.685 182.99C178.581 183.146 178.477 183.329 178.348 183.537L178.088 183.953C178.062 184.005 178.036 184.057 178.01 184.109C177.984 184.135 177.984 184.135 177.958 184.161C177.932 184.24 177.88 184.318 177.828 184.396C176.608 186.4 174.764 189.393 172.479 193.167C171.986 193.948 171.493 194.755 170.999 195.614C166.741 202.615 161.288 211.698 155.42 221.589C155.057 222.214 154.693 222.812 154.33 223.437C151.993 227.419 149.578 231.531 147.189 235.67C146.826 236.294 146.462 236.945 146.099 237.57C140.62 247.07 135.245 256.648 130.571 265.393C129.299 267.683 128.104 269.974 126.988 272.16Z" fill="#FBBE00"/>
<path d="M404.895 326.531C398.066 317.11 388.096 306.334 377.138 295.637C316.821 243.322 287.272 225.337 258.191 234.863C252.348 236.789 247.415 239.574 243.312 242.463C245.805 243.738 249.622 246.419 255.101 251.989C263.591 260.604 281.663 280.229 297.45 305.579C297.373 305.475 297.321 305.345 297.269 305.241C313.393 327.416 320.689 343.97 320.326 368.149C319.755 404.666 283.974 443.29 250.713 458.62C273.744 462.446 284.753 457.527 291.686 454.899C372.413 422.13 392.666 396.051 401.156 386.42C410.738 375.593 414.295 367.577 414.295 355.63C414.243 341.731 410.244 334.236 404.895 326.531Z" fill="#FBBE00"/>
<path d="M220.151 458.491C257.853 456.929 299.813 418.408 309.29 375.671C300.904 380.486 289.089 384.755 272.523 386.551C255.049 388.425 232.64 389.154 209.895 386.629V386.655C209.895 386.655 168.947 384.391 144.592 370.232C120.236 356.073 106.708 342.122 106.682 318.099C106.682 307.688 109.305 297.589 113.096 288.454C91.5702 303.055 58.672 329.889 61.4503 356.203C65.475 394.073 115.952 419.502 167.285 444.358C188.343 454.534 205.169 458.933 220.151 458.491Z" fill="#FBBE00"/>
</g>
<defs>
<linearGradient id="paint0_linear_2522_3424" x1="9.26519" y1="127" x2="461.054" y2="2.37817" gradientUnits="userSpaceOnUse">
<stop stop-color="#FDD88F" stop-opacity="0.6"/>
<stop offset="1" stop-color="#FEB425"/>
</linearGradient>
<linearGradient id="paint1_linear_2522_3424" x1="39.293" y1="578" x2="420.027" y2="13.1137" gradientUnits="userSpaceOnUse">
<stop stop-color="#E65E01" stop-opacity="0.52"/>
<stop offset="0.515" stop-color="#F3AF80"/>
<stop offset="1" stop-color="#FEDDA5"/>
</linearGradient>
<clipPath id="clip0_2522_3424">
<rect width="353" height="342" fill="white" transform="translate(61.293 118)"/>
</clipPath>
</defs>
</svg>
