<svg width="81" height="81" viewBox="0 0 81 81" fill="none" xmlns="http://www.w3.org/2000/svg">
<g id="Group 1597884028">
<g id="Group 1597884009">
<path id="Vector" d="M64.7913 24.6412C64.5209 24.3323 63.8943 23.5991 63.0685 22.6338C60.5827 19.7284 56.4234 14.8657 54.5085 12.8017C53.7173 11.9477 52.7332 10.886 50.8268 10.8107C50.688 10.806 50.2653 10.7903 44.9205 10.7903C38.844 10.7903 30.2613 10.81 30.2651 10.81C29.3563 10.81 27.9707 11.0161 26.4439 12.8033C25.3241 14.1159 23.5848 16.1242 21.8243 18.1568C19.5815 20.7461 17.3059 23.3746 16.2363 24.6482C14.3771 26.8015 14.3308 29.805 16.1148 32.4883L16.2332 32.6452C18.3395 35.0989 22.9205 40.3661 28.3314 46.5869L36.7416 56.2604C38.2951 58.0499 39.5215 58.2914 40.5166 58.2914C41.5619 58.2914 42.7428 58.0451 44.2915 56.2611L52.9902 46.2543C58.1076 40.3707 62.441 35.3889 64.8155 32.6238C66.4012 30.7107 66.8529 27.127 64.7913 24.6412ZM59.9049 31.0008C57.8159 33.4331 53.9733 37.8512 49.4354 43.0679L41.7128 51.9523C41 52.7731 40.7195 52.7731 40.5141 52.7731C40.3206 52.7731 40.0283 52.7731 39.3162 51.9523L31.849 43.363C27.1023 37.9054 23.0752 33.2756 21.1811 31.071C20.343 29.7693 20.32 28.547 21.131 27.6079C22.0882 26.4692 24.0971 24.1489 26.0763 21.8636C27.6446 20.053 29.1935 18.2641 30.1903 17.0959C30.8482 16.326 31.1885 16.326 31.4176 16.326C31.4176 16.326 39.0323 16.3086 44.4237 16.3086C48.5065 16.3086 49.3953 16.3191 49.559 16.3247C50.0024 16.342 50.1709 16.4542 50.8441 17.1816C52.505 18.972 56.1749 23.2615 58.3669 25.8246C59.1096 26.6926 59.6734 27.3512 59.8921 27.6011C60.7264 28.6071 60.56 30.2101 59.9049 31.0008ZM49.7733 28.1665L40.483 40.0647L31.2046 28.1342C31.1097 27.9851 31.0811 27.9851 30.9468 27.9851H26.4201V30.0769H26.5287C27.3845 30.0769 27.7017 30.2995 28.0529 30.768C28.0873 30.815 28.1278 30.8687 28.2086 30.9685C30.2491 33.7428 38.2461 43.4615 40.5033 46.4884C42.7597 43.4594 50.7516 33.7338 52.8191 30.9303C52.8691 30.871 52.908 30.818 52.9426 30.7717C53.2959 30.3009 53.6139 30.0769 54.4659 30.0769H54.5687V27.9815H50.0583C49.9312 27.9816 49.8929 27.9816 49.7733 28.1665Z" fill="#FABD00" stroke="#3F3F3F" stroke-width="0.5"/>
<path id="Vector_2" d="M57.581 67.2885C57.581 68.7646 56.3845 69.9611 54.9084 69.9611H26.0788C24.6028 69.9611 23.4062 68.7646 23.4062 67.2885C23.4062 65.8125 24.6028 64.616 26.0788 64.616H54.9084C56.3845 64.6161 57.581 65.8126 57.581 67.2885Z" fill="#FABD00" stroke="#3F3F3F" stroke-width="0.5"/>
</g>
</g>
</svg>
