<svg xmlns="http://www.w3.org/2000/svg" width="551" height="768" fill="none"><g filter="url(#a)"><rect width="447.925" height="664.936" x="51.555" y="51.784" fill="#202020" rx="29"/><rect width="447.925" height="664.936" x="51.555" y="51.784" stroke="url(#b)" stroke-width="2" rx="29"/><rect width="447.925" height="664.936" x="51.555" y="51.784" stroke="url(#c)" stroke-width="2" rx="29"/><path fill="#FABD00" d="M363.391 105.791c-.694.04-1.38.168-2.042.379a4.274 4.274 0 0 0-1.191.566c-.199.136-.181.285-.163.435.012.101.024.201-.029.297-.068.123-.218.193-.345.253-.122.057-.224.105-.214.18.02.153.233.433.559.666.161.108.328.218.499.331.532.35 1.094.72 1.602 1.113.16.127.087.16-.712.087a5.376 5.376 0 0 0-.831.06c.558.087.93.197 1.353.323.354.105.744.221 1.307.342.2.04.395.096.586.167-.346.079.425.286.937.412a5.112 5.112 0 0 1 1.643.732c.401.272.786.567 1.151.886h.001c.219.193.438.386.704.592.099.077.2.159.306.244l.001.001c.179.144.372.301.597.467.165.13.346.268.535.412.518.395 1.096.835 1.573 1.279.29.252.553.533.785.839.184.221.437.47.701.73.213.21.433.427.629.641a26.08 26.08 0 0 1 2.84 3.781c.339.546.665 1.111.971 1.684l.944 1.797.3.553.058.104.012.022.001.003c.093.167.176.317.314.536l.526.852.592.786c.213.246.432.479.665.705.236.208.485.402.745.579.52.365 1.098.639 1.709.812a7.459 7.459 0 0 0 3.771 0c.291-.051.58-.118.864-.199l.399-.107.832-.259.412-.12a18.426 18.426 0 0 1 6.431-.872c.316 0 .652.039 1.003.079.211.025.427.05.646.067.361.029.726.103 1.093.177.229.047.46.094.69.129.364.057.716.153 1.058.247.221.06.437.119.651.166.285.063.552.144.804.22.229.069.446.135.652.179a15.88 15.88 0 0 1 1.69.566 10.5 10.5 0 0 0 1.33.426c.028 0 .099.035.173.071.046.023.094.047.133.062.647.271 1.28.575 1.895.912.55.254 1.023.543 1.494.832l.12.073.175.107a33.505 33.505 0 0 1 3.631 2.456c.38.35.779.677 1.197.979.327.169.61.413.825.712 1.383 1.584 2.042.666 2.122.233.079-.433-.453-1.791-1.33-3.075-.393-.666-.891-1.331-1.33-1.917-.439-.586-.852-1.165-1.125-1.631-1.33-2.21-4.502-5.325-9.31-7.495a27.03 27.03 0 0 0-8.107-2.19 25.387 25.387 0 0 0-9.025.666c-.176.038-.316.074-.453.109a14.36 14.36 0 0 1-.312.077h-.226l-.04-.053-.126-.207-.187-.332-.439-.806c-.472-.865-.971-1.75-1.516-2.576a33.057 33.057 0 0 0-7.256-7.854l-.099-.08c-.094-.075-.188-.151-.286-.22a23.385 23.385 0 0 0-3.379-2.057 23.045 23.045 0 0 0-3.585-1.378 17.227 17.227 0 0 0-5.579-.765Z"/><path fill="#FABD00" fill-rule="evenodd" d="M248.381 122.644a106.1 106.1 0 0 0-19.693 18.811 127.833 127.833 0 0 0-11.725 17.26 148.086 148.086 0 0 0-7.102 14.251c-1.843 4.254-3.326 8.028-4.516 11.502-1.55 4.518-1.222 4.056-.885 3.582.227-.32.457-.645.12.545-.1.346-.326 1.049-.619 1.961a262.604 262.604 0 0 0-1.749 5.594 61.117 61.117 0 0 0-1.622 5.884c.22-.298.732-1.706 1.582-4.041l.001-.001a397.763 397.763 0 0 1 3.737-9.936 176.36 176.36 0 0 1 12.836-26.292 121.976 121.976 0 0 1 18.921-24.229c1.775-1.718 2.361-2.243.525-.36-.163.174-.35.363-.556.573h-.001c-.365.37-.793.805-1.272 1.331-.201.221-.414.453-.64.697l-.001.002-.001.001c-.616.669-1.32 1.433-2.098 2.329a122.377 122.377 0 0 0-8.074 10.41c-2.42 3.455-4.409 6.756-6.258 9.985-1.793 3.131-3.386 6.337-4.998 9.674a145.803 145.803 0 0 1 9.274-16.371 118.949 118.949 0 0 1 10.083-13.239 103.142 103.142 0 0 1 12.895-12.381l.672-.529.004-.003c1.082-.855 2.194-1.733 3.388-2.57.272-.19.541-.386.812-.584.451-.329.907-.661 1.389-.973l2.328-1.538a91.513 91.513 0 0 1 10.794-5.911 79.281 79.281 0 0 1 10.315-3.854c3.418-.998 6.112-1.537 5.945-1.484-.647.123-1.287.285-1.915.486-.054.017-.08.025-.079.027l.065-.013c.089-.019.267-.057.519-.101.298-.051.721-.134 1.247-.237.368-.072.787-.154 1.247-.242l1.849-.346 2.195-.286a64.395 64.395 0 0 1 11.06-.5c3.975.14 7.929.645 11.811 1.511a62.076 62.076 0 0 1 15.922 5.825 56.525 56.525 0 0 1 10.947 7.641 51.609 51.609 0 0 1 3.93 3.994l.871.992.426.486.386.506 1.496 1.996a50.391 50.391 0 0 1 4.509 7.822c.578 1.146 1.036 2.348 1.492 3.544.153.402.306.803.463 1.202.121.388.245.775.368 1.161.396 1.234.789 2.462 1.062 3.724.219 1.011.419 2.013.618 3.013.127.64.254 1.279.387 1.92.07.515.128 1.03.185 1.546l.001.002c.034.309.069.618.106.928l.043.36v.001c.036.29.071.578.09.87l.067 1.238a52.239 52.239 0 0 1-2.335 18.851 49.766 49.766 0 0 1-5.094 10.816 52.1 52.1 0 0 1-8.273 10.111 54.135 54.135 0 0 1-12.111 8.654 50.158 50.158 0 0 1-16.513 5.325c-5.29.734-11.248.586-17.697.426l-.819-.02c-3.385-.073-6.91-.12-10.561.086-3.773.179-7.518.75-11.173 1.704a31.753 31.753 0 0 0-5.653 2.097 22.077 22.077 0 0 0-5.32 3.574 17.596 17.596 0 0 0-2.255 2.523 14.997 14.997 0 0 0-1.742 3.036 15.315 15.315 0 0 0-1.257 6.909c.075 1.243.328 2.469.751 3.641a11.26 11.26 0 0 0 1.876 3.328 13.044 13.044 0 0 0 5.912 4.173 20.773 20.773 0 0 0 6.265 1.079 40.28 40.28 0 0 0 5.673-.293l1.929-.266 1.496-.233c.499-.08 1.044-.16 1.629-.22a29.46 29.46 0 0 1 3.871-.2c1.374.001 2.741.189 4.064.559a6.323 6.323 0 0 1 2.932 1.678c.32.371.578.791.765 1.245.179.422.28.873.3 1.331a6.388 6.388 0 0 1-.812 3.022 9.421 9.421 0 0 1-1.995 2.503c-.536.485-1.122.911-1.749 1.271-.183.117-.379.204-.572.29-.137.06-.272.12-.399.189-.306.167-.772.313-1.19.426a21.522 21.522 0 0 1-5.68.879c-2.115.086-4.436 0-6.923-.113a97.07 97.07 0 0 0-7.881-.054 68.502 68.502 0 0 0-16.394 2.523 48.38 48.38 0 0 0-15.13 7.276 40.133 40.133 0 0 0-12.696 15.089 33.622 33.622 0 0 0-2.886 9.819 20.307 20.307 0 0 0 .06 5.604 13.622 13.622 0 0 0 2.321 5.838 14.084 14.084 0 0 0 4.655 4.14c1.644.9 3.403 1.571 5.227 1.997.865.206 1.723.373 2.574.492.851.12 1.689.207 2.494.267l.407.031c.674.051 1.357.104 2.027.115.19.003.381.008.573.013h.001c.62.016 1.246.033 1.86-.013 6.471-.046 12.716-1.138 18.715-2.443 2.266-.493 4.508-1.021 6.729-1.544h.002l.003-.001h.001c3.656-.861 7.254-1.708 10.803-2.362a67.09 67.09 0 0 1 16.992-1.218c2.707.194 5.383.69 7.981 1.478l.516.177.001.001c.459.156.917.313 1.371.487l1.823.779 1.755.905c.527.289 1.035.609 1.523.959a6.107 6.107 0 0 1 1.856 1.923c.38.769.57 1.619.552 2.477a16.178 16.178 0 0 1-.419 3.581 35.237 35.237 0 0 1-1.064 3.94 36.35 36.35 0 0 1-6.165 11.316 39.282 39.282 0 0 1-4.556 4.753c-1.689 1.497-3.512 2.948-5.414 4.406-.63.485-1.27.971-1.917 1.463-3.24 2.461-6.642 5.045-9.808 8.202a36.134 36.134 0 0 0-5.187 6.403 18.496 18.496 0 0 0-1.124 1.931c-.376.73-.699 1.486-.964 2.263a12.436 12.436 0 0 0-.592 2.709 9.82 9.82 0 0 0 .179 3.175 9.214 9.214 0 0 0 1.331 3.102 10.523 10.523 0 0 0 2.074 2.263 16.858 16.858 0 0 0 4.237 2.436 47.462 47.462 0 0 0 23.603 3.122 46.432 46.432 0 0 0 15.15-4.506 51.763 51.763 0 0 0 12.696-8.893c6.956-6.576 12.057-14.531 16.201-22.632 4.143-8.1 7.368-16.56 10.381-24.901 3.013-8.34 5.986-16.374 9.743-24.049 3.758-7.675 8.194-14.87 13.853-20.748a55.307 55.307 0 0 1 4.47-4.107 46.575 46.575 0 0 1 4.901-3.441 35.031 35.031 0 0 1 10.787-4.38 27.452 27.452 0 0 1 11.306.133c3.625.832 6.917 2.549 9.112 5.039a13.609 13.609 0 0 1 3.245 9.319c-.04 3.574-1.137 7.388-2.713 11.076-.785 1.85-1.71 3.668-2.707 5.525a110.137 110.137 0 0 1-3.146 5.431c-2.208 3.568-4.622 7.023-7.183 10.384a241.61 241.61 0 0 1-16.732 19.303c-1.774 1.86-3.572 3.7-5.368 5.538-1.2 1.229-2.4 2.456-3.591 3.688-1.998 2.067-4.062 4.076-6.125 6.085l-.001.001v.001c-1.007.98-2.013 1.96-3.012 2.946a596.351 596.351 0 0 1-38.234 33.947 597.839 597.839 0 0 1-83.358 56.812 523.096 523.096 0 0 1-10.395 5.811l-11.04 5.777c-3.671 1.877-7.269 3.415-10.641 3.328a12.976 12.976 0 0 1-5.048-1.138 17.538 17.538 0 0 1-4.655-3.055 20.14 20.14 0 0 1-1.995-2.063 22.548 22.548 0 0 1-1.689-2.363 29.112 29.112 0 0 1-2.607-5.472 59.614 59.614 0 0 1-2.754-12.647 114.712 114.712 0 0 1-.266-26.625c.226-2.203.545-4.387.891-6.563.175-1.102.376-2.194.591-3.292a70.533 70.533 0 0 0 13.756-3.091l2.201-.759c.207-.073.418-.144.63-.215.577-.195 1.163-.392 1.718-.65a127.096 127.096 0 0 0 4.05-1.831 33.216 33.216 0 0 0 3.625-2.203c.03-.026.164-.099.279-.162l.057-.031.036-.02c1.343-.853 2.708-1.817 3.944-2.689l.452-.32c1.061-.841 2.013-1.672 2.956-2.496l.001-.001c.393-.343.783-.684 1.18-1.024.474-.411.919-.856 1.33-1.331a4.33 4.33 0 0 1 .898-.945c1.875-1.691.778-2.19.312-2.237-.578-.053-1.889.666-3.325 1.478-.139.078-.277.161-.416.244l-.002.001c-.215.128-.431.257-.653.374l-1.104.526a15.94 15.94 0 0 1-1.909.772c-1.397.423-3.216 1.115-5.351 1.927a244.405 244.405 0 0 1-5.855 2.167 79.932 79.932 0 0 1-15.722 3.794l-1.384.206c.501-2.744.912-5.551 1.057-8.434.073-1.185.073-2.383.04-3.581 0-.419-.035-.844-.07-1.267l-.026-.328-.011-.143-.006-.093a18.512 18.512 0 0 0-.226-1.817 29.943 29.943 0 0 0-1.995-7.036 23.828 23.828 0 0 0-3.911-6.297 18.473 18.473 0 0 0-5.985-4.553 25.208 25.208 0 0 0-6.731-1.996c-1.818-.301-3.554-.476-5.201-.642h-.002l-.955-.097a44.698 44.698 0 0 1-5.374-.799 13.88 13.88 0 0 1-4.289-1.691 11.761 11.761 0 0 1-4.882-6.749 18.562 18.562 0 0 1-.725-4.307 20.431 20.431 0 0 1 .193-4.287c.466-3.394 1.929-7.002 3.837-10.596 1.231-2.317 2.671-4.659 4.163-7.084.822-1.338 1.661-2.701 2.488-4.099a79.473 79.473 0 0 0 5.986-12.514 78.293 78.293 0 0 0 3.578-13.14 80.244 80.244 0 0 0 1.276-12.8 75.724 75.724 0 0 0-.665-11.608 76.107 76.107 0 0 0-1.942-9.705 27.046 27.046 0 0 0-3.179-7.542 14.557 14.557 0 0 0-3.325-3.674 11.86 11.86 0 0 0-3.285-1.751 12.418 12.418 0 0 0-3.326-.592 20.975 20.975 0 0 0-4.223.313c-.971.15-1.871.372-2.775.595-.335.082-.67.164-1.009.243l-1.875.453-.931.226-.918.3-3.671 1.191c-.779.273-1.538.589-2.297.905h-.001l-.002.001c-.427.178-.854.355-1.285.526l-1.789.732-1.729.865c-.39.199-.783.391-1.176.584-.766.374-1.531.749-2.269 1.167l-2.085 1.231c.244-.841.391-1.707.437-2.583a13.209 13.209 0 0 0-.519-4.34 14.637 14.637 0 0 0-2.467-4.66 15.807 15.807 0 0 0-4.489-3.754 16.6 16.6 0 0 0-2.795-1.25c.144-.054.288-.11.433-.166 1.29-.504 2.632-1.107 3.827-1.644.888-.398 1.695-.761 2.338-1.019a23.96 23.96 0 0 0 3.093-1.531 26.622 26.622 0 0 0 1.775-1.091 20.649 20.649 0 0 0 1.949-1.485 15.616 15.616 0 0 0 1.995-2.07 10.767 10.767 0 0 0 1.716-3.042 9.313 9.313 0 0 0 .505-4.147 11.513 11.513 0 0 0-1.197-3.814 30.798 30.798 0 0 0-1.656-2.802 45.291 45.291 0 0 0-1.809-2.596 30.38 30.38 0 0 0-4.695-5.052 20.395 20.395 0 0 0-2.233-1.666c1.05-.1 2.097-.239 3.138-.417a35.775 35.775 0 0 0 6.085-1.578 22.581 22.581 0 0 0 6.651-3.641 15.39 15.39 0 0 0 3.026-3.215c.245-.31.467-.637.665-.978l.299-.513.146-.253.14-.306c.414-.858.705-1.77.865-2.709a9.472 9.472 0 0 0-.985-5.951 14.085 14.085 0 0 0-3.232-3.994 30.065 30.065 0 0 0-7.315-4.533 62.132 62.132 0 0 0-1.59-.694c.568-.243 1.12-.525 1.651-.845a11.974 11.974 0 0 0 3.851-3.627 10.917 10.917 0 0 0 1.862-5.858 13.767 13.767 0 0 0-1.237-5.877 19.282 19.282 0 0 0-2.96-4.66 22.017 22.017 0 0 0-3.924-3.707 19.383 19.383 0 0 0-8.825-3.695l-.565-.06a18.16 18.16 0 0 0-2.74 0c-1.417.102-2.81.411-4.137.919a14.59 14.59 0 0 0-3.219 1.691 14.607 14.607 0 0 0-2.766 2.416 13.32 13.32 0 0 0-3.326 6.929v.001c-.033.24-.066.479-.093.725a13.348 13.348 0 0 0 .665 5.325 20.711 20.711 0 0 0 1.922 4.08c.316.525.651 1.038 1.003 1.539-.371.003-.743.007-1.117.007a36.041 36.041 0 0 0-5.766.665c-1.701.336-3.371.81-4.995 1.418l-.176.072c-.754.309-1.517.622-2.245.98-.131.066-.258.128-.385.19-.267.129-.532.258-.825.429l-.2.117a17.825 17.825 0 0 0-5.34 4.649 15.787 15.787 0 0 0-2.72 5.478l-.053.228a21.08 21.08 0 0 0-.2.904c-.051.264-.079.531-.107.797l-.039.348c-.035.284-.036.584-.038.881l-.002.297c-.006.343.024.691.054 1.04l.012.151c.022.265.068.497.113.73.023.119.047.238.067.362.111.73.291 1.447.539 2.143.22.713.508 1.404.858 2.064a16.441 16.441 0 0 0 5.486 6.057 23.813 23.813 0 0 0 5.74 2.809c.88.326 1.776.61 2.683.849-.128.075-.256.151-.383.229l-.591.386a29.54 29.54 0 0 0-2.661 1.997 32.257 32.257 0 0 0-3.544 3.381 40.402 40.402 0 0 0-4.862 6.763 28.037 28.037 0 0 0-3.405 8.154c-.06.286-.113.572-.166.865a16.152 16.152 0 0 0 .452 7.063 16.447 16.447 0 0 0 3.179 5.99 15.534 15.534 0 0 0 2.241 2.17 15.893 15.893 0 0 0 2.315 1.498 14.021 14.021 0 0 0 3.877 1.311l.003.001a46.178 46.178 0 0 0-5.136 7.054c-.063.106-.119.219-.175.331l-.085.168-1.204 2.396a73.245 73.245 0 0 0-1.576 3.714 45.913 45.913 0 0 0-2.707 13.892v.666a30.76 30.76 0 0 0 1.484 10.171c.259.765.525 1.504.778 2.196.212.583.505 1.128.767 1.615l.144.269c.089.168.175.338.26.505l.001.001v.001c.193.381.38.75.583 1.064.274.423.56.812.791 1.127l.047.064c.353.466.665.872.971 1.212.265.305.559.583.878.832.41.354.856.663 1.331.923l-.787 1.933c-.206.471-.376.951-.547 1.432v.002l-.118.33-.585 1.777-.203.606c-.329.979-.656 1.956-.888 2.955-.178.768-.383 1.53-.588 2.291-.116.433-.232.865-.343 1.297-.198.77-.34 1.55-.482 2.331-.078.428-.156.857-.243 1.283l-.346 1.798-.246 1.81-.222 1.697c-.083.638-.165 1.275-.25 1.911l-.26 3.601c-.013.194-.028.389-.043.584-.031.401-.063.804-.076 1.207v1.783c0 .531-.011 1.061-.021 1.589-.013.657-.027 1.313-.019 1.966.008.765.048 1.529.087 2.292.022.413.043.825.059 1.236a100.825 100.825 0 0 0 6.651 30.838 100.199 100.199 0 0 0 6.577 13.899l.931 1.671c.326.545.665 1.078 1.011 1.617l2.029 3.215c1.206 1.803 2.447 3.557 3.681 5.299l.602.852a113.31 113.31 0 0 1 7.9 12.247c.458.832.853 1.68 1.248 2.529l.315.673c.506 1.072.905 2.183 1.251 3.328a28.378 28.378 0 0 1 1.39 6.823c.359 4.659-.599 9.379-1.623 14.178l-.121.567c-.99 4.626-2.022 9.45-1.728 14.489a25.299 25.299 0 0 0 1.104 6.118 29.908 29.908 0 0 0 2.62 5.99 44.5 44.5 0 0 0 3.698 5.392 63.32 63.32 0 0 0 4.15 4.659c2.203 2.262 4.344 4.254 6.211 5.991.512.476 1.004.933 1.47 1.371l.778.73.001.001.01.009c1.777 1.669 3.122 2.933 3.867 3.667a122.59 122.59 0 0 1 7.462 7.754 80.725 80.725 0 0 1 10.361 14.644 52.02 52.02 0 0 1 5.846 16.887c.163.891.253 1.761.341 2.604.034.328.067.652.105.971.033.572.066 1.131.093 1.677 0 .172.013.341.026.508.008.1.016.199.02.297v2.31c0 .309-.02.612-.041.91-.012.177-.024.354-.032.528-.029.835-.122 1.616-.212 2.379l-.034.283a40.072 40.072 0 0 1-1.756 7.662c-.152.437-.31.837-.455 1.205-.16.404-.305.77-.409 1.105a7.489 7.489 0 0 1-.42 1.018c-.082.172-.157.328-.212.473-.625 1.517-.306 1.278.432.206.488-.677.918-1.394 1.284-2.143.085-.172.174-.347.263-.523.136-.266.274-.536.402-.809l.572-1.411a35.745 35.745 0 0 0 2.361-11.489 48.664 48.664 0 0 0-3.093-18.764c-2.547-6.956-6.936-14.104-12.569-20.861-2.8-3.394-5.913-6.696-9.185-9.984-1.564-1.572-3.181-3.108-4.801-4.648l-.001-.001c-1.768-1.679-3.539-3.363-5.253-5.103a53.347 53.347 0 0 1-8.646-10.929 25.623 25.623 0 0 1-2.567-6.324 24.053 24.053 0 0 1-.665-6.736c.12-3.949 1.017-7.903 1.925-11.908.148-.653.297-1.308.442-1.964.506-2.343.978-4.719 1.264-7.142.315-2.429.342-4.887.08-7.322a31.848 31.848 0 0 0-1.537-7.022l-.272-.839-.313-.819-.196-.492c-.149-.377-.298-.755-.469-1.125-.107-.233-.212-.466-.317-.699-.367-.812-.731-1.618-1.139-2.383a99.449 99.449 0 0 0-6.704-10.943c-.464-.679-.925-1.349-1.382-2.012l-.001-.002-.006-.008-.019-.027-.001-.002c-1.772-2.574-3.469-5.037-4.922-7.441a97.082 97.082 0 0 1-4.829-8.693 104.165 104.165 0 0 1-7.98-22.705l-.413-2.164-.199-1.038c-.059-.298-.116-.596-.173-.895-.046-.242-.092-.485-.14-.729-.064-.33-.107-.66-.149-.992-.028-.217-.056-.434-.09-.652-.081-.584-.16-1.17-.239-1.756v-.002l-.001-.001v-.006l-.001-.002c-.07-.52-.14-1.04-.212-1.561a35.671 35.671 0 0 1-.212-2.276c-.027-.377-.054-.755-.087-1.132v-.007c-.047-.57-.093-1.14-.146-1.717-.027-.29-.027-.577-.027-.866 0-.289 0-.578-.026-.871a748.056 748.056 0 0 1-.1-3.515c.027-.694.044-1.392.06-2.092.04-1.681.08-3.377.272-5.083.047-.603.1-1.207.153-1.81l.08-.926.127-.905a957.196 957.196 0 0 0 .532-3.675c.113-.779.283-1.553.453-2.328.098-.45.197-.901.285-1.353.056-.247.105-.495.155-.743.074-.371.148-.742.244-1.114.092-.356.19-.705.289-1.055.072-.259.146-.519.216-.782.167-.619.333-1.231.506-1.85l.252-.926.32-.911c.227-.673.459-1.348.691-2.024l.001-.003.565-1.648.448-1.07c.859-2.059 1.73-4.144 2.784-6.152l.891-1.797c.265-.491.548-.969.834-1.451v-.001l.177-.299 1.017-1.757.513-.879c.107-.175.222-.344.337-.512.077-.113.153-.225.228-.34.765-1.131 1.529-2.276 2.294-3.421.486-.728 1.035-1.418 1.589-2.116.316-.399.635-.8.945-1.212a80.098 80.098 0 0 1 12.031-12.041l1.716-1.332c.175-.131.348-.266.52-.4.402-.314.802-.627 1.236-.898l3.651-2.449 3.837-2.217 3.991-1.997a66.478 66.478 0 0 1 8.439-3.168c1.449-.46 2.92-.842 4.409-1.145.256-.058.514-.119.772-.181h.001l.002-.001c.485-.116.972-.233 1.453-.324.739-.14 1.437-.239 2.109-.299 2.753-.247 4.349.299 5.912 2.11a12.907 12.907 0 0 1 1.962 3.374 26.46 26.46 0 0 1 1.33 4.267 75.816 75.816 0 0 1 1.689 9.472c.322 3.244.445 6.506.366 9.765a75.013 75.013 0 0 1-.931 9.878 71.541 71.541 0 0 1-2.328 9.751c-.157.582-.358 1.15-.56 1.719-.08.226-.16.451-.238.678-.272.798-.545 1.597-.878 2.369l-.957 2.357c-.18.382-.358.767-.536 1.151l-.001.004c-.178.383-.355.766-.534 1.148-.27.575-.566 1.147-.861 1.715l-.12.232-.17.329a45.274 45.274 0 0 1-1.217 2.257 141.337 141.337 0 0 1-2.726 4.519l-.519.842c-1.727 2.797-3.523 5.707-5.154 8.87a46.712 46.712 0 0 0-2.388 5.445 30.534 30.534 0 0 0-1.536 6.064 26.167 26.167 0 0 0 1.164 12.787 19.208 19.208 0 0 0 3.465 5.99 17.542 17.542 0 0 0 5.646 4.307 24.799 24.799 0 0 0 6.345 1.997c1.877.332 3.673.522 5.391.703l.521.056c3.738.386 7.129.865 9.643 2.256a13.857 13.857 0 0 1 5.786 6.763 21.784 21.784 0 0 1 1.424 4.719c.296 1.674.428 3.373.392 5.072-.03 3.486-.631 7.085-1.379 10.824l-.595.027c-.951.046-1.922.073-2.867 0l-2.507-.053c-.419 0-.838 0-1.257-.04l-1.257-.114a42.6 42.6 0 0 1-5.021-.619l-.446-.079c-1.357-.19-2.756-.461-4.128-.727-1.041-.201-2.067-.4-3.048-.558a75.77 75.77 0 0 0-3.072-.666 42.034 42.034 0 0 0-1.277-.219l-1.004-.193a9.062 9.062 0 0 0-3.419-.087c-.246.052-.286.196-.326.34-.027.098-.055.196-.146.266-.113.086-.289.086-.443.086-.154 0-.285 0-.308.087-.047.173.066.486.339.825a60.96 60.96 0 0 0 1.962 2.203c.166.187.066.207-.878-.179a9.378 9.378 0 0 0-1.011-.3c.479.239.834.449 1.188.658.516.305 1.03.609 1.924 1l.144.063.072.03.086.037.098.041c.186.078.344.144.332.148-.452 0 .532.366 1.19.593.76.243 1.493.562 2.189.951.571.353 1.15.666 1.689.912.837.439 1.704.819 2.593 1.139a29.55 29.55 0 0 0 3.645 1.045c.531.126 1.055.282 1.57.466.41.126.827.226 1.25.299l1.423.206 3.285.473c.749.09 1.506.141 2.259.191h.004c.356.024.711.048 1.063.075.307.016.616.039.926.062h.003c.581.042 1.163.085 1.731.085h.328a99.513 99.513 0 0 0-.575 3.407 120.969 120.969 0 0 0-.033 36.956 55.873 55.873 0 0 0 3.325 12.587 35.414 35.414 0 0 0 3.205 6.071 28.128 28.128 0 0 0 4.656 5.325 25.158 25.158 0 0 0 6.058 3.993 21.057 21.057 0 0 0 7.316 1.878 21.32 21.32 0 0 0 7.429-.899 40.923 40.923 0 0 0 6.318-2.529c1.44-.697 2.784-1.401 4.13-2.106l.002-.001c.481-.252.962-.504 1.448-.756l5.513-2.882a623.28 623.28 0 0 0 21.814-12.168 604.68 604.68 0 0 0 82.587-58.103 605.002 605.002 0 0 0 37.522-34.173c1.523-1.465 3-2.976 4.47-4.487l4.429-4.526c2.959-3.002 5.852-6.09 8.712-9.219a188.052 188.052 0 0 0 16.094-19.922c2.089-3.029 4.064-6.151 5.866-9.392.347-.581.664-1.184.982-1.787.116-.219.231-.438.348-.656.439-.819.865-1.658 1.291-2.51a58.05 58.05 0 0 0 2.261-5.325 34.47 34.47 0 0 0 2.321-11.921 21.977 21.977 0 0 0-3.758-12.501 21.611 21.611 0 0 0-4.582-4.819 25.651 25.651 0 0 0-5.56-3.242 32.34 32.34 0 0 0-12.037-2.449 35.555 35.555 0 0 0-11.971 1.83 48.176 48.176 0 0 0-10.581 5.172 54.158 54.158 0 0 0-9.005 7.376 68.887 68.887 0 0 0-7.316 8.773 113.554 113.554 0 0 0-10.894 19.503c-3.012 6.703-5.56 13.599-7.98 20.335-2.421 6.736-4.955 13.312-7.915 19.589-1.33 2.816-2.746 5.645-4.283 8.361-3.631 6.41-7.98 12.314-13.241 17.026a40.789 40.789 0 0 1-18.429 9.559 39.383 39.383 0 0 1-15.635.193 39.415 39.415 0 0 1-3.824-.939c-.215-.07-.431-.136-.648-.201-.412-.125-.824-.249-1.221-.411-.299-.122-.611-.232-.913-.339-.31-.109-.61-.215-.876-.327a6.388 6.388 0 0 1-2.168-1.331.879.879 0 0 1-.22-.353 1.28 1.28 0 0 1-.039-.519 6.542 6.542 0 0 1 .891-2.423l.213-.359.252-.386.506-.786c.2-.322.437-.627.675-.933.15-.193.301-.386.442-.584a40.279 40.279 0 0 1 5.533-5.592c1.841-1.568 3.821-3.074 5.853-4.62 2.555-1.943 5.192-3.95 7.741-6.223a47.766 47.766 0 0 0 5.66-6.064 44.281 44.281 0 0 0 4.562-7.029 44.556 44.556 0 0 0 3.172-7.748c.419-1.331.745-2.702 1.038-4.08.315-1.489.493-3.004.532-4.526a14.79 14.79 0 0 0-.772-5.192 12.178 12.178 0 0 0-1.27-2.596 13.43 13.43 0 0 0-1.749-2.144 19.135 19.135 0 0 0-3.877-2.908 20.106 20.106 0 0 0-1.125-.605 25.187 25.187 0 0 1-.791-.414l-.964-.486-.991-.419a37.512 37.512 0 0 0-8.12-2.456 50.6 50.6 0 0 0-8.254-.859 79.416 79.416 0 0 0-16.001 1.464c-3.758.691-7.381 1.551-10.951 2.399-1.384.329-2.76.655-4.132.97a118.811 118.811 0 0 1-14.532 2.662c-2.362.261-4.74.363-7.116.306-1.007 0-2.015-.083-3.009-.166l-.483-.04a21.2 21.2 0 0 1-3.172-.553c-1.995-.505-3.664-1.331-4.575-2.416a5.02 5.02 0 0 1-1.038-1.85 9.134 9.134 0 0 1-.359-2.583c.001-1.026.103-2.049.306-3.055.2-1.077.471-2.14.811-3.182a26.932 26.932 0 0 1 2.853-5.991 33.384 33.384 0 0 1 9.511-9.738 41.857 41.857 0 0 1 12.749-5.644 62.267 62.267 0 0 1 14.265-1.937c2.448-.067 4.835 0 7.429.113 2.725.146 5.457.124 8.18-.067a29.623 29.623 0 0 0 4.39-.705 20.897 20.897 0 0 0 2.214-.666l1.098-.419c.285-.117.585-.262.881-.404l.269-.129a17.608 17.608 0 0 0 7.169-6.736 14.95 14.95 0 0 0 1.849-4.892 11.804 11.804 0 0 0-.312-5.671 12.323 12.323 0 0 0-2.927-4.9 13.092 13.092 0 0 0-4.549-2.968 20.253 20.253 0 0 0-6.697-1.332 36.52 36.52 0 0 0-6.245.273 96.92 96.92 0 0 0-2.462.363 55.64 55.64 0 0 1-2.858.396 27.208 27.208 0 0 1-4.775.147 10.705 10.705 0 0 1-3.858-.899 5.298 5.298 0 0 1-1.33-.899 4.16 4.16 0 0 1-.512-.565l-.126-.147-.087-.153a2.03 2.03 0 0 1-.186-.306 5.614 5.614 0 0 1-.532-3.142 8.247 8.247 0 0 1 1.231-3.501 9.453 9.453 0 0 1 1.217-1.518 11.964 11.964 0 0 1 1.616-1.364 18.038 18.038 0 0 1 4.063-2.13c.745-.293 1.53-.539 2.328-.766.494-.14 1.005-.259 1.517-.379h.001l.004-.001c.314-.074.628-.147.939-.226.709-.179 1.454-.287 2.195-.396l.339-.05.174-.025.001-.001c.794-.118 1.594-.237 2.418-.293a99.063 99.063 0 0 1 10.787-.326c1.183.013 2.376.035 3.576.058 2.546.047 5.128.096 7.73.055a68.753 68.753 0 0 0 11.792-1.038 58.203 58.203 0 0 0 21.947-8.986 62.627 62.627 0 0 0 9.091-7.475 62.12 62.12 0 0 0 7.409-9.04 59.883 59.883 0 0 0 3.37-5.823c.23-.183.459-.355.697-.512l1.796-1.292c.362-.269.752-.52 1.17-.79.264-.17.539-.347.825-.541.142-.093.285-.19.433-.291.233-.159.477-.324.737-.488l1.397-.872c.665-.459 1.995-1.171 1.995-1.144-.485.366-.066.186.665-.213.16-.082.333-.176.518-.277v-.001c.252-.137.525-.286.812-.428l1.437-.712 1.091-.546.991-.433 1.676-.665c.899-.332 1.635-.563 2.306-.774l.247-.078c1.803-.513 3.558-.959 5.214-1.265 2.095-.419 4.337-.779 7.775-1.205a68.919 68.919 0 0 1 10.534-.466c1.503.038 3.002.163 4.49.373.377.053.791.1 1.23.149.712.08 1.49.168 2.288.304l.532.076.133.019c.443.062.887.124 1.33.204l1.935.373a65.585 65.585 0 0 1 17.212 6.184 65.809 65.809 0 0 1 12.091 8.3c.8.647 1.555 1.348 2.261 2.097a14.506 14.506 0 0 1 1.669 2.156c.396.616.692 1.29.878 1.997.133.434.133.898 0 1.332a2.09 2.09 0 0 1-.226.512c-.13.181-.279.346-.446.493a4.61 4.61 0 0 1-1.642.852 6.093 6.093 0 0 1-1.051.226c-.379.05-.762.067-1.144.053a14.025 14.025 0 0 1-2.713-.386c-.971-.219-1.996-.526-3.1-.858l-.792-.24c-.866-.264-1.763-.536-2.653-.786a79.449 79.449 0 0 0-7.049-1.657 91.181 91.181 0 0 0-17.505-1.684 17.643 17.643 0 0 0-4.249.419c-.418.102-.828.229-1.231.38-.44.165-.869.361-1.283.585a8.72 8.72 0 0 0-2.481 2.057 7.04 7.04 0 0 0-1.596 5.944 7.41 7.41 0 0 0 1.264 2.876c.306.426.644.829 1.011 1.205.312.313.571.552.851.792a26.43 26.43 0 0 0 1.516 1.191l.333.253a.337.337 0 0 0 .093.06l.146.113c.196.159.355.359.466.586a.74.74 0 0 1 0 .666.676.676 0 0 1-.1.126 1.642 1.642 0 0 1-.831.366l-.127.033-.425.074-.885.146-5.886 1.005a8.045 8.045 0 0 0-3.112 1.132c-.36.225-.7.478-1.018.759a4.552 4.552 0 0 0-1.39 2.729 5.644 5.644 0 0 0 .333 2.702c.34.852.854 1.623 1.509 2.263a14.245 14.245 0 0 0 2.408 1.857l1.264.799.838.513.053.032a43.259 43.259 0 0 1 1.847 1.184c.404.27.793.53 1.139.807.286.205.559.428.818.666.277.249.503.55.665.885a1.273 1.273 0 0 1 0 1.079 3.666 3.666 0 0 1-1.709 1.424 5.55 5.55 0 0 1-1.384.346c-.584.069-1.173.1-1.762.093-.823 0-1.678-.068-2.568-.139a66.043 66.043 0 0 0-1.349-.1 16.036 16.036 0 0 0-3.631.086 6.079 6.079 0 0 0-1.69.526c-.37.179-.705.423-.991.719a4.239 4.239 0 0 0-.545.745 5.99 5.99 0 0 0-.406 1.065 3.622 3.622 0 0 0 0 1.551c.082.31.207.606.373.879.175.274.388.523.632.739a5.826 5.826 0 0 0 2.56 1.225 7.828 7.828 0 0 0 1.809.233 3.139 3.139 0 0 0 1.723-.313c.438-.326-.207-.666-.665-.872a8.268 8.268 0 0 0-.692-.24c-.21-.067-.447-.143-.705-.233a9.018 9.018 0 0 1-1.995-.912 3.802 3.802 0 0 1-.446-.333 1.671 1.671 0 0 1-.266-.359.096.096 0 0 0-.015-.047.54.54 0 0 0-.02-.031l-.015-.024a.065.065 0 0 1-.009-.016.057.057 0 0 1-.007-.035c.002-.017-.004-.035-.009-.052-.01-.03-.021-.061.009-.094a.602.602 0 0 0 0-.147.608.608 0 0 0 .047-.15l.006-.036c.056-.154.125-.304.206-.446a.74.74 0 0 1 .246-.233c.347-.189.73-.305 1.124-.34a13.667 13.667 0 0 1 3.438.22c.335.051.673.107 1.014.162.938.154 1.9.311 2.89.404 1.41.176 2.84.099 4.223-.227a10.797 10.797 0 0 0 3.804-1.95 5.136 5.136 0 0 0 1.683-2.423 4.563 4.563 0 0 0 .18-1.597 5.82 5.82 0 0 0-.406-1.638 9.403 9.403 0 0 0-2.208-3.122 19.446 19.446 0 0 0-1.264-1.171l-.118-.103a14.07 14.07 0 0 0-1.026-.836 75.57 75.57 0 0 0-2.361-1.757 2.089 2.089 0 0 1-.299-.233l-.159-.14-.28-.279a.907.907 0 0 1-.319-.666.615.615 0 0 1 .412-.599c.247-.054.5-.077.752-.067h.166c.13.021.263.021.393 0l1.735-.199 1.769-.213.898-.107.071-.008c.473-.059 1.045-.129 1.552-.218 2.215-.366 4.157-1.331 5.32-3.029a6.406 6.406 0 0 0 .925-5.038 10.046 10.046 0 0 0-2.906-4.9l-.572-.512-.459-.326-.266-.207-.665-.512c-.399-.32-.739-.612-1.005-.865l-.054-.053a1.108 1.108 0 0 1-.058-.063l-.001-.001-.066-.07-.047-.053-.04-.067a.398.398 0 0 1 0-.146.292.292 0 0 1 .005-.06l.001-.007.005-.02c.002-.007.003-.013.006-.019.003-.012.008-.023.013-.035a.317.317 0 0 1 .09-.112.284.284 0 0 1 .1-.06c.2-.094.409-.166.625-.213a9.892 9.892 0 0 1 2.441-.166c1.071 0 2.208.066 3.325.133a85.18 85.18 0 0 1 13.394 1.89 79.644 79.644 0 0 1 6.571 1.751c.56.174 1.128.362 1.709.554 1.664.55 3.445 1.138 5.5 1.563 1.186.251 2.393.394 3.605.426a14.653 14.653 0 0 0 3.99-.44 13.269 13.269 0 0 0 3.878-1.644 10.959 10.959 0 0 0 3.325-3.255 10.45 10.45 0 0 0 1.636-4.586 11.804 11.804 0 0 0-.446-4.546 18.459 18.459 0 0 0-3.771-6.524 19.378 19.378 0 0 0-.955-1.039l-.109-.112a24.815 24.815 0 0 0-1.33-1.258l-1.263-1.078-.024-.02c-.83-.706-1.667-1.418-2.557-2.071a67.801 67.801 0 0 0-8.286-5.558 71.445 71.445 0 0 0-16.088-6.656 76.078 76.078 0 0 0-8.546-1.87 78.047 78.047 0 0 0-8.726-.839c-.262 0-.526-.013-.791-.027a16.153 16.153 0 0 0-.792-.026 67.384 67.384 0 0 0-12.636.978 67.84 67.84 0 0 0-11.971 3.209 59.983 59.983 0 0 0-14.998 8.04 59.237 59.237 0 0 0 1.713-7.07c.117-.604.191-1.214.266-1.823.04-.329.08-.659.127-.986l.186-1.404.093-1.411c.018-.311.039-.621.06-.932l.001-.007c.043-.626.085-1.252.099-1.877.013-.626.009-1.249.004-1.871v-.005c-.002-.309-.004-.618-.004-.926 0-.636-.041-1.268-.081-1.901v-.01c-.019-.293-.038-.585-.052-.878-.047-.932-.1-1.851-.246-2.769-.106-.666-.184-1.328-.262-1.989l-.091-.754c-.074-.599-.203-1.189-.332-1.779v-.002a37.698 37.698 0 0 1-.282-1.382c-.055-.297-.109-.59-.184-.871l-.346-1.331c-.095-.341-.182-.683-.269-1.024a30.056 30.056 0 0 0-.449-1.638l-.235-.713-.002-.007-.003-.006-.002-.007-.002-.007c-.486-1.478-.97-2.951-1.592-4.366a164.925 164.925 0 0 0-2.234-4.892c-.329-.643-.698-1.264-1.07-1.891l-.26-.439-.665-1.151c-.144-.241-.3-.476-.457-.71-.09-.136-.18-.272-.268-.409a55.64 55.64 0 0 0-14.139-14.89 65.25 65.25 0 0 0-17.212-8.873 70.345 70.345 0 0 0-17.704-3.594 70.949 70.949 0 0 0-16.68.732 79.51 79.51 0 0 0-14.631 3.894c-2.125.753-4.12 1.642-6.058 2.505l-.353.157-2.966 1.458c-.621.3-1.215.633-1.802.961l-.001.001a59.86 59.86 0 0 1-1.01.556l-1.331.752c-.218.124-.432.255-.647.386a22.37 22.37 0 0 1-.683.406l-2.52 1.551-.777.526c-.535.361-1.061.716-1.577 1.072l-1.138.772-1.057.778Zm-112.46 37.168a58.547 58.547 0 0 0-4.782-.81 20.155 20.155 0 0 0-.211-.334 6.944 6.944 0 0 1-.353-.666c.322.234-.105-.504-.422-1.052l-.05-.086a7.893 7.893 0 0 1-.878-1.997 16.009 16.009 0 0 1-.366-1.677c-.043-.291-.091-.581-.141-.892a76.937 76.937 0 0 1-.211-1.345 7.884 7.884 0 0 1-.04-2.429c.054-.284.163-.555.319-.799.028-.08.071-.165.117-.257.054-.107.113-.223.156-.349a5.6 5.6 0 0 1 .399-.665 7.085 7.085 0 0 1 3.099-2.43 6.754 6.754 0 0 1 1.55-.452 9.851 9.851 0 0 1 1.562-.134c1.073.022 2.136.208 3.153.553 1.102.384 2.15.907 3.119 1.557a14.238 14.238 0 0 1 4.702 5.146c.441.868.669 1.828.665 2.802a4.95 4.95 0 0 1-.219 1.238 7.572 7.572 0 0 1-.486 1.065 6.204 6.204 0 0 1-.971 1.218l-.223.204c-.314.286-.598.544-.755.728 0 .02-.065.06-.136.103-.046.028-.095.057-.13.084a9.5 9.5 0 0 1-1.875.925c-.668.239-1.356.42-2.055.539a20.21 20.21 0 0 1-4.537.212Zm-.107 27.826c-2.445.542-4.739.934-7.06 1.281-.433-.01-.867-.007-1.3.01a25.006 25.006 0 0 0-6.003.978 72.11 72.11 0 0 1-1.632-.991c-.312-.207-.179-.207 1.417.233.444.122.842.187 1.243.252.146.024.291.047.44.074a60.015 60.015 0 0 1-2.804-.993c-.686-.258-1.445-.543-2.517-.917a11.641 11.641 0 0 1-.613-.245l-.132-.055-.405-.18c.332.04.119-.086-.3-.273-.125-.056-.267-.12-.416-.189l-.002-.001c-.348-.16-.741-.34-1.085-.475a11.755 11.755 0 0 1-2.979-1.851c-.135-.132-.271-.261-.404-.388a20.21 20.21 0 0 1-.574-.557l-.791-.952a12.535 12.535 0 0 1-1.596-2.968 5.466 5.466 0 0 1-.28-.946 3.08 3.08 0 0 0-.054-.198c-.029-.102-.059-.206-.079-.314l-.059-.559a4.939 4.939 0 0 1 .033-1.997c.099-.548.304-1.07.605-1.538.173-.333.426-.745.705-1.178a9.695 9.695 0 0 1 1.024-1.245 9.491 9.491 0 0 1 1.457-1.211 9.05 9.05 0 0 1 .798-.493l.419-.219.505-.227a20.862 20.862 0 0 1 4.303-1.444 33.893 33.893 0 0 1 7.528-.752 53.22 53.22 0 0 1 14.233 2.136 54.283 54.283 0 0 1 6.743 2.337 20.225 20.225 0 0 1 5.427 3.221 5.404 5.404 0 0 1 1.33 1.698 1.987 1.987 0 0 1 0 1.544.39.39 0 0 1-.054.166.73.73 0 0 0-.039.087 3.065 3.065 0 0 1-.146.306 6.054 6.054 0 0 1-.493.861 4.115 4.115 0 0 1-.219.331l-.419.545a15.115 15.115 0 0 1-1.868 1.798 17.872 17.872 0 0 1-2.794 1.77c-.404.205-.797.397-1.156.572l-.001.001c-.538.263-.998.487-1.297.659a3.084 3.084 0 0 1-.388.16l-.224.086a56.706 56.706 0 0 1-8.027 2.25Zm-20.289 41.219c.213-.186.428-.37.645-.552a5.135 5.135 0 0 1-.581-.037l-.149-.02c-1.062-.141-1.144-.152-.921.02.327.211.663.408 1.006.589Zm.765-.652a32.91 32.91 0 0 1 1.249-.984c.406-.306.818-.606 1.244-.892.446-.307.908-.591 1.383-.852a14.995 14.995 0 0 1 3.265-1.404 16.228 16.228 0 0 1 6.106-.603c.223-.128.479-.263.77-.408a6.816 6.816 0 0 0 1.516-.898c.124-.124.544-.382 1.02-.676h.001a30.08 30.08 0 0 0 1.094-.695 56.09 56.09 0 0 0 5.693-4.374c1.676-1.424 3.465-3.042 4.336-4.659.025-.052.062-.115.099-.176.052-.089.101-.172.101-.203.149-.485.253-.981.312-1.485a2.703 2.703 0 0 0-.345-1.524 13.156 13.156 0 0 0-1.078-1.711l-.191-.263c-.488-.674-1.044-1.441-1.631-2.146a26.853 26.853 0 0 0-3.99-4.147 13.825 13.825 0 0 0-4.29-2.416 13.84 13.84 0 0 0-2.354-.52 14.774 14.774 0 0 0-2.488-.079 17.01 17.01 0 0 0-5.014 1.078c-.81.316-1.598.682-2.361 1.098-.78.444-1.535.93-2.261 1.458a29.357 29.357 0 0 0-4.509 4.127 34.31 34.31 0 0 0-2.448 3.135 35.285 35.285 0 0 0-2.081 3.368 27.702 27.702 0 0 0-1.224 2.662 6.118 6.118 0 0 0-.519 1.538 10.458 10.458 0 0 0-.06 3.688c.147.959.37 1.905.665 2.829.208.649.487 1.274.832 1.863a5.984 5.984 0 0 0 1.802 1.858c.224.164.503.337.747.488.437.271.759.47.443.423.255.166.525.309.805.426.871.367 1.47.566 2.035.753.432.147.876.255 1.326.323Zm22.518 10.904a14.66 14.66 0 0 1-.203 4.71l-.208.143-.191.131c-.892.608-1.782 1.215-2.606 1.906l-3.032 2.397-2.867 2.576a81.266 81.266 0 0 0-10.129 11.409l-1.143 1.524c-.268.361-.512.739-.756 1.116v.001c-.102.158-.205.317-.309.474l-2.088 3.188a126.28 126.28 0 0 1-1.102 1.94l-.002.004-.002.004-.001.001c-.891 1.55-1.779 3.092-2.511 4.707l-.535 1.106a16.755 16.755 0 0 0-.873-2.051c-.067-.14-.16-.34-.226-.5a1.114 1.114 0 0 1-.087-.299c.306.353-.073-.699-.339-1.398a7.288 7.288 0 0 1-.592-2.47 14.156 14.156 0 0 1-.093-1.996c0-.135.004-.269.007-.406a9.335 9.335 0 0 0-.007-.926 10.522 10.522 0 0 1 0-1.65c.035-.431.024-.826.012-1.239a23.01 23.01 0 0 1-.012-.658c0-.41.032-.829.063-1.235.02-.262.04-.518.05-.762.02-.56.1-1.116.24-1.658.079-.366.146-.825.206-1.331.04-.49.112-.977.213-1.458.083-.356.157-.714.23-1.073.154-.754.309-1.511.561-2.255l.472-1.651.599-1.624c.071-.18.138-.365.205-.55.089-.245.178-.492.28-.735l.586-1.264.565-1.265.625-1.205a40.977 40.977 0 0 1 5.5-8.26 28.156 28.156 0 0 1 3.412-3.328c.299-.247.605-.48.911-.706l.233-.166.193-.113.379-.247a7.029 7.029 0 0 1 1.676-.745 9.222 9.222 0 0 1 3.99-.3c1.274.185 2.509.576 3.658 1.158l.074.036c.121.057.251.118.371.184l.439.286c.059.04.119.078.18.116.091.056.182.113.266.177l.399.333c.06.054.125.103.188.152.07.053.138.105.198.161.113.106.219.213.319.313.113.109.231.2.335.28.079.06.149.114.204.166.085.08.125.146.164.211.019.031.038.062.062.095a5 5 0 0 1 .365.479l.306.526c.213.358.398.731.552 1.118.292.775.501 1.578.626 2.396Zm-28.305 37.103c-.025-.255.034-.217.478.528l-.167.344-.12.246-.035.072-.07-.345a11.811 11.811 0 0 1-.066-.625l-.02-.22Zm244.537-86.018a27.42 27.42 0 0 0-.799.684c.199-.4.395-.803.585-1.208l.133-.075.11-.064.084-.049c.598-.353 1.197-.706 1.816-1.005.507-.246.45-.2-.869.862l-.001.001-.004.003-1.055.851Z" clip-rule="evenodd"/><path fill="#FABD00" d="M202.764 229.58a9.202 9.202 0 0 1 4.336-2.006 9.94 9.94 0 0 1 2.255-.943 12.102 12.102 0 0 1 6.65 0c1.143.331 2.232.827 3.232 1.471a10.915 10.915 0 0 1 2.707 2.517c.198.251.382.513.552.785a10.913 10.913 0 0 1 1.623 4.986 12.657 12.657 0 0 1-.625 4.905 12.92 12.92 0 0 1-6.092 7.322 11.294 11.294 0 0 1-5.8 1.331 12.183 12.183 0 0 1-3.777-.765l-.136-.055c-.202-.082-.407-.164-.602-.251a13.599 13.599 0 0 1-5.208-4.294 12.55 12.55 0 0 1-2.46-6.483 7.277 7.277 0 0 1 0-1.085l.007-.298c.006-.266.012-.533.046-.78.08-.739.234-1.468.459-2.177a9.22 9.22 0 0 1 1.117-2.21c.246-.379.492-.725.771-1.045.259-.295.568-.579.871-.857l.074-.068Z"/></g><defs><linearGradient id="b" x1="59.053" x2="497.093" y1="197.325" y2="98.137" gradientUnits="userSpaceOnUse"><stop stop-color="#FDD88F" stop-opacity=".6"/><stop offset="1" stop-color="#FEB425"/></linearGradient><linearGradient id="c" x1="87.496" x2="552.382" y1="717.72" y2="151.512" gradientUnits="userSpaceOnUse"><stop stop-color="#E65E01" stop-opacity=".52"/><stop offset=".515" stop-color="#F3AF80"/><stop offset="1" stop-color="#FEDDA5"/></linearGradient><filter id="a" width="549.926" height="766.936" x=".555" y=".784" color-interpolation-filters="sRGB" filterUnits="userSpaceOnUse"><feFlood flood-opacity="0" result="BackgroundImageFix"/><feColorMatrix in="SourceAlpha" result="hardAlpha" values="0 0 0 0 0 0 0 0 0 0 0 0 0 0 0 0 0 0 127 0"/><feOffset/><feGaussianBlur stdDeviation="25"/><feComposite in2="hardAlpha" operator="out"/><feColorMatrix values="0 0 0 0 0 0 0 0 0 0 0 0 0 0 0 0 0 0 0.5 0"/><feBlend in2="BackgroundImageFix" result="effect1_dropShadow_2039_4608"/><feBlend in="SourceGraphic" in2="effect1_dropShadow_2039_4608" result="shape"/></filter></defs></svg>