<svg xmlns="http://www.w3.org/2000/svg" width="851" height="903" fill="none"><rect width="419.963" height="623.487" x="142.334" y="204.78" fill="#202020" rx="29" transform="rotate(-15 142.334 204.78)"/><rect width="419.963" height="623.487" x="142.334" y="204.78" stroke="url(#a)" stroke-width="2" rx="29" transform="rotate(-15 142.334 204.78)"/><rect width="419.963" height="623.487" x="142.334" y="204.78" stroke="url(#b)" stroke-width="2" rx="29" transform="rotate(-15 142.334 204.78)"/><g filter="url(#c)"><mask id="d" width="557" height="701" x="147" y="101" maskUnits="userSpaceOnUse" style="mask-type:alpha"><rect width="421.963" height="625.487" x="141.109" y="204.069" fill="#fff" rx="30" transform="rotate(-15 141.109 204.069)"/></mask><g mask="url(#d)"><mask id="e" width="376" height="523" x="269" y="184" maskUnits="userSpaceOnUse" style="mask-type:luminance"><path fill="#fff" d="M307.34 220.81s-9.488 1.591-8.384 7.137c.61 2.526 3.699 4.745 3.699 4.745s29.202 19.218 36.854 58.161c7.651 38.944 12.906 79.511-20.367 119.262-33.272 39.751-86.045 143.123-13.262 215.164 21.369 19.249 52.958 34.639 71.751 37.427.226 12.496-.826 23.055-1.554 27.104-.049 1.716 1.051 7.88 7.856 10.422 6.806 2.542 21.05 13.748 100.31-2.93s114.871-40.956 119.891-51.928c2.134-4.155 1.9-7.856-.939-12.558-2.837-4.698-8.561-11.57-11.591-20.447.934-1.271 62.868-57.348 51.5-120.845-11.368-63.497-34.65-89.721-116.421-131.125-13.907-7.568-45.362-25.625-61.118-68.464-15.755-42.839-12.225-63.524-11.416-68.52.809-4.999 4.428-23.38 9.453-30.79.925-1.541 2.757-9.36-7.811-7.306-4.744.921-35.123 6.223-67.177 13.927-39.376 9.467-81.274 21.564-81.274 21.564Z"/></mask><g fill="#FABD00" mask="url(#e)"><path d="M479.758 480.531c-.433 1.83-.863 3.659-1.297 5.486-.095-.019-.187-.039-.282-.057-.116-4.41-.34-8.819-.312-13.225.019-2.783.391-5.558 1.973-8.014.269-.417.282-1.04.297-1.574.019-.785-.197-1.594-.086-2.364.486-3.345-.007-4.377-2.878-6.079-3.55-2.107-7.527-2.818-11.464-3.726-4.528-1.045-9.05-2.112-13.161-4.475-5.716-3.285-8.242-8.136-7.629-14.684.468-5.008 3.07-9.073 5.606-13.206 1.934-3.151 4.743-5.662 5.938-9.391 1.958-6.124-.943-11.061-7.321-11.744-1.034-.109-2.056-.288-3.387-.476 1.612-2.477 3.803-3.706 6.243-4.368 2.424-.658 4.945-.952 7.551-1.431-2.04-5.25 1.131-8.978 3.84-12.86 1.196-1.714 2.342-3.465 3.688-5.467.132.519.219.718.229.918.189 4.786 2.7 8.695 4.788 12.772 1.173 2.29 1.707 4.665.593 7.168-.753 1.702.618 2.086 1.675 2.699 1.118.647 2.232.957 3.101-.264a102.405 102.405 0 0 0 3.811-5.723c.935-1.515 1.718-3.123 2.6-4.752-.906-.75-1.793-1.495-2.69-2.227-4.508-3.678-6.356-8.667-7.118-14.239-.628-4.583-1.308-9.164-2.15-13.709-.609-3.277-2.807-5.567-5.891-7.738 5.185-.072 9.544.895 13.566 3.439 4.1 2.595 6.903 6.141 8.496 10.78.661-2.763.376-5.491-.283-8.135-1.067-4.292-2.887-8.357-6.492-11.023-2.425-1.792-5.332-3.183-8.237-4.027-5.955-1.732-10.991-4.582-14.364-9.898-3.851-6.068-5.926-12.766-5.461-19.924.474-7.251 1.615-14.453 2.465-21.68.236-.018.475-.038.71-.059.516 1.127 1.079 2.232 1.534 3.381 2.493 6.277 6.713 11.231 11.918 15.376 4.023 3.199 8.204 6.2 12.254 9.368 6.477 5.068 10.022 12.005 11.626 19.842 1.511 7.375 2.861 14.834 2.481 22.446-.314 6.327-.961 12.632-3.102 18.619-2.104 5.883-4.558 11.645-6.976 17.412-.827 1.971-2.016 3.788-3.08 5.75 5.568 2.31 8.921 6.849 10.959 12.466.669 1.85 1.675 2.855 3.668 3.145 4.33.629 7.103 3.199 8.494 7.319.193.567.476 1.105 1.213 1.733.254-1.055.497-2.114.766-3.166.334-1.318.752-2.618 1.002-3.951.094-.504.003-1.287-.326-1.584-3.666-3.293-6.051-7.532-8.603-11.626-1.586-2.543-1.155-5.366-.391-8.078 1.168-4.13 3.792-7.409 6.71-10.379 6.53-6.648 12.473-13.659 15.993-22.443.492-1.224 1.246-2.344 2.021-3.768.719 1.333 1.299 2.51 1.971 3.635 2.27 3.803 5.829 6.264 9.448 8.514 6.294 3.917 11.215 9.047 14.225 15.792 2.426 5.436 2.417 10.845-1.565 15.773-1.691 2.092-1.639 2.135 1.697 4.726 1.893-.331 1.696-1.999 1.88-3.229.829-5.565 3.276-10.488 5.814-15.396 4.201-8.122 11.189-12.582 19.702-14.967 5.588-1.564 10.981-3.36 15.054-7.856.817-.902 2.148-1.338 3.593-2.195.085 1.653.349 2.949.184 4.188-.522 3.859.683 7.267 2.661 10.409 3.604 5.727 5.819 11.858 6.264 18.643.283 4.279-.48 8.354-1.982 12.387 2.709-.315 5.388-.996 8.019-.85 4.485.247 8.999.744 13.401 1.628 6.972 1.4 13.898 2.605 21.013 1.186 1.293-.257 1.783-.724 1.851-2.193.282-6.169 3.867-10.433 8.421-14.164 3.224-2.639 6.872-4.387 10.692-5.887 1.089-.427 2.187-.828 3.279-1.241.117.163.23.331.346.495-.336.744-.562 1.569-1.028 2.221-3.898 5.452-3.539 11.173-1.381 17.144.856 2.366 1.476 4.891 1.705 7.388.319 3.475-1.306 6.517-3.085 9.386-1.036 1.672-2.257 3.226-3.229 5.088.961-.535 1.951-1.025 2.884-1.609 4.078-2.549 8.349-4.838 10.768-9.357 1.297-2.426 1.394-4.938 1.157-7.527-.333-3.633-.784-7.251-1.137-10.882-.456-4.68 1.26-8.486 4.423-11.916 3.894-4.223 7.611-8.62 11.215-13.094 1.076-1.334 1.519-3.18 2.397-5.104 3.793 7.104 8.709 13.759 6.121 22.851.578-.683 1.299-1.29 1.705-2.064 4.265-8.12 7.397-16.632 8.938-25.716 1.581-9.306.764-18.543-1.374-27.583-1.139-4.822-3.508-9.369-5.463-13.98-2.968-6.988-6.923-13.429-11.47-19.482-2.115-2.816-4.375-5.611-6.989-7.94a120.67 120.67 0 0 0-12.072-9.468c-4.851-3.324-10.412-5.099-16.177-6.232-8.312-1.635-16.563-1.057-24.54 1.425-3.699 1.15-7.404 3.184-10.314 5.727-3.912 3.415-6.939 7.823-10.571 11.589-2.301 2.382-4.872 4.564-7.569 6.487-3.467 2.471-8.362.306-10.949-2.023-2.912-2.624-3.215-5.992-1.167-9.665 3.339-5.993 8.449-10.133 14.385-13.347 9.293-5.03 19.321-7.114 29.788-7.607 7.459-.352 14.771.632 21.909 2.518 4.768 1.259 9.37 3.248 13.93 5.181 6.148 2.603 11.635 6.355 16.427 10.966 7.383 7.102 13.491 15.205 17.986 24.462 2.001 4.122 4.178 8.178 5.856 12.431 4.262 10.808 5.977 22.049 5.113 33.668-.633 8.512-2.009 16.866-5.411 24.75-2.769 6.417-6.318 12.391-10.941 17.668-3.342 3.815-6.544 7.788-10.211 11.266-4.665 4.423-9.574 8.633-14.688 12.524-4.228 3.216-8.69 6.286-13.442 8.618-8.102 3.972-16.52 7.297-24.786 10.936-1.099.485-2.111 1.189-3.114 1.867-1.583 1.068-3.121 2.203-4.885 3.458.8.323 1.435.647 2.106.841 6.058 1.729 10.552 5.606 14.311 10.458 4.034 5.208 8.869 9.292 15.27 11.284.17.053.308.194.668.428-1.61.869-3.156 1.58-4.571 2.49-4.311 2.772-7.389 6.725-10.209 10.909-2.273 3.376-4.277 6.987-6.915 10.049-1.879 2.179-4.594 3.65-6.984 5.37-.579.419-1.345.579-2.347.991 6.894 2.751 11.018 8.318 15.719 13.232 1.645 1.72 3.446 3.293 5.441 5.179.425-1.546.727-2.664 1.043-3.78 1.454-5.14 3.599-9.859 7.802-13.424 5.027-4.267 10.917-5.82 17.302-5.195 4.101.401 8.134 1.503 12.194 2.302.717.14 1.422.333 2.639.625-2.343 1.064-4.313 1.968-6.291 2.853-3.49 1.556-5.67 4.362-7.131 7.741-1.401 3.235-2.49 6.607-3.907 9.835-1.927 4.405-5.223 7.295-9.989 8.385-.382.089-.741.294-1.252.979 5.641 2.826 11.232 5.752 16.937 8.441 3.063 1.443 6.258 2.701 9.513 3.625 1.892.537 4.023.312 6.047.308 1.348-.001 1.347-.931 1.129-1.98-.87-4.169-1.148-8.341-.158-12.544 1.241-5.271 4.394-9.043 9.282-11.111 5.174-2.186 10.667-2.716 16.251-1.916.4.057.781.262 1.192.407-1.775 1.167-3.551 2.139-5.097 3.398-2.789 2.265-3.404 5.405-3.165 8.837.126 1.779.223 3.586.062 5.357-.301 3.274-2.229 5.537-4.943 7.217-.84.52-1.639 1.107-2.755 1.867.81.209 1.316.46 1.822.45 6.674-.128 13.069-1.092 18.451-5.608 2.46-2.065 3.29-4.807 4.126-7.686.615-2.114 1.415-4.218 2.441-6.159 1.711-3.237 5.096-4.59 7.992-6.422 3.296-2.082 5.682-4.745 6.567-8.63.478-2.095 1.058-4.167 1.705-6.686 2.817 8.517 5.796 16.559 2.544 25.383 7.289-6.419 14.237-13.094 20.355-20.814-11.22-7.348-16.763-17.282-15.519-31.137 2.127 3.936 5.729 4.827 9.029 6.168 2.291.933 4.683 1.646 6.903 2.718 3.099 1.49 5.823 3.493 7.326 7.241 1.003-1.849 1.959-3.335 2.65-4.934 2.765-6.406 5.102-12.955 5.457-20.006.282-5.608-.45-11.01-3.763-15.802-.67-.972-1.238-1.075-2.401-.812-8.718 1.981-16.868.844-23.924-5.033-1.592-1.328-2.982-2.99-4.166-4.703-2.86-4.145-6.685-6.914-11.37-8.566-2.255-.795-4.549-1.48-6.824-2.214l-.069-.548c2.167-.781 4.324-1.59 6.504-2.332 6.174-2.099 12.475-3.727 19.006-4.058 5.594-.283 11.107.413 16.365 2.519 6.962 2.787 10.746 8.146 12.007 15.337.536 3.061 1.363 5.884 2.681 8.746 2.666 5.782 2.872 12.094 2.571 18.373-.382 7.981-1.666 15.863-4.808 23.206-2.387 5.575-5.515 10.852-8.526 16.138a60.244 60.244 0 0 1-12.781 15.606c-7.364 6.423-14.889 12.76-23.484 17.434-12.705 6.903-26.349 11.031-40.908 11.461-9.242.273-18.353-.893-27.049-4.137-4.906-1.832-9.655-4.11-14.4-6.347-6.7-3.16-12.676-7.492-18.069-12.487-2.922-2.709-5.044-6.262-7.629-9.351-2.34-2.796-4.811-5.484-7.256-8.193-.213-.234-.652-.264-1.471-.569 5.928 10.856 7.687 23.045 14.982 32.804-.122.144-.244.285-.366.43-1.9-.825-3.778-1.707-5.71-2.451-1.207-.465-2.474-.895-3.747-1.041-2.369-.273-2.967.513-3.32 2.934-1.141 7.84-2.054 15.741-3.718 23.477-2.039 9.487-5.714 18.465-10.663 26.826-5.581 9.438-13.224 16.804-22.864 22.169-12.716 7.077-26.166 11.053-40.806 10.181-6.827-.406-13.542-1.649-19.705-4.806-3.674-1.882-7.343-3.848-10.719-6.2-3.36-2.341-5.388-5.983-7.225-9.553-2.519-4.897-4.524-10.057-7.107-14.918-1.561-2.932-4.623-4.313-7.634-5.598-3.227-1.376-6.587-2.637-9.483-4.56-3.249-2.155-4.742-5.396-3.614-9.549.506-1.861.036-3.721-1.091-5.478-1.393-2.175-2.739-4.464-3.595-6.883-1.784-5.043-.207-9.687 2.491-13.988 2.764-4.404 6.516-7.931 10.533-11.17.359-.288 1.404-.307 1.646-.027.358.416.591 1.398.34 1.801-1.441 2.289-3.1 4.443-4.581 6.71-3.449 5.277-3.884 11.072-2.803 17.114.718 4 1.859 7.779 4.132 11.265 2.031 3.115 4.753 4.923 8.15 6.108 1.963.684 3.845 1.652 5.662 2.668 2.493 1.396 3.394 3.989 4.532 6.409.944 2.007 1.798 4.144 3.167 5.836 1.975 2.438 2.574 2.391 4.568.024 5.56-6.605 9.873-13.893 11.77-22.453 1.036-4.677 1.252-9.314-.338-13.898-.423-1.219-1.066-2.368-1.693-3.507-2.944-5.342-4.923-11.035-6.339-16.934l.491-.233c.491 1.056 1.172 2.07 1.422 3.181.287 1.263.982 1.744 2.072 2.303 2.319 1.194 4.476 2.71 6.723 4.11.052-.173.166-.556.348-1.158l13.832 14.754-.274.338c-1.256-1.018-2.6-1.949-3.744-3.082-1.368-1.35-2.533-2.903-3.859-4.298-.314-.332-.925-.38-1.397-.563-.102.517-.456 1.16-.266 1.529 1.028 2.007 1.481 3.945-.513 6.005 18.577 4.684 30.625 15.828 35.93 34.486 1.247-1.824 2.471-3.165 3.184-4.742 2.015-4.447 4.21-8.87 5.618-13.522 2.28-7.537 2.796-15.321 1.326-23.134-.18-.947-.666-1.865-1.132-2.729-.622-1.147-1.724-2.15-1.979-3.351-.651-3.06-2.663-3.471-5.322-3.746-4.193-.436-8.101-2.118-11.484-4.573-4.759-3.45-9.26-7.259-13.858-10.933-2.46-1.966-4.949-3.907-7.32-5.977-1.289-1.126-2.359-2.499-3.714-3.968-1.766 2.051-3.766 4.064-5.409 6.336-6.056 8.367-14.432 9.237-23.598 7.41-5.095-1.012-10.127-2.34-15.182-3.537-1.597-.378-2.224-2.141-1.83-4.101.47-2.344.711-4.738.953-7.118.181-1.805-.732-3.164-1.986-4.392-1.355-1.325-2.805-2.642-2.999-4.788 4.066 2.077 6.279 7.047 6.398 14.389 6.898.557 13.81 1.114 20.723 1.674l-.029-.06c-2.233.246-4.471.49-7.258.796 2.038.736 3.646 1.606 5.342 1.863 2.986.448 6.068.945 9.034.641 4.499-.457 9.372-3.575 10.353-9.041.733-4.067 3.321-6.155 7.082-7.234 1.294-.371 2.504-1.032 3.717-1.548.01-1.896-1.045-2.37-2.606-2.384-1.726-.016-3.483.039-5.159-.282-.958-.184-1.946-.915-2.632-1.663-.995-1.092-1.791-2.385-2.561-3.656-2.734-4.514-6.829-5.036-11.134-3.395-3.012 1.149-5.723 3.141-8.475 4.907-4.017 2.576-8.253 4.389-13.118 3.75-2.318-.306-4.573-1.073-6.862-1.608-2.257-.526-2.255-2.256-2.178-4.464 2.21.248 4.453.247 6.553.79 3.725.967 6.943.051 10.031-1.942 2.964-1.91 5.816-4.059 8.953-5.631 7.04-3.532 13.787-2.709 19.99 2.175.568.448 1.111 1.053 1.407 1.703 1.066 2.34 3.084 3.004 5.373 3.438 1.863.353 3.81.696 5.463 1.541 1.149.588 2.068 1.914 2.703 3.114.461.875.795 1.042 1.652.825 2.935-.746 4.34-4.338 2.888-7.254-1.075-2.161-2.943-2.983-5.12-3.531-1.649-.418-4.087-.084-3.62-3.087.024-.146-.3-.346-.725-.809 1.833-.334 3.459-.513 5.017-.945 1.933-.536 4.021-.952 5.662-2.01 2.612-1.683 2.046-5.357-.856-6.523-1.357-.544-2.832-.805-4.266-1.146-.348-.083-.863-.123-1.092.068-2.156 1.81-4.635.316-6.929.685-.477.077-1.073-.62-1.614-.956.399-.525.703-1.362 1.217-1.525 2.293-.723 4.745-1.015 6.951-1.927 2.182-.907 4.24-2.229 6.126-3.671.568-.433.722-2.018.409-2.811-.274-.687-1.541-1.476-2.266-1.388-1.814.221-3.559.949-5.351 1.406-1.704.435-3.433.762-5.14 1.184-.812.203-1.592.523-2.904.962 2.076-2.185 4.012-3.823 5.438-5.827 1.398-1.965 2.324-4.277 3.329-6.496.141-.313-.307-1.128-.698-1.407-1.561-1.112-3.274-.933-4.969-.287-2.475.949-4.981 1.843-7.39 2.933-.704.32-1.181 1.202-1.681 1.888-2.271 3.124-5.774 4.638-8.864 6.652-1.379.898-1.828 1.693-1.539 3.255.255 1.374.247 2.813.235 4.224-.025 3.029-1.582 5.127-4.388 6.005-4.831 1.511-9.742 2.779-14.613 4.167-6.189 1.761-12.206 3.847-16.829 8.675-.237.245-1.065.253-1.387.031-2.667-1.811-2.589-1.791-.718-4.582.582-.865.727-2.026 1.061-3.055.148-.458.129-1.084.433-1.356 3.443-3.09 6.938-6.122 10.416-9.171l.435.477c-2.138 1.983-4.273 3.969-6.411 5.953.088.09.173.185.261.275 1.228-.662 2.547-1.203 3.665-2.014 3.114-2.257 6.621-2.73 10.349-2.89a31.48 31.48 0 0 0 8.141-1.469c3.598-1.15 4.352-2.963 2.518-6.22-2.461-4.364-.379-6.672 3.563-7.982 1.987-.66 4.113-.932 6.042-1.718 1.102-.447 2.187-1.407 2.828-2.422 1.054-1.666.284-2.851-1.66-3.355-5.124-1.322-10.224-.204-15.333.042-.599.029-1.197.065-1.863.104.225-1.463.55-2.733.592-4.016.252-7.218-7.515-10.685-12.87-7.633-2.34 1.335-4.321 3.294-6.486 4.936-2.36 1.789-4.583 3.842-7.15 5.259-7.525 4.155-10.345 10.58-9.734 18.849.108 1.473.318 2.935.48 4.402-.013.003-.026.094-.026.094Zm89.931 42.685c-.774-.201-1.532-.485-2.317-.589-5.668-.745-10.965-2.236-14.676-7.058-1.009-1.311-1.619-.286-2.538.497.758.804 1.374 1.569 2.1 2.206 3.018 2.647 5.994 5.349 9.125 7.857 6.479 5.187 13.364 9.693 21.673 11.374 1.088.222 2.458-.081 3.487-.58 3.061-1.481 4.068-4.457 4.383-7.486.577-5.599 2.568-10.517 5.886-15.023 2.481-3.367 1.792-7.077-1.789-9.295-1.753-1.087-3.854-1.633-5.83-2.328-1.455-.513-3.038-.721-4.423-1.363-.734-.339-1.02-1.525-2.232-.828-.805.463-1.744.686-3.218 1.236 1.628 1.445 2.748 2.566 3.999 3.516 1.306.995 2.738 1.832 4.113 2.738-.029.08-.054.163-.084.243-1.064-.165-2.129-.333-3.165-.495-.651 2.183 1.175 2.603 2.184 3.667-.613-.1-1.225-.199-1.827-.295-.318.949-.598 1.769-.865 2.569l1.139 1.068c-.77.13-1.397.232-1.852.31-.005 1.002-.012 1.74-.018 2.682l1.493 1.104c-1.142.108-2.123.073-2.997.364-.235.078-.141 1.146-.205 1.852-1.608.238-3.654-.011-5.23 1.736.914.435 1.646.781 2.378 1.131-.264.189-.431.149-.599.13-2.72-.309-5.442-.615-8.161-.921a.406.406 0 0 1 .066-.019Zm34.649-89.477-.028-.028a739.737 739.737 0 0 1-.542 3.098c.2.049.397.099.596.145a15356.3 15356.3 0 0 0 8.402-5.457c.167.242.333.485.496.728-1.21.863-2.375 1.796-3.642 2.566-1.322.803-2.806 1.342-4.087 2.199-.928.617-1.944 1.431-1.265 3.062l17.836-9.946c-1.812 2.396-3.81 3.722-6.065 4.775a384.303 384.303 0 0 0-10.357 5.026c-.656.329-1.924.575-1.179 1.814.566.945 1.4 1.312 2.541.74a146.91 146.91 0 0 1 6.895-3.256c2.354-1.032 4.758-1.946 7.138-2.911l.221.526c-4.164 3.451-9.764 3.931-14.046 6.198 1.078 2.609 2.075 4.875 2.941 7.194.365.982.8 1.138 1.807.934 3.344-.685 6.73-1.167 10.071-1.861 1.045-.217 2.197-.659 2.957-1.365 2.984-2.784 5.268-6.114 6.392-10.063 1.309-4.586 2.314-9.26 3.575-13.859.798-2.915.715-3.041-2.22-3.812-5.005-1.32-10.056-1.932-15.233-1.886-6.982.063-13.639 1.62-20.249 3.814 1.583 2.362 3.084 4.597 4.715 7.024 1.962-1.345 4.026-2.756 6.086-4.17l.469.56c-.516.62-.931 1.382-1.571 1.822-.902.622-2.008.938-2.954 1.508-2.048 1.233-2.119 2.77-.282 4.408.191.167.391.317.582.473Zm-45.522 172.67c1.362-1.374 2.487-2.705 3.805-3.801 2.523-2.094 5.054-4.371 8.44-4.807 1.771-.229 1.63-.812 1.239-2.116-2.184-7.261-6.324-13.305-11.658-18.544-4.504-4.426-9.876-7.24-16.231-8.071-1.298-.168-1.845.079-2.329 1.336-2.655 6.877-5.395 13.723-8.158 20.556-1.037 2.565-1.046 2.787 1.528 3.735 2.911 1.073 5.036 3.08 6.839 5.483 1.252 1.668 1.413 3.533.705 5.481-.87 2.389-1.984 4.718-2.563 7.173-.998 4.239-.438 5.767 3.561 6.542 1.335.26 2.634.69 3.947 1.063 7.545 2.141 15.191 2.029 22.802.674 6.95-1.233 13.203-4.509 19.536-7.466.24-.114.413-.368.836-.753-6.675-2.315-12.709-1.083-18.565 2.115l-.547-.447c.5-2.418.998-4.832 1.547-7.482-4.963 3.666-9.753 2.587-14.734-.671ZM459.877 396.65l-.349.502c.946.947 1.92 1.866 2.832 2.842 4.724 5.066 4.384 10.304 1.687 15.389-2.024 3.817-4.986 6.906-8.056 9.899-4.923 4.799-3.157 11.168 1.861 13.433 4.661 2.104 9.409 4.006 14.124 5.985.062.027.198-.117.398-.242-1.706-4.602-6.475-7.255-8.142-12.302 1.054 1.294 1.875 2.284 2.681 3.286 1.699 2.117 3.744 4.051 4.992 6.406 1.341 2.542 2.654 4.635 5.766 4.909.328.029.654.341.937.576 2.632 2.185 5.256 4.383 8.085 6.748.604-.543 1.651-1.402 2.603-2.354 5.276-5.257 9.896-10.925 11.537-18.467 1.231-5.656-.693-10.86-5.559-13.999-1.448-.934-3.296-1.3-5.009-1.755-1.962-.524-3.976-.854-5.954-1.266 1.022-6.759-4.834-10.45-12.424-8.284-2.712-5.203-5.636-10.163-12.01-11.306Zm132.857 146.711c3.571 1.195 6.527 2.557 9.63 3.157 9.501 1.84 17.948-.644 25.193-7.025 1.391-1.224 2.611-2.366 4.663-2.136 1.225.137 2.115-.447 1.649-1.917-1.021-3.223-1.645-6.663-3.205-9.606-4.456-8.404-11.209-14.616-19.773-18.742-1.924-.926-4.144-1.636-6.578-.341 2.003 3.059.994 6.273.66 9.397l10.79 2.229-.101.537c-2.086-.243-4.2-.35-6.252-.755-3.311-.651-6.13-.407-7.615 3.187-.042.1-.201.149-.272.246-2.044 2.794-4.163 5.551-4.951 9.032 2.88 1.121 6.46 4.839 7.289 7.623-2.547-2.412-4.981-4.715-7.771-7.354-.05 4.663.071 8.674-3.356 12.468Zm32.685-66.833c-.088.181-.18.364-.269.546-2.284-.513-4.555-1.101-6.857-1.501-.815-.142-2.187-.139-2.486.327-1.079 1.683-1.831 3.576-2.629 5.425-.056.128.525.532.813.814-1.492.2-1.845.86-1.226 2.186.693 1.485 1.569 2.933 1.978 4.501.781 2.991 1.283 6.056 1.887 9.021 2.354.383 4.983.823 7.613 1.238.935.148 2.011.596 2.794.299a21.72 21.72 0 0 0 4.896-2.597c6.024-4.311 10.592-10.088 15.607-15.534-2.606-2.122-3.572-5.013-4.454-7.92-1.254-4.129-3.271-7.665-6.804-10.351-4.663-3.544-9.983-4.52-15.585-4.253-3.218.152-6.417.83-9.689 2.348.629.727 1.106 1.19 1.479 1.724 1.163 1.672 2.445 3.287 3.383 5.083 1.185 2.266 1.036 2.271 3.461 1.33 1.159-.45 2.431-.624 3.649-.922l.206.683c-.569.315-1.104.74-1.711.922a27.352 27.352 0 0 1-3.449.772c-1.88.307-1.458 1.858-1.406 2.937.023.489 1.105 1.201 1.793 1.324 1.515.269 3.103.095 4.616.358.844.145 1.597.811 2.39 1.24Zm-42.621-65.389c.673.943 1.282 1.692 1.773 2.515.571.95.928 2.053 1.602 2.911.315.398 1.308.685 1.748.485a18.126 18.126 0 0 0 3.641-2.241c2.634-2.096 4.561-4.653 5.243-8.094.714-3.6.242-7.073-.984-10.407-2.261-6.151-4.742-12.219-7.089-18.339-.385-1.002-.934-1.169-1.858-.811-1.841.72-3.747 1.298-5.54 2.114-5.894 2.68-11.579 5.795-15.883 10.731-1.906 2.182-3.343 4.892-4.494 7.575-.874 2.041-.988 4.415-1.332 6.656-.044.282.499.8.876.974 2.191 1.009 4.35 2.186 6.652 2.844 2.448.703 5.031.997 7.579 1.257 1.172.122 2.325-.24 2.447-1.887.418-5.578 3.783-9.987 6.004-14.909.245.666.456 1.382.228 1.912-.602 1.407-1.21 2.871-2.134 4.07-2.357 3.055-3.049 6.659-3.854 10.127.893.61 1.703 1.064 2.393 1.657 1.001.853 1.855.829 2.711-.159 1.264-1.452 2.519-2.905 3.814-4.329.848-.933 1.754-1.814 2.633-2.72l.415.419c-.789 3.764-5.112 4.653-6.591 7.649Zm-57.652-36.425c-.398.327-.702.525-.944.779-2.223 2.314-4.408 4.668-6.658 6.954-1.993 2.025-4.157 3.889-6.078 5.98-3.49 3.806-6.151 7.969-4.941 13.537.862 3.976 3.575 6.644 6.384 9.275 1.956-1.602 3.928-3.189 5.85-4.828.281-.238.56-.829.457-1.111-.678-1.813-1.46-3.583-2.288-5.556l-1.177.971c-.252-1.247-.516-2.543-.874-4.304.841.456 1.522.592 1.735.983 1.439 2.627 2.779 5.309 4.194 8.053.818-.016 1.842-.033 3.136-.056-.975-3.858-3.653-7.113-3.157-11.224 1.231 2.572 2.248 5.217 3.127 7.905.782 2.391 1.639 4.688 3.932 6.073 1.244.753 2.539 1.121 3.758.007 1.933-1.766 4.316-2.345 6.786-2.78 1.09-.193 2.21-.39 3.231-.794 2.268-.899 4.161-2.366 3.951-5.045-.216-2.73-.5-5.583-1.48-8.101-1.42-3.646-4.592-5.903-7.919-7.834-3.412-1.983-7.218-3.419-9.553-6.899-.447-.653-.939-1.266-1.472-1.985Zm10.275 50.457.706.238c-.293 1.312-.703 2.617-.833 3.945-.071.742.317 1.531.499 2.299.676-.55 1.514-.993 1.984-1.685.469-.685.544-1.633.846-2.445.167-.449.452-.856.681-1.28.125.057.25.11.372.168l-1.52 5.216c.28.117.556.235.835.353.417-.77.772-1.581 1.265-2.296.921-1.341 1.922-2.621 2.888-3.932.292-.394.681-.76.842-1.204 1.244-3.437 1.914-6.946.876-10.568-.934-3.268-3.735-4.42-6.69-2.689-1.274.743-2.414 1.712-3.605 2.595-4.675 3.471-5.845 3.418-9.871 1.06-.316-.185-.675-.402-1.024-.419-6.575-.317-10.29 1.604-11.001 8.581-.494 4.843-.491 9.74-.682 14.611-.015.401.077.968.341 1.197 1.387 1.182 2.843 2.278 4.502 3.582.472-3.837.923-7.529 1.378-11.219.161.016.319.038.48.055-.204 2.81-.407 5.62-.614 8.434l.397.041 1.681-8.288c.183.036.363.076.546.112-.306 2.877-.613 5.75-.923 8.628-.073.68-.051 1.404-.289 2.022-.184.48-.755.799-1.06 1.253-.175.258-.256.644-.235.963.189 2.963 4.018 6.718 6.969 6.86 1.868.09 2.675-.756 2.395-2.509-.448-2.796 1.442-5.852 4.167-6.966 1.428-.582 2.909-.841 4.04.179 1.749 1.576 3.487.951 5.278.631.056-.275.139-.421.099-.513-1.406-3.216-4.168-4.44-7.386-4.821-2.705-.32-5.205 1.12-6.197 3.737-.737 1.942-1.087 4.044-1.494 6.098-.357 1.802-.937 2.098-2.506 1.184-1.502-.879-.919-2.407-1.209-3.652-.217-.945.119-2.469-.393-2.802-1.061-.685-.731-1.455-.7-2.223.055-1.362.197-2.721.373-4.074.254-1.937.568-3.868.858-5.803.134.023.27.05.404.073l-.444 10.392c.254.029.505.059.76.092l2.202-12.067c.682 2.251-1.034 4.412.291 6.554.205.041.408.086.613.127l1.96-7.606.187.053a4559.79 4559.79 0 0 0-.395 4.938c2.138.164 2.611-1.111 2.93-2.607.324-1.515.719-3.011 1.084-4.518l.459.109c-.21 1.689-.507 3.375-.565 5.069-.019.472.665.969 1.026 1.454.376-.464.933-.87 1.091-1.4.525-1.755.899-3.543 1.331-5.317Zm46.563 37.06c1.585 1.079 2.688 2.329 3.989 2.594 1.718.349 3.632.135 5.392-.209 4.487-.887 8.739-2.328 11.771-6.099 1.286-1.604 1.441-2.809.113-4.298-1.479-1.655-3.122-3.162-4.708-4.725-2.066-2.036-4.291-3.936-6.166-6.133-1.249-1.463-1.429-3.369-.508-5.254.81-1.656.187-4.804-1.096-6.091-1.302-1.307-2.918-1.335-4.29-.147-.291.255-.761.327-1.162.43-1.347.35-2.823.444-4.024 1.069-1.861.968-3.47 2.402-5.3 3.439-2.136 1.213-4.416 2.178-6.589 3.326-.51.269-.852.857-1.276 1.298l.464.581 7.271-2.695.142.461c-2.74 1.857-6.981 1.454-8.412 5.285.099.207.197.413.299.619 3.17-1.319 6.341-2.635 9.511-3.954l.172.38-6.368 3.736c.088.209.174.418.263.627 3.905.836 6.883-2.479 10.979-2.92-2.363 1.284-4.303 2.342-6.145 3.344 1.543 3.87 3.835.877 5.986 1.296-1.442.728-2.653 1.341-3.901 1.973 1.412 3.083 3.703.156 5.489 1.218-1.452.465-2.779.889-4.072 1.306.282 2.672.697 2.99 2.988 2.406 1.031-.262 2.056-.551 3.08-.826-1.915 1.263-4.422 1.401-5.985 4.093 1.773-.187 3.101-.316 4.426-.472 1.231-.143 2.459-.31 3.685-.47-.005.109-.013.219-.018.329l-8.136 2.328c.063.306.127.614.194.919 2.868-.416 5.741-.83 8.609-1.247.012.151.028.304.04.454-2.085.632-4.167 1.26-6.707 2.029Zm11.652 11.525c-.005.179-.008.354-.014.534-.622.021-1.251.015-1.873.064-1.047.082-2.148.023-3.109.356-.679.234-1.171 1.015-1.748 1.555.645.231 1.274.571 1.94.672 1.535.226 3.088.336 4.631.494-.015.195-.028.387-.044.582-1.618-.018-3.239-.024-4.857-.056-1.649-.031-3.232.079-4.524 1.758l6.028.561c-.008.141-.013.282-.02.423l-7.569.577c-.04.24-.08.48-.123.72l6.781 2.207c-.75.086-1.398.159-2.049.232l-.298.529c1.313.949 2.629 1.897 3.949 2.847l-1.443.303c1.121 2.494 3.838 1.999 5.487 3.289-1.34.006-2.622-.323-3.876-.236-.655.046-1.564.694-1.82 1.296-.422 1.008.008 1.895 1.26 2.22.829.215 1.603.635 2.403.961-1.577.541-3.1-1.152-4.931.737 3.442 1.077 6.549 2.318 9.776 2.969 2.308.464 4.829.47 7.158.086 4.326-.716 6.876-3.942 3.968-8.122-1.057-1.522-2.209-2.988-3.14-4.583-2.113-3.615-3.411-4.937.312-9.439.712-.862 1.426-1.728 2.09-2.631 2.005-2.725 1.337-5.772-1.623-7.366-3.011-1.619-6.143-1.687-9.368-.7-3.187.975-6.42 1.382-9.63.559-.248 4.414 3.634 2.031 5.787 3.258-1.632.258-2.925.329-4.114.714-.439.144-.642 1.023-.953 1.568.473.256.924.667 1.421.735 1.372.182 2.759.227 4.135.327Zm-48.894-36.267c2.069-3.815 4.059-7.485 6.049-11.151.095.046.19.093.288.136-1.122 2.746-2.24 5.494-3.362 8.24l.689.43c.849-.916 1.827-1.745 2.514-2.768.711-1.054 1.123-2.31 1.704-3.454.56-1.101 1.172-2.176 1.763-3.264.133.059.266.118.396.18-1.021 2.6-2.042 5.203-3.15 8.019 4.854-.62 4.449-5.693 7.296-8.05l-2.657 6.955c3.673-.447 3.226-4.191 5.694-5.243-.798 1.677-1.514 3.171-2.226 4.668 3.223-.823 3.784-4.044 6.07-5.603-.702 2.188-3.053 3.61-2.728 6.833 1.652-1.905 3.007-3.466 4.363-5.027-.189 2.353-3.284 3.233-2.269 6.443 1.583-1.832 2.944-3.412 4.306-4.989l.185.161-1.997 3.682c.178.159.352.32.529.476 2.375-2.104 4.962-4.018 7.045-6.375 1.429-1.617 2.344-3.776 3.16-5.824 1.029-2.584-.263-4.706-3.019-4.892-2.122-.143-4.299.107-6.42.416-2.616.38-5.15.768-7.378-1.173a31.038 31.038 0 0 0-2.612-2.048c-.864-.604-1.844-1.636-2.379.382-.062.232-.817.382-1.257.391-1.027.021-2.056-.069-3.034-.109-.145.321-.286.488-.29.66-.094 7.124-3.271 12.862-8.025 17.885-1.897 2.005-1.909 2.068.752 4.013Zm51.661 114.233c2.504 9.154.042 17.295-1.918 25.465 1.717-1.899 3.129-3.902 4.797-5.668 3.473-3.675 7.998-5.82 12.406-8.089 7.225-3.723 13.968-8.01 18.519-15.017.162-.251.246-.554.368-.831-.072-.139-.148-.278-.22-.418-10.157 8.872-21.658 8.171-33.952 4.558Zm16.973 32.793-.456-.405c-6.933 2.522-7.87 2.219-15.308.913-5.833-1.026-10.163 3.038-9.259 8.767 5.586-1.316 10.338.717 14.502 3.952l10.521-13.227Zm-60.66-70.383c3.355 1.257 6.399 2.448 9.478 3.539 3.952 1.403 7.921 2.503 12.106.74 2.568-1.083 4.912-4.354 4.448-6.553 1.375-.224 1.255-1.167 1.084-2.21-.955-5.794-6.914-8.697-12.367-8.233-.396.033-.972.479-1.081.847-.342 1.156-.499 2.369-.753 3.699.58.007 1 .055 1.406.006 2.967-.381 4.721.517 5.518 2.853.723 2.119-.536 4.916-2.733 6.08-5.179 2.741-11.705 1.401-15.428-3.314l-1.678 2.546Zm12.037-49.428c.607 1.244 1.371 1.506 2.47.575 1.743-1.473 3.59-2.832 5.254-4.384a8.87 8.87 0 0 0 2.024-2.862c1.119-2.553-1.215-5.731-4.431-6.218-4.137-.626-7.979.203-11.614 2.227-2.463 1.371-2.475 1.339-.977 3.648.361.558.687 1.142 1.09 1.815.392-.265.688-.455.974-.656 1.981-1.409 4.156-2.418 6.579-1.72 1.124.325 2.379 1.211 2.907 2.2.312.587-.488 2.035-1.141 2.799-.854 1.008-2.058 1.723-3.135 2.576Zm82.74-46.893-.437-.121-3.165 21.754c.122.114.243.224.364.338 1.765-1.51 3.593-2.959 5.283-4.548 2.605-2.449 3.38-5.477 2.034-8.788-1.194-2.944-2.707-5.762-4.079-8.635Zm-72.324 78.72.082.514c.879-.084 1.845.032 2.628-.289 2.889-1.182 4.721-3.356 5.184-6.476.17-1.147.966-2.817-1.373-2.946-.218-.011-.62-.607-.574-.866.378-2.131-1.431-2.276-2.544-2.37-2.69-.23-5.42-.105-8.127.025-.351.018-.881.885-.941 1.402-.112.996.052 2.023.106 3.126.649-.066 1.593-.343 2.478-.214 1.613.231 3.357.396 4.753 1.14 2.135 1.138 2.087 3.872.167 5.416-.618.501-1.224 1.024-1.839 1.538Zm-6.907-15.127c.964-.585 1.612-1.323 2.206-1.285 3.808.256 7.058-1.034 9.895-3.416 3.124-2.622 2.65-7.36-.859-9.512-3.73-2.29-8.316-1.034-11.083 2.98 1.577-.206 3.2-.542 4.835-.598 1.683-.057 4.099 1.71 4.457 3.178.459 1.887-.801 3.08-2.082 4.051a8.628 8.628 0 0 1-3.166 1.468c-1.877.439-3.814.613-5.984.935.694.854 1.285 1.586 1.781 2.199Zm-27.829-22.903c1.291-.817 2.691-1.483 3.821-2.463 2.31-2.007 1.782-5.6-.913-7.108-3.3-1.847-9.676-.79-11.631 1.376 5.842 3.057 5.842 3.057 8.723 8.195Zm20.561-19.944c-4.8-2.203-13.134.39-16.142 4.981 1.511-.064 2.641 2.166 4.271.096 2.297-2.917 6.146-3.689 9.289-1.71 1.43.899 2.495 2.371 3.743 3.598 1.861-1.788 1.945-4.447-.002-6.09l-1.941 1.141a25.28 25.28 0 0 1-.352-.39c.348-.505.698-1.005 1.134-1.626Z"/><path d="M244.538 445.014c.066-.794.07-1.6.221-2.375.181-.943.49-1.858.532-2.883-3.138 2.218-5.241 5.145-6.625 8.637-1.462 3.689-2.887 7.404-4.537 11.009-.472 1.034-1.673 1.732-2.634 2.675-.305-.529-.501-.866-.734-1.266-.225.194-.426.284-.479.426-1.648 4.337-3.322 8.663-4.897 13.024-.544 1.504-.77 3.121-1.259 4.647-.154.477-.793 1.223-1.038 1.161-.571-.145-1.44-.668-1.478-1.101-.154-1.751-.336-3.59.022-5.284 1.696-7.991 5.134-15.263 9.571-22.079 2.191-3.37 4.031-7.08 6.734-9.977 6.92-7.425 15.057-13.32 24.901-16.253 11.931-3.554 23.104-8.505 33.026-16.127 4.598-3.532 9.299-6.925 14.14-10.52-.699 2.072-1.401 3.999-1.998 5.959-1.659 5.445-3.396 10.87-4.876 16.366-1.686 6.257-2.066 12.7-2.06 19.152.006 6.73.434 13.474.108 20.184-.414 8.554-2.016 16.92-5.517 24.859-5.738 13.018-15.738 21.026-29.098 25.189-.467.144-.954.22-1.573.788.517.279 1.004.667 1.558.823a547.69 547.69 0 0 0 10.584 2.882c.521.136 1.125.126 1.661.025 7.409-1.386 14.627-3.361 21.298-6.995 2.556-1.391 2.428-1.374 1.954-4.335-.264-1.658-.396-3.509.07-5.072.744-2.49 3.134-3.663 5.939-3.503 2.76.157 4.24 1.324 5.129 4.069.134.414.184.851.327 1.546.936-.442 1.688-.788 2.431-1.148.78-.377 1.555-.762 2.362-1.159-1.416-2.963-1.483-5.771.825-8.294 1.903-2.08 4.817-1.671 6.112.795.575 1.096 1.264 2.132 1.813 3.237.52 1.046.929 2.147 1.495 3.471 1.288-.108 3.119-.261 5.086-.428.115-1.89-.057-3.804.419-5.543.451-1.64 1.582-3.091 2.6-4.968-5.123-4.15-7.379-10.61-9.413-17.193-.191.06-.378.122-.569.182l.27 1.623c.479 2.983 1.118 5.95 1.389 8.952.266 2.938-1.268 5.072-3.716 6.638-1.027.656-1.669.438-2.317-.487-1.624-2.327-2.2-4.904-2.169-7.722.038-3.383-.049-6.776-.258-10.156-.062-.992-.721-1.949-1.344-2.771.19 3.607.576 7.217.522 10.821-.06 4.114-1.458 7.767-4.802 10.47-3.129 2.529-5.925 2.147-8.154-1.185-2.178-3.25-1.574-7.374 1.495-9.721.55-.422 1.334-.535 2.009-.788l.406.442c-.319 1.165-.814 2.32-.898 3.501-.065.915.079 2.25.67 2.721 1.17.935 1.857-.378 2.424-1.205 3.464-5.054 1.514-11.768-1.923-15.628-1.104-1.24-2.392-2.32-3.806-3.674.714-.754 1.431-1.652 2.287-2.392 4.821-4.168 9.333-8.638 13.179-13.725 2.37-3.134 4.16-6.592 4.963-10.485.696-3.385-2.444-9.322-5.582-10.601-1.975-.806-4.941.275-6.177 2.257-.973 1.56-1.251 3.51-.713 5.799.869-.558 1.65-1.088 2.46-1.573 1.923-1.144 3.929-1.007 5.526.355 2.411 2.054 2.392 5.179-.053 7.64-3.037 3.055-6.681 2.975-10.229.934-6.286-3.612-7.498-10.414-4.467-16.25 2.319-4.46 5.341-8.183 10.806-9.031 7.961-1.234 13.562 3.105 15.248 10.675 2.454 11.024-1.363 19.991-9.701 27.131-3.061 2.621-6.597 4.693-9.904 7.004 1.826 2.168 3.732 2.799 6.198 1.308 5.656-3.421 11.457-6.703 16.682-10.714 7.109-5.459 13.732-11.547 20.572-17.356 4.595-3.904 9.404-7.473 15.209-9.427 6.891-2.318 13.918-2.64 21.063-1.466 12.126 1.991 22.202 7.879 30.802 16.402 3.329 3.301 6.265 7.006 7.795 11.588.159.47.321.94.457 1.416.026.095-.064.225-.171.561-2.496-1.619-4.854-3.365-7.404-4.761-5.181-2.843-10.3-5.907-15.756-8.112-4.834-1.954-10.023-3.244-15.173-4.167-9.957-1.782-19.659-.585-29.009 3.487-6.553 2.853-12.206 6.936-17.37 11.79-.344.323-.626.715-.771 1.444 1.81-.416 3.612-.847 5.426-1.243 11.425-2.49 22.944-2.755 34.427-.742 6.717 1.179 13.285 3.214 18.965 7.202 1.998 1.404 3.657 3.329 5.335 5.142.857.923.993 1.894-.608 2.535-4.367 1.747-8.057 4.551-11.7 7.852-11.496-9.463-23.939-16.513-39.689-14.297 9.399 4.566 19.22 8.403 26.276 16.965-2.411 1.418-4.882 2.502-6.897 4.145-2.922 2.389-4.826 1.356-7.353-.785-6.132-5.194-12.463-10.193-19.569-14.053-2.615-1.419-5.343-2.633-8.041-3.893-.511-.239-1.125-.255-1.782-.18 1.382 2.407 3.44 3.921 5.772 5.179 2.595 1.399 5.228 2.762 7.677 4.392 4.533 3.02 5.753 7.353 3.698 12.471-.378.935-.724 2.085-1.46 2.629-1.553 1.148-3.264.843-4.599-.791-3.688-4.511-7.164-9.201-10.93-13.645-2.065-2.437-4.519-4.547-6.859-6.737-.549-.512-1.344-.76-2.467-1.371.501 3.345 2.113 5.536 3.601 7.76 1.308 1.958 2.843 3.77 4.052 5.779.88 1.465 1.563 3.099 2.033 4.743.558 1.953.034 3.809-1.295 5.395-.389.467-.768.945-1.22 1.501 4.449 2.712 3.415 6.95 3.285 11.221l5.332 1.635c.397-1.072.864-1.965 1.05-2.913.38-1.922 1.493-3.174 3.317-3.614 2.059-.496 3.724.601 4.826 2.134 1.555 2.17 2.62 4.563.777 7.225-.188.275.056 1.231.362 1.401 1.387.778 2.867 1.383 4.667 2.214-.677-3.298-.24-5.938 3.334-6.619 2.179-.414 5.237 1.829 6.335 4.374.823 1.911.21 3.198-2.787 5.553 1.119.605 2.141 1.16 2.924 1.589.671-1.393 1.132-2.947 2.062-4.134 1.23-1.562 3.14-2.11 5.055-1.568 2.023.572 3.239 2.088 3.274 4.255.013.75-.449 1.506-.768 2.483 1.823 1.171 4.193 1.216 6.475 1.025 7.945-.662 13.821-4.488 17.063-11.908 1.019-2.334.861-4.855.277-7.318-.502-2.11-1.014-4.218-1.588-6.307-.089-.327-.52-.799-.796-.802-2.147-.019-4.311-.075-6.438.166-1.038.117-2.058.754-2.989 1.317-1.213.735-1.544 1.673-.753 3.103 1.468 2.648 2.714 5.418 4.288 8.619-1.426.201-2.711.78-3.675.44-3.17-1.121-6.642-1.894-8.902-4.661-3.007-3.682-4.343-8.038-1.611-12.329 1.376-2.166 3.599-3.138 5.91-3.915 5.52-1.862 10.936-.7 14.167 3.015.305.352.583.727 1.008 1.259.79-2.892 3.366-3.712 5.434-4.992 7.864-4.857 15.332-10.2 22.129-16.504 3.998-3.708 8.164-7.272 13.207-9.566 3.95-1.796 7.979-1.722 12.143-.712 3.6.872 7.29 1.362 10.932 2.07 3.477.678 6.194 2.376 7.813 6.416-1.844-.423-3.435-.472-4.697-1.14-4.127-2.184-8.514-1.781-12.89-1.663-4.98.13-9.713 1.31-14.019 3.813-1.853 1.075-3.537 2.499-5.145 3.936-3.866 3.46-7.574 7.102-11.479 10.516-2.849 2.493-6.454 3.279-10.091 3.947-1.812.332-3.558 1.011-5.329 1.554-1.208.368-1.024 1.101-.365 1.81 1.168 1.259 2.624 1.748 4.365 1.684 2.378-.093 4.775-.054 6.407 2.509-.356.243-.702.542-1.098.739-2.267 1.129-4.607 2.136-6.813 3.376-2.7 1.519-3.307 4.176-1.162 5.903 1.03.829 2.838.798 4.315.926 2.079.182 4.184.04 6.253.269.655.072 1.225.887 1.837 1.36-.442.535-.814 1.162-1.341 1.592-1.199.98-2.58 1.756-3.677 2.829-.62.606-1.314 1.816-1.094 2.443.308.884 1.318 1.805 2.235 2.142 3.311 1.216 6.706.742 10.075.048 5.886-1.214 11.27-3.74 16.691-6.215 5.509-2.514 11.035-5.019 16.665-7.248 4.535-1.798 9.398-2.121 14.247-2.171.907-.01 2.078.234 1.858 1.518-.112.661-.763 1.575-1.35 1.741-1.523.433-3.141.604-4.732.723-5.191.394-9.561 2.979-14 5.294-6.023 3.144-11.753 6.907-17.932 9.68-7.099 3.188-14.693 4.629-22.446 2.361-1.886-.553-3.646-1.781-5.25-2.984-2.064-1.552-2.226-3.841-1.833-6.255.092-.573-.107-1.543-.507-1.798-6.166-3.923-7.135-7.26-3.721-13.62l-3.631-1.358c.197 2.839.563 5.599.544 8.351-.07 9.517-7.577 16.693-16.333 16.884-3.154.07-6.319-.219-9.476-.336-.612-.023-1.223-.001-1.92-.001 2.668 2.958 19.28 7.799 31.273 8.908 11.16 1.035 21.574-1.703 31.669-7.38-.14.981-.356 1.529-.252 2.002.16.75.37 1.637.885 2.109.304.278 1.348.055 1.873-.253 5.597-3.317 11.036-6.933 16.773-9.976 4.269-2.264 8.968-3.589 13.952-3.122.916.086 1.857.187 2.728.461 1.825.574 3.607.779 5.57.668 2.914-.166 4.268 2.454 2.903 5.031-1.182 2.234-1.122 2.948.613 4.692.607.61 1.409 1.016 2.053 1.593 1.089.975 1.956 1.766 1.449 3.712-.672 2.588-.54 5.401-.657 8.124-.27 6.393-2.224 12.261-5.163 17.903-1.997 3.828-4.214 7.393-7.545 10.239-2.551 2.181-5.488 3.339-8.683 4.036-.47.103-.938.199-1.624.343.331.579.521 1.022.806 1.392 9.16 11.886 13.508 25.305 12.314 40.288-.974 12.203-4.928 23.486-11.63 33.77-.061.094-.051.235-.111.553.694.449 1.458.928 2.209 1.426 6.176 4.137 9.136 10.239 10.534 17.293 1.171 5.909.015 11.389-2.848 16.636-1.845 3.377-3.558 6.876-3.48 10.87.031 1.645.404 3.28.623 4.925-3.539.537-7.284-2.318-9.903-7.181-3.395-6.3-2.487-11.448 2.771-16.625-3.17-2.84-7.878-2.855-13.886-.042-.926-5.93 3.552-11.347 9.592-11.661 1.288-.066 2.593-.214 3.841-.518 2.378-.584 3.005-2.552 1.457-4.375-.602-.705-1.243-1.398-1.957-1.989-2.908-2.391-4.69-2.08-6.841.967-4.214 5.963-9.323 11.118-14.962 15.692a125.828 125.828 0 0 1-12.371 8.869c-13.098 8.207-27.389 12.585-42.908 12.563-10.014-.01-19.905-1.1-29.468-4.229-5.414-1.772-10.945-3.391-16.057-5.846-6.101-2.932-11.893-6.545-17.658-10.122-6.769-4.196-12.59-9.604-18.051-15.357a108.922 108.922 0 0 1-14.916-19.84c-3.821-6.497-7.158-13.177-9.071-20.49-3.069-11.727-5.704-23.544-7.124-35.602-.19-1.61-.391-3.222-.588-4.833l-.538-.007c-.68 1.528-1.277 3.101-2.053 4.578-4.299 8.166-9.895 15.303-17.184 21.001-3.902 3.05-7.879 6.035-12.052 8.687-4.435 2.82-9.151 5.199-13.727 7.795-2.048 1.16-4.124 2.291-6.082 3.593-6.46 4.292-12.867 8.675-18.522 14.024-5.008 4.736-9.686 9.814-12.557 16.158-1.412 3.116-2.103 6.566-3.022 9.891-.137.5.231 1.175.459 1.73 1.093 2.696 2.234 5.377 3.321 8.075.511 1.268-.789 2.163-3.262 1.847.235 2.464.464 4.814.708 7.356l-1.613-1.658c-.151 1.25-.286 2.339-.417 3.427l-.552-.003c-.009-1.525.03-3.054-.034-4.576-.116-2.807-.211-5.615-.504-8.403-.068-.659-.891-1.238-1.367-1.856-.529.626-1.269 1.168-1.548 1.89-1.315 3.406-2.478 6.873-3.754 10.298-.247.666-.753 1.238-1.138 1.854l-.64-.17c.347-2.085.553-4.206 1.079-6.243.756-2.936 1.706-5.829 2.662-8.713.229-.686.798-1.259 1.208-1.884l.736-.042c-1.81-2.576-3.619-5.148-5.753-8.189a71751.89 71751.89 0 0 1-11.013 13.171c-.088-.035-.18-.068-.269-.106 1.325-2.439 2.542-4.947 4.006-7.301 1.14-1.833 2.54-3.51 3.918-5.181.38-.461 1.068-.801 1.669-.925 1.139-.233 1.666-.636 1.475-1.946-.441-2.986-.725-5.996-1.106-9.268-5.187 2.304-8.747 6.719-13.252 10.389.302-3.141 2.452-4.657 4.175-6.383 1.74-1.744 3.583-3.434 5.595-4.846.777-.547 2.134-.268 3.24-.364.821-2.418 1.486-5.138 2.647-7.632 2.057-4.418 5.22-8.092 8.574-11.595 2.889-3.019 5.719-6.093 8.536-9.105-1.968-3.19-2.011-5.016-.254-6.629 1.442-1.32 2.865-1.315 5.017.167 1.096-1.537 2.25-3.05 3.254-4.655.201-.32-.011-1.259-.328-1.472-.674-.455-1.543-.866-2.326-.861-3.662.029-5.241-1.588-4.977-5.305.288-4.02 1.938-5.819 6.622-7.033-.604-1.677-1.201-3.343-1.797-5.005-.111.132-.222.263-.33.394-.633-.385-1.24-.821-1.902-1.142a8.316 8.316 0 0 0-1.882-.648c-3.373-.695-4.152-6.092-2.904-8.067 1.039-1.645 2.531-2.019 4.748-1.191l-1.023-5.774c-1.499.575-2.776 1.06-4.053 1.546-.021.141-.046.287-.067.428l2.949 1.105c.048.414.092.828.141 1.245-.798.001-1.681-.222-2.376.047-2.229.858-4.695 1.512-6.504 2.956-3.389 2.707-2.799 7.61 1.158 9.611 2.314 1.172 5.057 1.507 7.617 2.165 1.048.271 2.131.396 3.195.589.047.254.09.505.137.759-1.008.17-2.023.307-3.021.519-4.99 1.071-6.924 4.766-4.597 9.316 1.113 2.172 2.855 4.018 4.297 6.023.377.526.696 1.094.883 1.858-3.748-.759-6.995-.178-10.056 1.881-3.927 2.642-4.935 7.55-2.185 11.353.36.495.873 1.075.852 1.596-.02.483-.738 1.392-1.018 1.344-4.22-.725-7.58 1.466-11.06 3.177-1.869.918-3.621 2.08-5.58 3.218.409-2.438 2.44-4.692 6.265-6.287 2.706-1.131 5.659-1.676 8.604-2.512-2.367-3.413-2.373-7.034-.207-10.652 2.143-3.582 5.469-5.008 9.877-4.98-4.311-5.04-4.681-10.027-.259-15.33-3.895-.775-6.246-3.255-7.687-6.383-1.433-3.113-1.734-6.44.97-9.591-4.014-1.281-6.52-3.884-7.33-7.806-.812-3.918.727-7.172 3.692-10.035-.539-.18-.857-.372-1.179-.381-8.627-.224-16.003-3.73-22.557-9.003-3.749-3.017-7.117-6.504-10.648-9.79-5.734-5.338-11.722-10.413-18.425-14.451-5.22-3.106-10.731-5.716-16.223-8.275-2.375-1.104-5.073-1.513-7.875-2.308 2.374-.775 4.645-1.316 6.751-2.235 8.224-3.595 16.513-7.066 24.526-11.09 3.238-1.628 5.855-4.519 8.7-6.896 5.753-4.811 11.311-9.868 17.241-14.45 6.658-5.148 13.921-9.176 22.497-10.373 10.198-1.421 20.436 3.315 25.848 12.162 1.594 2.603 3.101 5.21 3.431 8.355.045.435.946.992 1.531 1.119 1.377.306 2.804.384 4.211.557l-.054.714c-1.675-.025-3.356.028-5.026-.092-3.891-.282-7.243 1.12-10.108 3.515-5.84 4.882-10.561 10.65-12.884 18.054-1.768 5.642-.726 10.728 3.707 14.776 1.949 1.779 4.104 3.536 6.478 4.605 5.424 2.45 11.103 3.705 16.995 1.419.287-.111.59-.184.891-.249.113-.024.24.025.683.086-.296 1.793-.57 3.589-.887 5.381-.836 4.726 1.285 8.332 4.468 11.444 3.556 3.476 7.662 5.662 12.866 4.783.361-.063.867-.028 1.05-.253 1.354-1.652 3.43-1.368 5.15-2.024.23-.086.542-.151.656-.329 1.687-2.627 5.203-2.628 7.086-4.892 1.92-2.311 4.01-4.582 5.402-7.202 1.955-3.671 3.218-7.71 2.191-11.98-.971-4.04-2.445-5.125-6.921-5.711-2.03-.267-4.06-.203-5.576-1.967 2.183-1.074 4.373-1.951 6.35-3.174 2.326-1.436 4.874-3.152 5.037-6.075.154-2.84 1.201-5.463 1.434-8.169.643-7.504-4.648-15.975-11.757-18.04-5.792-1.681-12.006-2.535-17.632 1.025-3.359 2.125-6.514 4.573-9.979 7.026 1.596-1.908 3.101-3.714 4.712-5.644-1.641-1.546-2.246-3.461-1.075-5.601 1.327-2.429 3.42-4.053 5.952-5.082.311-.128 1.027.198 1.26.526 1.029 1.435 2.115 2.874 2.846 4.462.426.926.793 1.263 1.74 1.104 1.269-.216 2.547-.377 4.042-.595-1.478-1.275-2.807-2.593-1.615-4.599 1.348-2.271 3.108-3.992 6.063-3.976 1.411 2.699 3.299 5.326.799 8.383 2.394 1.403 3.146 1.242 4.81-.574 1.948-2.123 4.068-4.053 7.159-4.283.435-.031 1.013.038 1.313.301 1.922 1.684 2.749 5.703 1.437 7.908-.543.912-1.665 1.535-2.628 2.12-.578.348-1.357.369-2.338.609.742.867 1.297 1.503 1.839 2.15.616.73 1.098.666 1.851.028 1.07-.907 2.261-1.748 3.535-2.317 2.26-1.005 3.62-.103 3.932 2.388.437 3.475-1.832 6.044-5.913 6.317a4098.3 4098.3 0 0 0 1.148 5.594c1.395-.542 2.65-1.235 3.989-1.506 2-.406 3.459.965 3.194 2.984-.431 3.256-3.289 7.111-7.1 6.827-.422-.03-1.066.076-1.263.357-1.323 1.909-2.554 3.886-3.675 6.388.755-.349 1.491-.75 2.273-1.036 7.715-2.83 14.813-6.718 20.481-12.76 2.581-2.75 4.838-5.863 5.198-9.945-.468-.048-.864-.085-1.809-.177 3.088-1.847 4.032-4.491 4.601-7.679-2.38.954-4.553 1.827-6.671 2.68 2.207-2.202 3.397-5.62 6.973-6.789.533-.174 1.07-1.095 1.153-1.732.201-1.496.125-3.025.17-4.873l-13.369 13.453c-.181-.169-.36-.335-.537-.505 2.332-2.584 4.63-5.206 7.006-7.749 2.828-3.025 6.146-5.669 7.874-9.555.745-1.679 1.06-3.55 1.57-5.336l-.749-.391-17.736 18.031c-.073-.041-.147-.086-.223-.127 1.169-1.715 2.215-3.529 3.535-5.124 2.288-2.765 4.663-5.472 7.156-8.053 1.494-1.549 3.185-2.947 4.949-4.185 2.211-1.552 3.506-3.408 3.244-6.211-.13-1.38-.08-2.776-.113-4.167-.216-.118-.436-.233-.652-.351l-17.019 19.72c-.183-.005-.362-.014-.545-.019-.036-.496-.23-1.039-.088-1.478 1.166-3.603 3.828-6.145 6.357-8.777 3.636-3.781 7.802-7.094 10.364-11.833.281-.521 1.125-.738 2.187-1.392-.82-1.664-1.731-3.519-2.857-5.802-2.398 2.248-4.583 3.925-6.305 5.99-3.048 3.657-5.801 7.556-8.702 11.334-2.894 3.766-5.817 7.508-8.728 11.26l-.688-.381c.389-.875.637-1.855 1.191-2.606 2.142-2.88 4.389-5.685 6.585-8.526 3.371-4.359 6.711-8.744 10.112-13.076 1.448-1.841 3.029-3.582 4.801-5.665-1.186-.976-2.389-2.063-3.715-2.981-.267-.183-1.193.127-1.467.479a1587.417 1587.417 0 0 0-11.615 15.196c-3.284 4.341-6.535 8.702-10.034 13.367.138-.943.038-1.69.35-2.173 2.975-4.57 5.94-9.151 9.066-13.615 3.378-4.82 6.91-9.535 10.421-14.262.813-1.096.381-1.716-.583-2.202-1.317-.662-2.673-1.245-3.696-1.716-6.809 10.347-13.514 20.541-20.221 30.731-.119-.075-.239-.155-.359-.23 1.407-2.592 2.724-5.235 4.241-7.759 1.563-2.605 3.283-5.111 4.995-7.623 1.711-2.511 3.532-4.945 5.236-7.458 1.701-2.512 3.318-5.081 4.96-7.608-1.611-1.581-4.363-1.503-5.996.192-.811.84-1.499 1.819-2.147 2.801-4.841 7.349-9.649 14.721-14.486 22.073a73.825 73.825 0 0 1-3.485 4.825c3.926-10.161 11.343-18.389 15.827-28.232a30.196 30.196 0 0 0-.297-.521c-1.282.246-2.586.418-3.844.763-1.618.443-3.26.888-4.762 1.609-.794.38-1.485 1.254-1.905 2.07-1.929 3.75-3.674 7.594-5.626 11.332-2.546 4.874-5.227 9.68-7.849 14.513l-.674-.151c.141-1.177-.019-2.505.476-3.514 3.214-6.527 6.566-12.984 9.879-19.462.39-.764.816-1.511 1.265-2.338-3.636-.426-9.612 5.903-10.99 11.994l.054-.009Zm-40.925 164.194c.491-.278 1.075-.468 1.459-.857 1.166-1.191 2.245-2.466 3.375-3.691 1.594-1.726 3.449-3.268 4.76-5.185 2.661-3.891 3.171-8.452 2.297-12.899-1.019-5.206-2.553-10.341-4.224-15.387-1.797-5.43-3.605-10.844-3.292-16.627.135-2.529.955-5.024 1.497-7.689-.42.223-.866.383-1.222.654-4.152 3.184-5.058 7.662-4.587 12.475.287 2.939 1.099 5.829 1.756 8.724.634 2.804 2.937 5.027 2.726 8.184-.064.946.704 1.95 1.096 2.925 4.04 10.015 2.448 19.017-4.757 27.072-.519.578-.589 1.557-.864 2.352-.963.734-1.972 1.417-2.879 2.211-6.503 5.703-12.595 11.695-16.069 19.899-2.086 4.92-2.622 9.805-.802 14.808.714 1.961 1.937 3.74 3.16 6.036.333-.844.49-1.06.493-1.28.036-7.319 1.28-14.397 4.074-21.192 2.15-5.229 4.713-10.205 8.137-14.733 1.406-1.842 2.585-3.859 3.866-5.8Zm14.382-63.258c.425-.695.85-1.387 1.278-2.083-.151-.134-.302-.269-.452-.4-.813.43-1.625.863-2.824 1.497.989.459 1.534.711 2.08.963-.769.513-1.772.863-2.264 1.567-2.3 3.306-2.055 6.82-.192 10.181.519.938 1.738 1.805 2.792 2.056 1.372.328 2.913.113 4.357-.068.981-.121 2.084-.359 2.854-.925 2.25-1.648 2.255-1.687 2.998 1.02 1.001 3.642 5.236 7.39 8.783 6.998.937-.104 1.835-.872 2.681-1.438 1.102-.737 2.367-1.401 3.128-2.421.945-1.267 1.534-2.828 2.106-4.329.488-1.282 1.248-1.671 2.433-1.12 1.507.699 3.074 1.343 4.435 2.277 3.052 2.091 4.735 2.062 7.475-.447.183-.166.376-.321.559-.487 2.864-2.542 5.944-4.927 6.205-9.247.018-.318.714-.796 1.143-.854 2.864-.377 4.835-2.087 5.946-4.516.791-1.732 1.46-3.901 1.12-5.671-.411-2.139-1.951-4.058-3.035-6.139-.063.054.195-.162.658-.553-2.109-.568-3.296-2.743-5.949-2.386.936.963 1.754 1.564 2.256 2.36 1.591 2.538 1.248 5.232-.839 7.691-2.256 2.664-6.005 4.07-8.547 2.877-1.151-.538-1.978-1.771-3.008-2.746-1.269.776-1.548 1.726-.414 3.164 1.224 1.549 1.854 3.44 1.374 5.407a6.57 6.57 0 0 1-5.994 5.026c-2.606.148-4.783-1.468-5.976-4.433-.785-1.954-1.06-2.055-3.14-1.16.169 4.847-.763 6.923-4.301 9.028-.701.417-1.983.733-2.515.377-1.183-.799-2.398-1.894-2.981-3.154-.809-1.751-1.054-3.762-1.564-5.762l-1.517 1.279c-3.825 3.213-8.504 2.02-10.258-2.581-.134-.34-.586-.566-.891-.848Zm241.804 92.015c-1.283-.321-2.081-.641-2.902-.708-5.057-.408-9.85.727-14.451 2.719-4.146 1.791-8.25 3.688-12.365 5.552-4.945 2.238-10.029 4.117-15.535 3.785-5.078-.306-10.123-1.173-14.705-3.554-2.63-1.367-5.368-2.781-7.512-4.763-3.49-3.23-6.62-6.872-9.749-10.471-4.603-5.298-10.193-7.439-17.111-5.882-.674.152-1.377.182-2.067.272.909-1.708 2.021-3.022 3.172-4.304 7.329-8.186 16.041-14.15 26.868-16.723 4.69-1.114 9.43-1.588 14.165-.579 7.236 1.542 12.562 6.128 17.56 11.274 3.264 3.362 6.709 6.564 10.249 9.636 1.075.933 2.728 1.2 4.118 1.775-.059-.864-.389-1.294-.664-1.754-1.641-2.759-3.466-5.429-4.858-8.311-1.669-3.453-1.497-7.103.619-10.304 1.585-2.401 3.588-4.558 5.594-6.642 6.071-6.31 10.53-13.41 11.478-22.943 1.445 2.137 2.574 3.869 3.768 5.554 4.937 6.96 8.641 14.486 10.038 22.962 1.252 7.605.278 14.736-5.345 20.617-.236.249-.39.841-.261 1.13.925 2.102 4.894 2.738 6.26.976 3.858-4.971 6.564-10.508 7.891-16.682 2.225-10.364.425-20.34-3.053-30.12a62.976 62.976 0 0 0-9.503-17.426c-2.603-3.378-5.41-6.696-9.599-8.255-.846-.316-1.904-.27-2.825-.128-1.948.303-3.855 1.007-5.804 1.146-6.109.434-9.096-4.873-7.209-8.982a38.372 38.372 0 0 0 1.781-4.693c.382-1.232.535-2.534.792-3.81-4.54-.588-7.576-2.429-8.685-6.969-12.254 8.286-25.719 11.478-40.389 11.433 1.856 1.874 4.125 2.844 4.231 5.914-.939-.154-1.868-.045-2.441-.443-2.078-1.448-3.981-3.14-6.061-4.584-.808-.561-1.895-.909-2.88-.975-.928-.062-1.622.426-1.123 1.701.422 1.069.708 2.255.739 3.398.05 1.867.247 3.911-2.21 5.051-.813-2.112-1.598-4.139-2.467-6.398-2.52 2.194-4.608 4.023-6.708 5.836-.649.561-1.488.966-1.986 1.633-1.999 2.679-3.966 5.385-5.814 8.17-4.405 6.644-7.274 13.789-6.905 21.952.217 4.755.412 9.508.567 14.268.035 1.041-.138 2.087-.238 3.404-.447-.394-.584-.455-.61-.55-.448-1.481-.903-2.965-1.319-4.458-2.666-9.564-2.3-19.052 1.251-28.282 2.352-6.114 6.087-11.446 10.585-16.233.399-.424.467-1.386.342-2.032-.289-1.502-1.205-2.99-1.115-4.437.194-3.125-.579-5.216-4-5.59-.119-.013-.243.035-.422.06-2.046 3.102-1.071 7.737-5.099 10.253-.23-.942-.636-1.715-.555-2.432.311-2.697.572-5.43 1.263-8.041.448-1.694-.561-1.991-1.496-2.013-.659-.016-1.799.748-1.917 1.327-.317 1.547-.089 3.201-.288 4.786-.151 1.194-.626 2.347-.956 3.522-.299-.026-.598-.055-.901-.079-.348-2.095-.875-4.178-.999-6.282-.126-2.138.151-4.3.265-6.688-2.794-1.515-5.794-3.145-8.745-4.748-2.537 3.007-2.728 5.448-.641 8.267 1.028 1.384 2.276 2.603 3.384 3.929 1.892 2.27 3.894 4.471 5.596 6.877 2.331 3.294 2.48 7.058 1.613 10.876-.657 2.895-1.561 5.734-2.135 8.641-.294 1.486-.11 3.07-.152 5.092-2.177-2.871-4.157-5.315-5.946-7.892-2.236-3.219-4.13-6.604-3.259-10.941-2.686.857-4.926 3.241-7.965 1.478 6.695-6.945 6.859-14.543.994-16.611-1.208 2.275-2.228 4.578-3.595 6.651-1.187 1.796-2.696 3.401-4.201 4.963-4.768 4.95-4.866 10.538-1.912 16.446.553 1.107 1.091 2.226 1.635 3.339l-.362.345c-.865-.419-1.777-.763-2.591-1.264-5.49-3.386-9.296-8.346-12.304-13.881-2.441-4.498-4.03-9.309-3.658-14.601.25-3.501 1.572-6.556 3.457-9.42-2.407-1.469-3.254-1.108-3.581 1.408a2.28 2.28 0 0 1-.285.856c-1.329 2.249-2.607 4.534-4.048 6.708-.685 1.033-1.69 1.851-2.549 2.766-.225-.082-.454-.163-.679-.244-.059-1.457-.114-2.915-.191-4.894-3.709 5.918-6.284 11.696-7.558 17.929-1.012 4.948-1.952 9.996-2.082 15.019-.154 6.093.231 12.255 1.018 18.302.925 7.115 3.061 13.977 5.65 20.708 3.131 8.142 6.905 15.93 11.949 23.042 2.58 3.634 5.419 7.112 8.387 10.444 4.5 5.047 9.417 9.728 15.021 13.515 4.495 3.036 9.194 5.888 14.106 8.165 6.396 2.968 13.008 5.546 19.693 7.793 4.183 1.407 8.639 2.184 13.032 2.728 6.438.8 12.936 1.607 19.406 1.573 13.588-.067 25.539-5.317 36.539-12.92 1.989-1.376 3.658-3.211 5.653-4.993-2.199-.55-4.053-.797-5.724-1.482-2.7-1.109-3.373-4.335-1.237-6.283 1.12-1.02 2.751-1.612 4.252-2.037 1.321-.374 2.382.297 2.618 1.781-.836-.14-1.615-.322-2.409-.392-1.916-.172-3.269.792-3.864 2.731-.545 1.77.474 2.832 1.811 3.649 2.24 1.371 4.435.416 5.12-2.249.345-1.342.508-2.734.818-4.451 1.444 2.201.643 4.168.28 6.665 6.548-6.833 12.688-13.233 19.147-19.969ZM216.404 481.106c-1.541-2.718-2.859-5.583-4.667-8.096-2.789-3.877-6.249-7.069-11.214-7.945-1.754-.309-3.663-.048-5.31-.606-3.199-1.083-5.982-.213-8.894.877 4.066 2.209 7.952 4.319 11.84 6.428-2.139-.548-4.184-1.369-6.232-2.189-3.151-1.262-6.193-2.892-9.723-2.863-2.997.025-5.54 1.113-8.07 3.281l14.503 4.608c-.052.201-.108.402-.16.607-.708-.091-1.446-.087-2.12-.294-2.605-.805-5.149-1.83-7.786-2.49-4.68-1.172-8.24-1.022-11.055 3.806l12.917 3.076c-.04.166-.084.33-.124.497-3.768-.642-7.543-1.238-11.297-1.936-3.564-.664-7.007 1.763-7.406 5.151 4.171.594 8.339 1.185 12.507 1.78-.022.183-.048.367-.07.547-.668-.052-1.335-.118-2.003-.155-3.269-.191-6.541-.549-9.805-.518-2.774.027-4.785 3.291-4.117 5.86 4.756.271 9.431.542 14.106.809l-.024.594c-.426.04-.849.122-1.273.112-4.083-.082-8.17-.096-12.246-.323-1.328-.073-1.845.368-2.026 1.528-.337 2.141-.815 4.275-.951 6.428-.115 1.837.171 3.699.291 5.713 5.721-2.199 13.719-1.963 17.109-.926-5.573.357-11.16.711-16.809 1.073.19 1.251.471 2.167.438 3.071-.057 1.6.671 2.003 2.134 1.929 4.496-.227 8.992-.384 13.492-.539 1.213-.041 2.434.037 3.649.061l-.008.4-18.586 1.509c-.227.184-.451.37-.678.554.61 1.488 1.252 2.965 1.817 4.47.342.912.779 1.238 1.821.977 2.519-.636 5.061-1.225 7.62-1.65 3.038-.51 6.104-.831 9.16-1.233.016.139.029.278.046.421l-17.305 3.609c.299 1.371.403 2.497.802 3.502.626 1.582 1.595 2.391 3.59 1.822 2.475-.705 5.072-.99 7.627-1.376 2.109-.317 4.234-.519 6.351-.772.02.156.037.312.057.467l-15.674 3.122c1.316 1.754 2.357 3.169 3.429 4.563.969 1.258 2.127 1.568 3.706 1.034 2.584-.874 5.236-1.552 7.873-2.265 1.19-.322 2.417-.524 3.627-.781l.141.6-11.892 3.747c-.06.214-.116.426-.177.639 1.089.843 2.108 1.803 3.286 2.499 1.35.8 2.649 1.013 4.296.069 3.368-1.928 7.207-2.38 10.989-2.853.049.176.096.357.146.533-3.956 1.122-7.913 2.24-11.866 3.361 5.696 4.821 11.664 2.318 17.534 1.442l.139.577c-2.52.691-5.04 1.383-7.936 2.176.593.247.794.373 1.009.412 12.434 2.115 24.34-.318 36.092-4.153 1.014-.332.901-.789.72-1.666-.349-1.722-.641-3.509-.556-5.252.078-1.584.688-3.143 1.026-4.546-2.893.489-5.564.941-8.35 1.414 1.12 1.334 2.035 2.7.721 4.331a46.422 46.422 0 0 1-2.448 2.797c-1.763 1.862-4.928 2.078-7.166.526-2.066-1.43-2.984-4.611-1.858-6.793.583-1.134 1.359-2.165 2.047-3.244-2.277-1.623-2.239-1.583-4.197.241-2.371 2.218-5.034 3.791-8.48 3.315-2.581-.357-4.485-2.46-3.87-4.704.63-2.299 1.89-4.329 4.236-5.379.887-.399 1.777-.781 2.829-1.244l-1.747-3.821c-.92.347-1.601.644-2.308.863-2.054.642-4.104.739-6.153-.071-2.042-.807-3.325-3.44-2.569-5.348.761-1.917 2.014-3.352 3.847-4.376 2.309-1.289 4.626-1.51 6.953-.37.388-1.108.782-2.019 1.001-2.971.085-.359-.175-1.133-.376-1.172-1.947-.356-3.564-1.542-5.378-2.112-2.499-.785-4.411-3.914-4.088-5.795.439-2.543 3.25-4.873 5.771-4.606 3.427.366 6.858.922 8.345 4.775.034.086.206.121.543.305l2.931-4.609c-3.098-.971-3.65-3.634-4.52-6.028-.28-.769-.541-1.766-.286-2.469 1.48-4.091 7.002-5.238 9.898-1.973 1.11 1.249 1.625 3.025 2.474 4.678 1.285-.303 2.942-.716 4.368-1.074ZM424.429 530c-.352-.013-.706-.067-1.05-.032-9.781.968-19.457-.052-28.966-2.175a132.346 132.346 0 0 1-18.478-5.556 182.713 182.713 0 0 1-19.957-9.061c-5.561-2.944-11.111-5.569-17.326-6.82-10.209-2.059-19.999-.796-29.56 3.079-5.158 2.091-10.339 4.132-15.511 6.196-.508.202-1.016.409-1.521.614 13.197-1.37 26.195-3.868 39.461-2.309-13.639.463-27.223 1.337-40.575 4.565 11.778.073 23.577-.709 35.268 1.23-11.703-.053-23.425-1.249-35.11.9.533.534 1.084 1.053 1.682 1.122 3.734.427 7.493 1.145 11.217 1.024 6.231-.199 12.434-1.179 18.665-1.41 7.533-.279 14.787 1.353 21.648 4.498 4.556 2.088 8.983 4.45 13.529 6.565 6.01 2.8 12.447 4.176 18.94 5.189 3.689.575 7.489.439 11.186.973 4.611.666 9.203 1.141 13.829.496 2.109-.296 4.176-.917 6.261-1.389l-.109-.67c-13.776-.955-27.247-3.626-40.59-7.024 3.058.312 6.075.86 9.095 1.39 5.254.919 10.53 1.731 15.761 2.756 5.538 1.087 11.08 2.135 16.747 1.748 2.382-.164 4.736-.78 7.104-1.191-.022-.249-.041-.499-.062-.748-14.956.494-29.365-3.017-43.864-5.847 5.646.597 11.26 1.436 16.891 2.142 7.613.952 15.22 2.032 22.867 2.603 4.289.318 8.608-.486 12.528-2.858Zm38.078 7.013c1.111-3.455 3.437-6.017 5.957-8.386 3.205-3.007 6.518-5.902 9.804-8.818.93-.827 1.225-1.655.819-2.934-.772-2.435-.31-4.638 1.807-6.32.453-.361.821-.829 1.438-1.463-4.829-.386-8.88 1.208-12.651 3.229-4.684 2.511-9.054 5.601-13.652 8.282a91.561 91.561 0 0 1-8.892 4.54c-2.589 1.155-5.345 1.924-7.985 2.969-.897.355-1.903.891-1.434 2.218.466 1.31 1.162 2.39 2.813 2.155.981-.138 1.949-.358 2.926-.51 1.512-.232 3.135-.829 4.238.839 1.099 1.667.316 3.205-.485 4.695-.228.424-.688.73-.916 1.155-1.093 2.056-2.404 4.049-3.135 6.233-.66 1.972.797 3.535 2.808 3.102 2.259-.486 4.464-1.328 6.601-2.234 1.294-.545 2.396-1.536 3.62-2.271 1.896-1.14 3.725-.62 4.555 1.432.399.992.519 2.152.53 3.24.052 4.924 4.085 8.163 8.623 6.538 5.467-1.953 9.355-5.959 11.758-11.091 1.797-3.836 2.96-7.997 4.119-12.094.683-2.424.814-5.004 1.194-7.515l-.539-.243c-5.429 6.026-10.044 12.808-16.369 17.994 1.272-1.718 2.544-3.437 3.819-5.157-.187-.153-.378-.309-.564-.463-1.835 1.656-3.669 3.311-5.506 4.971.386-1.087.984-1.945 1.689-2.708 4.042-4.364 8.092-8.722 12.188-13.036.7-.737 1.634-1.256 2.461-1.873-1.198-.935-2.542-1.985-3.801-2.971-5.987 5.53-11.913 11.011-17.838 16.495Zm-212.071 58.771c.528-.295.904-.483 1.254-.707 2.674-1.701 5.247-3.427 6.816-6.403 1.513-2.871-1.071-7.195-3.739-7.479-.898-.097-1.845.079-2.748.251-2.952.559-5.327 2.157-7.976 4.361 2.985-.496 4.01-.479 4.547.448.662 1.141 1.324 2.428 1.459 3.706.317 3.065-2.261 4.802-5.121 3.662-.756-.302-1.552-.497-2.329-.742-.12.213-.239.427-.359.637a6720.4 6720.4 0 0 1 4.735 3.596c-4.042.549-7.82-2.402-11.758.646 5.113 1.591 2.742 5.499 3.165 8.629.378-.196.719-.344 1.024-.54 3.699-2.36 7.403-4.717 11.094-7.096 6.805-4.382 13.051-9.371 17.841-16.021 4.703-6.524 8.141-13.65 9.88-21.478 1.341-6.027 1.316-12.184.259-18.299-.21-1.218-.57-2.407-.864-3.612-.538.356-.672.636-.71.928-.646 4.893-2.419 8.867-7.9 9.924-.319.063-.763.49-.81.802-.193 1.266-.255 2.554-.372 3.903 2.674.384 4.193 1.61 4.382 4.357.211 3.098-1.139 4.915-4.132 5.623 1.295 1.626 3.541 1.245 4.916-.756 1.415-2.064 2.559-4.254 2.597-6.871.012-.832.223-1.661.343-2.492.553.585.732 1.197.813 1.823.56 4.303-2.05 8.694-6.516 10.692-1.056.474-1.31 1.055-1.274 2.071.2 5.554-2.092 9.848-6.842 12.663-1.582.94-2.3 1.604-1.964 3.734.667 4.28-4.565 9.517-9.711 10.04Zm-30.604 4.861c-.066-.245-.129-.491-.196-.737.724-.122 1.443-.261 2.168-.362 4.138-.598 8.058-1.697 11.641-4.018 3.876-2.511 4.884-6.352 2.342-10.086-2.449-3.593-5.773-4.893-10.118-4.068-1.24.236-2.527.215-3.793.312-.017-.213-.03-.426-.047-.641 2.27-1.499 4.904-.963 7.411-1.118-.333-2.681 1.833-5.372 5.117-6.394 2.826-.881 5.68.289 6.883 3.241 1.683 4.133-1.327 5.884-4.374 7.669.955.376 1.95.861 2.777.662 6.5-1.582 11.118-6.737 9.116-14.011-.938-3.413-5.099-5.348-8.207-3.846-2.583 1.251-5.295 1.337-8.006.858-1.175-.205-1.399.093-1.803 1.108-.862 2.16-1.827 4.327-3.095 6.268-1.903 2.914-4.94 4.194-8.29 4.765.544 2.863 1.073 5.619 1.611 8.442 1.31-.247 2.69-.663 4.084-.721 1.108-.044 2.518-.007 3.293.618 2.091 1.692 1.794 5.086-.241 6.863-2.735 2.386-5.763 2.977-9.095 1.734a7624.548 7624.548 0 0 0-3.934 5.53c4.068-1.741 7.558-1.59 10.558 1.863 1.215-1.753 2.292-3.31 3.553-5.134-3.438.439-6.398.821-9.355 1.203Zm68.721-74.424c-1.174-.637-2.212-1.167-3.218-1.754-3.524-2.058-6.973-4.252-10.581-6.15-1.409-.741-3.101-1.368-5.133-.735 11.472 11.732 12.275 26.055 10.885 40.747.963.308 1.737.47 2.436.797 2.769 1.281 3.372 1.02 4.231-1.906 1.584-5.41 3.194-10.811 4.752-16.228.12-.423.072-1.057-.174-1.398-1.135-1.585-.564-3.033.133-4.547.648-1.404 1.412-2.816 1.68-4.306.151-.846-.594-1.855-.934-2.787-.697.405-1.506.691-2.068 1.234-1.506 1.458-2.818 3.124-4.38 4.508-.844.748-2.044 1.09-3.455 1.799-.413-5.035 4.526-5.909 5.826-9.274Zm-72.713 78.692c.686.201 1.149.316 1.597.469 1.609.557 2.24 1.83 2.037 3.372-.391 2.96-2.187 4.976-4.895 6.044-2.513.993-4.349-.332-5.953-2.434-.773 2.574-.813 4.996.691 6.924 1.084 1.388.864 2.399.248 4.033-.291-.7-.504-1.063-.596-1.456-.423-1.871-1.882-2.461-3.474-2.488-1.68-.031-3.115.825-3.304 2.645-.238 2.274-.184 4.58-.259 6.986-2.756-.043-4.821 1.522-5.722 4.302-.863 2.665-1.339 5.458-1.983 8.193.655-.043.949-.229 1.145-.485 1.801-2.356 3.488-4.809 5.399-7.073 7.879-9.333 17.191-16.84 28.28-22.08 1.623-.768 3.075-1.9 4.975-3.097-2.4-.007-4.354-.379-6.08.093-1.376.377-1.666-.264-2.142-1.007-.292-.459-.395-1.034-.604-1.552-1.634-3.985-6.11-4.773-9.36-1.389Zm34.887-32.104c1.515-.784 2.903-1.774 4.446-2.198 1.036-.285 2.602-.147 3.381.481 1.246 1.003 1.932 2.692 1.24 4.362-.669 1.618-1.64 3.108-2.551 4.781.784.404 1.405 2.227 3.163 1.395 6.154-2.917 10.114-10.771 5.121-17.3-1.014-1.327-2.26-3.112-4.429-2.309-2.822 1.043-5.562 1.198-8.29-.145-1.471-.726-2.892-1.558-4.511-2.436-1.185 2.182-2.31 4.263-3.519 6.489 3.685.948 5.174 3.769 5.949 6.88Zm-39.194-20.291c-2.779 2.016-.314 13.069 2.852 16.764 5.123-2.727 8.117-2.623 9.806.333 1.672 2.93.091 6.128-4.267 8.849.816-.012 1.659-.044 2.391-.346 3.319-1.366 5.647-3.834 6.964-7.101 1.675-4.166-.03-8.07-3.923-9.126-1.335-.364-2.836-.302-4.241-.19-2.355.192-4.696.582-7.277.919 2.018-1.92 2.018-1.916.332-3.835-.245-.279-.557-.549-.683-.881-.687-1.797-1.322-3.617-1.954-5.386Zm-9.131-4.529c-3.316.196-6.545.39-9.743.579l-.016 1.883c-.277-.034-.726.025-.805-.116-1.126-2.068-2.258-.676-3.029.159-1.114 1.203-2.021 2.628-2.863 4.048-1.956 3.302-.425 5.997 1.806 7.833a11.91 11.91 0 0 0 1.7 1.142c2.401 1.359 6.449 1.223 8.418-.452-.656-.424-1.199-.899-1.831-1.162-4.647-1.933-4.456-6.166-1.752-9.604.198-.25.779-.324 1.162-.283 1.93.2 3.851.465 5.817.713.326-1.351.694-2.901 1.136-4.74Zm4.707 63.203c-9.402 5.27-18.564 26.647-16.127 38.324.467-1.026.94-1.694 1.074-2.424.74-4.083 1.327-8.195 2.108-12.267.456-2.37 1.502-4.522 3.701-5.791.93-.535 2.04-.758 3.263-1.192-1.11-2.364-1.371-4.588-.062-6.961 1.412-2.554 3.77-2.687 5.81-2.796.081-2.453.158-4.678.233-6.893Zm55.897-95.783c2.705 3.733 2.781 7.411 1.798 11.385 4.599 1.484 8.462 4.004 11.74 7.585-.651-2.412-1.301-4.815-2.503-6.895-1.969-3.412-4.318-6.604-6.461-9.915-.977-1.504-2.425-1.89-4.574-2.16Zm-24.778 71.557c1.111 2.918-.516 5.49-1.828 8.257 2.04.007 3.793.009 6.095.015-2.715-3.309-1.968-6.337-.247-9.82-1.601.616-2.717 1.045-4.02 1.548Zm130.522-44.62c.17 2.18.317 4.048.494 6.268 2.608-1.814 4.995-3.474 7.382-5.138l-.229-.558c-2.487-.185-4.978-.368-7.647-.572Zm-68.407-8.942c-.131-1.164-.08-2.236-.454-3.136-.126-.308-1.669-.493-1.944-.187-.638.719-.897 1.772-1.341 2.761 1.374.209 2.26.34 3.739.562Zm-49.587 43.093c-.141.007-.282.016-.423.022-.326 1.236-.655 2.473-1.014 3.832 1.127-.125 1.959-.218 2.927-.322-.619-1.465-1.053-2.5-1.49-3.532Z"/><path d="M479.757 480.531s.013-.09.014-.087c1.347-4.617 2.633-9.25 4.066-13.842a13.269 13.269 0 0 1 4.882-6.818c1.837-1.325 4.229-1.885 6.557-2.474-5.787 5.579-10.941 11.327-11.462 19.872 2.4-3.414 4.803-6.828 7.202-10.244l.655.417-7.065 10.626.581.4 11.332-12.784.318.278c-.088.82-.176 1.64-.332 3.131 2.05-1.035 3.721-1.881 5.435-2.747-2.303 2.354-4.596 4.706-6.891 7.055.127.151.257.297.384.448l3.375-2.488c-3.748 4.297-7.606 8.626-11.346 13.057-1.843 2.184-2.588 4.657-.723 7.39-.931-.406-1.699-.744-2.915-1.277.008-.385.025-1.254.047-2.218-1.422-.839-1.422-.839-2.996 1.434-.387-3.124-.753-6.128-1.118-9.129Zm5.118 5.079 10.224-14.128c-4.413 3.983-8.252 8.381-10.224 14.128ZM520.552 524.858c-.418-.318-.802-.839-1.26-.917-4.695-.799-9.41-1.481-14.103-2.287-2.043-.351-3.323-2.493-2.805-4.55-.557-.301-1.132-.616-1.918-1.043l2.177-2.23c-1.207-1.232-2.392-2.449-4.002-4.097 2.833.133 5.277-.066 7.575.418 5.376 1.137 10.26-.313 15.154-2.184 1.19-.454 2.512-.564 3.776-.83l.093.517c-1.113.21-2.275.291-3.33.668-.883.314-1.632.993-2.461 1.472-.459.264-.942.544-1.451.657-3.368.732-6.745 1.421-10.158 2.443 5.408.519 10.816 1.038 16.225 1.56l-.001.474-19.915.289c-.008.18-.021.361-.029.541 6.924 1.373 14.116-.055 21.039 1.339.004.177.009.357.01.535-2.161.329-4.319.658-6.778 1.035l1.424 1.4c-3.526.028-6.782.053-10.037.081 4.256 1.969 8.764 1.038 13.144 1.774l-4.419.361-.033.399c1.446.257 2.892.519 4.735.848-1.141.544-1.907.906-2.67 1.268-.011-.001.018.059.018.059Zm-1.319-7.418c-4.441-.093-8.882-.187-13.326-.276l-.001.646c4.455.571 8.911 1.03 13.327-.37ZM525.399 546.084c-1.391 2.542-.286 4.81.076 7.122.266 1.693.373 3.41.548 5.118l-.643.092c-.697-1.198-1.391-2.401-2.088-3.6l-.435.06.113 3.027c-.18.033-.356.068-.535.105l-2.091-12.134c-.219.032-.441.061-.66.093l1.003 10.921c-.227.027-.454.054-.682.077-.612-3.708-1.227-7.415-1.839-11.123l-.699.064.644 11.283c-.232.017-.464.039-.694.056-1.411-2.731-1.446-5.738-1.632-8.734-.089-1.453-.318-2.907-.63-4.331-.285-1.295-.34-2.449.766-3.396 1.709 1.826 2.131 1.784 3.814-.254 2.268.59 3.467 2.068 3.827 4.338.055.342.737.586 1.411 1.085-.24-1.605-.421-2.802-.599-4 .192-.06.383-.121.575-.177 1.784 1.445 2.729 3.413 3.284 5.643.76 3.049 1.623 6.076 2.284 9.148.209.971-.091 2.051-.187 3.573-2.399-4.713-1.523-10.112-4.931-14.056Zm-1.348 8.528c.279-.074.555-.144.833-.218-.656-2.53-1.311-5.059-1.969-7.585-.252.068-.508.133-.76.201.635 2.531 1.264 5.067 1.896 7.602Z"/><path d="M491.937 484.092c4.325-3.194 8.651-6.392 12.975-9.586.081.102.161.205.243.311-.718.608-1.439 1.215-2.157 1.824.062.138.119.274.18.413 2.2-.876 4.405-1.749 6.605-2.625l.11.196c-1.334 1.089-2.658 2.186-4.001 3.263-.233.189-.538.426-.802.417-4.579-.144-7.305 2.957-10.049 5.868-1.559 1.655-2.783 3.631-4.17 5.451-.429.563-.905 1.089-1.359 1.631-.185-.129-.373-.258-.557-.388l2.648-4.017-.287-.395c-.589.39-1.23.723-1.748 1.189-.573.515-1.032 1.155-1.706 1.931-.316-4.678 2.354-7.606 5.09-10.333 4.624-4.612 10.161-8.022 15.781-11.302-5.653 5.31-12.067 9.796-17.131 15.727.107.142.222.285.335.425ZM440.311 472.625c1.177-1.494 2.773-2.461 4.592-2.994a21.778 21.778 0 0 1 4.338-.813c7.845-.644 15.176-3.465 22.735-5.31.658-.162 1.311-.344 2.422-.228-.297.545-.459 1.39-.91 1.586-2.247.985-4.508 2.056-6.878 2.632-7.689 1.868-15.421 3.545-23.147 5.262-.946.211-1.936.209-2.906.304-.081-.148-.165-.292-.246-.439ZM370.94 416.715c.235-.513.403-1.073.718-1.529 1.017-1.476.787-2.634-.461-3.947-1.213-1.276-2.284-2.768-3.064-4.34-.414-.835-.485-2.617.009-2.969 1.102-.789 2.706-1.42 4.005-1.263 2.592.313 3.654 2.535 4.385 4.785 1.175 3.629.152 7.072-2.612 8.691-.796.467-1.76.647-2.646.962-.11-.127-.222-.257-.334-.39ZM422.269 428.117c4.607-.982 5.938-4.852 6.099-8.189.023-.497-.139-1.065.052-1.473.413-.888-.912-2.367.959-2.742 1.861-.375 3.987.436 4.58 1.97.303.778.469 1.728.326 2.536-.792 4.56-3.246 7.979-7.434 10.004-2.088 1.009-2.718.68-3.743-1.402-.115-.23-.427-.368-.839-.704ZM413.416 421.8c1.413-.979 3.34-1.67 4.095-3.02.74-1.322.155-3.329.389-5.003.269-1.905 2.344-4.365 3.349-4.287 1.453.113 3.922 3.848 3.444 5.695-.43 1.67-1.169 3.361-2.17 4.756-1.504 2.103-3.881 3.039-6.374 3.378-.877.121-1.849-.47-2.778-.738.018-.259.032-.52.045-.781ZM555.114 550.945c2.724 2.61 5.451 5.219 8.175 7.828-.112.142-.224.284-.34.427-7.221-4.599-14.398-9.258-20.877-15.648 3.4.543 4.509 3.623 7.165 4.972-.74-2.941-3.753-4.351-4.104-7.147l.498-.423c2.993 2.541 5.857 5.257 9.018 7.569 3.165 2.315 6.623 4.228 9.751 6.695-2.983-1.62-5.963-3.24-8.946-4.857l-.34.584Zm-.749 1.586c.179-.193.355-.389.535-.582-1.485-1.605-2.967-3.214-4.452-4.818l-.573.556c1.498 1.616 2.993 3.232 4.49 4.844ZM395.031 413.43c.108-.259.187-.54.331-.78 1.432-2.399 1.376-2.992-.539-5.065-.212-.227-.477-.401-.694-.624-2.433-2.516-1.873-5.251 1.475-6.38.818-.277 2.18.022 2.868.578 3.222 2.594 3.487 9.084.163 11.336-.977.661-2.18.989-3.28 1.471-.105-.177-.215-.356-.324-.536ZM513.434 556.936c-1.394-4.698.026-9.775-2.019-14.842-1.962 3.276-2.539 6.577-2.729 9.921-.19 3.386-.088 6.785-.117 10.163-1.604-4.424-2.49-20.537-.246-24.439.186.007.374.018.557.026-.158 2.367-.315 4.734-.476 7.101l.353.104 1.694-4.795c2.827-.745 3.047 1.308 3.394 2.961.958 4.594.431 9.183-.411 13.8ZM351.918 431.854c.048-1.029-.149-1.815.151-2.292.87-1.391.048-1.995-.931-2.676-.708-.491-1.422-1.013-2.009-1.638-1.502-1.59-1.776-3.334-.806-4.512 1.288-1.566 3.709-2.073 5.357-.846 2.358 1.756 3.325 4.246 2.916 7.175-.35 2.494-2.058 3.777-4.678 4.789ZM383.84 414.02c.128-.683.087-1.011.229-1.147 1.975-1.895.815-3.627-.129-5.491a21.498 21.498 0 0 1-1.78-4.849c-.12-.515.784-1.82 1.169-1.802 1.355.071 2.978.185 3.971.963 3.03 2.365 3.75 9.464-1.299 11.836-.571.263-1.258.289-2.161.49ZM406.528 414.89c3.494-2.98 1.378-6.019.208-8.989.139-.177.2-.282.286-.359 3.309-2.882 5.764-2.038 6.758 2.317.69 3.016-.473 6.316-2.655 7.554-2.037 1.15-2.185 1.14-4.597-.523ZM647.817 293.427c3.499 1.663 3.982 5.211 2.504 7.854-1.588 2.837-6.375 4.139-9.037 2.48-3.682-2.292-4.242-5.092-2.801-7.814 1.783-3.369 6.201-4.382 9.334-2.52Zm-7.513 3.179c-1.072 1.911-.527 4.171 1.271 5.24 2.271 1.353 6.002.585 7.137-1.47 1.075-1.944.448-4.198-1.478-5.305-2.306-1.327-5.753-.562-6.93 1.535ZM342.498 441.349c-.1-.258-.195-.375-.176-.473.487-3.137.414-3.035-2.359-4.995-.874-.619-1.967-2.235-1.702-2.881.488-1.198 1.746-2.457 2.967-2.898 1.959-.706 4.569 1.317 5.831 3.99.985 2.092.567 4.246-1.307 5.622-.967.7-2.157 1.095-3.254 1.635ZM615.016 317.705c-1.718 3.092-6.097 4.253-9.418 2.502-2.487-1.311-3.712-5.004-2.327-7.409 1.785-3.101 6.18-5.078 9.76-2.831 2.668 1.671 3.58 4.871 1.985 7.738Zm-2.864-5.968c-2.643-1.855-6.367-.089-7.251 1.826-.893 1.93-.292 3.943 1.557 4.923 2.649 1.404 5.907.462 7.184-2.085.96-1.915.394-3.7-1.49-4.664ZM629.046 299.686c2.688 1.52 3.649 5.158 1.86 7.942-2 3.105-5.713 4.125-8.942 2.642-3.001-1.375-4.079-5.009-2.555-7.733 1.919-3.427 6.32-4.729 9.637-2.851Zm-1.071 1.597c-1.99-1.173-5.702-.236-6.789 1.717-1.069 1.921-.542 4.44 1.128 5.397 2.317 1.327 5.683.505 7.041-1.723 1.296-2.129.786-4.111-1.38-5.391ZM593.761 315.648c-1.664 2.88-5.213 3.869-8.055 2.243-3.02-1.726-4.473-6.437-2.853-9.227 1.679-2.891 4.996-3.889 7.834-2.106 3.331 2.094 4.732 5.375 3.074 9.09Zm-6.974.556c2.037 1.078 4.481.446 5.469-1.409 1.001-1.888-.169-5.367-2.177-6.469-2.141-1.174-4.629-.713-5.566 1.036-1.247 2.33-.179 5.544 2.274 6.842ZM361.81 423.885c.516-1.686 1.339-2.955 1.071-3.922-.248-.899-1.787-1.368-2.536-2.223-.957-1.09-1.917-2.284-2.462-3.603-.72-1.744-.051-2.638 1.759-3.067 1.608-.385 2.939.138 4.097 1.197 2.543 2.322 2.482 8.166-.105 10.415-.438.377-.972.649-1.824 1.203ZM564.184 552.036c-2.791-1.516-5.681-2.879-8.343-4.597-2.068-1.338-3.792-3.196-5.777-4.68-1.493-1.118-1.233-2.655-1.085-4.036.146-1.329 1.291-.716 1.884-.336a145.483 145.483 0 0 1 7.056 4.779c2.778 2.014 5.477 4.131 8.114 6.134-5.371-1.637-9.024-6.483-14.071-8.986l-.399.525c4.23 3.641 8.464 7.281 12.694 10.922-.019.092-.047.182-.073.275ZM472.008 474.027c-.721.666-1.334 1.696-2.178 1.938-6.598 1.901-13.23 3.672-19.87 5.43-.917.243-1.913.186-3.361.309 2.564-2.313 5.252-3.09 8.005-3.737 4.518-1.062 9.041-2.118 13.545-3.236 1.171-.289 2.287-.806 3.428-1.217.146.171.288.342.431.513ZM473.536 469.969c-1.275.607-2.495 1.428-3.837 1.787a733.293 733.293 0 0 1-17.738 4.46c-1.489.355-3.103.832-4.941-.695l26.208-6.109c.104.185.204.37.308.557ZM450.841 495.962c6.819-4.165 14.573-5.952 22.027-8.524-6.745 4.339-14.001 7.386-22.027 8.524ZM471.427 478.044c-.943.541-1.826 1.256-2.839 1.591-6.885 2.288-13.797 4.503-20.708 6.711-.376.118-.83-.02-1.778-.063 8.21-4.505 16.658-6.682 25.325-8.239ZM551.074 536.416c6.055 1.078 10.708 4.592 15.126 8.519l-9.608-5.998c-.168.24-.341.48-.508.723l9.637 7.332c-5.897-2.413-10.029-6.816-14.647-10.576ZM470.428 481.773c-2.385 2.639-5.556 3.606-8.615 4.706-2.623.943-5.348 1.608-7.985 2.519-1.891.655-3.713 1.509-5.567 2.277-.103-.139-.209-.277-.313-.416.98-.707 1.861-1.676 2.952-2.082 6.418-2.385 12.885-4.639 19.528-7.004ZM503.954 544.607c.407 6.181.817 12.36 1.224 18.541-1.937-6.066-2.412-12.241-1.806-18.498.195-.016.389-.031.582-.043ZM542.706 545.98c3.116 3.341 6.229 6.683 9.346 10.027-4.144-2.357-7.164-5.791-9.823-9.574.159-.15.318-.3.477-.453ZM487.114 428.445c1.775 4.338.16 8.479.997 12.485l6.407-11.809c-1.6 6.208-6.012 11.236-6.999 17.732.088-6.049-1.941-11.961-.405-18.408ZM475.421 428.673c2.257 5.153 4.514 10.308 6.768 15.461-3.923-4.416-5.672-9.819-7.446-15.21l.678-.251ZM482.263 428.282c1.681 4.266 2.627 8.667 2.426 13.279l-.566.109-2.616-13.185.756-.203ZM470.031 427.343c2.179 4.945 4.357 9.886 6.533 14.831l-.765.341c-2.229-4.921-4.457-9.84-6.69-14.761l.922-.411ZM610.778 532.274l-10.022-6.734.431-.609c3.904 1.432 6.756 4.359 9.591 7.343ZM602.211 522.992c3.426-.129 8.089 1.999 11.086 4.989l-11.086-4.989ZM614.15 522.67c-3.103-.771-6.203-1.544-9.802-2.439 2.338-1.157 5.562-.331 9.802 2.439ZM605.832 534.86c-2.441-2.319-4.885-4.637-7.327-6.959.133-.144.265-.287.399-.427 3.22 1.489 5.076 4.458 6.928 7.386ZM615.281 481.896c5.303.559 10.608 1.116 16.219 1.708-2.83 1.143-12.206.25-16.219-1.708ZM629.671 480.439c-3.87-.328-7.738-.657-12.05-1.026 2.191-1.159 10.208-.673 12.102.463a78.14 78.14 0 0 1-.052.563ZM629.496 488.615c-2.325 1.788-6.086 1.855-9.84.264 3.306-.09 6.423-.172 9.84-.264ZM587.453 396.102c-1.363 4.275-3.809 7.971-6.368 11.607.982-4.479 3.638-8.062 6.368-11.607ZM569.933 407.804c-.131-3.346-1.459-6.815.665-9.925.229.021.454.047.683.069-.257 3.328-.51 6.656-.767 9.984a33 33 0 0 0-.581-.128ZM574.596 405.237c-.018-4.695.974-8.009 2.448-9.425.169.05.335.104.504.154-.983 3.089-1.966 6.181-2.952 9.271ZM591.975 409.682c-1.6 1.108-3.197 2.218-4.797 3.326l-.387-.52 4.612-3.588c.189.264.381.522.572.782ZM535.405 387.724c-1.109 5.543-2.218 11.085-3.328 16.624l-.714-.142c.982-5.536 1.96-11.071 2.942-16.61.366.047.735.087 1.1.128ZM528.618 404.225c-.781-4.42-1.523-8.623-2.352-13.332 2.107 2.308 3.41 10.438 2.352 13.332ZM534.65 403.723l4.396-12.635c.848 1.957-1.111 7.53-4.396 12.635ZM604.341 433.739c.071-.338.029-.83.235-.987 1.951-1.461 3.948-2.863 6.092-4.074.109 2.013-1.41 2.404-2.651 3.055-1.24.652-2.48 1.303-3.711 1.966l.035.04ZM611.248 447.989c2.171-1.284 4.247-2.848 7.023-2.451-1.889 2.08-4.537 2.039-7.023 2.451ZM570.308 528.246c-4.366-1.112-8.231-2.6-11.824-5.418 1.649-.23 2.774-.118 3.639 1.214.52.799 1.275 1.258 2.246.198.807-.886 2.432.013 3.022 1.045.595 1.049 1.726 1.794 2.917 2.961ZM569.619 523.232c1.201.415 2.402.829 3.641 1.255-.981 1.105-.981 1.105 2.509 3.105-2.653.026-4.601-1.045-6.078-2.979-.225-.298-.017-.923-.004-1.401.005.003-.068.02-.068.02ZM583.53 501.782c1.787.719 3.572 1.443 5.358 2.162-2.18.279-4.362.578-5.619-1.656.088-.172.176-.339.261-.506ZM373.391 659.141c1.242 1.294 2.582 2.473 3.647 3.865 1.13 1.481 1.043 3.674.092 4.876-1.575 1.994-4.107 2.968-6.241 2.21-2.664-.944-4.745-2.697-6.114-5.167-1.251-2.253 1.194-6.273 3.913-6.354 1.489-.042 2.987.35 4.703.57Zm-3.965 9.278c.851.004 2.553.169 4.202-.061.663-.094 1.321-.978 1.77-1.644.434-.645-.874-5.071-1.494-5.577-2.002-1.637-6.275-1.108-7.739.957-1.221 1.727-.174 4.232 3.261 6.325ZM297.66 598.139c-3.254-1.791-4.65-5.743-3.073-8.682 1.558-2.903 5.397-3.816 8.598-2.074 2.836 1.544 4.962 5.762 3.1 8.85-1.71 2.835-5.326 3.721-8.625 1.906Zm5.339-9.362c-2.446-1.254-6.34-.263-7.436 1.895-1.16 2.284-.128 5.305 2.223 6.513 2.66 1.366 6.249.18 7.674-2.538.667-1.266-.934-5.084-2.461-5.87ZM309.572 623.829c-1.144-1.565-2.477-3.028-3.383-4.72-1.144-2.129-.03-3.967 1.466-5.492 1.57-1.596 3.528-2.134 5.632-1.268 2.396.987 4.037 2.896 5.078 5.186.854 1.879.237 3.583-1.303 5.017-1.664 1.552-3.467 2.353-5.731 1.606-.47-.155-.907-.409-1.358-.614l-.401.285Zm.935-.891c2.075 1.194 4.431.444 6.031-1.922 1.112-1.646.725-3.267-1.125-4.812-.213-.175-.415-.447-.475-.711-.531-2.229-2.4-1.674-3.799-1.664-1.625.009-3.028.797-3.454 2.569-.586 2.422.702 5.322 2.822 6.54ZM389.55 672.811c-2.803-1.521-4.438-5.282-3.257-7.491 1.426-2.669 5.334-4.037 7.844-2.746 2.928 1.504 4.7 5.745 3.428 8.188-1.318 2.525-5.27 3.534-8.015 2.049Zm3.478-7.798c-1.164-1.605-4.311-.971-5.237.984-.844 1.787-.138 4.322 1.523 5.473 1.995 1.38 4.774 1.316 6.209-.145 1.18-1.205 1.404-3.368.569-5.008-.675-1.34-1.554-2.097-3.064-1.304ZM410.176 669.812c-2.555-1.42-3.287-4.182-1.918-6.824 1.427-2.753 6.253-3.418 8.18-2.391 2.432 1.296 3.872 5.129 2.705 7.139-1.716 2.956-5.716 3.882-8.967 2.076Zm7.579-2.661c1.164-2.195.556-3.631-1.748-4.184-.285-.067-.683-.17-.797-.383-1.027-1.931-2.594-1.006-3.901-.642-1.419.398-2.138 1.579-2.267 3.081-.163 1.895 1.408 4.207 3.227 4.724 1.869.525 4.49-.714 5.486-2.596ZM326.417 644.761c-2.24-1.545-4.686-4.88-2.895-7.899 1.546-2.608 5.933-3.823 8.521-2.31 3.446 2.01 4.645 5.204 3.032 8.079-1.555 2.77-5.706 3.792-8.658 2.13Zm6.09-6.451c-.297-2.892-1.579-3.858-4.348-3.403-1.726.284-2.356 1.687-2.906 3.078-.844 2.149-.045 5.188 1.572 6.228 1.865 1.202 4.304 1.039 5.852-.387 2.067-1.903 2.562-4.285 1.272-6.544-.438.308-.863.613-1.442 1.028ZM346.607 659.302c-2.485-1.388-3.789-5.006-2.604-7.213 1.566-2.912 5.326-4.488 7.674-3.217 2.939 1.592 4.234 5.589 2.696 8.33-1.461 2.612-5.092 3.592-7.766 2.1Zm1.086-.513c1.856 1.121 3.909.476 5.144-1.558 1.852-3.054.924-5.051-1.491-6.944-1.513-1.187-4.308-.021-5.541 2.048-1.376 2.298-.597 4.951 1.888 6.454ZM478.095 514.423l-18.026 15.633c-.209-.13-.419-.265-.628-.395.272-.634.372-1.46.838-1.869 4.178-3.657 8.377-7.295 12.666-10.823 1.445-1.188 3.166-2.046 4.759-3.054.131.17.262.337.391.508ZM466.041 539.134c3.732-7.008 10.046-11.314 14.488-17.573.828 1.453.387 2.56-.409 3.404-4.046 4.291-8.155 8.521-12.26 12.754-.441.455-1.005.789-1.819 1.415ZM457.087 526.845c5.331-5.968 12.028-10.201 18.56-14.643l.527.347c-.29.534-.444 1.254-.889 1.574-5.875 4.203-11.789 8.349-17.696 12.507-.144.097-.331.143-.502.215ZM478.411 517.832c-5.419 4.532-10.84 9.061-16.259 13.593a34.8 34.8 0 0 0-.31-.361c4.625-5.442 10.775-9.129 16.013-13.861.187.209.373.419.556.629Z"/></g><path fill="#FABD00" d="M557.379 675.747c7.123-3.134 14.137-6.517 20.895-10.339 3.376-1.913 6.693-3.923 9.888-6.102 3.189-2.181 6.288-4.501 9.093-7.102 1.397-1.303 2.725-2.672 3.885-4.134a17.232 17.232 0 0 0 1.54-2.271c.11-.191.215-.39.312-.598l.303-.635c.195-.42.365-.827.511-1.249.599-1.675.727-3.414.346-5.107-.368-1.7-1.191-3.335-2.185-4.901-1.014-1.586-2.149-3.16-3.268-4.762a122.209 122.209 0 0 1-3.291-4.906c-2.112-3.354-3.994-6.923-5.364-10.738l-.296-.824.529-.696c.074-.095.214-.254.244-.286l.134-.14.246-.251.473-.48.931-.95 1.843-1.909a210.318 210.318 0 0 0 3.607-3.885 226.978 226.978 0 0 0 6.92-8.032 209.044 209.044 0 0 0 12.607-17.007c7.805-11.731 14.365-24.309 18.789-37.575 2.203-6.629 3.845-13.429 4.76-20.312.927-6.879 1.123-13.836.493-20.709-.091-.856-.153-1.72-.272-2.573-.119-.854-.221-1.711-.346-2.563l-.427-2.55-.492-2.601a274.37 274.37 0 0 0-2.183-10.353c-1.592-6.861-3.48-13.632-5.824-20.214-2.344-6.581-5.124-12.981-8.503-19.041a109.6 109.6 0 0 0-11.744-17.126c-4.435-5.338-9.359-10.282-14.616-14.882-5.257-4.603-10.842-8.861-16.606-12.896-11.536-8.066-23.783-15.212-36.238-21.99a643.486 643.486 0 0 0-9.389-5.018c-3.138-1.656-6.291-3.269-9.509-4.923l-2.4-1.328c-.789-.441-1.577-.889-2.36-1.345a164.975 164.975 0 0 1-4.673-2.805 138.442 138.442 0 0 1-9.039-6.138 128.264 128.264 0 0 1-16.437-14.432 121.392 121.392 0 0 1-13.642-17.104 126.102 126.102 0 0 1-10.389-19.217 132.7 132.7 0 0 1-2.058-5.054c-.334-.847-.641-1.7-.955-2.555l-.9-2.547a259.412 259.412 0 0 1-3.37-10.26c-2.105-6.89-3.917-13.882-5.284-20.982-1.364-7.096-2.319-14.306-2.482-21.598-.07-3.644.046-7.308.487-10.97.461-3.681 1.2-7.189 1.993-10.706.808-3.511 1.705-7 2.759-10.462 1.061-3.46 2.235-6.898 3.847-10.243.412-.835.843-1.664 1.343-2.479.122-.203.247-.408.375-.596l.325-.489c.05-.082.118-.234.178-.389.06-.157.114-.323.163-.495.189-.691.262-1.427.178-2.062-.081-.643-.31-1.156-.691-1.538-.379-.386-.959-.668-1.662-.823-.7-.155-1.488-.188-2.295-.151-.402.021-.814.061-1.223.114-.421.06-.808.118-1.264.207l-2.64.484a1594.137 1594.137 0 0 0-21.003 3.923c-13.978 2.726-27.92 5.643-41.779 8.909-6.929 1.64-13.852 3.32-20.756 5.063a1948.758 1948.758 0 0 0-20.699 5.313 2305.847 2305.847 0 0 0-41.252 11.209l-.043.01-.05.009a19.19 19.19 0 0 0-2.722.719c-.891.309-1.756.682-2.542 1.15-.783.468-1.493 1.033-1.966 1.716a3.246 3.246 0 0 0-.596 2.281c.019.211.053.381.117.574.061.195.143.391.236.589.188.387.429.768.705 1.13.548.725 1.219 1.397 1.934 1.995.178.145.37.304.531.409l.617.436c.406.293.806.594 1.203.896a69.912 69.912 0 0 1 2.328 1.868c6.086 5.118 11.471 11.018 16.13 17.435 4.645 6.427 8.528 13.408 11.471 20.772a93.011 93.011 0 0 1 3.706 11.287c.493 1.917.935 3.85 1.31 5.795l1.093 5.813c1.418 7.76 2.672 15.56 3.483 23.414.813 7.85 1.178 15.763.826 23.65-.356 7.885-1.42 15.752-3.418 23.391-1.983 7.639-4.866 15.032-8.52 22.014 3.582-7.021 6.387-14.433 8.29-22.073 1.914-7.64 2.916-15.489 3.198-23.349.284-7.867-.152-15.742-1.028-23.563-.877-7.824-2.196-15.591-3.682-23.324l-1.143-5.797a97.398 97.398 0 0 0-1.35-5.723 93.232 93.232 0 0 0-3.755-11.136c-2.967-7.257-6.854-14.125-11.489-20.44-4.646-6.302-10.015-12.091-16.033-17.075a71.015 71.015 0 0 0-2.294-1.814 63.007 63.007 0 0 0-1.174-.863l-.591-.412c-.252-.166-.437-.324-.643-.487-.797-.658-1.539-1.382-2.185-2.223a8.395 8.395 0 0 1-.864-1.371 5.644 5.644 0 0 1-.32-.78 4.085 4.085 0 0 1-.189-.868 4.822 4.822 0 0 1 .111-1.739 4.925 4.925 0 0 1 .727-1.577c.654-.945 1.525-1.626 2.424-2.174.903-.546 1.855-.963 2.821-1.305.978-.34 1.937-.61 2.98-.809l-.089.021c13.7-3.977 27.432-7.809 41.198-11.53 13.766-3.722 27.572-7.303 41.438-10.668 13.874-3.361 27.822-6.37 41.809-9.189 6.992-1.408 14.003-2.75 21.008-4.06l2.616-.495c.42-.081.907-.184 1.37-.257.47-.075.947-.135 1.432-.178.971-.078 1.978-.077 3.028.116 1.036.193 2.171.624 3.085 1.477.453.421.828.937 1.097 1.486.271.548.438 1.121.525 1.686.178 1.128.085 2.203-.156 3.238a9.612 9.612 0 0 1-.226.783 5.678 5.678 0 0 1-.356.835c-.069.121-.119.203-.134.228l-.085.135-.171.275c-.12.182-.219.363-.318.544a27.354 27.354 0 0 0-1.135 2.258c-1.397 3.122-2.462 6.478-3.4 9.856-.936 3.388-1.727 6.828-2.429 10.285-.684 3.452-1.342 6.951-1.684 10.356-.333 3.43-.368 6.911-.225 10.394.322 6.968 1.364 13.93 2.824 20.808 1.457 6.879 3.372 13.676 5.529 20.393a256.62 256.62 0 0 0 3.463 10.01l.919 2.481c.315.813.624 1.631.958 2.439a140.08 140.08 0 0 0 2.051 4.818c2.872 6.36 6.256 12.485 10.161 18.247a118.664 118.664 0 0 0 13.18 16.153 122.127 122.127 0 0 0 15.791 13.618 140.548 140.548 0 0 0 8.694 5.807 160.978 160.978 0 0 0 6.803 3.961l2.283 1.248c3.133 1.587 6.335 3.206 9.511 4.86a699.68 699.68 0 0 1 9.499 5.012c12.609 6.808 25.042 14.044 36.901 22.298 5.916 4.141 11.674 8.556 17.143 13.356 5.464 4.796 10.627 9.994 15.295 15.635a115.78 115.78 0 0 1 12.32 18.168c3.528 6.422 6.432 13.157 8.808 20.031 2.38 6.876 4.265 13.882 5.835 20.926a276.989 276.989 0 0 1 2.137 10.595l.471 2.658.424 2.728c.126.911.225 1.828.337 2.739.116.914.17 1.831.259 2.748.581 7.338.278 14.721-.787 21.961-1.065 7.244-2.912 14.337-5.309 21.201-2.399 6.868-5.363 13.506-8.752 19.898a179.332 179.332 0 0 1-11.297 18.466 213.127 213.127 0 0 1-24.252 28.897l-1.92 1.889-.967.934-.478.461-.225.221-.099.097c-.044.046.025-.027.022-.04l.233-1.52c1.179 3.547 2.83 6.966 4.767 10.257a116.924 116.924 0 0 0 3.066 4.884c1.061 1.623 2.158 3.238 3.188 4.966 1.033 1.741 1.949 3.661 2.348 5.792a11.3 11.3 0 0 1 .146 3.249 11.936 11.936 0 0 1-.761 3.126c-.188.492-.409.977-.637 1.433l-.35.674c-.115.233-.245.46-.382.685a19.06 19.06 0 0 1-1.808 2.503c-1.305 1.552-2.754 2.927-4.25 4.222-3.004 2.583-6.241 4.824-9.553 6.913-3.316 2.087-6.735 3.989-10.198 5.786-6.945 3.554-14.096 6.67-21.374 9.437ZM293.884 448.316a311.313 311.313 0 0 0-6.724 15.664c-2.056 5.286-4.03 10.598-5.726 15.992-1.688 5.396-3.22 10.831-4.515 16.314-1.327 5.476-2.33 11.013-3.152 16.563-1.633 11.1-2.139 22.333-1.284 33.433.199 2.776.53 5.537.891 8.288l.318 2.057.158 1.029.183 1.022.372 2.047.425 2.035c1.125 5.429 2.665 10.761 4.547 15.962a115.086 115.086 0 0 0 6.775 15.127c2.62 4.87 5.59 9.553 8.867 14.024 3.281 4.459 6.839 8.75 10.667 12.756l1.424 1.469c.476.488.937.995 1.47 1.427l3.086 2.714c1.053.897 2.151 1.765 3.225 2.649.544.434 1.069.893 1.629 1.309l1.668 1.264c2.202 1.717 4.507 3.302 6.779 4.933 2.329 1.551 4.634 3.146 7.03 4.6 2.361 1.512 4.792 2.906 7.207 4.335l3.682 2.033.921.51.935.482 1.871.964c4.982 2.571 10.083 4.935 15.293 6.976 1.303.505 2.621.968 3.934 1.457.653.253 1.32.448 1.983.665l1.991.642c.662.231 1.333.397 2.002.584l2.011.55.503.137.507.108 1.014.215 2.027.432 1.414.3-.02 1.288a192.32 192.32 0 0 1-.691 13.676c-.198 2.272-.42 4.543-.729 6.803-.308 2.264-.642 4.516-1.127 6.77l.012-.097c-.03.485.015 1.046.109 1.581.082.542.228 1.075.387 1.605.341 1.05.821 2.071 1.458 2.995a11.731 11.731 0 0 0 2.308 2.462c.883.725 1.902 1.267 2.946 1.765l-.815-.299-.409-.149-.393-.187c-.261-.129-.53-.245-.789-.382l-.751-.456a12.225 12.225 0 0 1-2.651-2.335 12.179 12.179 0 0 1-1.863-3.058 13.282 13.282 0 0 1-.568-1.721 8.07 8.07 0 0 1-.274-1.855v-.017l.012-.079c.286-2.21.435-4.467.555-6.713.106-2.25.197-4.499.235-6.754.039-2.251.04-4.503.002-6.753a251.826 251.826 0 0 0-.228-6.74l1.397 1.588c-5.818-.745-11.435-2.262-16.916-4.081l-4.087-1.441c-1.347-.515-2.683-1.054-4.03-1.58l-1.005-.399-.992-.427-1.984-.856-1.984-.86-1.96-.915-1.954-.923-.977-.465-.964-.489-3.856-1.957c-2.528-1.381-5.085-2.72-7.551-4.217-2.506-1.431-4.924-3.006-7.371-4.542l-3.596-2.424c-1.208-.793-2.356-1.677-3.531-2.52l-1.754-1.278c-.589-.419-1.148-.887-1.722-1.328-1.14-.899-2.288-1.773-3.418-2.7l-3.366-2.862c-.575-.461-1.085-1.001-1.608-1.523l-1.565-1.575a126.483 126.483 0 0 1-11.33-13.297l-1.293-1.762-1.245-1.798c-.842-1.192-1.627-2.425-2.421-3.649-.196-.308-.398-.612-.591-.921l-.568-.936-1.135-1.874c-.371-.629-.718-1.274-1.077-1.909-.349-.641-.727-1.268-1.055-1.921-.669-1.299-1.369-2.581-1.988-3.906l-.953-1.973-.898-2.001c-.616-1.326-1.14-2.692-1.705-4.037-.275-.676-.525-1.366-.786-2.045-.253-.685-.525-1.366-.751-2.057-3.889-11.024-6.108-22.607-6.692-34.215-.591-11.609.298-23.238 2.474-34.559l.392-2.127.456-2.112.46-2.112.234-1.053.263-1.047 1.054-4.183 1.163-4.15a197.483 197.483 0 0 1 5.584-16.272 199.807 199.807 0 0 1 6.928-15.686 202.376 202.376 0 0 1 8.15-15.042Z"/><path fill="#FABD00" d="M379.688 660.58c2.242.383 4.497.658 6.758.887 1.131.111 2.258.233 3.389.312l1.695.135 1.698.106c4.525.269 9.055.455 13.584.423l1.696.009 1.698-.023 3.395-.041 3.393-.118c1.129-.042 2.259-.067 3.39-.145 4.516-.249 9.032-.522 13.529-.979 2.249-.226 4.5-.427 6.74-.73 2.242-.287 4.492-.508 6.724-.859l3.354-.485c1.118-.161 2.238-.316 3.351-.511 2.226-.377 4.458-.734 6.684-1.125l6.655-1.274c1.113-.198 2.211-.456 3.318-.692l3.311-.718c1.101-.248 2.213-.461 3.31-.726l3.293-.794 3.293-.794 1.646-.401 1.636-.44 6.552-1.744c2.18-.599 4.339-1.27 6.508-1.898l3.256-.945c1.08-.334 2.155-.688 3.23-1.03l6.461-2.064c8.554-2.935 17.084-5.972 25.472-9.39 16.807-6.76 33.241-14.489 49.423-22.827-15.336 9.808-31.484 18.388-48.19 25.754l-3.134 1.384c-1.047.454-2.08.937-3.143 1.357l-6.351 2.564c-1.062.424-2.116.863-3.182 1.27l-3.213 1.183-6.435 2.361c-8.649 2.944-17.371 5.706-26.234 7.966-8.861 2.256-17.805 4.211-26.834 5.696-2.259.356-4.523.679-6.786 1.019-.566.081-1.129.175-1.697.246l-1.704.205-3.407.407c-2.267.296-4.548.476-6.824.691-2.276.228-4.559.353-6.841.503-9.125.566-18.283.666-27.406.13l-3.417-.225-3.413-.296c-1.137-.089-2.27-.237-3.406-.35-1.134-.11-2.267-.269-3.398-.422-4.517-.625-9.03-1.378-13.427-2.562ZM299.078 227.912c1.784-.099 3.561-.217 5.337-.363 1.779-.14 3.554-.293 5.325-.462 3.546-.339 7.086-.716 10.615-1.152 7.065-.833 14.102-1.864 21.115-3.001a544.983 544.983 0 0 0 20.953-3.855 491.003 491.003 0 0 0 20.773-4.676c3.456-.813 6.88-1.744 10.319-2.625 3.421-.944 6.856-1.842 10.261-2.852 6.837-1.924 13.604-4.076 20.369-6.252 13.506-4.436 26.838-9.409 40.12-14.673-12.565 6.81-25.675 12.611-39.062 17.688-6.71 2.49-13.477 4.847-20.33 6.933-1.706.537-3.42 1.062-5.143 1.547l-5.164 1.486-5.194 1.379c-1.73.469-3.468.895-5.209 1.319-3.474.866-6.975 1.637-10.47 2.417-3.511.715-7.015 1.459-10.54 2.086a348.08 348.08 0 0 1-21.239 3.234c-7.11.86-14.248 1.449-21.394 1.827-3.575.148-7.151.289-10.729.291-1.787.002-3.577-.009-5.363-.045-1.782-.062-3.571-.112-5.35-.251Z"/></g></g><defs><linearGradient id="a" x1="149.08" x2="559.896" y1="341.507" y2="248.483" gradientUnits="userSpaceOnUse"><stop stop-color="#FDD88F" stop-opacity=".6"/><stop offset="1" stop-color="#FEB425"/></linearGradient><linearGradient id="b" x1="175.755" x2="611.749" y1="829.56" y2="298.541" gradientUnits="userSpaceOnUse"><stop stop-color="#E65E01" stop-opacity=".52"/><stop offset=".515" stop-color="#F3AF80"/><stop offset="1" stop-color="#FEDDA5"/></linearGradient><filter id="c" width="440.754" height="576.613" x="218.547" y="148.618" color-interpolation-filters="sRGB" filterUnits="userSpaceOnUse"><feFlood flood-opacity="0" result="BackgroundImageFix"/><feColorMatrix in="SourceAlpha" result="hardAlpha" values="0 0 0 0 0 0 0 0 0 0 0 0 0 0 0 0 0 0 127 0"/><feOffset dx="-18" dy="-5"/><feGaussianBlur stdDeviation="15"/><feComposite in2="hardAlpha" operator="out"/><feColorMatrix values="0 0 0 0 0 0 0 0 0 0 0 0 0 0 0 0 0 0 0.5 0"/><feBlend in2="BackgroundImageFix" result="effect1_dropShadow_2039_4607"/><feBlend in="SourceGraphic" in2="effect1_dropShadow_2039_4607" result="shape"/></filter></defs></svg>