<svg width="80" height="81" viewBox="0 0 80 81" fill="none" xmlns="http://www.w3.org/2000/svg">
<g id="Group 1597883996">
<g id="Group 1597883991">
<g id="Group 1597883990">
<path id="Vector" d="M53.298 54.3313C52.369 57.8055 50.9756 62.1612 49.2147 65.3983C48.3233 67.0768 47.1858 68.6095 45.8409 69.9447C45.1101 70.6534 44.2835 71.2539 43.3858 71.7282C42.4206 72.2147 41.3691 72.5021 40.2927 72.5736C40.0192 72.5943 39.7445 72.5943 39.4709 72.5736C39.1961 72.5696 38.9224 72.5368 38.6543 72.4757L37.8529 72.3056L37.0924 72.0272C36.8431 71.9394 36.6023 71.829 36.3727 71.6973C36.1379 71.5736 35.898 71.455 35.6786 71.321L35.0405 70.888L34.7241 70.6664L34.4332 70.4241C32.9549 69.1599 31.6761 67.6755 30.6408 66.022C29.6393 64.4418 28.7572 62.7877 28.002 61.0736C27.2568 59.3777 26.6187 57.656 26.0318 55.9189L30.0028 54.7179C30.4519 56.3725 30.9572 58.0117 31.534 59.6045C32.1183 61.1755 32.8178 62.7004 33.6267 64.1664C34.389 65.5722 35.3559 66.8546 36.4952 67.9705C37.4852 68.981 38.8108 69.5852 40.2161 69.6664C40.9019 69.6591 41.5797 69.5173 42.2118 69.2489C42.8953 68.9266 43.5323 68.5121 44.1055 68.0169C45.334 66.9212 46.3953 65.648 47.2547 64.2385C48.1704 62.7769 48.9774 61.2486 49.669 59.6663C50.3631 58.0736 50.9603 56.4344 51.5167 54.7694L53.298 54.3313ZM25.9297 24.6301C27.2108 21.0219 28.7114 17.4136 31.0032 14.1455C32.1628 12.429 33.6351 10.9508 35.3417 9.78985C36.2707 9.14473 37.3278 8.71184 38.4394 8.52134C39.5509 8.33083 40.6902 8.38728 41.778 8.68675C42.3089 8.83459 42.8223 9.04027 43.3092 9.30016C43.5476 9.42229 43.7778 9.56004 43.9983 9.71253C44.2178 9.86717 44.4526 9.99604 44.6516 10.1661C45.4497 10.7938 46.1741 11.5115 46.8107 12.3053C48.0132 13.8284 49.0279 15.4936 49.8323 17.2641C51.3687 20.7042 52.5308 24.3026 53.298 27.9961L52.221 28.2745C51.2253 24.7627 49.8563 21.3701 48.1377 18.1559C47.2916 16.607 46.2633 15.167 45.0753 13.8672C43.9115 12.6352 42.5232 11.6249 41.1145 11.3672C40.7793 11.2923 40.4369 11.256 40.0936 11.2589C39.9201 11.2589 39.7465 11.3053 39.5832 11.3156C39.4964 11.3156 39.4097 11.3156 39.3229 11.3517L39.0728 11.429C38.73 11.5195 38.398 11.6474 38.0826 11.8105C37.9193 11.893 37.7661 12.0012 37.6028 12.094L37.368 12.2383L37.1434 12.4187C35.8732 13.4467 34.8064 14.7076 33.9993 16.1352C32.4474 18.6055 31.3141 21.3196 30.6459 24.1662L25.9297 24.6301Z" fill="#FABD00" stroke="#FABD00"/>
<path id="Vector_2" d="M25.8404 45.8105L24.4776 56.9549L15.6016 50.192L25.8404 45.8105Z" fill="#FABD00" stroke="#FABD00"/>
</g>
</g>
<path id="Vector_3" d="M51.0183 36.2901L57.4954 27.1664L46.4297 26.0581L51.0183 36.2901Z" fill="#FABD00" stroke="#FABD00"/>
<path id="Vector_4" d="M6.25056 46.9858C8.20679 48.2369 10.3364 49.1871 12.5695 49.8054L13.0288 48.5632C12.0386 48.0477 11.0689 47.5683 10.1348 47.0168C9.21203 46.4929 8.33595 45.8893 7.51638 45.2126C6.74712 44.6096 6.09035 43.873 5.57682 43.0374C5.46892 42.8506 5.37508 42.6559 5.29609 42.4549C5.23007 42.2654 5.18055 42.0705 5.14807 41.8724C5.07124 41.4998 5.08702 41.1137 5.19401 40.7487C5.30432 40.3589 5.47671 39.9898 5.70442 39.6559C5.9718 39.282 6.27622 38.9366 6.61295 38.625C7.35919 37.9569 8.17761 37.3759 9.05272 36.893C10.9251 35.8913 12.8913 35.0798 14.9225 34.4703C19.0958 33.2315 23.364 32.3453 27.6828 31.8208C32.0162 31.2693 36.3904 30.9342 40.7749 30.8157L41.9335 26.3672C36.9651 26.6322 32.013 27.1483 27.0958 27.9136C22.5916 28.6505 18.1609 29.789 13.8557 31.3157C11.6536 32.1169 9.53675 33.1392 7.5368 34.3672C6.48818 35.0187 5.52009 35.7939 4.65297 36.6765C4.19192 37.1457 3.78288 37.6642 3.43308 38.2229C3.05821 38.8472 2.79394 39.5327 2.65215 40.2487C2.51814 40.9614 2.52819 41.694 2.68169 42.4027C2.83518 43.1113 3.12897 43.7813 3.54537 44.3724C4.27282 45.4107 5.19124 46.2979 6.25056 46.9858Z" fill="#FABD00" stroke="#FABD00"/>
<path id="Vector_5" d="M69.2141 29.2334C66.011 27.8626 62.6871 26.7995 59.2866 26.0581L58.3066 30.5169C59.8991 30.8571 61.4865 31.2385 63.0177 31.687C64.5516 32.1154 66.0627 32.623 67.5451 33.2076C68.9679 33.7625 70.3352 34.4529 71.6284 35.2695C72.8381 36.0581 73.864 37.0582 74.1804 37.9499C74.3395 38.3698 74.3644 38.8294 74.2519 39.2643C74.0818 39.8219 73.7965 40.3367 73.4148 40.7747C72.9523 41.3175 72.4395 41.8146 71.8836 42.2592C71.2712 42.7305 70.6302 43.1626 69.9644 43.553C67.1411 45.1668 64.1115 46.3809 60.9608 47.1613C54.5554 48.8314 48.0021 49.8571 41.3967 50.2232C38.0858 50.419 34.7681 50.517 31.4436 50.517C29.7865 50.5032 28.1276 50.4637 26.4671 50.3984L23.9814 50.2747L22.7411 50.1974C22.3254 50.1845 21.911 50.1432 21.5008 50.0737L21.3477 51.9293C21.769 51.9275 22.19 51.9516 22.6084 52.0015L23.864 52.0943L26.3854 52.2489C28.0647 52.3366 29.7439 52.4242 31.4232 52.4242C34.7868 52.4757 38.1504 52.4293 41.5089 52.2541C44.8777 52.0857 48.2328 51.785 51.5743 51.352C54.9352 50.932 58.2713 50.3297 61.5681 49.5479C63.2168 49.1458 64.8654 48.6768 66.4987 48.1613C68.1625 47.6416 69.7922 47.0166 71.3783 46.2901C73.0916 45.5433 74.6607 44.4962 76.0128 43.1974C76.7902 42.4144 77.3924 41.4723 77.7788 40.4345C77.872 40.1431 77.9504 39.8472 78.0136 39.5479C78.0545 39.2386 78.1106 38.9241 78.1106 38.6097C78.1117 37.9861 78.0205 37.3659 77.8401 36.7695C77.4893 35.6979 76.9169 34.714 76.1608 33.8829C75.5015 33.1487 74.7657 32.4885 73.9661 31.9138C72.4806 30.8529 70.8876 29.9544 69.2141 29.2334Z" fill="#FABD00" stroke="#FABD00"/>
</g>
</svg>
