<svg width="80" height="81" viewBox="0 0 80 81" fill="none" xmlns="http://www.w3.org/2000/svg">
<g id="Group 1597883989">
<g id="Group 1597883988">
<path id="Vector" d="M71.6875 16.841C71.6875 29.3051 71.6875 41.7692 71.6875 54.2329C71.2058 59.3554 68.1636 62.6167 63.1785 62.7898C57.1896 62.9981 51.1896 62.8797 45.1938 62.8616C43.7431 62.8572 42.6991 62.1984 42.771 60.5358C42.8419 58.9023 43.9045 58.349 45.3585 58.3482C50.9311 58.3456 56.5037 58.3553 62.0759 58.3438C65.7187 58.3364 67.2563 56.7707 67.2578 53.0711C67.2636 41.4222 67.2629 29.7737 67.2581 18.1249C67.2567 14.2403 65.6652 12.5873 61.8866 12.5847C47.2895 12.5755 32.6916 12.574 18.0942 12.5858C14.3493 12.5888 12.74 14.2843 12.74 18.1349C12.7397 29.8451 12.7386 41.5557 12.7408 53.266C12.7411 56.6934 14.3311 58.3223 17.743 58.3416C21.6195 58.3638 25.4963 58.3782 29.3724 58.3283C30.6131 58.3124 31.5746 58.6956 32.4419 59.5951C35.2846 62.5416 38.1781 65.4371 41.0356 68.3696C42.3864 69.7559 42.5744 71.0601 41.6314 72.071C40.6231 73.1519 39.3257 72.9688 37.8731 71.4999C35.4241 69.0243 32.9497 66.5716 30.572 64.0256C29.7396 63.1346 28.8773 62.8376 27.7086 62.8568C24.1968 62.9141 20.6787 62.9803 17.1712 62.8357C12.2428 62.6323 9.26708 59.8992 8.3125 54.9727C8.31504 42.0166 8.31795 29.0598 8.32086 16.1038C9.22346 11.6056 11.7288 9.04452 15.988 8.2659C31.9973 8.25666 48.007 8.24704 64.0171 8.23779C68.5755 9.10814 71.1935 12.0443 71.6875 16.841Z" fill="#FABD00"/>
<path id="Vector_2" d="M40.0247 50.4924C35.2184 50.3718 30.6058 49.7404 26.7217 46.7458C21.7391 42.9042 20.5148 37.4476 20.8539 31.4558C20.9077 30.5078 20.9012 29.7347 20.4021 28.86C19.3483 27.0135 20.0658 24.597 21.8092 23.5465C23.5163 22.5186 25.8347 22.9932 27.0103 24.6114C28.227 26.287 28.0212 28.8333 26.3346 30.061C25.384 30.7534 25.2168 31.5568 25.1615 32.5499C24.7751 39.5508 28.0889 43.9968 34.9021 45.4708C38.9262 46.3416 42.9455 46.2291 46.9139 45.0351C53.8115 42.9597 55.3019 37.168 55.0838 31.7014C55.0566 31.0219 54.6676 30.6546 54.1645 30.2467C52.372 28.7952 52.0042 26.4058 53.2219 24.6725C54.4095 22.9836 56.8457 22.4909 58.5688 23.5902C60.3769 24.7446 60.9919 27.0886 59.7731 29.0926C59.1322 30.1457 59.4561 31.1166 59.4717 32.1157C59.5652 38.1534 57.9944 43.4376 52.886 47.0639C49.003 49.8196 44.518 50.3852 40.0247 50.4924Z" fill="#FABD00"/>
</g>
</g>
</svg>
