<svg width="80" height="80" viewBox="0 0 80 80" fill="none" xmlns="http://www.w3.org/2000/svg">
<mask id="path-1-inside-1_3655_3024" fill="white">
<path d="M57.6737 20.8493C57.1883 21.3431 56.5438 21.5858 55.8994 21.5858C55.2549 21.5858 54.6105 21.3431 54.1251 20.8493L48.3669 15.0911V39.1617C48.3669 40.551 47.2454 41.6725 45.856 41.6725C44.4667 41.6725 43.3452 40.551 43.3452 39.1617V15.0911L37.587 20.8493C37.1016 21.3431 36.4571 21.5858 35.8127 21.5858C35.1682 21.5858 34.5238 21.3431 34.0384 20.8493C33.5682 20.3785 33.304 19.7403 33.304 19.0749C33.304 18.4096 33.5682 17.7714 34.0384 17.3006L44.0817 7.25725C44.5525 6.78706 45.1907 6.52295 45.856 6.52295C46.5214 6.52295 47.1596 6.78706 47.6304 7.25725L57.6737 17.3006C58.1439 17.7714 58.408 18.4096 58.408 19.0749C58.408 19.7403 58.1439 20.3785 57.6737 20.8493ZM45.856 73.4765C45.1901 73.4765 44.5515 73.2119 44.0806 72.7411C43.6097 72.2702 43.3452 71.6315 43.3452 70.9656V52.5528C43.3452 51.8869 43.6097 51.2482 44.0806 50.7774C44.5515 50.3065 45.1901 50.042 45.856 50.042C46.522 50.042 47.1606 50.3065 47.6315 50.7774C48.1023 51.2482 48.3669 51.8869 48.3669 52.5528V70.9656C48.3669 71.6315 48.1023 72.2702 47.6315 72.7411C47.1606 73.2119 46.522 73.4765 45.856 73.4765Z"/>
<path d="M73.4753 45.8574C73.4753 45.9243 73.4753 45.9829 73.4669 46.0415C73.4585 46.1084 73.4585 46.1754 73.4418 46.234C73.4418 46.2675 73.4334 46.3009 73.425 46.3344C73.4167 46.4097 73.3999 46.4767 73.3748 46.552C73.3246 46.7278 73.2577 46.8952 73.174 47.0542C73.0986 47.1881 73.0066 47.322 72.9061 47.4392C72.8559 47.5061 72.7973 47.5731 72.7387 47.6317L62.6954 57.675C62.21 58.1688 61.5655 58.4115 60.9211 58.4115C60.2766 58.4115 59.6322 58.1688 59.1467 57.675C58.6765 57.2043 58.4124 56.5661 58.4124 55.9007C58.4124 55.2353 58.6765 54.5972 59.1467 54.1264L64.9049 48.3682H19.9107C12.5288 48.3682 6.51953 42.3589 6.51953 34.977C6.51953 27.5952 12.5288 21.5859 19.9107 21.5859C26.7987 21.5859 32.4984 26.8252 33.2265 33.5291C33.2767 34.0062 33.3018 34.4832 33.3018 34.977V39.1618C33.3018 40.5511 32.1803 41.6726 30.791 41.6726C29.4016 41.6726 28.2801 40.5511 28.2801 39.1618V34.977C28.2801 30.3655 24.5223 26.6076 19.9107 26.6076C15.2991 26.6076 11.5412 30.3655 11.5412 34.977C11.5412 39.5886 15.2991 43.3465 19.9107 43.3465H64.9049L59.1467 37.5883C58.6765 37.1175 58.4124 36.4794 58.4124 35.814C58.4124 35.1486 58.6765 34.5104 59.1467 34.0397C59.6175 33.5695 60.2557 33.3054 60.9211 33.3054C61.5864 33.3054 62.2246 33.5695 62.6954 34.0397L72.6467 43.991C72.6802 44.0161 72.7053 44.0495 72.7387 44.083C72.7973 44.1416 72.8559 44.2086 72.9061 44.2755C72.9647 44.3341 73.0149 44.4011 73.0568 44.4764C73.107 44.5433 73.1488 44.6187 73.1823 44.6856C73.266 44.8363 73.333 44.9953 73.3748 45.1627C73.3999 45.2296 73.4167 45.305 73.425 45.3803C73.4334 45.4138 73.4418 45.4472 73.4418 45.4807C73.4585 45.5477 73.4669 45.6063 73.4669 45.6732C73.4753 45.7318 73.4753 45.7904 73.4753 45.8574Z"/>
<path d="M15.0264 73.4765C14.7276 73.4765 14.4751 73.3711 14.269 73.1603C14.0629 72.9495 13.9598 72.6861 13.9598 72.3699V71.2001L14.4236 71.6269C13.7331 71.5953 13.1354 71.5057 12.6304 71.3582C12.1254 71.2106 11.7132 71.0631 11.3937 70.9155C11.1258 70.7891 10.9351 70.6099 10.8218 70.3781C10.7187 70.1462 10.6775 69.9091 10.6981 69.6667C10.729 69.4243 10.8166 69.203 10.9609 69.0028C11.1052 68.8025 11.2907 68.6708 11.5174 68.6076C11.7544 68.5338 12.0275 68.5654 12.3367 68.7024C12.5428 68.8183 12.852 68.9395 13.2642 69.066C13.6867 69.1819 14.2071 69.2399 14.8255 69.2399C15.2583 69.2399 15.5984 69.1977 15.8457 69.1134C16.1034 69.0291 16.2837 68.9185 16.3868 68.7814C16.5001 68.6339 16.5568 68.4758 16.5568 68.3072C16.5568 68.1491 16.5156 68.0174 16.4331 67.912C16.361 67.7961 16.2373 67.696 16.0621 67.6116C15.8869 67.5168 15.6448 67.4325 15.3356 67.3587L13.5888 66.9793C12.6304 66.758 11.9142 66.3892 11.4401 65.8728C10.9764 65.3458 10.7445 64.6661 10.7445 63.8335C10.7445 63.2012 10.8939 62.6374 11.1928 62.142C11.5019 61.6362 11.9296 61.2252 12.4758 60.909C13.0323 60.5928 13.6816 60.3926 14.4236 60.3083L13.9598 60.577V59.5179C13.9598 59.2017 14.0629 58.9383 14.269 58.7275C14.4751 58.5167 14.7276 58.4113 15.0264 58.4113C15.3356 58.4113 15.5932 58.5167 15.7993 58.7275C16.0055 58.9383 16.1085 59.2017 16.1085 59.5179V60.577L15.6448 60.2767C16.0364 60.2872 16.4589 60.3557 16.9123 60.4822C17.3658 60.5981 17.7626 60.7615 18.1026 60.9722C18.3397 61.0987 18.5046 61.2726 18.5973 61.4939C18.7004 61.7152 18.7364 61.9418 18.7055 62.1737C18.6849 62.395 18.6025 62.5952 18.4582 62.7744C18.3242 62.9535 18.1387 63.0747 17.9017 63.1379C17.675 63.1906 17.4019 63.1485 17.0824 63.0115C16.8454 62.9061 16.5774 62.8218 16.2786 62.7586C15.99 62.6848 15.619 62.6479 15.1656 62.6479C14.6194 62.6479 14.1968 62.748 13.898 62.9482C13.6094 63.1485 13.4651 63.4067 13.4651 63.7228C13.4651 63.9336 13.5476 64.1128 13.7125 64.2603C13.8877 64.3973 14.202 64.5185 14.6554 64.6239L16.4177 65.0191C17.3967 65.2404 18.1181 65.6093 18.5818 66.1257C19.0559 66.6315 19.2929 67.2902 19.2929 68.1017C19.2929 68.734 19.1435 69.2926 18.8446 69.7774C18.5458 70.2621 18.1284 70.6574 17.5925 70.963C17.0669 71.2686 16.4538 71.4688 15.753 71.5637L16.1085 71.1843V72.3699C16.1085 72.6861 16.0055 72.9495 15.7993 73.1603C15.6035 73.3711 15.3459 73.4765 15.0264 73.4765Z"/>
<path d="M30.7932 73.4765C30.1273 73.4765 29.4887 73.212 29.0178 72.7411C28.5469 72.2703 28.2824 71.6316 28.2824 70.9657V52.5529C28.2824 51.887 28.5469 51.2483 29.0178 50.7774C29.4887 50.3066 30.1273 50.042 30.7932 50.042C31.4591 50.042 32.0978 50.3066 32.5686 50.7774C33.0395 51.2483 33.304 51.887 33.304 52.5529V70.9657C33.304 71.6316 33.0395 72.2703 32.5686 72.7411C32.0978 73.212 31.4591 73.4765 30.7932 73.4765ZM33.304 34.1401V34.977C33.304 34.4832 33.2789 34.0061 33.2287 33.5291C33.2789 33.7216 33.304 33.9308 33.304 34.1401Z"/>
</mask>
<path d="M57.6737 20.8493C57.1883 21.3431 56.5438 21.5858 55.8994 21.5858C55.2549 21.5858 54.6105 21.3431 54.1251 20.8493L48.3669 15.0911V39.1617C48.3669 40.551 47.2454 41.6725 45.856 41.6725C44.4667 41.6725 43.3452 40.551 43.3452 39.1617V15.0911L37.587 20.8493C37.1016 21.3431 36.4571 21.5858 35.8127 21.5858C35.1682 21.5858 34.5238 21.3431 34.0384 20.8493C33.5682 20.3785 33.304 19.7403 33.304 19.0749C33.304 18.4096 33.5682 17.7714 34.0384 17.3006L44.0817 7.25725C44.5525 6.78706 45.1907 6.52295 45.856 6.52295C46.5214 6.52295 47.1596 6.78706 47.6304 7.25725L57.6737 17.3006C58.1439 17.7714 58.408 18.4096 58.408 19.0749C58.408 19.7403 58.1439 20.3785 57.6737 20.8493ZM45.856 73.4765C45.1901 73.4765 44.5515 73.2119 44.0806 72.7411C43.6097 72.2702 43.3452 71.6315 43.3452 70.9656V52.5528C43.3452 51.8869 43.6097 51.2482 44.0806 50.7774C44.5515 50.3065 45.1901 50.042 45.856 50.042C46.522 50.042 47.1606 50.3065 47.6315 50.7774C48.1023 51.2482 48.3669 51.8869 48.3669 52.5528V70.9656C48.3669 71.6315 48.1023 72.2702 47.6315 72.7411C47.1606 73.2119 46.522 73.4765 45.856 73.4765Z" fill="#FABD00"/>
<path d="M73.4753 45.8574C73.4753 45.9243 73.4753 45.9829 73.4669 46.0415C73.4585 46.1084 73.4585 46.1754 73.4418 46.234C73.4418 46.2675 73.4334 46.3009 73.425 46.3344C73.4167 46.4097 73.3999 46.4767 73.3748 46.552C73.3246 46.7278 73.2577 46.8952 73.174 47.0542C73.0986 47.1881 73.0066 47.322 72.9061 47.4392C72.8559 47.5061 72.7973 47.5731 72.7387 47.6317L62.6954 57.675C62.21 58.1688 61.5655 58.4115 60.9211 58.4115C60.2766 58.4115 59.6322 58.1688 59.1467 57.675C58.6765 57.2043 58.4124 56.5661 58.4124 55.9007C58.4124 55.2353 58.6765 54.5972 59.1467 54.1264L64.9049 48.3682H19.9107C12.5288 48.3682 6.51953 42.3589 6.51953 34.977C6.51953 27.5952 12.5288 21.5859 19.9107 21.5859C26.7987 21.5859 32.4984 26.8252 33.2265 33.5291C33.2767 34.0062 33.3018 34.4832 33.3018 34.977V39.1618C33.3018 40.5511 32.1803 41.6726 30.791 41.6726C29.4016 41.6726 28.2801 40.5511 28.2801 39.1618V34.977C28.2801 30.3655 24.5223 26.6076 19.9107 26.6076C15.2991 26.6076 11.5412 30.3655 11.5412 34.977C11.5412 39.5886 15.2991 43.3465 19.9107 43.3465H64.9049L59.1467 37.5883C58.6765 37.1175 58.4124 36.4794 58.4124 35.814C58.4124 35.1486 58.6765 34.5104 59.1467 34.0397C59.6175 33.5695 60.2557 33.3054 60.9211 33.3054C61.5864 33.3054 62.2246 33.5695 62.6954 34.0397L72.6467 43.991C72.6802 44.0161 72.7053 44.0495 72.7387 44.083C72.7973 44.1416 72.8559 44.2086 72.9061 44.2755C72.9647 44.3341 73.0149 44.4011 73.0568 44.4764C73.107 44.5433 73.1488 44.6187 73.1823 44.6856C73.266 44.8363 73.333 44.9953 73.3748 45.1627C73.3999 45.2296 73.4167 45.305 73.425 45.3803C73.4334 45.4138 73.4418 45.4472 73.4418 45.4807C73.4585 45.5477 73.4669 45.6063 73.4669 45.6732C73.4753 45.7318 73.4753 45.7904 73.4753 45.8574Z" fill="#FABD00"/>
<path d="M15.0264 73.4765C14.7276 73.4765 14.4751 73.3711 14.269 73.1603C14.0629 72.9495 13.9598 72.6861 13.9598 72.3699V71.2001L14.4236 71.6269C13.7331 71.5953 13.1354 71.5057 12.6304 71.3582C12.1254 71.2106 11.7132 71.0631 11.3937 70.9155C11.1258 70.7891 10.9351 70.6099 10.8218 70.3781C10.7187 70.1462 10.6775 69.9091 10.6981 69.6667C10.729 69.4243 10.8166 69.203 10.9609 69.0028C11.1052 68.8025 11.2907 68.6708 11.5174 68.6076C11.7544 68.5338 12.0275 68.5654 12.3367 68.7024C12.5428 68.8183 12.852 68.9395 13.2642 69.066C13.6867 69.1819 14.2071 69.2399 14.8255 69.2399C15.2583 69.2399 15.5984 69.1977 15.8457 69.1134C16.1034 69.0291 16.2837 68.9185 16.3868 68.7814C16.5001 68.6339 16.5568 68.4758 16.5568 68.3072C16.5568 68.1491 16.5156 68.0174 16.4331 67.912C16.361 67.7961 16.2373 67.696 16.0621 67.6116C15.8869 67.5168 15.6448 67.4325 15.3356 67.3587L13.5888 66.9793C12.6304 66.758 11.9142 66.3892 11.4401 65.8728C10.9764 65.3458 10.7445 64.6661 10.7445 63.8335C10.7445 63.2012 10.8939 62.6374 11.1928 62.142C11.5019 61.6362 11.9296 61.2252 12.4758 60.909C13.0323 60.5928 13.6816 60.3926 14.4236 60.3083L13.9598 60.577V59.5179C13.9598 59.2017 14.0629 58.9383 14.269 58.7275C14.4751 58.5167 14.7276 58.4113 15.0264 58.4113C15.3356 58.4113 15.5932 58.5167 15.7993 58.7275C16.0055 58.9383 16.1085 59.2017 16.1085 59.5179V60.577L15.6448 60.2767C16.0364 60.2872 16.4589 60.3557 16.9123 60.4822C17.3658 60.5981 17.7626 60.7615 18.1026 60.9722C18.3397 61.0987 18.5046 61.2726 18.5973 61.4939C18.7004 61.7152 18.7364 61.9418 18.7055 62.1737C18.6849 62.395 18.6025 62.5952 18.4582 62.7744C18.3242 62.9535 18.1387 63.0747 17.9017 63.1379C17.675 63.1906 17.4019 63.1485 17.0824 63.0115C16.8454 62.9061 16.5774 62.8218 16.2786 62.7586C15.99 62.6848 15.619 62.6479 15.1656 62.6479C14.6194 62.6479 14.1968 62.748 13.898 62.9482C13.6094 63.1485 13.4651 63.4067 13.4651 63.7228C13.4651 63.9336 13.5476 64.1128 13.7125 64.2603C13.8877 64.3973 14.202 64.5185 14.6554 64.6239L16.4177 65.0191C17.3967 65.2404 18.1181 65.6093 18.5818 66.1257C19.0559 66.6315 19.2929 67.2902 19.2929 68.1017C19.2929 68.734 19.1435 69.2926 18.8446 69.7774C18.5458 70.2621 18.1284 70.6574 17.5925 70.963C17.0669 71.2686 16.4538 71.4688 15.753 71.5637L16.1085 71.1843V72.3699C16.1085 72.6861 16.0055 72.9495 15.7993 73.1603C15.6035 73.3711 15.3459 73.4765 15.0264 73.4765Z" fill="#FABD00"/>
<path d="M30.7932 73.4765C30.1273 73.4765 29.4887 73.212 29.0178 72.7411C28.5469 72.2703 28.2824 71.6316 28.2824 70.9657V52.5529C28.2824 51.887 28.5469 51.2483 29.0178 50.7774C29.4887 50.3066 30.1273 50.042 30.7932 50.042C31.4591 50.042 32.0978 50.3066 32.5686 50.7774C33.0395 51.2483 33.304 51.887 33.304 52.5529V70.9657C33.304 71.6316 33.0395 72.2703 32.5686 72.7411C32.0978 73.212 31.4591 73.4765 30.7932 73.4765ZM33.304 34.1401V34.977C33.304 34.4832 33.2789 34.0061 33.2287 33.5291C33.2789 33.7216 33.304 33.9308 33.304 34.1401Z" fill="#FABD00"/>
<path d="M72.9719 45.7439L73.2194 45.7086L73.2194 45.7086L72.9719 45.7439ZM72.9669 45.7088H72.7169V45.7265L72.7194 45.7441L72.9669 45.7088ZM72.9567 45.602L73.1992 45.5414L73.1992 45.5413L72.9567 45.602ZM72.9418 45.5423H72.6918V45.5731L72.6992 45.6029L72.9418 45.5423ZM72.9418 45.5089H73.1918V45.4786L73.1846 45.4492L72.9418 45.5089ZM72.94 45.5016L73.1827 45.4419L73.1825 45.4409L72.94 45.5016ZM72.9318 45.4689L72.6833 45.4966L72.6852 45.5133L72.6893 45.5296L72.9318 45.4689ZM72.9281 45.4355L72.6796 45.4631L72.6796 45.4631L72.9281 45.4355ZM72.9067 45.3382L73.1408 45.2505L73.1407 45.2504L72.9067 45.3382ZM72.8967 45.3116L72.6541 45.3722L72.6576 45.386L72.6626 45.3994L72.8967 45.3116ZM72.8898 45.284L73.1323 45.2233L73.1323 45.2233L72.8898 45.284ZM72.7452 44.9284L72.5267 45.0498L72.5267 45.0499L72.7452 44.9284ZM72.74 44.9189L72.5162 45.0309L72.5214 45.0403L72.74 44.9189ZM72.7351 44.9092L72.5115 45.021L72.5115 45.021L72.7351 44.9092ZM72.6568 44.7764L72.4568 44.9264L72.4568 44.9264L72.6568 44.7764ZM72.6363 44.7491L72.4178 44.8705L72.426 44.8854L72.4363 44.8991L72.6363 44.7491ZM72.6197 44.7192L72.4012 44.8406L72.4012 44.8406L72.6197 44.7192ZM72.5526 44.6291L72.3758 44.8058L72.3758 44.8059L72.5526 44.6291ZM72.5275 44.6039L72.3275 44.754L72.3381 44.7682L72.3507 44.7807L72.5275 44.6039ZM72.5061 44.5755L72.3061 44.7255L72.3061 44.7255L72.5061 44.5755ZM72.3852 44.4366L72.562 44.2598L72.562 44.2598L72.3852 44.4366ZM72.3471 44.3967L72.1628 44.5656L72.1632 44.566L72.3471 44.3967ZM72.3348 44.3833L72.5192 44.2144L72.5188 44.214L72.3348 44.3833ZM72.3311 44.3793L72.5151 44.21L72.4995 44.1931L72.4811 44.1793L72.3311 44.3793ZM72.94 46.2131L73.1825 46.2738L73.1827 46.2728L72.94 46.2131ZM72.9318 46.2458L72.6893 46.1851L72.6852 46.2014L72.6833 46.2181L72.9318 46.2458ZM72.9281 46.2792L72.6796 46.2516L72.6796 46.2516L72.9281 46.2792ZM72.9005 46.3939L72.6633 46.3148L72.6633 46.3149L72.9005 46.3939ZM72.897 46.4042L72.6596 46.3251L72.6567 46.3356L72.897 46.4042ZM72.8941 46.4147L73.1344 46.4833L73.1345 46.4833L72.8941 46.4147ZM72.7348 46.815L72.9524 46.9384L72.9564 46.9307L72.7348 46.815ZM72.5265 47.1138L72.3367 46.9511L72.3367 46.9511L72.5265 47.1138ZM72.5159 47.1261L72.3261 46.9635L72.3208 46.9696L72.3159 46.9761L72.5159 47.1261ZM72.5061 47.1392L72.7061 47.2892L72.7061 47.2892L72.5061 47.1392ZM72.3852 47.2781L72.2084 47.1013L72.2084 47.1013L72.3852 47.2781ZM62.3418 57.3215L62.165 57.1447L62.1636 57.1462L62.3418 57.3215ZM62.3388 57.3245L62.1606 57.1492L62.1605 57.1493L62.3388 57.3245ZM59.5033 57.3245L59.6816 57.1492L59.6802 57.1479L59.5033 57.3245ZM59.5005 57.3217L59.6774 57.145L59.6774 57.145L59.5005 57.3217ZM59.5005 54.4797L59.3237 54.3029L59.3236 54.303L59.5005 54.4797ZM66.112 47.8682L66.2888 48.045L66.7156 47.6182H66.112V47.8682ZM32.7293 33.5819L32.9779 33.5558L32.9778 33.5549L32.7293 33.5819ZM72.7066 44.0489L72.8911 43.8802L72.8911 43.8802L72.7066 44.0489ZM73.4605 46.1063L73.7096 46.1274L73.7096 46.1273L73.4605 46.1063ZM72.7244 45.7792C72.7239 45.7755 72.7243 45.7754 72.7246 45.7872C72.725 45.7999 72.7253 45.8206 72.7253 45.8574H73.2253C73.2253 45.7886 73.2249 45.747 73.2194 45.7086L72.7244 45.7792ZM72.7194 45.7441L72.7244 45.7793L73.2194 45.7086L73.2144 45.6734L72.7194 45.7441ZM72.7169 45.6732V45.7088H73.2169V45.6732H72.7169ZM72.7142 45.6626C72.717 45.6739 72.7173 45.6771 72.7172 45.6761C72.7171 45.6754 72.717 45.6743 72.7169 45.6732C72.7169 45.6721 72.7169 45.6719 72.7169 45.6732H73.2169C73.2169 45.63 73.2119 45.5919 73.1992 45.5414L72.7142 45.6626ZM72.6992 45.6029L72.7142 45.6626L73.1992 45.5413L73.1843 45.4816L72.6992 45.6029ZM72.6918 45.5089V45.5423H73.1918V45.5089H72.6918ZM72.6972 45.5612L72.699 45.5686L73.1846 45.4492L73.1827 45.4419L72.6972 45.5612ZM72.6893 45.5296L72.6974 45.5622L73.1825 45.4409L73.1744 45.4083L72.6893 45.5296ZM72.6796 45.4631L72.6833 45.4966L73.1803 45.4413L73.1766 45.4079L72.6796 45.4631ZM72.6726 45.426C72.6722 45.4249 72.6734 45.428 72.6751 45.4355C72.6767 45.4426 72.6784 45.452 72.6796 45.4631L73.1766 45.4079C73.1701 45.3496 73.1574 45.295 73.1408 45.2505L72.6726 45.426ZM72.6626 45.3994L72.6726 45.4261L73.1407 45.2504L73.1307 45.2238L72.6626 45.3994ZM72.6472 45.3446L72.6541 45.3722L73.1392 45.251L73.1323 45.2233L72.6472 45.3446ZM72.5267 45.0499C72.5843 45.1535 72.6239 45.2514 72.6472 45.3446L73.1323 45.2233C73.0966 45.0807 73.0388 44.942 72.9638 44.807L72.5267 45.0499ZM72.5214 45.0403L72.5267 45.0498L72.9638 44.8071L72.9585 44.7976L72.5214 45.0403ZM72.5115 45.021L72.5164 45.0308L72.9636 44.8071L72.9587 44.7974L72.5115 45.021ZM72.4568 44.9264C72.4684 44.9419 72.4871 44.9722 72.5115 45.021L72.9587 44.7974C72.9283 44.7367 72.8942 44.6763 72.8568 44.6264L72.4568 44.9264ZM72.4363 44.8991L72.4568 44.9264L72.8568 44.6264L72.8363 44.5991L72.4363 44.8991ZM72.4012 44.8406L72.4178 44.8705L72.8548 44.6276L72.8382 44.5978L72.4012 44.8406ZM72.3758 44.8059C72.3832 44.8132 72.3918 44.8238 72.4012 44.8406L72.8383 44.5978C72.8072 44.542 72.7709 44.4938 72.7293 44.4523L72.3758 44.8059ZM72.3507 44.7807L72.3758 44.8058L72.7294 44.4523L72.7042 44.4272L72.3507 44.7807ZM72.3061 44.7255L72.3275 44.754L72.7274 44.4539L72.7061 44.4255L72.3061 44.7255ZM72.2084 44.6133C72.2434 44.6484 72.2785 44.6886 72.3061 44.7255L72.7061 44.4255C72.6634 44.3686 72.6127 44.3105 72.562 44.2598L72.2084 44.6133ZM72.1632 44.566C72.1735 44.5773 72.1894 44.5943 72.2084 44.6134L72.562 44.2598C72.55 44.2479 72.5395 44.2366 72.531 44.2274L72.1632 44.566ZM72.1505 44.5522L72.1628 44.5656L72.5314 44.2278L72.5192 44.2144L72.1505 44.5522ZM72.1472 44.5486L72.1509 44.5526L72.5188 44.214L72.5151 44.21L72.1472 44.5486ZM72.1683 44.5697L72.1812 44.5793L72.4811 44.1793L72.4682 44.1696L72.1683 44.5697ZM72.699 46.1461L72.6972 46.1535L73.1827 46.2728L73.1846 46.2655L72.699 46.1461ZM72.6974 46.1525L72.6893 46.1851L73.1744 46.3064L73.1825 46.2738L72.6974 46.1525ZM72.6833 46.2181L72.6796 46.2516L73.1766 46.3068L73.1803 46.2734L72.6833 46.2181ZM72.6796 46.2516C72.679 46.2576 72.6781 46.2633 72.6762 46.2714C72.6741 46.2803 72.6704 46.2937 72.6633 46.3148L73.1377 46.473C73.1589 46.4093 73.1707 46.36 73.1766 46.3068L72.6796 46.2516ZM72.6633 46.3149L72.6599 46.3252L73.1342 46.4832L73.1377 46.4729L72.6633 46.3149ZM72.6567 46.3356L72.6537 46.346L73.1345 46.4833L73.1374 46.4728L72.6567 46.3356ZM72.6537 46.346C72.618 46.4709 72.5711 46.5884 72.5132 46.6993L72.9564 46.9307C73.0303 46.7892 73.0896 46.6402 73.1344 46.4833L72.6537 46.346ZM72.5173 46.6917C72.4646 46.7847 72.4013 46.8757 72.3367 46.9511L72.7163 47.2765C72.8036 47.1747 72.885 47.0569 72.9523 46.9384L72.5173 46.6917ZM72.3367 46.9511L72.3261 46.9635L72.7057 47.2888L72.7163 47.2764L72.3367 46.9511ZM72.3159 46.9761L72.3061 46.9892L72.7061 47.2892L72.7159 47.2761L72.3159 46.9761ZM72.3061 46.9892C72.2784 47.0261 72.2434 47.0664 72.2084 47.1013L72.562 47.4549C72.6127 47.4042 72.6634 47.3461 72.7061 47.2892L72.3061 46.9892ZM72.2084 47.1013L62.165 57.1447L62.5186 57.4982L72.562 47.4549L72.2084 47.1013ZM62.1636 57.1462L62.1606 57.1492L62.517 57.4998L62.52 57.4968L62.1636 57.1462ZM62.1605 57.1493C61.8253 57.4903 61.3778 57.6615 60.9211 57.6615V58.1615C61.503 58.1615 62.0818 57.9426 62.5171 57.4998L62.1605 57.1493ZM60.9211 57.6615C60.4643 57.6615 60.0168 57.4903 59.6816 57.1493L59.325 57.4998C59.7603 57.9426 60.3391 58.1615 60.9211 58.1615V57.6615ZM59.6802 57.1479L59.6774 57.145L59.3236 57.4984L59.3264 57.5012L59.6802 57.1479ZM59.6774 57.145C59.3476 56.8149 59.1624 56.3673 59.1624 55.9007H58.6624C58.6624 56.4998 58.9002 57.0745 59.3236 57.4984L59.6774 57.145ZM59.1624 55.9007C59.1624 55.4341 59.3476 54.9865 59.6774 54.6564L59.3236 54.303C58.9002 54.727 58.6624 55.3016 58.6624 55.9007H59.1624ZM19.9107 47.6182C12.943 47.6182 7.26953 41.9447 7.26953 34.977H6.76953C6.76953 42.2208 12.6669 48.1182 19.9107 48.1182V47.6182ZM7.26953 34.977C7.26953 28.0094 12.943 22.3359 19.9107 22.3359V21.8359C12.6669 21.8359 6.76953 27.7332 6.76953 34.977H7.26953ZM19.9107 22.3359C26.4108 22.3359 31.7929 27.2815 32.4808 33.6089L32.9778 33.5549C32.2627 26.9768 26.6691 21.8359 19.9107 21.8359V22.3359ZM32.4807 33.6081C32.5281 34.0586 32.5518 34.5093 32.5518 34.977H33.0518C33.0518 34.492 33.0272 34.0239 32.9779 33.5558L32.4807 33.6081ZM32.5518 34.977V39.1618H33.0518V34.977H32.5518ZM32.5518 39.1618C32.5518 40.1369 31.7661 40.9226 30.791 40.9226V41.4226C32.0422 41.4226 33.0518 40.413 33.0518 39.1618H32.5518ZM30.791 40.9226C29.8159 40.9226 29.0301 40.1369 29.0301 39.1618H28.5301C28.5301 40.413 29.5397 41.4226 30.791 41.4226V40.9226ZM29.0301 39.1618V34.977H28.5301V39.1618H29.0301ZM29.0301 34.977C29.0301 29.9513 24.9365 25.8576 19.9107 25.8576V26.3576C24.6603 26.3576 28.5301 30.2274 28.5301 34.977H29.0301ZM19.9107 25.8576C14.8849 25.8576 10.7912 29.9513 10.7912 34.977H11.2912C11.2912 30.2274 15.161 26.3576 19.9107 26.3576V25.8576ZM10.7912 34.977C10.7912 40.0028 14.8849 44.0965 19.9107 44.0965V43.5965C15.161 43.5965 11.2912 39.7267 11.2912 34.977H10.7912ZM72.4967 44.191C72.4955 44.1901 72.4966 44.1907 72.501 44.1951C72.506 44.2001 72.5116 44.2061 72.5221 44.2176L72.8911 43.8802C72.8744 43.862 72.8406 43.8239 72.7967 43.791L72.4967 44.191ZM72.5221 44.2176C72.5317 44.2282 72.5459 44.2437 72.562 44.2598L72.9155 43.9062C72.9086 43.8993 72.9018 43.8919 72.8911 43.8802L72.5221 44.2176ZM73.2188 46.0104C73.2154 46.038 73.2132 46.0647 73.2114 46.0853L73.7096 46.1273C73.7115 46.1051 73.713 46.0884 73.715 46.0725L73.2188 46.0104ZM73.2114 46.0852C73.2072 46.1353 73.2048 46.1534 73.2014 46.1653L73.6822 46.3027C73.7014 46.2354 73.7063 46.1666 73.7096 46.1274L73.2114 46.0852ZM59.6773 54.6565L66.2888 48.045L65.9353 47.6914L59.3237 54.3029L59.6773 54.6565ZM66.112 47.6182H19.9107V48.1182H66.112V47.6182ZM19.9107 44.0965H66.112V43.5965H19.9107V44.0965ZM57.6737 20.8493L57.3199 20.4959L57.3172 20.4987L57.6737 20.8493ZM54.1251 20.8493L54.4816 20.4987L54.4786 20.4957L54.1251 20.8493ZM48.3669 15.0911L48.7204 14.7375L47.8669 13.884V15.0911H48.3669ZM43.3452 15.0911H43.8452V13.884L42.9916 14.7375L43.3452 15.0911ZM37.587 20.8493L37.2334 20.4957L37.2304 20.4987L37.587 20.8493ZM34.0384 20.8493L34.3949 20.4987L34.3921 20.4959L34.0384 20.8493ZM33.304 19.0749L32.804 19.0749L33.304 19.0749ZM34.0384 17.3006L33.6848 16.9471L33.6846 16.9473L34.0384 17.3006ZM44.0817 7.25725L43.7284 6.90348L43.7282 6.9037L44.0817 7.25725ZM45.856 6.52295V6.02295V6.52295ZM47.6304 7.25725L47.9839 6.9037L47.9837 6.90348L47.6304 7.25725ZM57.6737 17.3006L58.0275 16.9473L58.0273 16.9471L57.6737 17.3006ZM73.4669 46.0415L72.9718 45.9708L72.9707 45.9795L73.4669 46.0415ZM73.4418 46.234L72.961 46.0966L72.9418 46.164V46.234H73.4418ZM73.425 46.3344L72.94 46.2131L72.9318 46.2458L72.9281 46.2792L73.425 46.3344ZM73.3748 46.552L72.9005 46.3939L72.897 46.4042L72.8941 46.4147L73.3748 46.552ZM73.174 47.0542L73.6099 47.2994L73.6164 47.2871L73.174 47.0542ZM72.9061 47.4392L72.5265 47.1138L72.5159 47.1261L72.5061 47.1392L72.9061 47.4392ZM62.6954 57.675L62.3418 57.3215L62.3388 57.3245L62.6954 57.675ZM59.1467 57.675L59.5033 57.3245L59.5005 57.3217L59.1467 57.675ZM59.1467 54.1264L58.7932 53.7728L58.793 53.773L59.1467 54.1264ZM64.9049 48.3682L65.2585 48.7217L66.112 47.8682H64.9049V48.3682ZM33.2265 33.5291L33.7238 33.4768L33.7236 33.4751L33.2265 33.5291ZM64.9049 43.3465V43.8465H66.112L65.2585 42.993L64.9049 43.3465ZM59.1467 37.5883L58.793 37.9417L58.7932 37.9419L59.1467 37.5883ZM59.1467 34.0397L58.7934 33.6859L58.793 33.6863L59.1467 34.0397ZM62.6954 34.0397L63.0489 33.6861L63.0487 33.6859L62.6954 34.0397ZM72.6467 43.991L72.2931 44.3445L72.3183 44.3696L72.3467 44.391L72.6467 43.991ZM72.9061 44.2755L72.5061 44.5755L72.5275 44.6039L72.5526 44.6291L72.9061 44.2755ZM73.0568 44.4764L72.6197 44.7192L72.6363 44.7491L72.6568 44.7764L73.0568 44.4764ZM73.1823 44.6856L72.7351 44.9092L72.74 44.9189L72.7452 44.9284L73.1823 44.6856ZM73.3748 45.1627L72.8898 45.284L72.8967 45.3116L72.9067 45.3382L73.3748 45.1627ZM73.425 45.3803L72.9281 45.4355L72.9318 45.4689L72.94 45.5016L73.425 45.3803ZM73.4418 45.4807H72.9418V45.5423L72.9567 45.602L73.4418 45.4807ZM73.4669 45.6732H72.9669V45.7088L72.9719 45.7439L73.4669 45.6732ZM14.269 73.1603L14.6265 72.8107L14.6265 72.8107L14.269 73.1603ZM13.9598 71.2001L14.2984 70.8322L13.4598 70.0604V71.2001H13.9598ZM14.4236 71.6269L14.4007 72.1264L15.7729 72.1892L14.7622 71.259L14.4236 71.6269ZM12.6304 71.3582L12.7706 70.8782L12.7706 70.8782L12.6304 71.3582ZM11.3937 70.9155L11.1803 71.3677L11.1841 71.3695L11.3937 70.9155ZM10.8218 70.3781L10.3649 70.5812L10.3686 70.5895L10.3726 70.5977L10.8218 70.3781ZM10.6981 69.6667L10.2021 69.6034L10.2008 69.6139L10.1999 69.6243L10.6981 69.6667ZM10.9609 69.0028L10.5552 68.7105L10.5552 68.7105L10.9609 69.0028ZM11.5174 68.6076L11.6517 69.0892L11.6589 69.0872L11.666 69.085L11.5174 68.6076ZM12.3367 68.7024L12.5818 68.2666L12.561 68.2549L12.5393 68.2453L12.3367 68.7024ZM13.2642 69.066L13.1175 69.544L13.1247 69.5462L13.1319 69.5482L13.2642 69.066ZM15.8457 69.1134L15.6902 68.6382L15.6844 68.6402L15.8457 69.1134ZM16.3868 68.7814L15.9903 68.4768L15.9872 68.4809L16.3868 68.7814ZM16.4331 67.912L16.0086 68.1762L16.0228 68.199L16.0393 68.2201L16.4331 67.912ZM16.0621 67.6116L15.8241 68.0513L15.8346 68.057L15.8453 68.0622L16.0621 67.6116ZM15.3356 67.3587L15.4517 66.8723L15.4417 66.8701L15.3356 67.3587ZM13.5888 66.9793L13.4763 67.4665L13.4827 67.4679L13.5888 66.9793ZM11.4401 65.8728L11.0647 66.2032L11.0718 66.2109L11.4401 65.8728ZM11.1928 62.142L10.7661 61.8813L10.7647 61.8837L11.1928 62.142ZM12.4758 60.909L12.2288 60.4742L12.2253 60.4763L12.4758 60.909ZM14.4236 60.3083L14.6743 60.7409L14.3671 59.8115L14.4236 60.3083ZM13.9598 60.577H13.4598V61.4447L14.2105 61.0096L13.9598 60.577ZM14.269 58.7275L14.6265 59.0771L14.6265 59.0771L14.269 58.7275ZM15.7993 58.7275L15.4419 59.0771L15.4419 59.0771L15.7993 58.7275ZM16.1085 60.577L15.8367 60.9967L16.6085 61.4966V60.577H16.1085ZM15.6448 60.2767L15.6582 59.7769L13.8793 59.729L15.373 60.6963L15.6448 60.2767ZM16.9123 60.4822L16.778 60.9639L16.7885 60.9666L16.9123 60.4822ZM18.1026 60.9722L17.8392 61.3972L17.853 61.4058L17.8673 61.4134L18.1026 60.9722ZM18.5973 61.4939L18.1362 61.6872L18.1399 61.6961L18.144 61.705L18.5973 61.4939ZM18.7055 62.1737L18.2099 62.1076L18.2086 62.1174L18.2077 62.1273L18.7055 62.1737ZM18.4582 62.7744L18.0688 62.4608L18.0631 62.4677L18.0578 62.4749L18.4582 62.7744ZM17.9017 63.1379L18.0149 63.625L18.0227 63.6231L18.0306 63.6211L17.9017 63.1379ZM17.0824 63.0115L16.8792 63.4684L16.8853 63.471L17.0824 63.0115ZM16.2786 62.7586L16.1547 63.243L16.1648 63.2456L16.1751 63.2477L16.2786 62.7586ZM13.898 62.9482L13.6196 62.5328L13.6129 62.5375L13.898 62.9482ZM13.7125 64.2603L13.3791 64.6329L13.3914 64.644L13.4045 64.6542L13.7125 64.2603ZM14.6554 64.6239L14.5422 65.1109L14.546 65.1118L14.6554 64.6239ZM16.4177 65.0191L16.5279 64.5314L16.5271 64.5312L16.4177 65.0191ZM18.5818 66.1257L18.2098 66.4598L18.217 66.4676L18.5818 66.1257ZM18.8446 69.7774L19.2703 70.0397L19.2703 70.0397L18.8446 69.7774ZM17.5925 70.963L17.3448 70.5286L17.3412 70.5307L17.5925 70.963ZM15.753 71.5637L15.3881 71.2218L14.4267 72.2478L15.82 72.0592L15.753 71.5637ZM16.1085 71.1843H16.6085V69.9195L15.7437 70.8424L16.1085 71.1843ZM15.7993 73.1603L15.4417 72.8106L15.433 72.82L15.7993 73.1603ZM33.304 52.5529H33.804H33.304ZM33.2287 33.5291L33.7125 33.4029L32.7315 33.5814L33.2287 33.5291ZM57.3172 20.4987C56.9319 20.8907 56.4188 21.0858 55.8994 21.0858L55.8994 22.0858C56.6689 22.0858 57.4447 21.7954 58.0303 21.1998L57.3172 20.4987ZM55.8994 21.0858C55.38 21.0858 54.8669 20.8907 54.4816 20.4987L53.7685 21.1998C54.3541 21.7955 55.1299 22.0858 55.8994 22.0858L55.8994 21.0858ZM54.4786 20.4957L48.7204 14.7375L48.0133 15.4446L53.7715 21.2028L54.4786 20.4957ZM47.8669 15.0911V39.1617H48.8669V15.0911H47.8669ZM47.8669 39.1617C47.8669 40.2748 46.9692 41.1725 45.856 41.1725V42.1725C47.5215 42.1725 48.8669 40.8271 48.8669 39.1617H47.8669ZM45.856 41.1725C44.7428 41.1725 43.8452 40.2748 43.8452 39.1617H42.8452C42.8452 40.8271 44.1906 42.1725 45.856 42.1725V41.1725ZM43.8452 39.1617V15.0911H42.8452V39.1617H43.8452ZM42.9916 14.7375L37.2335 20.4957L37.9406 21.2028L43.6988 15.4446L42.9916 14.7375ZM37.2304 20.4987C36.8452 20.8907 36.3321 21.0858 35.8127 21.0858L35.8127 22.0858C36.5822 22.0858 37.358 21.7955 37.9436 21.1998L37.2304 20.4987ZM35.8127 21.0858C35.2933 21.0858 34.7802 20.8907 34.3949 20.4987L33.6818 21.1998C34.2674 21.7954 35.0432 22.0858 35.8127 22.0858L35.8127 21.0858ZM34.3921 20.4959C34.0156 20.1189 33.804 19.6078 33.804 19.0749L32.804 19.0749C32.804 19.8728 33.1207 20.6381 33.6846 21.2026L34.3921 20.4959ZM33.804 19.0749C33.804 18.5421 34.0156 18.031 34.3921 17.6539L33.6846 16.9473C33.1207 17.5118 32.804 18.2771 32.804 19.0749H33.804ZM34.3919 17.6542L44.4353 7.61081L43.7282 6.9037L33.6848 16.9471L34.3919 17.6542ZM44.435 7.61103C44.8121 7.23446 45.3232 7.02295 45.856 7.02295V6.02295C45.0582 6.02295 44.2929 6.33965 43.7284 6.90348L44.435 7.61103ZM45.856 7.02295C46.3889 7.02295 46.9 7.23446 47.277 7.61103L47.9837 6.90348C47.4192 6.33965 46.6539 6.02295 45.856 6.02295V7.02295ZM47.2768 7.61081L57.3202 17.6542L58.0273 16.9471L47.9839 6.9037L47.2768 7.61081ZM57.3199 17.6539C57.6965 18.031 57.908 18.5421 57.908 19.0749H58.908C58.908 18.2771 58.5913 17.5118 58.0275 16.9473L57.3199 17.6539ZM57.908 19.0749C57.908 19.6078 57.6965 20.1189 57.3199 20.4959L58.0275 21.2026C58.5913 20.6381 58.908 19.8728 58.908 19.0749H57.908ZM45.856 72.9765C45.3227 72.9765 44.8113 72.7646 44.4342 72.3875L43.7271 73.0946C44.2917 73.6592 45.0575 73.9765 45.856 73.9765V72.9765ZM44.4342 72.3875C44.0571 72.0104 43.8452 71.4989 43.8452 70.9656H42.8452C42.8452 71.7641 43.1624 72.53 43.7271 73.0946L44.4342 72.3875ZM43.8452 70.9656V52.5528H42.8452V70.9656H43.8452ZM43.8452 52.5528C43.8452 52.0195 44.0571 51.508 44.4342 51.1309L43.7271 50.4238C43.1624 50.9885 42.8452 51.7543 42.8452 52.5528H43.8452ZM44.4342 51.1309C44.8113 50.7538 45.3227 50.542 45.856 50.542V49.542C45.0575 49.542 44.2917 49.8592 43.7271 50.4238L44.4342 51.1309ZM45.856 50.542C46.3893 50.542 46.9008 50.7538 47.2779 51.1309L47.985 50.4238C47.4204 49.8592 46.6546 49.542 45.856 49.542V50.542ZM47.2779 51.1309C47.655 51.508 47.8669 52.0195 47.8669 52.5528H48.8669C48.8669 51.7543 48.5497 50.9885 47.985 50.4238L47.2779 51.1309ZM47.8669 52.5528V70.9656H48.8669V52.5528H47.8669ZM47.8669 70.9656C47.8669 71.4989 47.655 72.0104 47.2779 72.3875L47.985 73.0946C48.5497 72.53 48.8669 71.7641 48.8669 70.9656H47.8669ZM47.2779 72.3875C46.9008 72.7646 46.3893 72.9765 45.856 72.9765V73.9765C46.6546 73.9765 47.4204 73.6592 47.985 73.0946L47.2779 72.3875ZM72.9753 45.8574C72.9753 45.9313 72.9744 45.9535 72.9719 45.9708L73.9619 46.1122C73.9761 46.0122 73.9753 45.9173 73.9753 45.8574H72.9753ZM72.9707 45.9795C72.9675 46.0058 72.9652 46.03 72.9637 46.0484C72.9618 46.0699 72.9611 46.0797 72.9598 46.0927C72.9574 46.1174 72.9566 46.1122 72.961 46.0966L73.9225 46.3713C73.9437 46.2972 73.9513 46.2292 73.9551 46.189C73.9607 46.1316 73.9597 46.1302 73.963 46.1035L72.9707 45.9795ZM72.9418 46.234C72.9418 46.2216 72.9426 46.2116 72.9433 46.2047C72.9441 46.1979 72.9449 46.1934 72.9451 46.192C72.9454 46.1908 72.9453 46.1914 72.9444 46.1952C72.9434 46.1994 72.9422 46.2042 72.94 46.2131L73.9101 46.4557C73.9155 46.4339 73.9418 46.3398 73.9418 46.234H72.9418ZM72.9281 46.2792C72.9246 46.3103 72.9178 46.3419 72.9005 46.3939L73.8492 46.7101C73.882 46.6115 73.9087 46.5092 73.922 46.3896L72.9281 46.2792ZM72.8941 46.4147C72.8531 46.5579 72.7989 46.6932 72.7315 46.8213L73.6164 47.2871C73.7164 47.0971 73.7961 46.8976 73.8556 46.6894L72.8941 46.4147ZM72.7382 46.8091C72.6775 46.9169 72.6039 47.0235 72.5265 47.1138L73.2858 47.7646C73.4093 47.6205 73.5198 47.4593 73.6097 47.2993L72.7382 46.8091ZM72.5061 47.1392C72.4709 47.1861 72.428 47.2353 72.3852 47.2781L73.0923 47.9852C73.1666 47.9109 73.2409 47.8262 73.3061 47.7392L72.5061 47.1392ZM72.3852 47.2781L62.3418 57.3215L63.0489 58.0286L73.0923 47.9852L72.3852 47.2781ZM62.3388 57.3245C61.9535 57.7164 61.4404 57.9115 60.9211 57.9115V58.9115C61.6906 58.9115 62.4664 58.6212 63.052 58.0256L62.3388 57.3245ZM60.9211 57.9115C60.4017 57.9115 59.8886 57.7164 59.5033 57.3245L58.7902 58.0256C59.3757 58.6212 60.1515 58.9115 60.9211 58.9115V57.9115ZM59.5005 57.3217C59.1239 56.9447 58.9124 56.4336 58.9124 55.9007H57.9124C57.9124 56.6986 58.2291 57.4638 58.793 58.0284L59.5005 57.3217ZM58.9124 55.9007C58.9124 55.3678 59.1239 54.8567 59.5005 54.4797L58.793 53.773C58.2291 54.3376 57.9124 55.1028 57.9124 55.9007H58.9124ZM59.5003 54.4799L65.2585 48.7217L64.5514 48.0146L58.7932 53.7728L59.5003 54.4799ZM64.9049 47.8682H19.9107V48.8682H64.9049V47.8682ZM19.9107 47.8682C12.8049 47.8682 7.01953 42.0828 7.01953 34.977H6.01953C6.01953 42.6351 12.2527 48.8682 19.9107 48.8682V47.8682ZM7.01953 34.977C7.01953 27.8713 12.8049 22.0859 19.9107 22.0859V21.0859C12.2527 21.0859 6.01953 27.319 6.01953 34.977H7.01953ZM19.9107 22.0859C26.5404 22.0859 32.0285 27.1298 32.7294 33.5831L33.7236 33.4751C32.9682 26.5206 27.0571 21.0859 19.9107 21.0859V22.0859ZM32.7292 33.5815C32.7776 34.0409 32.8018 34.5005 32.8018 34.977H33.8018C33.8018 34.466 33.7758 33.9714 33.7237 33.4768L32.7292 33.5815ZM32.8018 34.977V39.1618H33.8018V34.977H32.8018ZM32.8018 39.1618C32.8018 40.275 31.9042 41.1726 30.791 41.1726V42.1726C32.4565 42.1726 33.8018 40.8273 33.8018 39.1618H32.8018ZM30.791 41.1726C29.6778 41.1726 28.7801 40.275 28.7801 39.1618H27.7801C27.7801 40.8273 29.1255 42.1726 30.791 42.1726V41.1726ZM28.7801 39.1618V34.977H27.7801V39.1618H28.7801ZM28.7801 34.977C28.7801 30.0893 24.7984 26.1076 19.9107 26.1076V27.1076C24.2461 27.1076 27.7801 30.6416 27.7801 34.977H28.7801ZM19.9107 26.1076C15.023 26.1076 11.0412 30.0893 11.0412 34.977H12.0412C12.0412 30.6416 15.5752 27.1076 19.9107 27.1076V26.1076ZM11.0412 34.977C11.0412 39.8648 15.023 43.8465 19.9107 43.8465V42.8465C15.5752 42.8465 12.0412 39.3125 12.0412 34.977H11.0412ZM19.9107 43.8465H64.9049V42.8465H19.9107V43.8465ZM65.2585 42.993L59.5003 37.2348L58.7932 37.9419L64.5514 43.7001L65.2585 42.993ZM59.5005 37.235C59.1239 36.858 58.9124 36.3469 58.9124 35.814H57.9124C57.9124 36.6119 58.2291 37.3771 58.793 37.9417L59.5005 37.235ZM58.9124 35.814C58.9124 35.2811 59.1239 34.77 59.5005 34.393L58.793 33.6863C58.2291 34.2509 57.9124 35.0161 57.9124 35.814H58.9124ZM59.5001 34.3934C59.8771 34.0169 60.3882 33.8054 60.9211 33.8054V32.8054C60.1232 32.8054 59.3579 33.1221 58.7934 33.6859L59.5001 34.3934ZM60.9211 33.8054C61.4539 33.8054 61.965 34.0169 62.3421 34.3934L63.0487 33.6859C62.4842 33.1221 61.7189 32.8054 60.9211 32.8054V33.8054ZM62.3418 34.3932L72.2931 44.3445L73.0002 43.6374L63.0489 33.6861L62.3418 34.3932ZM72.3467 44.391C72.3276 44.3766 72.3183 44.3655 72.3272 44.375C72.3291 44.3771 72.3314 44.3795 72.3348 44.3833C72.3378 44.3866 72.3426 44.3918 72.3471 44.3967C72.3565 44.4069 72.3697 44.4211 72.3852 44.4366L73.0923 43.7295C73.091 43.7282 73.0885 43.7256 73.0828 43.7194C73.0801 43.7165 73.0665 43.7015 73.0582 43.6927C73.0378 43.6708 72.9993 43.6304 72.9467 43.591L72.3467 44.391ZM72.3852 44.4366C72.4281 44.4794 72.4709 44.5286 72.5061 44.5755L73.3061 43.9755C73.2409 43.8885 73.1666 43.8038 73.0923 43.7295L72.3852 44.4366ZM72.5526 44.6291C72.577 44.6535 72.5995 44.6829 72.6197 44.7192L73.4939 44.2336C73.4304 44.1193 73.3524 44.0147 73.2597 43.922L72.5526 44.6291ZM72.6568 44.7764C72.6813 44.8091 72.7077 44.8544 72.7351 44.9092L73.6295 44.462C73.59 44.3829 73.5327 44.2776 73.4568 44.1764L72.6568 44.7764ZM72.7452 44.9284C72.8115 45.0477 72.8603 45.166 72.8898 45.284L73.8599 45.0414C73.8057 44.8246 73.7205 44.6248 73.6194 44.4428L72.7452 44.9284ZM72.9067 45.3382C72.915 45.3604 72.9235 45.3944 72.9281 45.4355L73.922 45.3251C73.9098 45.2155 73.8849 45.0989 73.843 44.9871L72.9067 45.3382ZM72.94 45.5016C72.9422 45.5105 72.9434 45.5153 72.9444 45.5195C72.9453 45.5233 72.9454 45.5239 72.9451 45.5227C72.9449 45.5213 72.9441 45.5168 72.9433 45.51C72.9426 45.5031 72.9418 45.4931 72.9418 45.4807H73.9418C73.9418 45.3749 73.9155 45.2808 73.9101 45.259L72.94 45.5016ZM72.9567 45.602C72.9652 45.6361 72.9669 45.6536 72.9669 45.6732H73.9669C73.9669 45.5589 73.9518 45.4592 73.9269 45.3595L72.9567 45.602ZM72.9719 45.7439C72.9744 45.7612 72.9753 45.7834 72.9753 45.8574H73.9753C73.9753 45.7974 73.9761 45.7025 73.9619 45.6025L72.9719 45.7439ZM15.0264 72.9765C14.86 72.9765 14.7371 72.9238 14.6265 72.8107L13.9115 73.5099C14.2131 73.8183 14.5951 73.9765 15.0264 73.9765V72.9765ZM14.6265 72.8107C14.5188 72.7006 14.4598 72.5658 14.4598 72.3699H13.4598C13.4598 72.8063 13.607 73.1985 13.9115 73.5099L14.6265 72.8107ZM14.4598 72.3699V71.2001H13.4598V72.3699H14.4598ZM13.6212 71.568L14.085 71.9948L14.7622 71.259L14.2984 70.8322L13.6212 71.568ZM14.4464 71.1274C13.7841 71.0971 13.2276 71.0118 12.7706 70.8782L12.4902 71.8381C13.0431 71.9997 13.6821 72.0935 14.4007 72.1264L14.4464 71.1274ZM12.7706 70.8782C12.279 70.7346 11.8923 70.5951 11.6034 70.4616L11.1841 71.3695C11.5341 71.5311 11.9718 71.6867 12.4902 71.8381L12.7706 70.8782ZM11.6071 70.4634C11.4259 70.3778 11.3272 70.2734 11.271 70.1584L10.3726 70.5977C10.5431 70.9464 10.8256 71.2003 11.1803 71.3677L11.6071 70.4634ZM11.2787 70.175C11.2083 70.0167 11.1832 69.8638 11.1963 69.7091L10.1999 69.6243C10.1718 69.9544 10.2291 70.2757 10.3649 70.5812L11.2787 70.175ZM11.1941 69.73C11.2143 69.5711 11.2705 69.4284 11.3666 69.2951L10.5552 68.7105C10.3627 68.9776 10.2437 69.2775 10.2021 69.6034L11.1941 69.73ZM11.3666 69.2951C11.448 69.1821 11.5399 69.1204 11.6517 69.0892L11.3831 68.1259C11.0415 68.2212 10.7624 68.423 10.5552 68.7105L11.3666 69.2951ZM11.666 69.085C11.7512 69.0584 11.8954 69.0537 12.1341 69.1595L12.5393 68.2453C12.1597 68.0771 11.7576 68.0091 11.3688 68.1301L11.666 69.085ZM12.0916 69.1382C12.3446 69.2805 12.6941 69.4141 13.1175 69.544L13.4108 68.588C13.0098 68.4649 12.741 68.3562 12.5818 68.2666L12.0916 69.1382ZM13.1319 69.5482C13.6112 69.6797 14.1792 69.7399 14.8255 69.7399V68.7399C14.2351 68.7399 13.7623 68.6842 13.3965 68.5838L13.1319 69.5482ZM14.8255 69.7399C15.2821 69.7399 15.6848 69.6965 16.007 69.5867L15.6844 68.6402C15.512 68.6989 15.2345 68.7399 14.8255 68.7399V69.7399ZM16.0012 69.5886C16.304 69.4896 16.5954 69.3359 16.7863 69.082L15.9872 68.4809C15.972 68.501 15.9028 68.5687 15.6902 68.6382L16.0012 69.5886ZM16.7832 69.0861C16.9564 68.8607 17.0568 68.5975 17.0568 68.3072H16.0568C16.0568 68.3542 16.0439 68.4071 15.9903 68.4768L16.7832 69.0861ZM17.0568 68.3072C17.0568 68.0585 16.9901 67.8125 16.827 67.6039L16.0393 68.2201C16.041 68.2223 16.0568 68.2397 16.0568 68.3072H17.0568ZM16.8577 67.6478C16.7184 67.424 16.5051 67.27 16.279 67.1611L15.8453 68.0622C15.9695 68.122 16.0036 68.1681 16.0086 68.1762L16.8577 67.6478ZM16.3002 67.1719C16.0707 67.0477 15.7813 66.951 15.4516 66.8724L15.2196 67.8451C15.5082 67.9139 15.7032 67.9859 15.8241 68.0513L16.3002 67.1719ZM15.4417 66.8701L13.6949 66.4907L13.4827 67.4679L15.2295 67.8473L15.4417 66.8701ZM13.7013 66.4921C12.803 66.2847 12.1918 65.9522 11.8084 65.5346L11.0718 66.2109C11.6366 66.8261 12.4578 67.2313 13.4763 67.4665L13.7013 66.4921ZM11.8154 65.5424C11.4465 65.1232 11.2445 64.5683 11.2445 63.8335H10.2445C10.2445 64.7638 10.5062 65.5684 11.0648 66.2031L11.8154 65.5424ZM11.2445 63.8335C11.2445 63.2835 11.3734 62.8105 11.6209 62.4003L10.7647 61.8837C10.4144 62.4642 10.2445 63.1189 10.2445 63.8335H11.2445ZM11.6194 62.4028C11.8823 61.9726 12.2474 61.6189 12.7263 61.3417L12.2253 60.4763C11.6118 60.8314 11.1216 61.2997 10.7661 61.8813L11.6194 62.4028ZM12.7228 61.3437C13.2117 61.066 13.794 60.883 14.48 60.8051L14.3671 59.8115C13.5691 59.9022 12.853 60.1197 12.2288 60.4743L12.7228 61.3437ZM14.1729 59.8757L13.7091 60.1444L14.2105 61.0096L14.6743 60.7409L14.1729 59.8757ZM14.4598 60.577V59.5179H13.4598V60.577H14.4598ZM14.4598 59.5179C14.4598 59.322 14.5188 59.1872 14.6265 59.0771L13.9115 58.3779C13.607 58.6893 13.4598 59.0815 13.4598 59.5179H14.4598ZM14.6265 59.0771C14.7371 58.964 14.86 58.9113 15.0264 58.9113V57.9113C14.5951 57.9113 14.2131 58.0694 13.9115 58.3779L14.6265 59.0771ZM15.0264 58.9113C15.2084 58.9113 15.3348 58.9676 15.4419 59.0771L16.1568 58.3779C15.8517 58.0658 15.4628 57.9113 15.0264 57.9113V58.9113ZM15.4419 59.0771C15.5496 59.1872 15.6085 59.322 15.6085 59.5179H16.6085C16.6085 59.0815 16.4614 58.6893 16.1568 58.3779L15.4419 59.0771ZM15.6085 59.5179V60.577H16.6085V59.5179H15.6085ZM16.3803 60.1574L15.9166 59.857L15.373 60.6963L15.8367 60.9967L16.3803 60.1574ZM15.6313 60.7765C15.9748 60.7857 16.3563 60.8462 16.778 60.9638L17.0467 60.0006C16.5615 59.8652 16.0979 59.7887 15.6582 59.7769L15.6313 60.7765ZM16.7885 60.9666C17.2008 61.072 17.549 61.2173 17.8392 61.3972L18.366 60.5472C17.9761 60.3056 17.5308 60.1242 17.0362 59.9978L16.7885 60.9666ZM17.8673 61.4134C18.0156 61.4925 18.0932 61.5847 18.1362 61.6872L19.0584 61.3006C18.9159 60.9604 18.6637 60.7049 18.338 60.5311L17.8673 61.4134ZM18.144 61.705C18.2087 61.8438 18.2276 61.9745 18.2099 62.1076L19.2011 62.2397C19.2452 61.9091 19.192 61.5866 19.0506 61.2828L18.144 61.705ZM18.2077 62.1273C18.1965 62.2473 18.1537 62.3553 18.0688 62.4608L18.8476 63.088C19.0512 62.8351 19.1733 62.5427 19.2034 62.22L18.2077 62.1273ZM18.0578 62.4749C17.9977 62.5553 17.9124 62.6176 17.7728 62.6548L18.0306 63.6211C18.365 63.5318 18.6507 63.3518 18.8586 63.0738L18.0578 62.4749ZM17.7885 62.6509C17.7053 62.6703 17.5469 62.6667 17.2795 62.552L16.8853 63.471C17.2568 63.6303 17.6446 63.711 18.0149 63.625L17.7885 62.6509ZM17.2855 62.5546C17.0115 62.4328 16.7093 62.3386 16.3821 62.2694L16.1751 63.2477C16.4455 63.3049 16.6793 63.3794 16.8793 63.4684L17.2855 62.5546ZM16.4024 62.2741C16.0582 62.1861 15.6415 62.1479 15.1656 62.1479V63.1479C15.5965 63.1479 15.9218 63.1834 16.1547 63.243L16.4024 62.2741ZM15.1656 62.1479C14.5683 62.1479 14.0333 62.2557 13.6197 62.5329L14.1763 63.3636C14.3604 63.2403 14.6705 63.1479 15.1656 63.1479V62.1479ZM13.6129 62.5375C13.2072 62.819 12.9651 63.2227 12.9651 63.7228H13.9651C13.9651 63.5907 14.0117 63.4779 14.183 63.359L13.6129 62.5375ZM12.9651 63.7228C12.9651 64.0837 13.1142 64.3959 13.3791 64.6329L14.0459 63.8877C13.981 63.8297 13.9651 63.7835 13.9651 63.7228H12.9651ZM13.4045 64.6542C13.6716 64.8631 14.0788 65.0032 14.5422 65.1109L14.7686 64.1369C14.3252 64.0338 14.1038 63.9316 14.0205 63.8665L13.4045 64.6542ZM14.546 65.1118L16.3083 65.507L16.5271 64.5312L14.7648 64.136L14.546 65.1118ZM16.3074 65.5068C17.2286 65.715 17.84 66.0479 18.2098 66.4598L18.9539 65.7916C18.3962 65.1707 17.5648 64.7658 16.5279 64.5314L16.3074 65.5068ZM18.217 66.4676C18.5896 66.8652 18.7929 67.3941 18.7929 68.1017H19.7929C19.7929 67.1863 19.5222 66.3979 18.9467 65.7838L18.217 66.4676ZM18.7929 68.1017C18.7929 68.6519 18.664 69.1176 18.419 69.515L19.2703 70.0397C19.623 69.4676 19.7929 68.8162 19.7929 68.1017H18.7929ZM18.419 69.515C18.1677 69.9226 17.8141 70.261 17.3448 70.5286L17.8402 71.3973C18.4427 71.0537 18.9238 70.6017 19.2703 70.0397L18.419 69.515ZM17.3412 70.5307C16.8807 70.7985 16.3322 70.9807 15.6859 71.0682L15.82 72.0592C16.5753 71.9569 17.2531 71.7387 17.8439 71.3952L17.3412 70.5307ZM16.1178 71.9056L16.4734 71.5262L15.7437 70.8424L15.3881 71.2218L16.1178 71.9056ZM15.6085 71.1843V72.3699H16.6085V71.1843H15.6085ZM15.6085 72.3699C15.6085 72.5658 15.5496 72.7006 15.4419 72.8107L16.1568 73.5099C16.4614 73.1985 16.6085 72.8063 16.6085 72.3699H15.6085ZM15.433 72.82C15.3428 72.9171 15.2239 72.9765 15.0264 72.9765V73.9765C15.4679 73.9765 15.8643 73.8251 16.1657 73.5006L15.433 72.82ZM30.7932 72.9765C30.2599 72.9765 29.7484 72.7647 29.3713 72.3876L28.6642 73.0947C29.2289 73.6593 29.9947 73.9765 30.7932 73.9765V72.9765ZM29.3713 72.3876C28.9942 72.0105 28.7824 71.499 28.7824 70.9657H27.7824C27.7824 71.7642 28.0996 72.53 28.6642 73.0947L29.3713 72.3876ZM28.7824 70.9657V52.5529H27.7824V70.9657H28.7824ZM28.7824 52.5529C28.7824 52.0196 28.9942 51.5081 29.3713 51.131L28.6642 50.4239C28.0996 50.9885 27.7824 51.7544 27.7824 52.5529H28.7824ZM29.3713 51.131C29.7484 50.7539 30.2599 50.542 30.7932 50.542V49.542C29.9947 49.542 29.2289 49.8593 28.6642 50.4239L29.3713 51.131ZM30.7932 50.542C31.3265 50.542 31.838 50.7539 32.2151 51.131L32.9222 50.4239C32.3576 49.8593 31.5917 49.542 30.7932 49.542V50.542ZM32.2151 51.131C32.5922 51.5081 32.804 52.0196 32.804 52.5529H33.804C33.804 51.7544 33.4868 50.9885 32.9222 50.4239L32.2151 51.131ZM32.804 52.5529V70.9657H33.804V52.5529H32.804ZM32.804 70.9657C32.804 71.499 32.5922 72.0105 32.2151 72.3876L32.9222 73.0947C33.4868 72.53 33.804 71.7642 33.804 70.9657H32.804ZM32.2151 72.3876C31.838 72.7647 31.3265 72.9765 30.7932 72.9765V73.9765C31.5917 73.9765 32.3576 73.6593 32.9222 73.0947L32.2151 72.3876ZM32.804 34.1401V34.977H33.804V34.1401H32.804ZM33.804 34.977C33.804 34.4659 33.778 33.9714 33.726 33.4767L32.7315 33.5814C32.7798 34.0409 32.804 34.5005 32.804 34.977H33.804ZM32.7449 33.6553C32.7834 33.8029 32.804 33.9695 32.804 34.1401H33.804C33.804 33.8922 33.7745 33.6402 33.7125 33.4029L32.7449 33.6553Z" fill="#FABD00" mask="url(#path-1-inside-1_3655_3024)"/>
</svg>
