<svg width="186" height="70" viewBox="0 0 186 70" fill="none" xmlns="http://www.w3.org/2000/svg">
<g id="Group 1597883468">
<g id="Group 1321316465">
<path id="Vector" fill-rule="evenodd" clip-rule="evenodd" d="M50.0342 23.3391L50.2176 24.4476C50.3621 25.4788 50.429 26.5193 50.4179 27.5606C50.4167 29.8615 50.1391 32.154 49.5911 34.3887C48.85 37.4248 47.5592 40.2995 45.7827 42.8705C43.7297 45.8232 40.7613 48.7274 36.4345 51.061L35.9051 51.3462L35.3758 51.061C31.049 48.7274 28.0818 45.8232 26.0277 42.8705C24.2511 40.2995 22.9603 37.4248 22.2192 34.3887C21.6713 32.1544 21.3938 29.8623 21.3924 27.5618C21.3813 26.5206 21.4482 25.48 21.5928 24.4488L21.7761 23.3403C21.7917 23.2499 21.7893 23.1573 21.769 23.0678C21.7487 22.9784 21.7109 22.8938 21.6578 22.819C21.6047 22.7442 21.5373 22.6807 21.4595 22.632C21.3817 22.5834 21.295 22.5507 21.2045 22.5357C21.114 22.5207 21.0214 22.5238 20.9321 22.5448C20.8428 22.5657 20.7585 22.6042 20.6841 22.6579C20.6097 22.7115 20.5467 22.7794 20.4987 22.8576C20.4506 22.9357 20.4185 23.0226 20.4042 23.1133L20.2209 24.2217C20.0632 25.3279 19.9898 26.4445 20.0011 27.5618C20.002 29.9757 20.2931 32.3806 20.868 34.7251C21.6506 37.9266 23.013 40.9576 24.8877 43.6682C27.0548 46.7873 30.1979 49.8541 34.7215 52.2884L35.581 52.7509C35.6823 52.8057 35.7955 52.8344 35.9106 52.8344C36.0257 52.8344 36.139 52.8057 36.2402 52.7509L37.0985 52.2884C41.6173 49.8529 44.7616 46.7873 46.9324 43.6682C48.8061 40.9578 50.1677 37.9272 50.9496 34.7263C51.5245 32.3818 51.8156 29.9769 51.8164 27.563C51.8279 26.4457 51.7543 25.3291 51.5968 24.223L51.4134 23.1145C51.3991 23.0238 51.3669 22.937 51.319 22.8588C51.271 22.7806 51.2079 22.7128 51.1335 22.6591C51.0591 22.6054 50.9748 22.5669 50.8855 22.546C50.7962 22.525 50.7036 22.5219 50.6131 22.5369C50.5226 22.5519 50.4359 22.5846 50.3581 22.6333C50.2803 22.6819 50.2129 22.7454 50.1598 22.8202C50.1067 22.895 50.0689 22.9796 50.0486 23.069C50.0283 23.1585 50.0259 23.2511 50.0415 23.3415L50.0342 23.3391Z" fill="#D7D7D7"/>
<path id="Vector_2" fill-rule="evenodd" clip-rule="evenodd" d="M25.5746 22.5845L35.9065 19.4278L46.469 22.6525C46.6458 22.7053 46.8364 22.686 46.999 22.5987C47.1616 22.5114 47.283 22.3632 47.3366 22.1866C47.3903 22.01 47.3717 21.8193 47.2851 21.6563C47.1985 21.4934 47.0509 21.3713 46.8745 21.3169L36.1092 18.0304C35.9771 17.9899 35.8358 17.9899 35.7037 18.0304L25.1679 21.2465C25.0798 21.2729 24.9979 21.3163 24.9266 21.3744C24.8554 21.4325 24.7964 21.5041 24.7529 21.585C24.7095 21.666 24.6824 21.7547 24.6733 21.8462C24.6643 21.9376 24.6733 22.03 24.7 22.1179C24.7267 22.2058 24.7705 22.2876 24.8289 22.3586C24.8873 22.4296 24.9591 22.4883 25.0403 22.5314C25.1214 22.5745 25.2103 22.6012 25.3018 22.6099C25.3933 22.6186 25.4856 22.6091 25.5734 22.582L25.5746 22.5845Z" fill="#D7D7D7"/>
<path id="Vector_3" fill-rule="evenodd" clip-rule="evenodd" d="M20.4728 23.5436L35.2851 52.4541C35.3429 52.5671 35.4305 52.6621 35.5385 52.7287C35.6464 52.7955 35.7705 52.8314 35.8974 52.8325C36.0243 52.8336 36.149 52.8 36.2582 52.7352C36.3672 52.6704 36.4565 52.5769 36.5163 52.465L45.5494 35.5706L45.5627 35.5439L51.3445 23.5242C51.4228 23.3583 51.4325 23.1682 51.3715 22.9952C51.3105 22.8222 51.1837 22.6803 51.0185 22.6003C50.8534 22.5203 50.6634 22.5087 50.4898 22.568C50.3162 22.6274 50.1731 22.7528 50.0915 22.9171L44.3195 34.9271L35.925 50.6377L21.71 22.9074C21.669 22.8251 21.6121 22.7517 21.5426 22.6915C21.473 22.6313 21.3923 22.5855 21.3049 22.5568C21.2175 22.528 21.1253 22.5169 21.0337 22.5241C20.942 22.5312 20.8526 22.5565 20.7708 22.5984C20.6889 22.6403 20.6162 22.6981 20.5568 22.7683C20.4975 22.8386 20.4526 22.9199 20.4249 23.0076C20.3972 23.0953 20.3871 23.1876 20.3954 23.2792C20.4036 23.3708 20.4299 23.4598 20.4728 23.5412V23.5436Z" fill="#D7D7D7"/>
<path id="Vector_4" fill-rule="evenodd" clip-rule="evenodd" d="M27.5642 36.4184H44.0359C44.2202 36.4184 44.397 36.3453 44.5274 36.2148C44.6577 36.0845 44.7309 35.9078 44.7309 35.7234C44.7309 35.539 44.6577 35.3623 44.5274 35.2319C44.397 35.1016 44.2202 35.0283 44.0359 35.0283H27.5642C27.3799 35.0283 27.2031 35.1016 27.0727 35.2319C26.9424 35.3623 26.8691 35.539 26.8691 35.7234C26.8691 35.9078 26.9424 36.0845 27.0727 36.2148C27.2031 36.3453 27.3799 36.4184 27.5642 36.4184ZM73.508 30.4208H62.7924C62.6072 30.4218 62.4299 30.4958 62.299 30.6267C62.168 30.7577 62.0941 30.9349 62.0931 31.1201V39.7208C62.0943 39.9058 62.1685 40.083 62.2993 40.2139C62.4301 40.3448 62.6073 40.4188 62.7924 40.4201H73.508V41.877H62.7924C62.5097 41.8783 62.2295 41.8236 61.968 41.716C61.7066 41.6083 61.469 41.4501 61.2691 41.2501C61.0692 41.0502 60.9109 40.8127 60.8033 40.5513C60.6957 40.2897 60.641 40.0096 60.6423 39.7269V31.1262C60.641 30.8435 60.6957 30.5633 60.8033 30.3019C60.9109 30.0404 61.0692 29.8028 61.2691 29.6029C61.469 29.403 61.7066 29.2447 61.968 29.1371C62.2295 29.0295 62.5097 28.9748 62.7924 28.9761H73.508V30.4208ZM93.6292 28.9688V30.4257H83.3094V34.6835H91.6041V36.1526H83.3082V40.4177H93.628V41.8746H81.8513V28.9688H93.6292Z" fill="#D7D7D7"/>
<path id="Vector_5" d="M114.88 31.137V34.9177C114.882 35.2004 114.827 35.4805 114.719 35.7419C114.611 36.0032 114.454 36.2408 114.253 36.4406C114.054 36.6405 113.816 36.7988 113.555 36.9065C113.293 37.0141 113.013 37.069 112.731 37.0679H110.76L114.809 41.8696H112.892L108.86 37.0679H104.125C103.891 37.056 103.657 37.0321 103.426 36.9963V41.8696H101.969V28.9868H112.719C113.002 28.9857 113.282 29.0406 113.543 29.1483C113.806 29.2559 114.042 29.4142 114.243 29.6141C114.442 29.814 114.601 30.0515 114.708 30.3128C114.816 30.5743 114.871 30.8543 114.87 31.137H114.88ZM104.13 35.5988H112.731C112.82 35.6 112.909 35.5832 112.993 35.5493C113.076 35.5155 113.151 35.4654 113.215 35.4019C113.279 35.3384 113.328 35.2629 113.362 35.1798C113.396 35.0966 113.413 35.0074 113.412 34.9177V31.137C113.413 31.046 113.396 30.9555 113.363 30.8709C113.329 30.7863 113.279 30.7092 113.215 30.6441C113.153 30.5775 113.078 30.5246 112.995 30.4891C112.911 30.4534 112.82 30.436 112.73 30.4377H104.129C103.943 30.4386 103.766 30.5127 103.635 30.6436C103.504 30.7745 103.43 30.9519 103.429 31.137V34.9177C103.427 35.0087 103.445 35.0989 103.48 35.1826C103.516 35.2663 103.569 35.3416 103.636 35.4034C103.701 35.4671 103.778 35.5173 103.863 35.5508C103.948 35.5845 104.039 35.6008 104.13 35.5988Z" fill="#D7D7D7"/>
<path id="Vector_6" fill-rule="evenodd" clip-rule="evenodd" d="M122.586 28.9688H135.482V30.4257H129.776V41.8758H128.319V30.4257H122.586V28.9688ZM143.298 41.8698V28.9688H144.756V41.8698H143.298ZM164.119 28.9688H165.983L160.59 35.4193L166 41.8698H164.119L159.317 36.1538H155.16V41.8698H153.693V28.9688H155.163V34.6835H159.32L164.119 28.9688Z" fill="#D7D7D7"/>
</g>
</g>
</svg>
