<svg width="29" height="29" viewBox="0 0 29 29" fill="none" xmlns="http://www.w3.org/2000/svg">
<g id="Group 1321315889">
<path id="Vector" d="M9.23786 20.9478L8.77145 20.7374L8.27269 21.1635C9.01978 21.6042 9.70009 21.9382 10.3147 22.1622C9.93065 22.9279 9.49269 23.6651 9.00413 24.3682C6.60844 23.5515 4.58942 22.4837 2.94603 21.1645C2.31998 15.0001 4.58629 9.77895 6.49157 6.97104C8.06308 6.21247 9.73062 5.67318 11.4478 5.36816C11.6753 5.79322 11.8902 6.24132 12.0906 6.71349C13.0735 6.57739 13.8978 6.50724 14.5635 6.5041L14.841 6.5062L15.1165 6.50305C15.7843 6.50724 16.6086 6.57634 17.5894 6.71349C17.7908 6.24236 18.0057 5.79218 18.2332 5.36816C19.9924 5.68748 21.6441 6.22247 23.1874 6.97209C25.0937 9.78 27.359 15.0022 26.7339 21.1635C25.0906 22.4847 23.0715 23.5526 20.6758 24.3682C20.1873 23.6651 19.7493 22.9279 19.3653 22.1622C19.9809 21.9372 20.6602 21.6042 21.4073 21.1635L20.9096 20.7374L20.4421 20.9478C18.5754 21.7581 16.7077 22.1622 14.841 22.1622C12.9733 22.1622 11.1056 21.7581 9.23786 20.9478ZM10.8447 13.3009C9.63227 13.3009 8.69319 14.4421 8.69319 15.8073C8.69319 17.1725 9.62184 18.3199 10.8447 18.3199C12.0687 18.3199 13.0046 17.1725 13.0046 15.8073C13.0046 14.441 12.0561 13.3009 10.8447 13.3009ZM18.8342 13.3009C17.6217 13.3009 16.6743 14.4421 16.6743 15.8073C16.6743 17.1725 17.6103 18.3199 18.8342 18.3199C20.0581 18.3199 20.9857 17.1725 20.9857 15.8073C20.9857 14.441 20.0467 13.3009 18.8342 13.3009Z" fill="black"/>
</g>
</svg>
