<svg width="28" height="28" viewBox="0 0 28 28" fill="none" xmlns="http://www.w3.org/2000/svg">
<g id="Group 1321315889">
<path id="Vector" d="M8.40583 20.5796L7.93942 20.3692L7.44066 20.7953C8.18775 21.2361 8.86806 21.57 9.48264 21.7941C9.09862 22.5597 8.66066 23.2969 8.1721 24C5.77641 23.1834 3.75739 22.1155 2.114 20.7963C1.48795 14.6319 3.75426 9.41079 5.65954 6.60288C7.23105 5.8443 8.89859 5.30501 10.6158 5C10.8433 5.42506 11.0582 5.87315 11.2585 6.34533C12.2414 6.20922 13.0657 6.13908 13.7314 6.13594L14.009 6.13803L14.2845 6.13489C14.9523 6.13908 15.7766 6.20818 16.7574 6.34533C16.9587 5.8742 17.1737 5.42401 17.4012 5C19.1604 5.31932 20.8121 5.85431 22.3553 6.60392C24.2617 9.41184 26.5269 14.634 25.9019 20.7953C24.2585 22.1165 22.2395 23.1844 19.8438 24C19.3553 23.2969 18.9173 22.5597 18.5333 21.7941C19.1489 21.569 19.8282 21.2361 20.5752 20.7953L20.0775 20.3692L19.6101 20.5796C17.7434 21.39 15.8757 21.7941 14.009 21.7941C12.1413 21.7941 10.2736 21.39 8.40583 20.5796ZM10.0127 12.9327C8.80024 12.9327 7.86116 14.0739 7.86116 15.4391C7.86116 16.8043 8.78981 17.9518 10.0127 17.9518C11.2366 17.9518 12.1726 16.8043 12.1726 15.4391C12.1726 14.0728 11.2241 12.9327 10.0127 12.9327ZM18.0022 12.9327C16.7897 12.9327 15.8423 14.0739 15.8423 15.4391C15.8423 16.8043 16.7782 17.9518 18.0022 17.9518C19.2261 17.9518 20.1537 16.8043 20.1537 15.4391C20.1537 14.0728 19.2146 12.9327 18.0022 12.9327Z" fill="white"/>
</g>
</svg>
