<svg width="19" height="25" viewBox="0 0 19 25" fill="none" xmlns="http://www.w3.org/2000/svg">
<path d="M8.84082 23.2355C8.95783 23.2608 8.94412 23.4951 8.82567 23.4951L1.62141 23.4951C1.48863 23.4951 1.38094 23.3489 1.38094 23.1685L1.38094 13.3836C1.38094 13.2227 1.55341 13.2041 1.57212 13.3631L2.51813 21.4085C2.55093 21.6874 2.7119 21.906 2.91721 21.9506L8.84082 23.2355Z" fill="#FABD00" stroke="#FABD00" stroke-width="2" stroke-linecap="round"/>
<path d="M17.4971 11.4777C17.6141 11.5031 17.6004 11.7373 17.4819 11.7373L10.2777 11.7373C10.1449 11.7373 10.0372 11.591 10.0372 11.4107L10.0372 1.62582C10.0372 1.46493 10.2097 1.44631 10.2284 1.60524L11.1744 9.65073C11.2072 9.92959 11.3682 10.1482 11.5735 10.1928L17.4971 11.4777Z" fill="#FABD00" stroke="#FABD00" stroke-width="2" stroke-linecap="round"/>
<path d="M13.167 17.3566C13.284 17.382 13.2703 17.6162 13.1518 17.6162L5.94759 17.6162C5.8148 17.6162 5.70712 17.47 5.70712 17.2896L5.70712 7.50473C5.70712 7.34384 5.87958 7.32522 5.89829 7.48415L6.78933 15.0623C6.85493 15.6199 7.17692 16.0572 7.5875 16.1463L13.167 17.3566Z" fill="#FABD00" stroke="#FABD00" stroke-width="2" stroke-linecap="round"/>
</svg>
