<svg width="32" height="24" viewBox="0 0 32 24" fill="none" xmlns="http://www.w3.org/2000/svg">
<path d="M9.74126 18.172C9.60498 18.115 9.46553 18.2604 9.58666 18.3332L16.9538 22.7566C17.0896 22.8381 17.2955 22.8187 17.4136 22.7132L23.8232 16.9897C23.9286 16.8956 23.7644 16.7788 23.6412 16.8603L17.4036 20.9855C17.1874 21.1285 16.8796 21.1575 16.6404 21.0575L9.74126 18.172Z" fill="#FABD00" stroke="#FABD00" stroke-width="2" stroke-linecap="round"/>
<path d="M8.59281 5.97619C8.45653 5.91922 8.31708 6.06464 8.43823 6.13738L15.8053 10.5608C15.9411 10.6423 16.147 10.6229 16.2652 10.5174L22.6748 4.7939C22.7802 4.69979 22.616 4.58301 22.4927 4.66448L16.2552 8.78968C16.0389 8.93265 15.7311 8.9617 15.492 8.86169L8.59281 5.97619Z" fill="#FABD00" stroke="#FABD00" stroke-width="2" stroke-linecap="round"/>
<path d="M9.16704 12.0741C9.03073 12.0171 8.89131 12.1625 9.01244 12.2353L16.3796 16.6587C16.5154 16.7402 16.7213 16.7208 16.8394 16.6153L23.249 10.8918C23.3544 10.7977 23.1902 10.6809 23.067 10.7624L17.1918 14.648C16.7594 14.9339 16.1436 14.992 15.6654 14.792L9.16704 12.0741Z" fill="#FABD00" stroke="#FABD00" stroke-width="2" stroke-linecap="round"/>
</svg>
