<svg width="186" height="70" viewBox="0 0 186 70" fill="none" xmlns="http://www.w3.org/2000/svg">
<g id="Group 1597883470">
<g id="Group 1321316462">
<g id="Group 1321316461">
<path id="Vector" d="M35.077 41.8091C34.9696 41.8456 34.9084 41.7521 34.8354 41.7092C31.2555 39.5963 27.6795 37.482 24.1074 35.3663C24.0728 35.3488 24.0369 35.3341 24 35.3222V35.275L24.0634 35.2385C24.1533 35.2148 24.2419 35.1861 24.3286 35.1525L32.7648 31.3141C33.5166 30.9715 34.2683 30.6343 35.0201 30.2949H35.0738C35.0738 30.4023 35.0738 30.4979 35.0738 30.5999C35.0767 34.3367 35.0778 38.0731 35.077 41.8091Z" fill="#D7D7D7"/>
<path id="Vector_2" d="M35.083 30.2979H35.0293C35.0293 30.1905 35.04 30.0831 35.04 29.9703C35.04 25.7732 35.04 21.5757 35.04 17.3779C35.0277 17.27 35.035 17.1609 35.0615 17.0557H35.0841C35.5255 17.7076 35.91 18.3949 36.3159 19.0683C39.5321 24.4031 42.7466 29.7372 45.9592 35.0706C45.9904 35.1233 46.015 35.178 46.043 35.236C45.952 35.2166 45.8626 35.1904 45.7755 35.1576C45.1859 34.8913 44.5942 34.6206 44.0099 34.3489C43.0949 33.9301 42.1795 33.5119 41.2638 33.0945L36.8518 31.0958C36.2644 30.8252 35.6737 30.562 35.083 30.2979Z" fill="#D1D1D1"/>
<path id="Vector_3" d="M35.0651 17.0503C35.0386 17.1555 35.0313 17.2647 35.0437 17.3725C35.0437 21.5696 35.0437 25.7671 35.0437 29.9649C35.0437 30.0723 35.0372 30.1797 35.0329 30.2925C34.2811 30.6318 33.5294 30.9691 32.7776 31.3117L24.3414 35.1501C24.2547 35.1837 24.1661 35.2124 24.0762 35.236C24.32 34.7291 24.6368 34.2694 24.9257 33.784C28.2729 28.22 31.6227 22.6572 34.9749 17.0954C34.9971 17.0646 35.0211 17.0352 35.0469 17.0073L35.0651 17.0503Z" fill="white"/>
<path id="Vector_4" d="M35.0815 30.2988C35.6722 30.563 36.2629 30.8262 36.8525 31.0925L41.2645 33.0912C42.1809 33.5079 43.0963 33.926 44.0106 34.3456C44.5992 34.6152 45.192 34.8879 45.7762 35.1543C45.8633 35.1871 45.9527 35.2133 46.0437 35.2327C46.1511 35.3669 45.9921 35.3723 45.9438 35.4013C45.0277 35.949 44.1073 36.4893 43.189 37.0327C40.5535 38.5921 37.9186 40.1512 35.2845 41.7099C35.2179 41.7485 35.146 41.7775 35.0762 41.8108C35.0762 38.0755 35.0762 34.3399 35.0762 30.6038C35.0772 30.5018 35.0805 30.4009 35.0815 30.2988Z" fill="#747474"/>
<path id="Vector_5" d="M35.0397 43.9309L41.9401 39.8637C43.2575 39.0862 44.5742 38.3079 45.8902 37.5289L46.0094 37.4634C46.0212 37.5708 45.9471 37.6277 45.902 37.69C42.8948 41.9293 39.8877 46.1673 36.8805 50.4038C36.3113 51.2071 35.7432 52.0147 35.1686 52.8116C35.1385 52.8535 35.0924 53.0501 35 52.8417C35.073 52.7794 35.0408 52.6957 35.0408 52.6269C35.0415 49.7272 35.0412 46.8285 35.0397 43.9309Z" fill="#D1D1D1"/>
<path id="Vector_6" d="M35.038 43.9324C35.038 46.83 35.038 49.7269 35.038 52.6231C35.038 52.6972 35.0702 52.7809 34.9972 52.8379C34.8436 52.7455 34.777 52.5801 34.675 52.4437C31.1881 47.532 27.7031 42.6197 24.2198 37.7065C24.1758 37.6443 24.135 37.5777 24.0898 37.5089C24.1801 37.4563 24.2284 37.5283 24.281 37.5594C27.8073 39.6415 31.3328 41.7254 34.8576 43.8111C34.9231 43.8519 34.9789 43.8937 35.038 43.9324Z" fill="white"/>
<path id="Vector_7" d="M35.0647 17.0497L35.0391 17.0101C35.0861 16.9802 35.0797 17.024 35.0872 17.0465L35.0647 17.0497Z" fill="#515151"/>
</g>
<g id="ERC6551">
<path id="Vector_8" d="M160.596 44.2218C160.205 44.2218 159.881 44.1028 159.626 43.8646C159.371 43.6094 159.243 43.2946 159.243 42.9203V29.2413L159.575 29.7006L157.202 31.3595C156.998 31.5296 156.751 31.6147 156.462 31.6147C156.121 31.6147 155.815 31.4871 155.543 31.2319C155.288 30.9596 155.16 30.6449 155.16 30.2876C155.16 29.8452 155.381 29.4794 155.824 29.1902L159.703 26.6126C159.856 26.5105 160.018 26.4425 160.188 26.4085C160.375 26.3744 160.545 26.3574 160.698 26.3574C161.089 26.3574 161.404 26.485 161.642 26.7402C161.881 26.9784 162 27.2847 162 27.659V42.9203C162 43.2946 161.864 43.6094 161.591 43.8646C161.336 44.1028 161.004 44.2218 160.596 44.2218Z" fill="#D7D7D7"/>
<path id="Vector_9" d="M146.267 44.4013C145.603 44.4013 144.914 44.2992 144.2 44.0951C143.502 43.8909 142.907 43.5847 142.413 43.1763C142.226 43.0232 142.081 42.8275 141.979 42.5893C141.877 42.3512 141.826 42.1215 141.826 41.9003C141.826 41.6621 141.928 41.4324 142.132 41.2112C142.354 40.973 142.651 40.8539 143.026 40.8539C143.298 40.8539 143.613 40.9901 143.97 41.2623C144.31 41.4835 144.667 41.6706 145.042 41.8237C145.433 41.9769 145.833 42.0534 146.241 42.0534C147.126 42.0534 147.892 41.8918 148.538 41.5685C149.185 41.2453 149.678 40.7944 150.018 40.2159C150.376 39.6205 150.554 38.9314 150.554 38.1488C150.554 37.4172 150.393 36.7962 150.069 36.2858C149.746 35.7583 149.304 35.35 148.742 35.0608C148.198 34.7715 147.585 34.6269 146.905 34.6269C146.343 34.6269 145.85 34.7205 145.425 34.9076C144.999 35.0778 144.616 35.2564 144.276 35.4436C143.936 35.6137 143.621 35.6988 143.332 35.6988C142.89 35.6988 142.558 35.6052 142.337 35.4181C142.115 35.2139 141.971 34.9757 141.903 34.7035C141.852 34.4142 141.843 34.1505 141.877 33.9123L142.77 27.5067C142.821 27.2174 142.958 26.9792 143.179 26.7921C143.417 26.5879 143.706 26.4858 144.046 26.4858H151.524C151.864 26.4858 152.145 26.6049 152.366 26.8431C152.604 27.0643 152.723 27.345 152.723 27.6853C152.723 28.0256 152.604 28.3063 152.366 28.5275C152.145 28.7487 151.864 28.8593 151.524 28.8593H144.684L144.965 28.6296L144.149 34.1165L143.766 33.3509C143.919 33.1807 144.174 33.0191 144.531 32.866C144.906 32.6959 145.322 32.5597 145.782 32.4577C146.258 32.3386 146.735 32.279 147.211 32.279C148.334 32.279 149.338 32.5342 150.222 33.0446C151.124 33.538 151.83 34.2271 152.341 35.1118C152.851 35.9965 153.106 37.0003 153.106 38.1232C153.106 39.3823 152.826 40.4882 152.264 41.4409C151.703 42.3767 150.912 43.1083 149.891 43.6357C148.87 44.1461 147.662 44.4013 146.267 44.4013Z" fill="#D7D7D7"/>
<path id="Vector_10" d="M131.814 44.4013C131.15 44.4013 130.461 44.2992 129.746 44.0951C129.049 43.8909 128.453 43.5847 127.96 43.1763C127.773 43.0232 127.628 42.8275 127.526 42.5893C127.424 42.3512 127.373 42.1215 127.373 41.9003C127.373 41.6621 127.475 41.4324 127.679 41.2112C127.9 40.973 128.198 40.8539 128.573 40.8539C128.845 40.8539 129.159 40.9901 129.517 41.2623C129.857 41.4835 130.214 41.6706 130.589 41.8237C130.98 41.9769 131.38 42.0534 131.788 42.0534C132.673 42.0534 133.438 41.8918 134.085 41.5685C134.731 41.2453 135.225 40.7944 135.565 40.2159C135.922 39.6205 136.101 38.9314 136.101 38.1488C136.101 37.4172 135.939 36.7962 135.616 36.2858C135.293 35.7583 134.851 35.35 134.289 35.0608C133.745 34.7715 133.132 34.6269 132.452 34.6269C131.89 34.6269 131.397 34.7205 130.971 34.9076C130.546 35.0778 130.163 35.2564 129.823 35.4436C129.483 35.6137 129.168 35.6988 128.879 35.6988C128.436 35.6988 128.105 35.6052 127.883 35.4181C127.662 35.2139 127.518 34.9757 127.45 34.7035C127.399 34.4142 127.39 34.1505 127.424 33.9123L128.317 27.5067C128.368 27.2174 128.504 26.9792 128.726 26.7921C128.964 26.5879 129.253 26.4858 129.593 26.4858H137.071C137.411 26.4858 137.692 26.6049 137.913 26.8431C138.151 27.0643 138.27 27.345 138.27 27.6853C138.27 28.0256 138.151 28.3063 137.913 28.5275C137.692 28.7487 137.411 28.8593 137.071 28.8593H130.231L130.512 28.6296L129.695 34.1165L129.313 33.3509C129.466 33.1807 129.721 33.0191 130.078 32.866C130.453 32.6959 130.869 32.5597 131.329 32.4577C131.805 32.3386 132.282 32.279 132.758 32.279C133.881 32.279 134.885 32.5342 135.769 33.0446C136.671 33.538 137.377 34.2271 137.888 35.1118C138.398 35.9965 138.653 37.0003 138.653 38.1232C138.653 39.3823 138.372 40.4882 137.811 41.4409C137.25 42.3767 136.458 43.1083 135.438 43.6357C134.417 44.1461 133.209 44.4013 131.814 44.4013Z" fill="#D7D7D7"/>
<path id="Vector_11" d="M119.03 44.4773C118.078 44.4773 117.227 44.2901 116.478 43.9158C115.747 43.5415 115.126 43.0311 114.615 42.3846C114.122 41.738 113.739 41.015 113.467 40.2153C113.212 39.3987 113.084 38.565 113.084 37.7143C113.084 37.0508 113.161 36.2936 113.314 35.443C113.467 34.5753 113.722 33.682 114.079 32.7633C114.437 31.8275 114.904 30.9343 115.483 30.0836C116.078 29.2329 116.81 28.4673 117.678 27.7868C118.562 27.0892 119.609 26.5618 120.817 26.2045C120.987 26.1535 121.148 26.1279 121.302 26.1279C121.642 26.1279 121.94 26.2215 122.195 26.4087C122.467 26.5788 122.603 26.8935 122.603 27.3529C122.603 27.6592 122.501 27.9314 122.297 28.1696C122.093 28.3908 121.821 28.5524 121.48 28.6545C120.868 28.8586 120.255 29.1649 119.643 29.5732C119.03 29.9815 118.46 30.4664 117.933 31.0279C117.405 31.5893 116.955 32.2189 116.58 32.9164C116.223 33.597 115.959 34.3115 115.789 35.0601L115.151 35.1622C115.406 34.7709 115.73 34.3966 116.121 34.0393C116.529 33.665 117.006 33.3588 117.55 33.1206C118.095 32.8654 118.716 32.7378 119.413 32.7378C120.111 32.7378 120.783 32.8909 121.429 33.1971C122.076 33.5034 122.654 33.9287 123.165 34.4732C123.692 35.0176 124.1 35.6471 124.39 36.3617C124.696 37.0763 124.849 37.8334 124.849 38.633C124.849 39.6879 124.585 40.6662 124.058 41.5679C123.547 42.4526 122.85 43.1587 121.965 43.6861C121.097 44.2135 120.119 44.4773 119.03 44.4773ZM119.005 42.1038C119.634 42.1038 120.196 41.9592 120.689 41.67C121.183 41.3637 121.574 40.9469 121.863 40.4195C122.152 39.892 122.297 39.2966 122.297 38.633C122.297 37.9695 122.161 37.374 121.889 36.8466C121.616 36.3192 121.234 35.8938 120.74 35.5706C120.264 35.2473 119.702 35.0857 119.056 35.0857C118.392 35.0857 117.805 35.2473 117.295 35.5706C116.784 35.8938 116.385 36.3277 116.095 36.8721C115.806 37.3995 115.662 37.995 115.662 38.6586C115.662 39.271 115.806 39.8495 116.095 40.394C116.385 40.9214 116.776 41.3382 117.269 41.6445C117.78 41.9507 118.358 42.1038 119.005 42.1038Z" fill="#D7D7D7"/>
<path id="Vector_12" d="M110.259 27.3795C110.633 27.5667 110.846 27.8559 110.897 28.2472C110.965 28.6385 110.871 28.9958 110.616 29.3191C110.429 29.5743 110.182 29.7189 109.876 29.7529C109.587 29.787 109.298 29.7274 109.008 29.5743C108.515 29.3191 107.996 29.1149 107.452 28.9618C106.907 28.8087 106.329 28.7321 105.716 28.7321C104.747 28.7321 103.87 28.8937 103.088 29.217C102.322 29.5232 101.659 29.9741 101.097 30.5696C100.536 31.1481 100.102 31.8371 99.7955 32.6368C99.5063 33.4364 99.3617 34.3211 99.3617 35.2909C99.3617 36.3628 99.5233 37.3155 99.8466 38.1492C100.17 38.9659 100.612 39.6634 101.174 40.2419C101.752 40.8034 102.424 41.2287 103.19 41.5179C103.972 41.7902 104.815 41.9263 105.716 41.9263C106.295 41.9263 106.856 41.8582 107.401 41.7221C107.962 41.586 108.49 41.3818 108.983 41.1096C109.289 40.9565 109.587 40.9054 109.876 40.9565C110.182 40.9905 110.429 41.1351 110.616 41.3903C110.906 41.7476 111.008 42.1134 110.923 42.4877C110.854 42.845 110.642 43.1172 110.285 43.3044C109.859 43.5426 109.391 43.7467 108.881 43.9169C108.37 44.087 107.852 44.2231 107.324 44.3252C106.797 44.4273 106.261 44.4783 105.716 44.4783C104.491 44.4783 103.334 44.2742 102.246 43.8658C101.157 43.4575 100.187 42.862 99.3362 42.0794C98.4855 41.2968 97.8134 40.3355 97.32 39.1956C96.8437 38.0556 96.6055 36.7541 96.6055 35.2909C96.6055 33.9808 96.8266 32.7729 97.269 31.667C97.7284 30.5441 98.3664 29.5828 99.1831 28.7831C100.017 27.9665 100.987 27.337 102.092 26.8946C103.198 26.4353 104.406 26.2056 105.716 26.2056C106.533 26.2056 107.324 26.3076 108.09 26.5118C108.872 26.716 109.595 27.0052 110.259 27.3795Z" fill="#D7D7D7"/>
<path id="Vector_13" d="M81.9844 44.2219C81.576 44.2219 81.2187 44.1028 80.9125 43.8646C80.6062 43.6094 80.4531 43.2946 80.4531 42.9203V27.659C80.4531 27.2847 80.5807 26.9784 80.8359 26.7402C81.0911 26.485 81.3974 26.3574 81.7547 26.3574H88.9515C89.8702 26.3574 90.7124 26.5871 91.478 27.0465C92.2436 27.4888 92.8561 28.1098 93.3155 28.9095C93.7919 29.6921 94.0301 30.5938 94.0301 31.6147C94.0301 32.2952 93.894 32.9502 93.6218 33.5798C93.3495 34.1923 92.9837 34.7367 92.5244 35.2131C92.065 35.6895 91.5461 36.0467 90.9676 36.2849L90.6869 35.8C91.2143 35.9872 91.6737 36.2594 92.065 36.6167C92.4563 36.957 92.7626 37.3653 92.9837 37.8417C93.2219 38.3011 93.3495 38.8285 93.3666 39.424C93.4176 39.9514 93.4601 40.3938 93.4942 40.751C93.5452 41.0913 93.6133 41.372 93.6983 41.5932C93.7834 41.8144 93.9365 41.9845 94.1577 42.1036C94.4639 42.2738 94.6511 42.529 94.7191 42.8693C94.8042 43.2095 94.7362 43.5158 94.515 43.788C94.3619 43.9922 94.1662 44.1283 93.928 44.1963C93.7068 44.2474 93.4771 44.2559 93.239 44.2219C93.0008 44.1708 92.7966 44.1028 92.6265 44.0177C92.3542 43.8475 92.0735 43.6094 91.7843 43.3031C91.5121 42.9798 91.2909 42.5375 91.1207 41.976C90.9506 41.4146 90.8655 40.6745 90.8655 39.7557C90.8655 39.3304 90.7975 38.9646 90.6614 38.6584C90.5253 38.3521 90.3381 38.1054 90.0999 37.9183C89.8617 37.7141 89.581 37.5695 89.2577 37.4844C88.9345 37.3823 88.5772 37.3313 88.1859 37.3313H82.7755L83.1328 36.8209V42.9203C83.1328 43.2946 83.0307 43.6094 82.8265 43.8646C82.6224 44.1028 82.3417 44.2219 81.9844 44.2219ZM82.801 35.111H88.9004C89.2918 35.094 89.6661 34.9409 90.0234 34.6516C90.3977 34.3454 90.6954 33.937 90.9166 33.4266C91.1548 32.9162 91.2739 32.3378 91.2739 31.6912C91.2739 30.8746 91.0272 30.194 90.5338 29.6496C90.0574 29.0881 89.4874 28.8074 88.8239 28.8074H82.8521L83.1328 28.1439V35.6469L82.801 35.111Z" fill="#D7D7D7"/>
<path id="Vector_14" d="M67.1746 26.3574H76.0047C76.362 26.3574 76.6598 26.4765 76.8979 26.7147C77.1532 26.9529 77.2808 27.2506 77.2808 27.6079C77.2808 27.9652 77.1532 28.2545 76.8979 28.4756C76.6598 28.6968 76.362 28.8074 76.0047 28.8074H68.2975L68.5527 28.3735V34.0902L68.323 33.835H74.8563C75.2136 33.835 75.5113 33.9541 75.7495 34.1922C76.0047 34.4304 76.1323 34.7367 76.1323 35.111C76.1323 35.4683 76.0047 35.7575 75.7495 35.9787C75.5113 36.1999 75.2136 36.3105 74.8563 36.3105H68.3741L68.5527 36.0808V41.976L68.3741 41.7719H76.0047C76.362 41.7719 76.6598 41.8995 76.8979 42.1547C77.1532 42.3929 77.2808 42.6736 77.2808 42.9969C77.2808 43.3541 77.1532 43.6519 76.8979 43.8901C76.6598 44.1113 76.362 44.2218 76.0047 44.2218H67.1746C66.8173 44.2218 66.5111 44.1028 66.2559 43.8646C66.0006 43.6094 65.873 43.2946 65.873 42.9203V27.659C65.873 27.2847 66.0006 26.9784 66.2559 26.7402C66.5111 26.485 66.8173 26.3574 67.1746 26.3574Z" fill="#D7D7D7"/>
</g>
</g>
</g>
</svg>
