<svg width="100" height="101" viewBox="0 0 100 101" fill="none" xmlns="http://www.w3.org/2000/svg">
<g id="Group 1597884024">
<g id="Group 1597884023">
<path id="Vector" d="M50.1921 32.9809C53.0594 32.9809 55.3704 30.7128 55.3704 27.8882C55.3704 25.0637 53.0594 22.7955 50.1921 22.7955C47.3247 22.7955 45.0138 25.0637 45.0138 27.8882C45.0138 30.67 47.3247 32.9809 50.1921 32.9809ZM39.4503 54.55C39.4503 51.7255 37.1394 49.4573 34.272 49.4573C31.4047 49.4573 29.0938 51.7255 29.0938 54.55C29.0938 57.3745 31.4047 59.6427 34.272 59.6427C37.0966 59.6427 39.4503 57.3745 39.4503 54.55Z" fill="#FABD00"/>
<path id="Vector_2" d="M71.5059 41.2C67.0979 41.2 63.5459 37.6908 63.5459 33.3684C63.5459 29.046 67.0979 25.5368 71.5059 25.5368C75.9138 25.5368 79.4659 29.046 79.4659 33.3684C79.4659 37.6908 75.871 41.2 71.5059 41.2ZM57.7684 71.4138C57.7684 75.7362 54.2164 79.2455 49.8084 79.2455C45.4005 79.2455 41.8484 75.7362 41.8484 71.4138C41.8484 67.0915 45.4005 63.5822 49.8084 63.5822C54.1736 63.5394 57.7684 67.0915 57.7684 71.4138ZM28.4533 41.5852C24.0454 41.5852 20.4933 38.0759 20.4933 33.7536C20.4933 29.4312 24.0454 25.9219 28.4533 25.9219C32.8613 25.9219 36.4133 29.4312 36.4133 33.7536C36.4561 38.0759 32.8613 41.5852 28.4533 41.5852ZM71.5059 20.0161C64.0166 20.0161 57.9824 25.9647 57.9824 33.3684C57.9824 35.4226 58.496 37.3484 59.3519 39.103L50.0224 45.0944L40.8213 39.1886C41.5916 37.4768 42.0196 35.6366 42.0196 33.7536C42.0196 26.3927 35.9426 20.4013 28.4961 20.4013C21.0069 20.4013 14.9727 26.3499 14.9727 33.7536C14.9727 41.1572 21.0069 47.063 28.4961 47.063C32.4333 47.063 35.9426 45.394 38.4247 42.7407L47.6258 48.6465V58.2327C41.2065 59.2598 36.285 64.7377 36.285 71.371C36.285 78.7319 42.362 84.7233 49.8084 84.7233C57.2549 84.7233 63.3319 78.7747 63.3319 71.371C63.3319 64.7377 58.4104 59.3026 51.991 58.2327V48.9461L61.7912 42.6551C64.359 45.2656 67.8254 46.7207 71.5059 46.7207C78.9951 46.7207 85.0293 40.7721 85.0293 33.3684C85.0293 25.9647 78.9523 20.0161 71.5059 20.0161Z" fill="#FABD00"/>
<path id="Vector_3" d="M64.9127 50.2278C62.0453 50.2278 59.7344 52.496 59.7344 55.3205C59.7344 58.145 62.0453 60.4132 64.9127 60.4132C67.78 60.4132 70.091 58.145 70.091 55.3205C70.091 52.496 67.78 50.2278 64.9127 50.2278Z" fill="#FABD00"/>
</g>
</g>
</svg>
