<svg width="100" height="100" viewBox="0 0 100 100" fill="none" xmlns="http://www.w3.org/2000/svg">
<path d="M56.206 72.1668V50H63.2994V72.1668C63.2994 75.6942 61.8981 79.0772 59.4039 81.5714C56.9096 84.0657 53.5267 85.4669 49.9993 85.4669C46.4719 85.4669 43.089 84.0657 40.5947 81.5714C38.1005 79.0772 36.6992 75.6942 36.6992 72.1668V67.7335H43.7926V72.1668C43.7926 72.9819 43.9531 73.789 44.2651 74.542C44.577 75.2951 45.0342 75.9793 45.6105 76.5556C46.1868 77.132 46.8711 77.5892 47.6241 77.9011C48.3771 78.213 49.1842 78.3735 49.9993 78.3735C50.8144 78.3735 51.6215 78.213 52.3745 77.9011C53.1275 77.5892 53.8118 77.132 54.3881 76.5556C54.9645 75.9793 55.4216 75.2951 55.7336 74.542C56.0455 73.789 56.206 72.9819 56.206 72.1668Z" fill="#FABD00" stroke="black" stroke-width="2"/>
<path d="M32.2647 45.2731V38.1797H27.8313C24.3039 38.1797 20.921 39.5809 18.4268 42.0752C15.9325 44.5694 14.5312 47.9524 14.5312 51.4798C14.5312 55.0072 15.9325 58.3901 18.4268 60.8844C20.921 63.3786 24.3039 64.7799 27.8313 64.7799H49.9982V57.6865H27.8313C27.0162 57.6866 26.209 57.5261 25.4559 57.2142C24.7028 56.9024 24.0185 56.4452 23.4421 55.8688C22.8656 55.2925 22.4084 54.6082 22.0964 53.8551C21.7845 53.1021 21.6239 52.2949 21.6239 51.4798C21.6239 50.6646 21.7845 49.8575 22.0964 49.1044C22.4084 48.3513 22.8656 47.6671 23.4421 47.0907C24.0185 46.5144 24.7028 46.0572 25.4559 45.7453C26.209 45.4334 27.0162 45.273 27.8313 45.2731H32.2647Z" fill="#FABD00" stroke="black" stroke-width="2"/>
<path d="M43.7926 27.8313V49.9982H36.6992V27.8313C36.6992 24.3039 38.1005 20.921 40.5947 18.4268C43.089 15.9325 46.4719 14.5312 49.9993 14.5312C53.5267 14.5312 56.9096 15.9325 59.4039 18.4268C61.8981 20.921 63.2994 24.3039 63.2994 27.8313V32.2647H56.206V27.8313C56.206 27.0163 56.0455 26.2092 55.7336 25.4561C55.4216 24.7031 54.9645 24.0189 54.3881 23.4425C53.8118 22.8662 53.1275 22.409 52.3745 22.0971C51.6215 21.7852 50.8144 21.6246 49.9993 21.6246C49.1842 21.6246 48.3771 21.7852 47.6241 22.0971C46.8711 22.409 46.1868 22.8662 45.6105 23.4425C45.0342 24.0189 44.577 24.7031 44.2651 25.4561C43.9531 26.2092 43.7926 27.0163 43.7926 27.8313Z" fill="#FABD00" stroke="black" stroke-width="2"/>
<path d="M67.7335 64.7799H72.1668C75.6942 64.7799 79.0772 63.3786 81.5714 60.8844C84.0657 58.3901 85.4669 55.0072 85.4669 51.4798C85.4669 47.9524 84.0657 44.5694 81.5714 42.0752C79.0772 39.5809 75.6942 38.1797 72.1668 38.1797H50V45.2731H72.1668C72.982 45.273 73.7891 45.4334 74.5422 45.7453C75.2954 46.0572 75.9797 46.5144 76.5561 47.0907C77.1325 47.6671 77.5898 48.3513 77.9017 49.1044C78.2137 49.8575 78.3742 50.6646 78.3742 51.4798C78.3742 52.2949 78.2137 53.1021 77.9017 53.8551C77.5898 54.6082 77.1325 55.2925 76.5561 55.8688C75.9797 56.4452 75.2954 56.9024 74.5422 57.2142C73.7891 57.5261 72.982 57.6866 72.1668 57.6865H67.7335V64.7799Z" fill="#FABD00" stroke="black" stroke-width="2"/>
</svg>
