<svg width="53" height="65" viewBox="0 0 53 65" fill="none" xmlns="http://www.w3.org/2000/svg">
<path d="M30.7782 29.1383C30.761 29.1225 30.761 29.1057 30.7449 29.0888C30.661 28.9909 30.5772 28.8919 30.4944 28.7771C29.9751 28.0062 29.6741 27.1038 29.6741 26.1044C29.6741 24.1193 30.9126 22.4144 32.6877 21.693L32.6705 21.6762C38.4804 19.8227 42.0799 15.9526 42.0799 11.8035C42.0799 5.70297 34.7626 0.766113 26.123 0.766113H23.9964C30.9116 1.89818 36.256 6.41065 36.085 11.8203C35.913 17.2743 29.6214 21.693 21.5182 22.8251H21.4688L36.6549 43.2265L36.7559 43.3908L36.9903 43.8004L37.0914 43.9805H42.4487L30.7782 29.1383Z" fill="#FABD00"/>
<path d="M30.561 47.7871H21.9062C23.6135 46.5761 24.9822 44.9248 25.8218 43.0009C25.8143 43.044 25.8143 43.0946 25.8143 43.1378C25.8143 45.7041 27.9409 47.7871 30.561 47.7871Z" fill="#FABD00"/>
<path d="M35.3672 22.8258H44.0219C42.3146 24.0369 40.946 25.6881 40.1063 27.6121C40.1139 27.5689 40.1139 27.5184 40.1139 27.4752C40.1139 24.9088 37.9873 22.8258 35.3672 22.8258Z" fill="#FABD00"/>
<path d="M46.8775 47.786H34.9727C36.3789 47.786 37.5175 46.6708 37.5175 45.3091C37.5175 44.9816 37.4508 44.6699 37.3336 44.3909L37.0992 43.9812H42.4566L42.8254 44.6373C42.8415 44.6541 42.8587 44.6699 42.8587 44.6699C43.8306 46.08 45.2197 47.1784 46.8775 47.786Z" fill="#FABD00"/>
<path d="M19.94 0.780029C18.4015 0.780029 16.0051 1.3687 15.7116 3.6023H10.3467C10.1231 1.43715 7.65569 0.780029 6.11719 0.780029H19.94Z" fill="#FABD00"/>
<path d="M15.7109 47.7889L15.7109 3.60144L10.345 3.60144L10.345 47.7889H15.7109Z" fill="#FABD00"/>
<path d="M19.94 47.7979C18.4015 47.7979 16.0051 47.2092 15.7116 44.9756H10.3467C10.1231 47.1407 7.65569 47.7979 6.11719 47.7979H19.94Z" fill="#FABD00"/>
<path d="M52.0195 60.8895C52.0195 62.597 50.2324 63.9811 48.0278 63.9811H4.96828C2.76368 63.9811 0.976562 62.597 0.976562 60.8895C0.976562 59.182 2.76368 57.7979 4.96828 57.7979H48.0278C50.2324 57.798 52.0195 59.1822 52.0195 60.8895Z" fill="#FABD00" stroke="#3F3F3F" stroke-width="0.5"/>
</svg>
