<svg width="55" height="55" viewBox="0 0 55 55" fill="none" xmlns="http://www.w3.org/2000/svg">
<path d="M21.9974 8.97168L20.6583 9.13027C20.6583 9.13027 14.6503 9.77643 10.2627 13.2434H10.2112L10.1563 13.294C9.17216 14.1848 8.74351 15.2798 8.06624 16.8808C7.26788 18.8071 6.58824 20.779 6.031 22.7857C4.75876 27.3122 3.72656 32.7953 3.72656 37.8111V38.2329L3.94089 38.6546C5.52862 41.3962 8.34743 43.1424 10.9605 44.3486C13.5718 45.5549 15.83 46.1943 17.3903 46.2466L18.4088 46.2989L18.9437 45.4031L20.8195 42.1335C22.8084 42.5755 25.0992 42.8724 27.7311 42.8724C30.363 42.8724 32.6537 42.5755 34.6427 42.1335L36.5185 45.4031L37.0551 46.2989L38.0719 46.2466C39.6322 46.1943 41.8903 45.5549 44.5017 44.3486C47.1147 43.1424 49.9336 41.3962 51.5213 38.6546L51.7356 38.2329V37.8111C51.7356 32.7953 50.7034 27.3122 49.4312 22.7857C48.8739 20.779 48.1943 18.8071 47.3959 16.8808C46.7187 15.2781 46.29 14.1848 45.3058 13.2957L45.2527 13.2417H45.1978C40.8136 9.77643 34.8038 9.13027 34.8038 9.13027L33.4647 8.97168L32.9812 10.1847C32.9812 10.1847 32.4857 11.4163 32.1788 12.8217C30.7047 12.6215 29.2191 12.5156 27.7311 12.5045C26.8138 12.5045 25.2278 12.5635 23.2834 12.8217C22.9748 11.4163 22.4792 10.1847 22.4792 10.1847L21.9974 8.97168ZM19.6398 12.8217C19.7136 13.0579 19.7873 13.262 19.8542 13.4543C17.6372 13.9942 15.2727 14.8175 13.1038 16.1419L14.9247 18.9897C19.3724 16.2735 25.761 15.8787 27.7311 15.8787C29.6995 15.8787 36.0898 16.2735 40.5375 18.9897L42.3584 16.1419C40.1894 14.8175 37.825 13.9942 35.608 13.4526C35.6749 13.262 35.7486 13.0579 35.8223 12.82C37.4221 13.1371 40.4775 13.8626 43.0014 15.8264C42.9877 15.8331 43.6444 16.8083 44.2342 18.1985C44.8377 19.6291 45.5064 21.5339 46.11 23.6816C47.2691 27.7998 48.1795 32.8156 48.2532 37.2307C47.173 38.852 45.1721 40.3148 43.0545 41.2916C41.7266 41.9091 40.3216 42.3515 38.876 42.6075L38.0187 41.1853C38.528 40.9997 39.0304 40.7973 39.4659 40.6049C42.1047 39.4645 43.5381 38.2329 43.5381 38.2329L41.2868 35.7022C41.2868 35.7022 40.3232 36.5728 38.0719 37.5479C35.824 38.5231 32.3863 39.4982 27.7311 39.4982C23.0759 39.4982 19.6398 38.5231 17.3903 37.5479C15.139 36.5728 14.1754 35.7022 14.1754 35.7022L11.9241 38.2329C11.9241 38.2329 13.3575 39.4645 15.9963 40.6049C16.4318 40.7973 16.9342 41.0014 17.4434 41.1853L16.5861 42.6092C15.1398 42.3523 13.7343 41.9087 12.4059 41.2899C10.2901 40.3148 8.28742 38.852 7.21065 37.2307C7.28266 32.8156 8.19312 27.7998 9.35391 23.6816C9.86684 21.8187 10.4926 19.9877 11.228 18.1985C11.8178 16.8083 12.4745 15.8331 12.4608 15.8264C14.9847 13.8626 18.0401 13.1371 19.6398 12.8217ZM21.73 24.3142C20.4046 24.3142 19.2318 25.0583 18.5151 26.0013C17.7984 26.9444 17.4434 28.1035 17.4434 29.3756C17.4434 30.6476 17.7984 31.8067 18.5151 32.7498C19.2318 33.6929 20.4046 34.4369 21.73 34.4369C23.0553 34.4369 24.2281 33.6929 24.9448 32.7498C25.6616 31.8067 26.0165 30.6476 26.0165 29.3756C26.0165 28.1035 25.6616 26.9444 24.9448 26.0013C24.2281 25.0583 23.0553 24.3142 21.73 24.3142ZM33.7322 24.3142C32.4068 24.3142 31.234 25.0583 30.5173 26.0013C29.8006 26.9444 29.4457 28.1035 29.4457 29.3756C29.4457 30.6476 29.8006 31.8067 30.5173 32.7498C31.234 33.6929 32.4068 34.4369 33.7322 34.4369C35.0576 34.4369 36.2304 33.6929 36.9471 32.7498C37.6638 31.8067 38.0187 30.6476 38.0187 29.3756C38.0187 28.1035 37.6638 26.9444 36.9471 26.0013C36.2304 25.0583 35.0576 24.3142 33.7322 24.3142ZM21.73 27.6885C21.8243 27.6885 21.9443 27.7222 22.1586 28.0056C22.3729 28.2874 22.5873 28.7817 22.5873 29.3756C22.5873 29.9694 22.3729 30.4637 22.1586 30.7472C21.9443 31.0289 21.8243 31.0627 21.73 31.0627C21.6357 31.0627 21.5156 31.0289 21.3013 30.7455C21.0178 30.3435 20.868 29.8649 20.8727 29.3756C20.8727 28.7817 21.087 28.2874 21.3013 28.0039C21.5156 27.7222 21.6357 27.6885 21.73 27.6885ZM33.7322 27.6885C33.8265 27.6885 33.9465 27.7222 34.1609 28.0056C34.3752 28.2874 34.5895 28.7817 34.5895 29.3756C34.5895 29.9694 34.3752 30.4637 34.1609 30.7472C33.9465 31.0289 33.8265 31.0627 33.7322 31.0627C33.6379 31.0627 33.5179 31.0289 33.3036 30.7455C33.02 30.3435 32.8702 29.8649 32.8749 29.3756C32.8749 28.7817 33.0892 28.2874 33.3036 28.0039C33.5179 27.7222 33.6379 27.6885 33.7322 27.6885Z" fill="white"/>
</svg>
