<svg width="29" height="29" viewBox="0 0 29 29" fill="none" xmlns="http://www.w3.org/2000/svg">
<rect width="29" height="29" fill="#3F3F3F"/>
<path d="M-28 -131.67C-28 -137.927 -22.9274 -143 -16.6701 -143H202.67C208.927 -143 214 -137.927 214 -131.67V47.6701C214 53.9274 208.927 59 202.67 59H-16.6701C-22.9274 59 -28 53.9274 -28 47.6701V-131.67Z" fill="#2E2E2E"/>
<rect opacity="0.16" x="-12" y="-11" width="210.736" height="50" rx="6.79793" fill="#676767"/>
<path fill-rule="evenodd" clip-rule="evenodd" d="M23.4353 20.3868C23.3942 20.4278 23.3522 20.4673 23.3093 20.5053L20.2738 23.5408C19.8313 23.9833 19.114 23.9833 18.6715 23.5408L15.636 20.5053C15.5931 20.4673 15.5511 20.4278 15.51 20.3868C14.4166 19.2933 14.4166 17.5204 15.51 16.427C16.6032 15.3338 18.3754 15.3335 19.4689 16.4261L19.4727 16.4224L19.4764 16.4261C20.5699 15.3335 22.3421 15.3338 23.4353 16.427C24.5287 17.5204 24.5287 19.2933 23.4353 20.3868Z" fill="white"/>
<rect x="5.13281" y="5" width="8.4" height="8.4" rx="1.13299" fill="white"/>
<rect x="15.3984" y="5" width="8.4" height="8.4" rx="4.2" fill="white"/>
<path d="M8.33703 15.795C8.77948 15.095 9.88562 15.095 10.3281 15.795L14.3102 22.095C14.7526 22.795 14.1995 23.67 13.3146 23.67H5.35046C4.46556 23.67 3.91249 22.795 4.35494 22.095L8.33703 15.795Z" fill="white"/>
</svg>
