<svg width="54" height="55" viewBox="0 0 54 55" fill="none" xmlns="http://www.w3.org/2000/svg">
<path d="M14.7438 30.3985C14.7347 29.9954 14.8062 29.5945 14.9542 29.2195C15.1021 28.8444 15.3235 28.5027 15.6053 28.2143C15.8871 27.926 16.2237 27.6969 16.5953 27.5404C16.9669 27.3839 17.366 27.3033 17.7692 27.3032C18.1724 27.3031 18.5715 27.3835 18.9432 27.5398C19.3148 27.6961 19.6515 27.925 19.9335 28.2132C20.2155 28.5014 20.437 28.8431 20.5851 29.2181C20.7333 29.5931 20.805 29.9939 20.796 30.397C20.7786 31.1878 20.4522 31.9404 19.8867 32.4936C19.3213 33.0468 18.5617 33.3567 17.7707 33.3569C16.9796 33.3571 16.2199 33.0476 15.6542 32.4947C15.0885 31.9417 14.7617 31.1893 14.7438 30.3985ZM32.905 30.3985C32.8959 29.9954 32.9674 29.5945 33.1153 29.2195C33.2633 28.8444 33.4846 28.5027 33.7665 28.2143C34.0483 27.926 34.3849 27.6969 34.7565 27.5404C35.1281 27.3839 35.5272 27.3033 35.9303 27.3032C36.3335 27.3031 36.7327 27.3835 37.1043 27.5398C37.476 27.6961 37.8127 27.925 38.0947 28.2132C38.3766 28.5014 38.5982 28.8431 38.7463 29.2181C38.8944 29.5931 38.9661 29.9939 38.9572 30.397C38.9397 31.1878 38.6133 31.9404 38.0479 32.4936C37.4825 33.0468 36.7229 33.3567 35.9319 33.3569C35.1408 33.3571 34.3811 33.0476 33.8154 32.4947C33.2497 31.9417 32.9229 31.1893 32.905 30.3985ZM33.0518 36.8669C33.4273 36.5837 33.8988 36.459 34.3651 36.5193C34.8315 36.5797 35.2557 36.8204 35.5467 37.1898C35.8377 37.5592 35.9724 38.0279 35.9219 38.4955C35.8714 38.963 35.6397 39.3922 35.2766 39.6909C33.1063 41.4011 29.7995 42.5059 26.8513 42.5059C23.9031 42.5059 20.5963 41.4011 18.426 39.6909C18.0628 39.3922 17.8312 38.963 17.7807 38.4955C17.7302 38.0279 17.8649 37.5592 18.1559 37.1898C18.4469 36.8204 18.8711 36.5797 19.3374 36.5193C19.8038 36.459 20.2753 36.5837 20.6508 36.8669C21.9009 37.8521 24.3738 38.9115 26.8513 38.9115C29.3288 38.9115 31.8017 37.8521 33.0518 36.8669ZM51.0662 24.3447C51.0654 23.0043 50.6197 21.7021 49.799 20.6422C48.9783 19.5824 47.8291 18.8249 46.5316 18.4885C45.2341 18.1521 43.8616 18.2559 42.6294 18.7836C41.3972 19.3112 40.375 20.2329 39.723 21.4041C36.6114 19.7015 32.8203 18.6028 28.6901 18.3485L32.3027 10.2365L39.2175 12.2328C39.5632 13.2151 40.236 14.0488 41.1232 14.594C42.0104 15.1393 43.0581 15.363 44.0906 15.2276C45.1231 15.0923 46.0777 14.6061 46.7944 13.8506C47.5111 13.0951 47.9463 12.1162 48.0271 11.0779C48.1078 10.0397 47.8292 9.00527 47.238 8.14803C46.6467 7.29078 45.7788 6.66284 44.7796 6.36946C43.7804 6.07607 42.7107 6.13508 41.7499 6.5366C40.7891 6.93811 39.9954 7.65771 39.5021 8.57479L31.7972 6.35005C31.3804 6.22963 30.934 6.26414 30.5407 6.44719C30.1473 6.63024 29.8335 6.94946 29.6572 7.34588L24.7491 18.3667C20.7219 18.6497 17.0276 19.7394 13.9826 21.4041C13.5161 20.5644 12.8565 19.8477 12.0583 19.3133C11.2601 18.7788 10.3461 18.4421 9.39199 18.3307C8.43785 18.2194 7.47091 18.3368 6.57109 18.6731C5.67127 19.0094 4.8644 19.555 4.21716 20.2648C3.56992 20.9746 3.10089 21.8283 2.84883 22.7552C2.59678 23.6822 2.56893 24.6558 2.7676 25.5957C2.96626 26.5355 3.38573 27.4146 3.99135 28.1602C4.59697 28.9059 5.37133 29.4967 6.25046 29.8839C5.86422 31.0253 5.6664 32.2219 5.66477 33.4268C5.66477 41.7855 15.151 48.5612 26.8528 48.5612C38.5547 48.5612 48.0408 41.7855 48.0408 33.4268C48.04 32.2223 47.8421 31.0261 47.4551 29.8854C48.5296 29.4119 49.4432 28.6362 50.0846 27.6527C50.726 26.6692 51.0676 25.5204 51.0677 24.3463L51.0662 24.3447ZM43.499 9.02125C43.7226 9.02125 43.944 9.06529 44.1506 9.15086C44.3572 9.23642 44.5449 9.36183 44.703 9.51993C44.8611 9.67804 44.9865 9.86573 45.072 10.0723C45.1576 10.2789 45.2016 10.5003 45.2016 10.7239C45.2016 10.9475 45.1576 11.1689 45.072 11.3754C44.9865 11.582 44.8611 11.7697 44.703 11.9278C44.5449 12.0859 44.3572 12.2113 44.1506 12.2969C43.944 12.3824 43.7226 12.4265 43.499 12.4265C43.0475 12.4265 42.6144 12.2471 42.2951 11.9278C41.9758 11.6085 41.7964 11.1754 41.7964 10.7239C41.7964 10.2723 41.9758 9.83924 42.2951 9.51993C42.6144 9.20063 43.0475 9.02125 43.499 9.02125ZM5.66325 24.3447C5.66325 22.6754 7.0208 21.3179 8.69011 21.3179C9.89632 21.3179 10.9406 22.0277 11.4264 23.0508C9.84486 24.2509 8.53423 25.6342 7.56412 27.1537C7.00338 26.9283 6.52279 26.5404 6.18409 26.0399C5.84538 25.5394 5.664 24.9491 5.66325 24.3447ZM26.8513 44.9652C17.1351 44.9652 9.25765 39.7984 9.25765 33.4253C9.25765 27.0523 17.1351 21.8854 26.8513 21.8854C36.5675 21.8854 44.4449 27.0523 44.4449 33.4253C44.4449 39.7984 36.5675 44.9652 26.8513 44.9652ZM46.1385 27.1537C45.1683 25.6357 43.8577 24.2509 42.2762 23.0508C42.5217 22.5327 42.9092 22.095 43.3935 21.7883C43.8778 21.4815 44.4392 21.3184 45.0125 21.3179C46.6818 21.3179 48.0393 22.6754 48.0393 24.3447C48.0393 25.616 47.2523 26.7057 46.1385 27.1537Z" fill="white"/>
</svg>
