<svg width="29" height="28" viewBox="0 0 29 28" fill="none" xmlns="http://www.w3.org/2000/svg">
<g id="Group 1321315899">
<path id="Vector" d="M16.1134 14.0002C16.1191 15.8787 15.3594 17.6826 14.0011 19.0158C12.6429 20.349 10.7971 21.1025 8.8692 21.1108C6.94127 21.1025 5.09552 20.349 3.73728 19.0158C2.37903 17.6826 1.61934 15.8787 1.62503 14.0002C1.61934 12.1217 2.37903 10.3178 3.73728 8.98458C5.09552 7.65139 6.94127 6.89793 8.8692 6.88965C10.7971 6.89793 12.6429 7.65139 14.0011 8.98458C15.3594 10.3178 16.1191 12.1217 16.1134 14.0002ZM24.0531 14.0002C24.0531 17.691 22.4373 20.6937 20.4363 20.6937C18.4354 20.6937 16.8089 17.691 16.8089 14.0002C16.8089 10.3094 18.4354 7.30669 20.4363 7.30669C22.4373 7.30669 24.0531 10.3094 24.0531 14.0002ZM27.306 14.0002C27.306 17.3053 26.7389 19.9952 26.0326 19.9952C25.3264 19.9952 24.7593 17.3053 24.7593 14.0002C24.7593 10.6951 25.3264 8.00523 26.0326 8.00523C26.7389 8.00523 27.306 10.6951 27.306 14.0002Z" fill="white"/>
</g>
</svg>
