<svg width="186" height="70" viewBox="0 0 186 70" fill="none" xmlns="http://www.w3.org/2000/svg">
<g id="Group 1597883466">
<g id="Group 1321316458">
<g id="Group 1321316160">
<path id="Vector" d="M153.681 35.5565C152.859 35.0212 151.964 34.6336 151.115 34.1536C150.561 33.8491 149.97 33.5722 149.49 33.1753C148.678 32.5108 148.844 31.191 149.693 30.6188C150.921 29.8066 152.942 30.2588 153.164 31.9201C153.164 31.957 153.201 31.9847 153.238 31.9847H155.083C155.13 31.9847 155.167 31.9478 155.148 31.8924C155.132 31.3698 155.003 30.8569 154.77 30.3887C154.538 29.9204 154.207 29.5078 153.801 29.179C153.049 28.5997 152.128 28.2849 151.179 28.2837C146.306 28.2837 145.854 33.443 148.484 35.0674C148.789 35.252 151.364 36.5441 152.268 37.1071C153.191 37.6701 153.468 38.7038 153.081 39.5067C152.711 40.2543 151.789 40.7712 150.847 40.7066C149.832 40.6512 149.038 40.0974 148.761 39.2391C148.715 39.0822 148.687 38.7776 148.687 38.6576C148.685 38.6387 148.677 38.6211 148.664 38.6077C148.65 38.5942 148.632 38.5858 148.614 38.5838H146.611C146.583 38.5838 146.546 38.6207 146.546 38.6576C146.546 40.0974 146.906 40.9004 147.884 41.6295C148.807 42.3217 149.823 42.6171 150.856 42.6171C153.597 42.6171 155.01 41.0665 155.286 39.4698C155.545 37.9008 155.083 36.4887 153.681 35.5565ZM66.7388 28.5513H64.8744C64.8607 28.553 64.8475 28.5581 64.8363 28.5662C64.825 28.5743 64.8159 28.585 64.8098 28.5975L63.167 34.006C63.167 34.0256 63.1592 34.0443 63.1454 34.0582C63.1315 34.072 63.1127 34.0798 63.0931 34.0798C63.0736 34.0798 63.0548 34.072 63.0409 34.0582C63.0271 34.0443 63.0193 34.0256 63.0193 34.006L61.3765 28.5975C61.3672 28.5606 61.3395 28.5513 61.3026 28.5513H58.2477C58.2107 28.5513 58.1738 28.5883 58.1738 28.616V42.4233C58.1738 42.4602 58.2107 42.4971 58.2477 42.4971H60.2505C60.2874 42.4971 60.3243 42.4602 60.3243 42.4233V31.9201C60.3243 31.837 60.4443 31.8278 60.4627 31.9017L62.1241 37.347L62.244 37.7162C62.244 37.7624 62.2717 37.7716 62.3086 37.7716H63.85C63.8869 37.7716 63.9053 37.7439 63.9146 37.7255L64.0346 37.3378L65.6959 31.8924C65.7143 31.8186 65.8343 31.837 65.8343 31.9201V42.414C65.8343 42.451 65.8712 42.4879 65.9081 42.4879H67.9109C67.9479 42.4879 67.9848 42.451 67.9848 42.414V28.616C67.9848 28.5883 67.9479 28.5513 67.9109 28.5513H66.7388ZM123.02 28.5513C123.005 28.5515 122.99 28.5558 122.977 28.564C122.964 28.5721 122.953 28.5837 122.946 28.5975L121.304 34.006C121.304 34.0256 121.296 34.0443 121.282 34.0582C121.268 34.072 121.249 34.0798 121.23 34.0798C121.21 34.0798 121.191 34.072 121.177 34.0582C121.164 34.0443 121.156 34.0256 121.156 34.006L119.513 28.5975C119.513 28.5606 119.485 28.5513 119.448 28.5513H116.403C116.366 28.5513 116.329 28.5883 116.329 28.616V42.4233C116.329 42.4602 116.366 42.4971 116.403 42.4971H118.405C118.433 42.4971 118.47 42.4602 118.47 42.4233V31.9201C118.47 31.837 118.59 31.8278 118.618 31.9017L120.279 37.347L120.39 37.7162C120.408 37.7624 120.427 37.7716 120.464 37.7716H121.996C122.011 37.7706 122.026 37.7658 122.038 37.7578C122.051 37.7497 122.062 37.7386 122.07 37.7255L122.19 37.3378L123.851 31.8924C123.869 31.8186 123.989 31.837 123.989 31.9201V42.414C123.989 42.451 124.026 42.4879 124.063 42.4879H126.066C126.103 42.4879 126.14 42.451 126.14 42.414V28.616C126.14 28.5883 126.103 28.5513 126.066 28.5513H123.02ZM97.1869 28.5513H87.7266C87.699 28.5513 87.662 28.5883 87.662 28.616V30.3511C87.662 30.388 87.699 30.4249 87.7266 30.4249H91.3907V42.4233C91.3907 42.4694 91.4277 42.5063 91.4554 42.5063H93.4582C93.4951 42.5063 93.532 42.4694 93.532 42.4325V30.4157H97.1869C97.2238 30.4157 97.2607 30.3788 97.2607 30.3419V28.616C97.2607 28.5883 97.2422 28.5513 97.1869 28.5513ZM109.001 42.4971H110.828C110.874 42.4971 110.911 42.4417 110.893 42.4048L107.127 28.5513C107.127 28.5144 107.099 28.496 107.062 28.496H104.432C104.417 28.4985 104.403 28.505 104.392 28.5148C104.381 28.5245 104.372 28.5371 104.367 28.5513L100.602 42.3956C100.583 42.4417 100.62 42.4879 100.666 42.4879H102.494C102.531 42.4879 102.549 42.4694 102.568 42.4417L103.657 38.4177C103.666 38.3807 103.694 38.3715 103.731 38.3715H107.755C107.792 38.3715 107.819 38.39 107.828 38.4177L108.918 42.4417C108.936 42.4694 108.973 42.4971 108.991 42.4971H109.001ZM104.22 36.3964L105.678 30.9972C105.678 30.9776 105.686 30.9588 105.7 30.945C105.713 30.9311 105.732 30.9233 105.752 30.9233C105.771 30.9233 105.79 30.9311 105.804 30.945C105.818 30.9588 105.826 30.9776 105.826 30.9972L107.284 36.3964C107.302 36.4426 107.265 36.4887 107.219 36.4887H104.294C104.238 36.4887 104.201 36.4426 104.22 36.3964ZM140.076 42.4971H141.904C141.95 42.4971 141.987 42.4417 141.978 42.4048L138.212 28.5421C138.193 28.5052 138.175 28.4867 138.138 28.4867H135.526C135.51 28.4876 135.494 28.4934 135.481 28.5032C135.468 28.5131 135.458 28.5266 135.452 28.5421L131.687 42.3863C131.677 42.4325 131.714 42.4786 131.761 42.4786H133.579C133.616 42.4786 133.643 42.4602 133.653 42.4325L134.742 38.4084C134.76 38.3715 134.779 38.3623 134.815 38.3623H138.849C138.876 38.3623 138.904 38.3807 138.913 38.4084L140.012 42.4325C140.012 42.4602 140.049 42.4879 140.076 42.4879V42.4971ZM135.295 36.3964L136.763 30.9972C136.768 30.983 136.778 30.9708 136.79 30.9622C136.802 30.9536 136.817 30.949 136.832 30.949C136.847 30.949 136.862 30.9536 136.874 30.9622C136.887 30.9708 136.896 30.983 136.901 30.9972L138.369 36.3964C138.369 36.4426 138.341 36.4887 138.295 36.4887H135.369C135.323 36.4887 135.277 36.4426 135.295 36.3964ZM76.116 40.4482V36.1657C76.116 36.1288 76.1436 36.0918 76.1806 36.0918H81.5152C81.5521 36.0918 81.589 36.0549 81.589 36.0272V34.3013C81.587 34.2824 81.5786 34.2648 81.5652 34.2513C81.5517 34.2379 81.5341 34.2295 81.5152 34.2275H76.1898C76.1529 34.2275 76.1252 34.1906 76.1252 34.1536V30.4988C76.1252 30.4618 76.1529 30.4249 76.1898 30.4249H82.2628C82.2997 30.4249 82.3366 30.388 82.3366 30.3511V28.6344C82.3346 28.6155 82.3262 28.5979 82.3128 28.5844C82.2993 28.571 82.2817 28.5626 82.2628 28.5606H74.0485C74.0297 28.5626 74.012 28.571 73.9986 28.5844C73.9851 28.5979 73.9767 28.6155 73.9747 28.6344V42.4233C73.9747 42.4602 74.0116 42.4971 74.0485 42.4971H82.512C82.5489 42.4971 82.5858 42.4602 82.5858 42.4233V40.5958C82.5838 40.5769 82.5754 40.5593 82.562 40.5459C82.5485 40.5324 82.5309 40.524 82.512 40.522H76.1806C76.1436 40.5128 76.1252 40.4851 76.1252 40.4389L76.116 40.4482ZM171.973 42.3771L165.051 35.2335C165.041 35.2204 165.035 35.2041 165.035 35.1873C165.035 35.1706 165.041 35.1543 165.051 35.1412L171.281 28.6806C171.297 28.6732 171.309 28.6599 171.315 28.6434C171.322 28.627 171.321 28.6088 171.313 28.5929C171.306 28.577 171.293 28.5646 171.276 28.5586C171.26 28.5525 171.242 28.5532 171.226 28.5606H168.678C168.651 28.5606 168.642 28.5698 168.632 28.5883L163.344 34.0614C163.334 34.0697 163.322 34.0751 163.309 34.0772C163.296 34.0793 163.283 34.078 163.27 34.0733C163.258 34.0686 163.247 34.0607 163.239 34.0505C163.231 34.0403 163.226 34.0281 163.224 34.0152V28.6344C163.222 28.6155 163.213 28.5979 163.2 28.5844C163.187 28.571 163.169 28.5626 163.15 28.5606H161.147C161.128 28.5626 161.111 28.571 161.097 28.5844C161.084 28.5979 161.075 28.6155 161.073 28.6344V42.4325C161.073 42.4694 161.11 42.5063 161.147 42.5063H163.15C163.187 42.5063 163.224 42.4694 163.224 42.4325V36.3595C163.224 36.2949 163.307 36.2672 163.344 36.3133L169.343 42.4786C169.353 42.4908 169.365 42.5004 169.38 42.5063H171.936C171.983 42.4971 172.029 42.414 171.973 42.3771Z" fill="white"/>
</g>
<g id="Group 1321316161">
<path id="Vector_2" d="M44.6996 21.001L32.4941 30.032L34.764 24.7096L44.6996 21.001Z" fill="#676767"/>
<path id="Vector_3" d="M16.5443 21.001L28.6404 30.1164L26.4799 24.7096L16.5443 21.001ZM40.3022 41.9406L37.0544 46.9022L44.0077 48.8159L45.9995 42.0484L40.3022 41.9406ZM15.2539 42.0484L17.2332 48.8159L24.174 46.9022L20.9388 41.9406L15.2539 42.0484Z" fill="#676767"/>
<path id="Vector_4" d="M23.7996 33.5591L21.8672 36.4726L28.7487 36.7866L28.5206 29.3803L23.7996 33.5591ZM37.4423 33.5591L32.6495 29.2959L32.4917 36.7866L39.3732 36.4726L37.4423 33.5591ZM24.1746 46.9019L28.3394 44.8913L24.7541 42.0981L24.1746 46.9019ZM32.9041 44.8897L37.058 46.9003L36.4909 42.0965L32.9041 44.8897Z" fill="#CECECE"/>
<path id="Vector_5" d="M37.0577 46.9027L32.9038 44.8921L33.2428 47.59L33.2069 48.7336L37.0577 46.9027ZM24.1758 46.9027L28.0391 48.7336L28.0156 47.59L28.3421 44.8921L24.1758 46.9027Z" fill="#818181"/>
<path id="Vector_6" d="M28.1107 40.3145L24.6582 39.3038L27.0968 38.1837L28.1107 40.3145ZM33.1316 40.3145L34.1454 38.1821L36.5965 39.3022L33.1316 40.3145Z" fill="#2B2B2B"/>
<path id="Vector_7" d="M24.1752 46.9024L24.7797 41.9408L20.9414 42.0486L24.1752 46.9024ZM36.465 41.9408L37.057 46.9024L40.3048 42.0486L36.465 41.9408ZM39.3753 36.4731L32.4938 36.7872L33.1343 40.3161L34.1482 38.1838L36.5993 39.3039L39.3753 36.4731ZM24.6594 39.3039L27.098 38.1838L28.1119 40.3161L28.7508 36.7872L21.8693 36.4731L24.6594 39.3039Z" fill="#767676"/>
<path id="Vector_8" d="M21.8691 36.4731L24.7545 42.0955L24.6577 39.3023L21.8691 36.4731ZM36.5975 39.3039L36.4897 42.0971L39.3751 36.4747L36.5975 39.3039ZM28.7506 36.7856L28.1101 40.3146L28.9178 44.481L29.099 38.9899L28.7506 36.7856ZM32.4936 36.7856L32.1546 38.9773L32.3233 44.4809L33.131 40.3145L32.4936 36.7856Z" fill="#4D4D4D"/>
<path id="Vector_9" d="M33.1316 40.3144L32.3239 44.4808L32.9035 44.8917L36.4887 42.0985L36.5965 39.3053L33.1316 40.3144ZM24.6582 39.3037L24.7551 42.0969L28.3403 44.8901L28.9199 44.4793L28.1122 40.3129L24.6582 39.3037Z" fill="#939393"/>
<path id="Vector_10" d="M33.2068 48.7333L33.2428 47.5897L32.9288 47.3257H28.3171L28.0156 47.5897L28.0391 48.7333L24.1758 46.9023L25.5271 48.0099L28.2672 49.9002H32.9631L35.7157 48.0099L37.0561 46.9023L33.2068 48.7333Z" fill="#676767"/>
<path id="Vector_11" d="M32.9053 44.8908L32.3257 44.48H28.9201L28.3405 44.8908L28.0156 47.5888L28.3171 47.3247H32.9287L33.2427 47.5888L32.9053 44.8908Z" fill="#424242"/>
<path id="Vector_12" d="M45.2175 30.6216L46.2439 25.6366L44.6989 21L32.9043 29.7311L37.4441 33.5601L43.8538 35.4269L45.266 33.7772L44.6489 33.332L45.6269 32.44L44.8786 31.8619L45.8565 31.1152L45.2175 30.6216ZM15 25.6366L16.0389 30.6216L15.3734 31.1152L16.3622 31.8619L15.617 32.44L16.595 33.332L15.9779 33.7772L17.3901 35.4269L23.7998 33.5601L28.3396 29.7311L16.545 21L15 25.6366Z" fill="#424242"/>
<path id="Vector_13" d="M43.853 35.4271L37.4434 33.5603L39.3758 36.4738L36.4904 42.0961L40.3053 42.0477H46.0042L43.853 35.4271ZM23.7991 33.5603L17.3894 35.4271L15.2539 42.0493H20.9403L24.7552 42.0977L21.8698 36.4754L23.7991 33.5603ZM32.4927 36.7878L32.9036 29.7313L34.7626 24.7104H26.4799L28.3389 29.7313L28.7497 36.7878L28.9075 39.003L28.92 44.4816H32.324L32.3365 39.003L32.4927 36.7878Z" fill="#EBEBEB"/>
</g>
</g>
</g>
</svg>
