<svg width="186" height="70" viewBox="0 0 186 70" fill="none" xmlns="http://www.w3.org/2000/svg">
<path d="M32.1284 21.2533C24.3141 21.1967 17.9437 27.567 18.0004 35.3813C18.057 42.9974 24.2858 49.1979 31.9019 49.2828C39.7445 49.3395 46.1148 42.9691 46.0299 35.1548C45.9733 27.5387 39.7445 21.3099 32.1284 21.2533Z" fill="white"/>
<path d="M27.9402 28.4434C28.8179 29.5476 29.3275 30.9349 29.3275 32.4638C29.3275 33.7661 28.9312 34.9836 28.28 36.0028H23.5801L27.9402 28.4434Z" fill="black"/>
<path d="M42.2939 37.6741C42.2939 37.7307 42.2656 37.7873 42.209 37.8156C41.8975 37.9572 40.85 38.4385 40.397 39.0614C39.2645 40.6186 38.4151 43.1101 36.4898 43.1101H28.4207C25.5611 43.1101 23.1829 40.8451 23.2112 37.8439C23.2112 37.759 23.2678 37.7024 23.3528 37.7024H27.1466C27.2882 37.7024 27.3731 37.8156 27.3731 37.9289V38.665C27.3731 39.0614 27.6846 39.3728 28.081 39.3728H30.9689V37.7024H28.987C30.1195 36.2584 30.799 34.4464 30.799 32.4645C30.799 30.2561 29.9496 28.2459 28.5623 26.7454C29.4117 26.8303 30.2044 27.0002 30.9405 27.2267V26.7454C30.9405 26.2641 31.3369 25.8677 31.8182 25.8677C32.2996 25.8677 32.6959 26.2641 32.6959 26.7454V27.8779C35.3856 29.1236 37.1693 31.2188 37.1693 33.597C37.1693 34.9844 36.5748 36.2867 35.5272 37.3626C35.329 37.5608 35.0459 37.6741 34.7628 37.6741H32.7242V39.3445H35.2724C35.8103 39.3445 36.8013 38.2969 37.2826 37.6741C37.2826 37.6741 37.3109 37.6457 37.3675 37.6174C37.4241 37.5891 42.0674 36.5415 42.0674 36.5415C42.1524 36.5132 42.2656 36.5982 42.2656 36.6831L42.2939 37.6741Z" fill="black"/>
<path d="M65.0337 41.8758C63.4192 41.8758 61.9352 41.514 60.5817 40.7905C59.2445 40.0669 58.1763 39.0602 57.3773 37.7703C56.5945 36.4647 56.2031 35.0018 56.2031 33.3817C56.2031 31.7615 56.5945 30.3065 57.3773 29.0166C58.1763 27.7268 59.2445 26.7201 60.5817 25.9965C61.9352 25.2729 63.4192 24.9111 65.0337 24.9111C66.6481 24.9111 68.1239 25.2729 69.4612 25.9965C70.8147 26.7201 71.8747 27.7268 72.6412 29.0166C73.4239 30.3065 73.8153 31.7615 73.8153 33.3817C73.8153 35.0018 73.4239 36.4647 72.6412 37.7703C71.8584 39.0602 70.7984 40.0669 69.4612 40.7905C68.1239 41.514 66.6481 41.8758 65.0337 41.8758ZM65.0337 38.195C66.4035 38.195 67.4961 37.7546 68.3115 36.8737C69.1432 35.9928 69.559 34.8288 69.559 33.3817C69.559 31.9188 69.1432 30.7548 68.3115 29.8896C67.4961 29.0088 66.4035 28.5683 65.0337 28.5683C63.6475 28.5683 62.5386 29.0009 61.7069 29.866C60.8915 30.7312 60.4839 31.903 60.4839 33.3817C60.4839 34.8445 60.8915 36.0164 61.7069 36.8973C62.5386 37.7625 63.6475 38.195 65.0337 38.195Z" fill="white"/>
<path d="M80.3255 30.4092C80.7332 29.7957 81.2957 29.3002 82.0133 28.9227C82.7308 28.5452 83.5706 28.3564 84.5328 28.3564C85.658 28.3564 86.6773 28.6317 87.5905 29.1823C88.5037 29.7328 89.2212 30.5193 89.7431 31.5417C90.2812 32.5642 90.5503 33.7518 90.5503 35.1046C90.5503 36.4573 90.2812 37.6528 89.7431 38.691C89.2212 39.7134 88.5037 40.5078 87.5905 41.0741C86.6773 41.6246 85.658 41.8999 84.5328 41.8999C83.587 41.8999 82.7471 41.7111 82.0133 41.3336C81.2957 40.9561 80.7332 40.4685 80.3255 39.8707V45.6279H76.1426V28.5452H80.3255V30.4092ZM86.294 35.1046C86.294 34.0979 86.0005 33.3114 85.4134 32.7451C84.8427 32.1631 84.1333 31.8721 83.2853 31.8721C82.4536 31.8721 81.7442 32.1631 81.1572 32.7451C80.5864 33.3271 80.301 34.1214 80.301 35.1281C80.301 36.1349 80.5864 36.9292 81.1572 37.5112C81.7442 38.0932 82.4536 38.3842 83.2853 38.3842C84.117 38.3842 84.8263 38.0932 85.4134 37.5112C86.0005 36.9135 86.294 36.1113 86.294 35.1046Z" fill="white"/>
<path d="M105.61 34.9158C105.61 35.2933 105.586 35.6866 105.537 36.0956H96.0705C96.1358 36.9135 96.4048 37.5427 96.8777 37.9831C97.367 38.4079 97.9621 38.6202 98.6636 38.6202C99.7072 38.6202 100.433 38.1955 100.841 37.3461H105.292C105.064 38.2112 104.648 38.9898 104.045 39.682C103.458 40.3741 102.716 40.9168 101.819 41.31C100.922 41.7032 99.9191 41.8999 98.8104 41.8999C97.4731 41.8999 96.2826 41.6246 95.239 41.0741C94.1953 40.5235 93.3799 39.737 92.7927 38.7146C92.2058 37.6921 91.9121 36.4967 91.9121 35.1281C91.9121 33.7597 92.1976 32.5642 92.7684 31.5417C93.3552 30.5193 94.1706 29.7328 95.2143 29.1823C96.258 28.6317 97.4567 28.3564 98.8104 28.3564C100.131 28.3564 101.305 28.6238 102.332 29.1587C103.36 29.6935 104.159 30.4564 104.73 31.4474C105.317 32.4384 105.61 33.5945 105.61 34.9158ZM101.33 33.854C101.33 33.1619 101.085 32.6114 100.596 32.2024C100.107 31.7934 99.4951 31.5889 98.7614 31.5889C98.0599 31.5889 97.4649 31.7856 96.9756 32.1788C96.5027 32.572 96.2091 33.1305 96.0951 33.854H101.33Z" fill="white"/>
<path d="M116.135 28.4028C117.733 28.4028 119.005 28.9062 119.951 29.9129C120.913 30.9039 121.394 32.2724 121.394 34.0184V41.7103H117.236V34.5611C117.236 33.6802 116.999 32.996 116.526 32.5083C116.053 32.0207 115.418 31.7769 114.619 31.7769C113.819 31.7769 113.184 32.0207 112.711 32.5083C112.238 32.996 112.001 33.6802 112.001 34.5611V41.7103H107.818V28.5444H112.001V30.2904C112.425 29.7084 112.996 29.2522 113.714 28.9219C114.431 28.5759 115.238 28.4028 116.135 28.4028Z" fill="white"/>
<path d="M130.513 41.8758C129.257 41.8758 128.132 41.6792 127.137 41.2859C126.143 40.8927 125.344 40.3107 124.74 39.5399C124.153 38.7692 123.843 37.8411 123.811 36.7557H128.262C128.328 37.3692 128.548 37.8411 128.923 38.1714C129.298 38.486 129.787 38.6433 130.391 38.6433C131.011 38.6433 131.499 38.5096 131.858 38.2422C132.217 37.9591 132.397 37.5737 132.397 37.0861C132.397 36.6771 132.25 36.3389 131.956 36.0715C131.679 35.8041 131.328 35.5839 130.904 35.4108C130.497 35.2378 129.91 35.0412 129.143 34.821C128.034 34.4906 127.129 34.1603 126.428 33.83C125.727 33.4997 125.124 33.012 124.618 32.3671C124.112 31.7222 123.859 30.8806 123.859 29.8425C123.859 28.3009 124.438 27.0976 125.596 26.2324C126.754 25.3516 128.262 24.9111 130.122 24.9111C132.013 24.9111 133.538 25.3516 134.696 26.2324C135.854 27.0976 136.474 28.3088 136.555 29.866H132.03C131.997 29.3312 131.793 28.9144 131.418 28.6155C131.043 28.3009 130.562 28.1436 129.975 28.1436C129.469 28.1436 129.062 28.2773 128.752 28.5447C128.442 28.7964 128.287 29.1661 128.287 29.6537C128.287 30.1885 128.548 30.6054 129.07 30.9042C129.592 31.2031 130.407 31.5255 131.516 31.8716C132.625 32.2334 133.522 32.5794 134.207 32.9098C134.908 33.2401 135.511 33.7199 136.017 34.3491C136.522 34.9783 136.775 35.7883 136.775 36.7793C136.775 37.7231 136.522 38.5804 136.017 39.3512C135.528 40.1219 134.81 40.7354 133.864 41.1916C132.919 41.6477 131.801 41.8758 130.513 41.8758Z" fill="white"/>
<path d="M152.216 34.9158C152.216 35.2933 152.191 35.6866 152.142 36.0956H142.676C142.741 36.9135 143.01 37.5427 143.483 37.9831C143.972 38.4079 144.568 38.6202 145.269 38.6202C146.313 38.6202 147.038 38.1955 147.446 37.3461H151.898C151.67 38.2112 151.254 38.9898 150.651 39.682C150.063 40.3741 149.321 40.9168 148.424 41.31C147.527 41.7032 146.524 41.8999 145.416 41.8999C144.078 41.8999 142.888 41.6246 141.844 41.0741C140.801 40.5235 139.985 39.737 139.398 38.7146C138.811 37.6921 138.518 36.4967 138.518 35.1281C138.518 33.7597 138.803 32.5642 139.374 31.5417C139.961 30.5193 140.776 29.7328 141.82 29.1823C142.863 28.6317 144.062 28.3564 145.416 28.3564C146.737 28.3564 147.911 28.6238 148.938 29.1587C149.965 29.6935 150.764 30.4564 151.335 31.4474C151.922 32.4384 152.216 33.5945 152.216 34.9158ZM147.935 33.854C147.935 33.1619 147.691 32.6114 147.201 32.2024C146.712 31.7934 146.1 31.5889 145.367 31.5889C144.666 31.5889 144.07 31.7856 143.581 32.1788C143.108 32.572 142.814 33.1305 142.7 33.854H147.935Z" fill="white"/>
<path d="M153.592 35.1046C153.592 33.7518 153.853 32.5642 154.375 31.5417C154.913 30.5193 155.638 29.7328 156.552 29.1823C157.465 28.6317 158.484 28.3564 159.61 28.3564C160.571 28.3564 161.411 28.5452 162.129 28.9227C162.863 29.3002 163.425 29.7957 163.817 30.4092V28.5452H168V41.7111H163.817V39.8471C163.409 40.4606 162.838 40.9561 162.104 41.3336C161.387 41.7111 160.547 41.8999 159.585 41.8999C158.476 41.8999 157.465 41.6246 156.552 41.0741C155.638 40.5078 154.913 39.7134 154.375 38.691C153.853 37.6528 153.592 36.4573 153.592 35.1046ZM163.817 35.1281C163.817 34.1214 163.523 33.3271 162.936 32.7451C162.365 32.1631 161.664 31.8721 160.832 31.8721C160.001 31.8721 159.291 32.1631 158.704 32.7451C158.134 33.3114 157.848 34.0979 157.848 35.1046C157.848 36.1113 158.134 36.9135 158.704 37.5112C159.291 38.0932 160.001 38.3842 160.832 38.3842C161.664 38.3842 162.365 38.0932 162.936 37.5112C163.523 36.9292 163.817 36.1349 163.817 35.1281Z" fill="white"/>
</svg>
