<svg width="186" height="70" viewBox="0 0 186 70" fill="none" xmlns="http://www.w3.org/2000/svg">
<g id="Group 1597883469">
<g id="Group 1321316460">
<path id="Vector" d="M40.6646 20L31.4011 25.3202V41.9248L26.2899 44.8877L21.1475 41.9225V35.9943L26.2899 33.0578L29.5965 34.9754V30.179L26.2611 28.2855L17 33.6657V44.3086L26.2923 49.66L35.5535 44.3086V27.7064L40.6958 24.7411L45.8359 27.7064V33.6082L40.6958 36.5999L37.3605 34.6654V39.4377L40.6646 41.3434L50.0171 36.0231V25.3202L40.6646 20Z" fill="#D7D7D7"/>
<path id="Vector_2" fill-rule="evenodd" clip-rule="evenodd" d="M95.0115 43.0545H99.1639V20.2935H95.0115V43.0545ZM68.3167 26.8752C70.2848 26.8752 71.9165 27.6658 73.2068 29.2446C74.4996 30.8233 75.1436 32.7817 75.1436 35.1199C75.1436 37.458 74.4973 39.4164 73.2068 40.9952C71.914 42.5739 70.2848 43.3646 68.3167 43.3646C66.9231 43.3646 65.712 42.9344 64.6883 42.0718C63.6838 41.1899 62.9462 40.0004 62.4727 38.5033V49.2062H58.3203V27.1828H62.4727V31.7341C62.9437 30.237 63.6838 29.0571 64.6883 28.1969C65.7143 27.315 66.9231 26.8752 68.3167 26.8752ZM66.8077 39.5798C67.9347 39.5798 68.8887 39.1593 69.6673 38.3183C70.4458 37.458 70.8351 36.3911 70.8351 35.1199C70.8351 33.8488 70.4458 32.8226 69.6673 31.9816C68.8887 31.1213 67.9347 30.6888 66.8077 30.6888C65.5558 30.6888 64.5225 31.1093 63.7006 31.9503C62.8813 32.7914 62.4704 33.8463 62.4704 35.1175C62.4704 36.3886 62.8813 37.4555 63.7006 38.3158C64.5201 39.1569 65.5558 39.5775 66.8077 39.5775V39.5798ZM76.2466 35.1199C76.2466 37.458 77.0564 39.4164 78.676 40.9952C80.2957 42.5739 82.3165 43.3646 84.7364 43.3646C87.1562 43.3646 89.1771 42.5739 90.7967 40.9952C92.4163 39.4164 93.2261 37.458 93.2261 35.1199C93.2261 32.7817 92.4163 30.8233 90.7967 29.2446C89.1771 27.6658 87.1562 26.8752 84.7364 26.8752C82.3165 26.8752 80.2957 27.6658 78.676 29.2446C77.0564 30.8233 76.2466 32.7817 76.2466 35.1199ZM81.7519 38.3183C80.9517 37.458 80.5527 36.3911 80.5527 35.1199C80.5527 33.8488 80.9517 32.8226 81.7519 31.9816C82.5521 31.1213 83.5469 30.6888 84.7364 30.6888C85.9259 30.6888 86.9207 31.1093 87.7208 31.9503C88.521 32.7914 88.92 33.8463 88.92 35.1175C88.92 36.3886 88.521 37.4555 87.7208 38.3158C86.9207 39.1569 85.9259 39.5775 84.7364 39.5775C83.5469 39.5775 82.5521 39.1569 81.7519 38.3158V38.3183ZM137.525 40.9952C135.906 39.4164 135.096 37.458 135.096 35.1199C135.096 32.7817 135.906 30.8233 137.525 29.2446C139.145 27.6658 141.166 26.8752 143.585 26.8752C146.005 26.8752 148.026 27.6658 149.646 29.2446C151.266 30.8233 152.075 32.7817 152.075 35.1199C152.075 37.458 151.266 39.4164 149.646 40.9952C148.026 42.5739 146.005 43.3646 143.585 43.3646C141.166 43.3646 139.147 42.5739 137.525 40.9952ZM139.399 35.1199C139.399 36.3911 139.798 37.458 140.598 38.3183C141.399 39.1593 142.394 39.5798 143.583 39.5798C144.773 39.5798 145.768 39.1593 146.567 38.3183C147.368 37.458 147.766 36.3911 147.766 35.1199C147.766 33.8488 147.368 32.7914 146.567 31.9527C145.768 31.1117 144.773 30.6912 143.583 30.6912C142.394 30.6912 141.399 31.1213 140.598 31.984C139.798 32.825 139.399 33.8704 139.399 35.1223V35.1199ZM163.126 26.8752C164.89 26.8752 166.306 27.4904 167.37 28.7207C168.456 29.9511 168.999 31.5202 168.999 33.4257V43.0521H164.847V34.1635C164.847 33.1374 164.52 32.2964 163.862 31.6404C163.205 30.9843 162.386 30.6551 161.401 30.6551C160.294 30.6551 159.393 30.9843 158.696 31.6404C157.999 32.2964 157.65 33.1374 157.65 34.1635V43.0521H153.498V27.1828H157.65V31.2439C158.061 29.891 158.748 28.8241 159.712 28.0455C160.697 27.2669 161.834 26.8776 163.126 26.8776V26.8752ZM109.139 38.8229L113.382 27.1972H117.597L108.862 49.2206H104.648L106.863 43.6216L100.373 27.1972H104.864L109.139 38.8229ZM129.405 27.1828V31.1597C128.54 28.5645 126.404 27.1828 123.561 27.1828C119.27 27.1828 116.732 30.9315 116.732 34.8724C116.732 38.8132 119.25 42.8695 123.561 42.8695C126.404 42.8695 128.54 40.8197 129.405 38.2245V41.2691C129.405 42.5619 128.985 43.6264 128.144 44.4675C127.303 45.3085 126.279 45.7291 125.068 45.7291C123.427 45.7291 122.209 44.9096 121.408 43.2684L117.686 45.2365C118.383 46.5293 119.378 47.5626 120.671 48.3435C121.963 49.1221 123.429 49.5114 125.068 49.5114C127.488 49.5114 129.509 48.7231 131.128 47.142C132.748 45.5632 133.558 43.6048 133.558 41.2667V27.1828H129.405ZM128.206 37.8881C127.406 38.6883 126.402 39.0872 125.193 39.0872C123.984 39.0872 123.04 38.6883 122.24 37.8881C121.44 37.0687 121.041 36.0642 121.041 34.8747C121.041 33.6853 121.44 32.6904 122.24 31.8903C123.04 31.0901 124.023 30.6912 125.193 30.6912C126.363 30.6912 127.409 31.0901 128.206 31.8903C129.007 32.6688 129.405 33.6636 129.405 34.8747C129.405 36.0859 129.007 37.0903 128.206 37.8881Z" fill="#D7D7D7"/>
</g>
</g>
</svg>
