<svg width="186" height="70" viewBox="0 0 186 70" fill="none" xmlns="http://www.w3.org/2000/svg">
<g id="Group 1597883471">
<g id="Group 1321316164">
<path id="Vector" d="M99.7281 20.8618H97.1035V49.7098H99.7281V20.8618Z" fill="#D7D7D7"/>
<path id="Vector_2" d="M133.246 20.8618H141.619V23.2664H138.771V49.7098H136.135V23.2664H133.246V20.8618Z" fill="#D7D7D7"/>
<path id="Vector_3" d="M94.7048 20.8618V49.7098H91.956L88.0261 32.1905V49.7098H85.4473V20.8618H87.8191L92.126 39.9729V20.8618H94.7048Z" fill="#D7D7D7"/>
<path id="Vector_4" d="M37.6352 20.8618V49.7098H35.0563V24.9823L31.8739 49.7098H29.7265L26.5952 24.9823V49.7098H24V20.8618H28.3907L30.9053 38.2536L33.2761 20.8618H37.6352Z" fill="#D7D7D7"/>
<path id="Vector_5" d="M69.599 49.7189C71.4273 47.2317 72.5303 44.2862 72.7853 41.2098C73.0404 38.1335 72.4375 35.0466 71.0438 32.2922C69.65 29.5378 67.5199 27.2238 64.8901 25.6072C62.2603 23.9906 59.2337 23.1348 56.1468 23.1348C53.0599 23.1348 50.0333 23.9906 47.4035 25.6072C44.7737 27.2238 42.6436 29.5378 41.2498 32.2922C39.8561 35.0466 39.2532 38.1335 39.5083 41.2098C39.7633 44.2862 40.8663 47.2317 42.6946 49.7189H46.1669C44.215 47.7479 42.89 45.2434 42.3588 42.5209C41.8276 39.7983 42.1139 36.9794 43.1817 34.4192C44.2494 31.859 46.0509 29.6721 48.3592 28.1338C50.6675 26.5955 53.3794 25.7747 56.1533 25.7747C58.9273 25.7747 61.6391 26.5955 63.9475 28.1338C66.2558 29.6721 68.0572 31.859 69.125 34.4192C70.1928 36.9794 70.4791 39.7983 69.9479 42.5209C69.4166 45.2434 68.0916 47.7479 66.1398 49.7189H69.599Z" fill="#D7D7D7"/>
<path id="Vector_6" d="M151.121 49.7091H148.555L147.876 43.2113H144.037L143.416 49.7091H140.801L143.752 20.8633H147.755L151.121 49.7091ZM147.634 40.6063L145.891 24.6994L144.281 40.6063H147.636H147.634Z" fill="#D7D7D7"/>
<path id="Vector_7" d="M119.773 46.0455C119.817 46.2858 119.807 46.5329 119.745 46.7692C119.683 47.0055 119.57 47.2253 119.413 47.4129C119.257 47.6006 119.061 47.7516 118.84 47.8552C118.619 47.9588 118.377 48.0125 118.133 48.0125C117.889 48.0125 117.647 47.9588 117.426 47.8552C117.205 47.7516 117.009 47.6006 116.853 47.4129C116.696 47.2253 116.583 47.0055 116.521 46.7692C116.459 46.5329 116.449 46.2858 116.493 46.0455V24.2553C116.449 24.015 116.459 23.7679 116.521 23.5316C116.583 23.2953 116.696 23.0755 116.853 22.8879C117.009 22.7002 117.205 22.5492 117.426 22.4456C117.647 22.342 117.889 22.2883 118.133 22.2883C118.377 22.2883 118.619 22.342 118.84 22.4456C119.061 22.5492 119.257 22.7002 119.413 22.8879C119.57 23.0755 119.683 23.2953 119.745 23.5316C119.807 23.7679 119.817 24.015 119.773 24.2553L119.766 25.2969V30.7357H122.405V26.5444V25.3317C122.386 21.7364 120.98 20.0215 118.047 20.0215C115.432 20.0215 113.732 21.8736 113.732 24.7216V25.7806V43.8381V45.0072C113.732 48.7039 115.166 50.5059 118.109 50.5059C121.052 50.5059 122.409 48.7366 122.409 44.9309V34.4357H117.555V36.9622H119.762V45.0889L119.773 46.0455Z" fill="#D7D7D7"/>
<path id="Vector_8" d="M130.583 45.355V37.8549L124.572 33.3617V24.9791C124.572 21.6844 126.055 20 128.958 20C131.907 20 133.248 21.6713 133.264 25.3756L133.272 26.5251V30.7785H130.583V25.0738L130.578 24.2567C130.623 24.0177 130.616 23.7715 130.555 23.5358C130.495 23.3001 130.383 23.0806 130.228 22.893C130.073 22.7055 129.878 22.5545 129.658 22.4509C129.438 22.3472 129.198 22.2935 128.954 22.2935C128.711 22.2935 128.471 22.3472 128.25 22.4509C128.03 22.5545 127.836 22.7055 127.681 22.893C127.525 23.0806 127.414 23.3001 127.353 23.5358C127.293 23.7715 127.285 24.0177 127.331 24.2567V32.1077L133.271 36.5954V45.269C133.271 48.6595 131.761 50.4757 128.94 50.4757C126.082 50.4757 124.596 48.7641 124.582 45.4564V44.3156V38.6698H127.332V46.0469C127.286 46.2859 127.294 46.5321 127.354 46.7678C127.415 47.0035 127.527 47.223 127.682 47.4105C127.837 47.5981 128.031 47.7491 128.251 47.8527C128.472 47.9564 128.712 48.0101 128.955 48.0101C129.199 48.0101 129.439 47.9564 129.659 47.8527C129.879 47.7491 130.074 47.5981 130.229 47.4105C130.384 47.223 130.496 47.0035 130.556 46.7678C130.617 46.5321 130.624 46.2859 130.579 46.0469L130.583 45.355Z" fill="#D7D7D7"/>
<path id="Vector_9" d="M83.8517 49.7091H81.2216C80.8575 48.7163 80.6767 47.6657 80.6878 46.6084L80.666 45.1332L80.6583 44.3836V38.7519C80.6865 38.5337 80.6672 38.3121 80.6017 38.1021C80.5361 37.8921 80.426 37.6987 80.2787 37.5353C80.1314 37.3719 79.9505 37.2423 79.7485 37.1553C79.5464 37.0684 79.3279 37.0262 79.108 37.0316H77.2308V49.7091H74.6562V20.8633H78.0163C81.7903 20.8633 83.2459 22.2437 83.2459 25.9339V31.352C83.2459 33.7794 82.8406 34.797 80.9405 35.4976C80.9678 35.5052 80.9939 35.5172 81.0201 35.5248C82.8145 36.0478 83.2165 36.7233 83.2372 39.0047L83.2459 40.0528V45.3173C83.1841 46.8056 83.3892 48.2931 83.8517 49.7091ZM77.2308 23.1327V34.5573H78.1525C78.4885 34.6162 78.8337 34.5946 79.1597 34.4942C79.4858 34.3937 79.7833 34.2174 80.0279 33.9796C80.2725 33.7418 80.4572 33.4493 80.5668 33.1262C80.6764 32.8032 80.7078 32.4587 80.6583 32.1212V26.2378C80.6583 23.8692 80.1136 23.1284 78.3573 23.1284H77.2308V23.1327Z" fill="#D7D7D7"/>
<path id="Vector_10" d="M160.999 49.7091H158.367C158.003 48.7164 157.822 47.6657 157.834 46.6084L157.812 45.1332L157.803 44.3847V38.7519C157.831 38.5338 157.812 38.3122 157.746 38.1023C157.681 37.8924 157.571 37.6991 157.423 37.5357C157.276 37.3723 157.095 37.2427 156.894 37.1557C156.692 37.0686 156.473 37.0263 156.253 37.0316H154.378V49.7091H151.803V20.8633H155.164C158.938 20.8633 160.394 22.2437 160.394 25.9339V31.352C160.394 33.7794 159.987 34.797 158.091 35.4976C158.116 35.5052 158.143 35.5172 158.171 35.5248C159.964 36.0478 160.367 36.7233 160.388 39.0047L160.395 40.0528V45.3173C160.332 46.8056 160.537 48.2931 160.999 49.7091ZM154.378 23.1327V34.5573H155.303C155.639 34.6151 155.983 34.5925 156.308 34.4916C156.634 34.3906 156.93 34.2141 157.174 33.9764C157.418 33.7388 157.602 33.4468 157.711 33.1243C157.82 32.8018 157.852 32.4581 157.803 32.1212V26.2378C157.803 23.8692 157.258 23.1284 155.502 23.1284H154.378V23.1327Z" fill="#D7D7D7"/>
<path id="Vector_11" d="M111.342 20.8618V49.7098H108.595L104.665 32.1905V49.7098H102.086V20.8618H104.458L108.764 39.9729V20.8618H111.342Z" fill="#D7D7D7"/>
</g>
</g>
</svg>
