<svg width="186" height="70" viewBox="0 0 186 70" fill="none" xmlns="http://www.w3.org/2000/svg">
<g id="Group 1597883463">
<g id="Group 1321316468">
<g id="Clip path group">
<mask id="mask0_10193_6424" style="mask-type:luminance" maskUnits="userSpaceOnUse" x="19" y="23" width="149" height="24">
<g id="a">
<path id="Vector" d="M19 23H168V46.2812H19V23Z" fill="white"/>
</g>
</mask>
<g mask="url(#mask0_10193_6424)">
<g id="Group">
<path id="Vector_2" d="M44.0329 41.3559L39.9457 45.9637C39.8573 46.0638 39.7503 46.1436 39.6312 46.1983C39.5122 46.253 39.3837 46.2812 39.2538 46.2814H19.8792C19.7868 46.2813 19.6964 46.2529 19.6191 46.1997C19.5418 46.1464 19.4809 46.0707 19.444 45.9816C19.407 45.8926 19.3955 45.7941 19.411 45.6983C19.4264 45.6025 19.4681 45.5135 19.5309 45.4423L23.6134 40.8345C23.7018 40.7344 23.8089 40.6546 23.9279 40.5999C24.047 40.5452 24.1754 40.517 24.3053 40.5168H43.68C43.7732 40.5148 43.865 40.5418 43.9436 40.5945C44.0223 40.6472 44.0844 40.7231 44.1222 40.8128C44.1599 40.9025 44.1715 41.0019 44.1556 41.0986C44.1398 41.1952 44.097 41.2847 44.0329 41.3559ZM39.9457 32.0749C39.857 31.9753 39.7499 31.8958 39.6309 31.8411C39.5119 31.7865 39.3836 31.758 39.2538 31.7573H19.8792C19.7868 31.7573 19.6964 31.7857 19.6191 31.8389C19.5418 31.8922 19.4809 31.968 19.444 32.057C19.407 32.1461 19.3955 32.2445 19.411 32.3403C19.4264 32.4361 19.4681 32.5251 19.5309 32.5963L23.6134 37.2065C23.7021 37.3061 23.8093 37.3857 23.9282 37.4403C24.0472 37.495 24.1755 37.5235 24.3053 37.5242H43.68C43.7722 37.5237 43.8622 37.495 43.9392 37.4415C44.0161 37.3881 44.0767 37.3123 44.1133 37.2234C44.15 37.1344 44.1613 37.0361 44.1458 36.9406C44.1302 36.845 44.0886 36.7562 44.0259 36.6851L39.9457 32.0749ZM19.8792 28.7646H39.2538C39.3837 28.7645 39.5122 28.7363 39.6312 28.6816C39.7503 28.6269 39.8574 28.5471 39.9457 28.4469L44.0329 23.8392C44.0808 23.7859 44.1169 23.7222 44.1387 23.6526C44.1604 23.5829 44.1673 23.5091 44.1588 23.4364C44.1502 23.3636 44.1265 23.2937 44.0893 23.2317C44.0521 23.1697 44.0024 23.1171 43.9436 23.0777C43.8649 23.0251 43.7732 22.9981 43.68 23.0001H24.3053C24.1754 23.0003 24.047 23.0285 23.9279 23.0832C23.8089 23.1379 23.7018 23.2177 23.6134 23.3178L19.5309 27.9255C19.4681 27.9968 19.4264 28.0858 19.411 28.1816C19.3955 28.2774 19.407 28.3758 19.444 28.4649C19.4809 28.5539 19.5418 28.6297 19.6191 28.683C19.6964 28.7362 19.7868 28.7646 19.8792 28.7646Z" fill="url(#paint0_linear_10193_6424)"/>
<path id="Vector_3" d="M67.6533 32.8466H57.2879V29.2574H70.3473V25.6682H57.2533C56.8059 25.6656 56.3624 25.7557 55.9481 25.9333C55.5338 26.111 55.1569 26.3727 54.8388 26.7035C54.5208 27.0343 54.2678 27.4278 54.0944 27.8614C53.921 28.2951 53.8305 28.7604 53.8281 29.2308V32.8685C53.8299 33.3393 53.9199 33.8051 54.0931 34.2393C54.2662 34.6735 54.5191 35.0675 54.8372 35.3989C55.1553 35.7302 55.5325 35.9923 55.947 36.1703C56.3616 36.3482 56.8055 36.4384 57.2533 36.4358H67.6325V40.025H54.0749V43.6142H67.6533C68.3271 43.6182 68.9869 43.4119 69.5492 43.0215C70.1114 42.6311 70.5509 42.074 70.812 41.4209C70.9856 40.9874 71.0761 40.5221 71.0784 40.0517V36.414C71.0767 35.9432 70.9866 35.4774 70.8135 35.0432C70.6403 34.609 70.3874 34.215 70.0693 33.8837C69.7512 33.5523 69.3741 33.2902 68.9595 33.1123C68.5449 32.9343 68.1011 32.844 67.6533 32.8466ZM87.7337 25.6682H77.3291C76.6541 25.6626 75.9928 25.8678 75.429 26.2579C74.8651 26.648 74.4242 27.2054 74.162 27.8594C73.9879 28.2935 73.897 28.7596 73.8947 29.2308V40.0517C73.897 40.5229 73.9879 40.989 74.162 41.4233C74.4241 42.0773 74.8651 42.6347 75.4289 43.0248C75.9928 43.4148 76.6541 43.62 77.3291 43.6142H87.7337C88.1811 43.6168 88.6246 43.5268 89.0389 43.3491C89.4531 43.1715 89.8301 42.9098 90.1482 42.579C90.4662 42.2481 90.7192 41.8547 90.8926 41.421C91.066 40.9874 91.1565 40.5221 91.1589 40.0517V29.2308C91.1565 28.7604 91.0661 28.2951 90.8926 27.8615C90.7191 27.4279 90.4661 27.0345 90.1479 26.7038C89.83 26.3728 89.4531 26.1111 89.0388 25.9334C88.6246 25.7557 88.1811 25.6656 87.7337 25.6682ZM87.7083 40.025H77.3544V29.2574H87.7037L87.7083 40.025ZM124.176 25.6682H114.028C113.58 25.6656 113.137 25.7557 112.723 25.9333C112.308 26.111 111.931 26.3727 111.613 26.7035C111.295 27.0343 111.042 27.4278 110.869 27.8614C110.695 28.2951 110.605 28.7604 110.603 29.2308V43.6142H114.062V37.7187H124.165V43.6142H127.625V29.2308C127.622 28.7583 127.531 28.2909 127.356 27.8557C127.182 27.4204 126.926 27.0258 126.606 26.6947C126.285 26.3635 125.906 26.1023 125.489 25.9262C125.072 25.75 124.626 25.6624 124.176 25.6682ZM124.151 34.1295H114.049V29.2574H124.151V34.1295ZM164.575 25.6682H154.426C153.979 25.6656 153.535 25.7557 153.121 25.9333C152.707 26.111 152.33 26.3727 152.012 26.7035C151.694 27.0343 151.441 27.4278 151.267 27.8614C151.094 28.2951 151.003 28.7604 151.001 29.2308V43.6142H154.461V37.7187H164.54V43.6142H168V29.2308C167.998 28.7604 167.907 28.2951 167.734 27.8615C167.56 27.4279 167.307 27.0345 166.989 26.7038C166.347 26.0357 165.478 25.6632 164.575 25.6682ZM164.54 34.1295H154.438V29.2574H164.54V34.1295ZM144.474 40.025H143.09L138.142 27.1718C137.973 26.7283 137.681 26.3482 137.305 26.0803C136.928 25.8124 136.484 25.6689 136.03 25.6682H132.96C132.51 25.6657 132.07 25.8034 131.695 26.0639C131.32 26.3245 131.027 26.6961 130.854 27.1318C130.738 27.421 130.678 27.7312 130.676 28.0449V43.6142H134.136V29.2574H135.52L140.465 42.1106C140.637 42.5533 140.931 42.9319 141.309 43.198C141.687 43.4641 142.132 43.6056 142.587 43.6045H145.657C145.955 43.6062 146.251 43.546 146.527 43.4274C146.804 43.3088 147.055 43.1341 147.267 42.9133C147.695 42.4676 147.937 41.8614 147.94 41.2279V25.6682H144.474V40.025ZM97.6747 25.6682H94.215V40.0517C94.2173 40.5231 94.3081 40.9894 94.4823 41.4238C94.6565 41.8582 94.9105 42.2521 95.2298 42.583C95.5491 42.914 95.9274 43.1754 96.343 43.3524C96.7586 43.5293 97.2033 43.6183 97.6517 43.6142H108.031V40.025H97.6747V25.6682Z" fill="white"/>
</g>
</g>
</g>
</g>
</g>
<defs>
<linearGradient id="paint0_linear_10193_6424" x1="21.4937" y1="46.8367" x2="42.9558" y2="23.8243" gradientUnits="userSpaceOnUse">
<stop offset="0.08" stop-color="#3E3E3E"/>
<stop offset="0.3" stop-color="#595959"/>
<stop offset="0.5" stop-color="#888888"/>
<stop offset="0.6" stop-color="#B5B5B5"/>
<stop offset="0.72" stop-color="#DADADA"/>
<stop offset="0.97" stop-color="white"/>
</linearGradient>
</defs>
</svg>
