<svg width="55" height="54" viewBox="0 0 55 54" fill="none" xmlns="http://www.w3.org/2000/svg">
<mask id="path-1-inside-1_1781_5903" fill="white">
<path fill-rule="evenodd" clip-rule="evenodd" d="M37.1879 46.1859C37.48 46.384 37.8206 46.4855 38.1635 46.4855C38.3887 46.4855 38.615 46.4417 38.8293 46.3527C39.3696 46.1287 39.7607 45.6477 39.8703 45.0731L46.6872 9.30574C46.7006 9.24017 46.7101 9.17414 46.7157 9.10788C46.7238 9.01497 46.7243 8.92207 46.7178 8.83032C46.6911 8.46541 46.5498 8.10723 46.2926 7.81345C46.2637 7.77986 46.2331 7.74765 46.2009 7.71614C45.8904 7.41171 45.4926 7.24675 45.0876 7.22265C45.0179 7.21871 44.9477 7.21871 44.8777 7.22288C44.6822 7.23493 44.4883 7.27988 44.305 7.35772L3.91944 23.4274C3.25404 23.6922 2.81939 24.338 2.82426 25.0539C2.82912 25.7698 3.27257 26.4095 3.94122 26.6652L14.5624 30.7265L17.5349 41.9915C17.6809 42.5445 18.0898 42.9905 18.6282 43.1837C19.1674 43.3765 19.7658 43.2924 20.2301 42.9585L26.1501 38.6987L37.1879 46.1859ZM27.1188 35.157L36.9508 41.8261L42.255 13.9951L23.0977 32.4294L27.0725 35.1258C27.0884 35.1357 27.1037 35.1464 27.1188 35.157ZM20.25 38.662L18.9336 33.6738C19.052 33.8395 19.1998 33.985 19.3724 34.1018L23.0863 36.6211L20.25 38.662ZM9.34375 25.0098L16.6367 27.7981C17.1592 27.9978 17.5535 28.4371 17.6962 28.9778L18.6211 32.483C18.6635 32.0787 18.8468 31.6983 19.1445 31.4117L37.3988 13.8467L9.34375 25.0098Z"/>
</mask>
<path fill-rule="evenodd" clip-rule="evenodd" d="M37.1879 46.1859C37.48 46.384 37.8206 46.4855 38.1635 46.4855C38.3887 46.4855 38.615 46.4417 38.8293 46.3527C39.3696 46.1287 39.7607 45.6477 39.8703 45.0731L46.6872 9.30574C46.7006 9.24017 46.7101 9.17414 46.7157 9.10788C46.7238 9.01497 46.7243 8.92207 46.7178 8.83032C46.6911 8.46541 46.5498 8.10723 46.2926 7.81345C46.2637 7.77986 46.2331 7.74765 46.2009 7.71614C45.8904 7.41171 45.4926 7.24675 45.0876 7.22265C45.0179 7.21871 44.9477 7.21871 44.8777 7.22288C44.6822 7.23493 44.4883 7.27988 44.305 7.35772L3.91944 23.4274C3.25404 23.6922 2.81939 24.338 2.82426 25.0539C2.82912 25.7698 3.27257 26.4095 3.94122 26.6652L14.5624 30.7265L17.5349 41.9915C17.6809 42.5445 18.0898 42.9905 18.6282 43.1837C19.1674 43.3765 19.7658 43.2924 20.2301 42.9585L26.1501 38.6987L37.1879 46.1859ZM27.1188 35.157L36.9508 41.8261L42.255 13.9951L23.0977 32.4294L27.0725 35.1258C27.0884 35.1357 27.1037 35.1464 27.1188 35.157ZM20.25 38.662L18.9336 33.6738C19.052 33.8395 19.1998 33.985 19.3724 34.1018L23.0863 36.6211L20.25 38.662ZM9.34375 25.0098L16.6367 27.7981C17.1592 27.9978 17.5535 28.4371 17.6962 28.9778L18.6211 32.483C18.6635 32.0787 18.8468 31.6983 19.1445 31.4117L37.3988 13.8467L9.34375 25.0098Z" fill="white"/>
<path d="M37.1879 46.1859L36.6265 47.0135L36.6267 47.0136L37.1879 46.1859ZM38.8293 46.3527L38.4463 45.429L38.4459 45.4291L38.8293 46.3527ZM39.8703 45.0731L40.8526 45.2605L40.8526 45.2603L39.8703 45.0731ZM46.6872 9.30574L45.7075 9.10492L45.7049 9.11852L46.6872 9.30574ZM46.7157 9.10788L45.7195 9.02091L45.7192 9.02429L46.7157 9.10788ZM46.7178 8.83032L47.7153 8.75977L47.7151 8.7575L46.7178 8.83032ZM46.2926 7.81345L45.5352 8.46642L45.5402 8.47212L46.2926 7.81345ZM46.2009 7.71614L45.5007 8.43014L45.5016 8.43096L46.2009 7.71614ZM45.0876 7.22265L45.147 6.22441L45.144 6.22424L45.0876 7.22265ZM44.8777 7.22288L44.8182 6.22465L44.8162 6.22478L44.8777 7.22288ZM44.305 7.35772L44.6747 8.28687L44.6854 8.28262L44.696 8.27813L44.305 7.35772ZM3.91944 23.4274L3.54972 22.4983L3.54966 22.4983L3.91944 23.4274ZM2.82426 25.0539L3.82424 25.0471L2.82426 25.0539ZM3.94122 26.6652L3.58393 27.5992L3.58406 27.5993L3.94122 26.6652ZM14.5624 30.7265L15.5293 30.4713L15.3985 29.9755L14.9195 29.7924L14.5624 30.7265ZM17.5349 41.9915L16.568 42.2466L16.568 42.2467L17.5349 41.9915ZM18.6282 43.1837L18.2905 44.1249L18.2916 44.1253L18.6282 43.1837ZM20.2301 42.9585L20.8139 43.7704L20.8142 43.7702L20.2301 42.9585ZM26.1501 38.6987L26.7115 37.8712L26.1332 37.4789L25.5661 37.887L26.1501 38.6987ZM36.9508 41.8261L36.3895 42.6537L37.6484 43.5076L37.9331 42.0133L36.9508 41.8261ZM27.1188 35.157L26.5411 35.9733L26.5492 35.979L26.5574 35.9846L27.1188 35.157ZM42.255 13.9951L43.2374 14.1823L43.8255 11.0961L41.5617 13.2745L42.255 13.9951ZM23.0977 32.4294L22.4043 31.7088L21.5152 32.5643L22.5363 33.257L23.0977 32.4294ZM27.0725 35.1258L26.5111 35.9533L26.5271 35.9642L26.5436 35.9745L27.0725 35.1258ZM18.9336 33.6738L19.7472 33.0924L17.9667 33.929L18.9336 33.6738ZM20.25 38.662L19.2831 38.9172L19.6541 40.3228L20.8341 39.4737L20.25 38.662ZM19.3724 34.1018L19.9338 33.2742L19.9327 33.2735L19.3724 34.1018ZM23.0863 36.6211L23.6704 37.4328L24.832 36.5969L23.6477 35.7935L23.0863 36.6211ZM16.6367 27.7981L16.2796 28.7321L16.2797 28.7322L16.6367 27.7981ZM9.34375 25.0098L8.97404 24.0806L6.59219 25.0283L8.98663 25.9438L9.34375 25.0098ZM17.6962 28.9778L18.6632 28.7227L18.6631 28.7226L17.6962 28.9778ZM18.6211 32.483L17.6542 32.7381L19.6157 32.5873L18.6211 32.483ZM19.1445 31.4117L18.4511 30.6911L18.451 30.6913L19.1445 31.4117ZM37.3988 13.8467L38.0922 14.5673L37.0291 12.9175L37.3988 13.8467ZM38.1635 45.4855C38.0177 45.4855 37.8731 45.4423 37.7491 45.3582L36.6267 47.0136C37.0869 47.3256 37.6235 47.4855 38.1635 47.4855V45.4855ZM38.4459 45.4291C38.3549 45.4669 38.259 45.4855 38.1635 45.4855V47.4855C38.5184 47.4855 38.8752 47.4164 39.2128 47.2763L38.4459 45.4291ZM38.888 44.8858C38.8414 45.13 38.6753 45.334 38.4463 45.429L39.2124 47.2764C40.064 46.9233 40.68 46.1654 40.8526 45.2605L38.888 44.8858ZM45.7049 9.11852L38.888 44.8859L40.8526 45.2603L47.6695 9.49296L45.7049 9.11852ZM45.7192 9.02429C45.7169 9.05105 45.7131 9.07795 45.7076 9.10494L47.6668 9.50653C47.6882 9.40239 47.7033 9.29722 47.7122 9.19146L45.7192 9.02429ZM45.7203 8.90087C45.7232 8.94197 45.7229 8.98217 45.7195 9.02091L47.7119 9.19484C47.7247 9.04777 47.7254 8.90216 47.7153 8.75977L45.7203 8.90087ZM45.5402 8.47212C45.6495 8.59696 45.7091 8.7476 45.7204 8.90313L47.7151 8.7575C47.6732 8.18322 47.4501 7.61749 47.0451 7.15478L45.5402 8.47212ZM45.5016 8.43096C45.5165 8.44553 45.5272 8.45712 45.5352 8.4664L47.05 7.1605C47.0001 7.10259 46.9497 7.04977 46.9002 7.00133L45.5016 8.43096ZM45.0282 8.22089C45.2018 8.23121 45.3692 8.30115 45.5007 8.43014L46.901 7.00214C46.4117 6.52227 45.7835 6.26228 45.147 6.22442L45.0282 8.22089ZM44.9372 8.22111C44.9676 8.2193 44.9991 8.21925 45.0312 8.22106L45.144 6.22424C45.0367 6.21818 44.9278 6.21813 44.8182 6.22466L44.9372 8.22111ZM44.696 8.27813C44.7731 8.24538 44.8554 8.22615 44.9392 8.22099L44.8162 6.22478C44.5089 6.24371 44.2035 6.31438 43.914 6.43732L44.696 8.27813ZM4.28915 24.3566L44.6747 8.28687L43.9353 6.42858L3.54972 22.4983L4.28915 24.3566ZM3.82424 25.0471C3.82217 24.7431 4.00669 24.469 4.28921 24.3566L3.54966 22.4983C2.50138 22.9155 1.81662 23.9328 1.82428 25.0607L3.82424 25.0471ZM4.2985 25.7312C4.01458 25.6226 3.8263 25.351 3.82424 25.0471L1.82428 25.0607C1.83195 26.1885 2.53056 27.1963 3.58393 27.5992L4.2985 25.7312ZM14.9195 29.7924L4.29837 25.7312L3.58406 27.5993L14.2052 31.6605L14.9195 29.7924ZM18.5018 41.7363L15.5293 30.4713L13.5955 30.9816L16.568 42.2466L18.5018 41.7363ZM18.966 42.2425C18.7374 42.1605 18.5638 41.9711 18.5018 41.7363L16.568 42.2467C16.798 43.1179 17.4421 43.8205 18.2905 44.1249L18.966 42.2425ZM19.6463 42.1466C19.4493 42.2883 19.195 42.3244 18.9649 42.2421L18.2916 44.1253C19.1397 44.4286 20.0823 44.2965 20.8139 43.7704L19.6463 42.1466ZM25.5661 37.887L19.646 42.1468L20.8142 43.7702L26.7342 39.5105L25.5661 37.887ZM37.7492 45.3583L26.7115 37.8712L25.5888 39.5263L36.6265 47.0135L37.7492 45.3583ZM37.5122 40.9985L27.6801 34.3295L26.5574 35.9846L36.3895 42.6537L37.5122 40.9985ZM41.2727 13.8079L35.9685 41.6389L37.9331 42.0133L43.2374 14.1823L41.2727 13.8079ZM23.791 33.15L42.9484 14.7157L41.5617 13.2745L22.4043 31.7088L23.791 33.15ZM27.6338 34.2982L23.659 31.6018L22.5363 33.257L26.5111 35.9533L27.6338 34.2982ZM27.6965 34.3408C27.6795 34.3288 27.6439 34.3036 27.6013 34.277L26.5436 35.9745C26.5374 35.9706 26.5337 35.9681 26.5334 35.9679C26.5333 35.9678 26.5337 35.9681 26.535 35.969C26.5364 35.97 26.5382 35.9713 26.5411 35.9733L27.6965 34.3408ZM17.9667 33.929L19.2831 38.9172L21.2169 38.4068L19.9005 33.4187L17.9667 33.929ZM19.9327 33.2735C19.8602 33.2244 19.7977 33.163 19.7472 33.0924L18.12 34.2553C18.3063 34.516 18.5394 34.7456 18.8121 34.93L19.9327 33.2735ZM23.6477 35.7935L19.9338 33.2742L18.811 34.9293L22.5249 37.4487L23.6477 35.7935ZM20.8341 39.4737L23.6704 37.4328L22.5022 35.8094L19.666 37.8503L20.8341 39.4737ZM16.9939 26.864L9.70087 24.0757L8.98663 25.9438L16.2796 28.7321L16.9939 26.864ZM18.6631 28.7226C18.4383 27.8709 17.8172 27.1788 16.9938 26.864L16.2797 28.7322C16.5012 28.8168 16.6687 29.0033 16.7294 29.233L18.6631 28.7226ZM19.588 32.2279L18.6632 28.7227L16.7293 29.233L17.6542 32.7381L19.588 32.2279ZM18.451 30.6913C17.982 31.1428 17.6934 31.742 17.6266 32.3787L19.6157 32.5873C19.6337 32.4154 19.7116 32.2538 19.838 32.1321L18.451 30.6913ZM36.7054 13.1261L18.4511 30.6911L19.8379 32.1323L38.0922 14.5673L36.7054 13.1261ZM9.71346 25.9389L37.7685 14.7758L37.0291 12.9175L8.97404 24.0806L9.71346 25.9389Z" fill="white" mask="url(#path-1-inside-1_1781_5903)"/>
</svg>
