<svg width="186" height="70" viewBox="0 0 186 70" fill="none" xmlns="http://www.w3.org/2000/svg">
<g id="Group 1597883465">
<g id="Group 1321316457">
<g id="Group 1321316125">
<path id="Vector" d="M25 22.3195L41.4142 17V53.825C29.6896 48.9145 25 39.5038 25 34.1855V22.3195Z" fill="white"/>
<path id="Vector_2" d="M57.8302 22.3195L41.416 17V53.825C53.1406 48.9145 57.8302 39.5038 57.8302 34.1855V22.3195Z" fill="url(#paint0_linear_10193_6455)"/>
</g>
<g id="Group 1321316126">
<path id="Vector_3" d="M85.3809 25.5703H91.9514V29.2506C94.1041 25.943 96.5815 25.5703 100.208 25.5703V32.0742H98.5564C94.2106 32.0742 92.1306 34.1191 92.1306 38.1698V45.0831H85.3809V25.5703Z" fill="white"/>
<path id="Vector_4" d="M122.129 45.0831H115.381V43.2229C113.908 44.9329 111.899 45.6761 109.423 45.6761C104.721 45.6761 102.062 42.888 102.062 37.7604V25.5703H108.811V36.2385C108.811 38.6526 109.996 40.0644 112.005 40.0644C114.014 40.0644 115.38 38.6882 115.38 36.3486V25.5703H122.128V45.0831H122.129Z" fill="white"/>
<path id="Vector_5" d="M123.777 39.0572H130.098C130.386 40.469 131.355 41.0631 133.686 41.0631C135.59 41.0631 136.703 40.6181 136.703 39.8004C136.703 39.1673 136.164 38.7579 134.622 38.4242L129.524 37.2715C126.113 36.4928 124.39 34.5225 124.39 31.3617C124.39 27.1974 127.44 25.0425 133.364 25.0425C139.288 25.0425 142.195 27.1424 142.699 31.6416H136.418C136.312 30.4534 135.089 29.7263 133.079 29.7263C131.465 29.7263 130.426 30.2458 130.426 31.028C130.426 31.6966 131.106 32.2161 132.473 32.5533L137.821 33.855C141.338 34.7083 143.028 36.494 143.028 39.3921C143.028 43.4073 139.544 45.7859 133.624 45.7859C127.704 45.7859 123.788 43.2215 123.788 39.0572H123.781H123.777Z" fill="white"/>
<path id="Vector_6" d="M160.999 31.6395V25.5703H144.342V31.643H149.312V45.0831H156.026V31.6395H160.999Z" fill="white"/>
<path id="Vector_7" d="M83.5015 31.6395V25.5703H66.8457V31.643H71.8162V45.0831H78.5311V31.6395H83.5015Z" fill="white"/>
</g>
</g>
</g>
<defs>
<linearGradient id="paint0_linear_10193_6455" x1="53.4701" y1="14.4213" x2="41.1373" y2="53.3428" gradientUnits="userSpaceOnUse">
<stop offset="0.02" stop-color="#AAAAAA"/>
<stop offset="0.08" stop-color="#B6B6B6"/>
<stop offset="0.16" stop-color="#ADADAD"/>
<stop offset="0.42" stop-color="#9E9E9E"/>
<stop offset="0.68" stop-color="#727272"/>
<stop offset="0.9" stop-color="#626262"/>
</linearGradient>
</defs>
</svg>
