<svg width="186" height="70" viewBox="0 0 186 70" fill="none" xmlns="http://www.w3.org/2000/svg">
<g id="Group 1597883472">
<g id="Group 1321316459">
<path id="Vector" d="M18.4282 30.1731C22.7516 25.9423 29.7593 25.9423 34.0827 30.1731L34.6022 30.6837C34.8172 30.8957 34.8172 31.2391 34.6022 31.4511L32.8227 33.1918C32.7152 33.2963 32.5391 33.2963 32.4316 33.1918L31.715 32.4901C28.6993 29.5402 23.8086 29.5402 20.7929 32.4901L20.0256 33.2396C19.9181 33.3441 19.7419 33.3441 19.6344 33.2396L17.8549 31.4988C17.6399 31.2868 17.6399 30.9435 17.8549 30.7315L18.4252 30.1731H18.4282ZM37.7642 33.774L39.3467 35.3236C39.5616 35.5356 39.5616 35.879 39.3467 36.091L32.2046 43.0807C31.9897 43.2927 31.6373 43.2927 31.4224 43.0807L26.3525 38.1213C26.2987 38.0676 26.2121 38.0676 26.1554 38.1213L21.0855 43.0807C20.8706 43.2927 20.5182 43.2927 20.3033 43.0807L13.1612 36.091C12.9463 35.879 12.9463 35.5356 13.1612 35.3236L14.7437 33.774C14.9587 33.562 15.311 33.562 15.526 33.774L20.5959 38.7334C20.6496 38.7872 20.7362 38.7872 20.7929 38.7334L25.8628 33.774C26.0778 33.562 26.4301 33.562 26.6451 33.774L31.715 38.7364C31.7687 38.7902 31.8553 38.7902 31.912 38.7364L36.9819 33.777C37.1969 33.565 37.5492 33.565 37.7642 33.777V33.774Z" fill="#D7D7D7"/>
<path id="Vector_2" d="M50.2024 41.9347L52.4925 32.7712C52.6298 32.2666 52.7463 31.7232 52.9015 30.8693C53.018 31.7232 53.1553 32.2666 53.2509 32.7712L55.2304 41.9347H59.3269L62.7815 28.3433H59.6375L57.7355 36.6916C57.5414 37.5067 57.425 38.1487 57.2876 39.0981C57.1324 38.1845 56.9771 37.5067 56.801 36.7095L54.9557 28.3403H50.8383L48.8378 36.7095C48.6617 37.5067 48.5273 38.1457 48.3721 39.0981C48.2168 38.1457 48.0795 37.5067 47.9063 36.7095L46.0431 28.3403H42.7617L46.1984 41.9317H50.1994L50.2024 41.9347Z" fill="#D7D7D7"/>
<path id="Vector_3" d="M65.5119 42.2834C67.0645 42.2834 68.0558 41.6414 68.5604 40.7098C68.5006 41.0024 68.4827 41.2921 68.4827 41.5847V41.934H71.0834V36.3237C71.0834 33.6454 69.8592 32.0898 66.8704 32.0898C64.2877 32.0898 62.5977 33.526 62.4425 35.5056H65.2969C65.3954 34.6308 66.0165 34.1082 66.9659 34.1082C67.8587 34.1082 68.3454 34.6128 68.3454 35.1951C68.3454 35.622 68.0916 35.8758 67.3362 35.9714L65.9776 36.1266C63.9592 36.3804 62.2305 37.1179 62.2305 39.2528C62.2305 41.1935 63.8428 42.2804 65.5119 42.2804V42.2834ZM66.3867 40.2829C65.6283 40.2829 65.067 39.8559 65.067 39.1184C65.067 38.3809 65.7089 38.0495 66.6793 37.8763L67.3392 37.7599C67.9035 37.6434 68.214 37.5449 68.4081 37.3717V38.2645C68.4081 39.4677 67.5332 40.2829 66.3897 40.2829H66.3867Z" fill="#D7D7D7"/>
<path id="Vector_4" d="M72.5625 28.3423V41.9336H75.3781V28.3423H72.5625Z" fill="#D7D7D7"/>
<path id="Vector_5" d="M77.1348 28.3423V41.9336H79.9504V28.3423H77.1348Z" fill="#D7D7D7"/>
<path id="Vector_6" d="M86.2239 42.2834C88.9021 42.2834 90.6309 40.7696 90.825 38.79H87.9915C87.8541 39.6648 87.1166 40.1485 86.2239 40.1485C85.0206 40.1485 84.1458 39.1781 84.1279 37.8375H90.8847V37.2941C90.8847 34.15 89.1559 32.0898 86.1672 32.0898C83.1784 32.0898 81.2734 34.1082 81.2734 37.1567C81.2734 40.456 83.3516 42.2834 86.2239 42.2834ZM84.107 35.9923C84.2234 34.9054 85.0206 34.1082 86.1463 34.1082C87.2719 34.1082 87.9915 34.8666 88.0094 35.9923H84.107Z" fill="#D7D7D7"/>
<path id="Vector_7" d="M96.9693 42.1278C97.5904 42.1278 98.1935 42.0292 98.4652 41.9516V39.8167C98.2502 39.8556 97.9994 39.8765 97.7844 39.8765C96.7543 39.8765 96.3871 39.2942 96.3871 38.3418V34.6125H98.6772V32.4179H96.3871V29.041H93.5924V32.4179H91.5352V34.6125H93.5924V38.7299C93.5924 40.9812 94.718 42.1278 96.9693 42.1278Z" fill="#D7D7D7"/>
<path id="Vector_8" d="M106.471 42.2832C110.316 42.2832 112.645 40.0319 112.935 36.7893H109.886C109.653 38.5569 108.411 39.7602 106.587 39.7602C104.431 39.7602 102.917 38.0135 102.917 35.0605C102.917 32.1076 104.491 30.5162 106.647 30.5162C108.492 30.5162 109.54 31.6418 109.752 33.293H112.878C112.568 29.916 110.083 27.9932 106.665 27.9932C102.762 27.9932 99.7734 30.6326 99.7734 35.0605C99.7734 39.4885 102.395 42.2832 106.471 42.2832Z" fill="#D7D7D7"/>
<path id="Vector_9" d="M118.913 42.2834C121.845 42.2834 123.923 40.4381 123.923 37.2165C123.923 33.9948 121.845 32.0898 118.913 32.0898C115.981 32.0898 113.924 34.0515 113.924 37.2165C113.924 40.3814 115.981 42.2834 118.913 42.2834ZM118.913 40.1097C117.611 40.1097 116.778 39.0408 116.778 37.2165C116.778 35.3921 117.653 34.3053 118.913 34.3053C120.173 34.3053 121.069 35.3533 121.069 37.2165C121.069 39.0796 120.215 40.1097 118.913 40.1097Z" fill="#D7D7D7"/>
<path id="Vector_10" d="M127.845 41.934V36.3625C127.845 35.1772 128.582 34.3053 129.63 34.3053C130.622 34.3053 131.204 35.0637 131.204 36.3237V41.934H134.02V35.9146C134.02 33.6245 132.816 32.0898 130.661 32.0898C129.165 32.0898 128.254 32.8094 127.767 33.6634C127.824 33.314 127.845 33.0423 127.845 32.7885V32.4183H125.029V41.931H127.845V41.934Z" fill="#D7D7D7"/>
<path id="Vector_11" d="M138.392 41.934V36.3625C138.392 35.1772 139.129 34.3053 140.177 34.3053C141.169 34.3053 141.751 35.0637 141.751 36.3237V41.934H144.566V35.9146C144.566 33.6245 143.363 32.0898 141.207 32.0898C139.712 32.0898 138.801 32.8094 138.314 33.6634C138.371 33.314 138.392 33.0423 138.392 32.7885V32.4183H135.576V41.931H138.392V41.934Z" fill="#D7D7D7"/>
<path id="Vector_12" d="M150.624 42.2834C153.303 42.2834 155.031 40.7696 155.225 38.79H152.392C152.255 39.6648 151.517 40.1485 150.624 40.1485C149.421 40.1485 148.546 39.1781 148.528 37.8375H155.285V37.2941C155.285 34.15 153.556 32.0898 150.568 32.0898C147.579 32.0898 145.674 34.1082 145.674 37.1567C145.674 40.456 147.752 42.2834 150.624 42.2834ZM148.507 35.9923C148.624 34.9054 149.418 34.1082 150.547 34.1082C151.675 34.1082 152.392 34.8666 152.41 35.9923H148.507Z" fill="#D7D7D7"/>
<path id="Vector_13" d="M161.329 42.2834C164.279 42.2834 165.891 40.671 166.201 38.1659H163.386C163.29 39.214 162.687 40.1067 161.424 40.1067C160.161 40.1067 159.268 38.9213 159.268 37.1747C159.268 35.2727 160.278 34.3023 161.481 34.3023C162.684 34.3023 163.249 35.1563 163.326 36.1475H166.142C165.93 33.8365 164.356 32.0898 161.463 32.0898C158.57 32.0898 156.414 33.953 156.414 37.1776C156.414 40.4023 158.298 42.2834 161.326 42.2834H161.329Z" fill="#D7D7D7"/>
<path id="Vector_14" d="M172.292 42.1278C172.913 42.1278 173.516 42.0292 173.787 41.9516V39.8167C173.572 39.8556 173.322 39.8765 173.107 39.8765C172.077 39.8765 171.709 39.2942 171.709 38.3418V34.6125H173.999V32.4179H171.709V29.041H168.915V32.4179H166.857V34.6125H168.915V38.7299C168.915 40.9812 170.04 42.1278 172.292 42.1278Z" fill="#D7D7D7"/>
</g>
</g>
</svg>
