<svg width="29" height="28" viewBox="0 0 29 28" fill="none" xmlns="http://www.w3.org/2000/svg">
<g id="Group 1597883810">
<g id="Group 1597883809">
<path id="Vector" d="M14.7851 2.61377C16.3238 2.61377 17.7946 2.90686 19.1975 3.49303C20.6005 4.07921 21.8098 4.86566 22.8256 5.85239C23.8413 6.83912 24.6509 8.01391 25.2543 9.37676C25.8577 10.7396 26.1594 12.1684 26.1594 13.6632C26.1594 15.1579 25.8577 16.5867 25.2543 17.9496C24.6509 19.3124 23.8413 20.4872 22.8256 21.474C21.8098 22.4607 20.6005 23.2471 19.1975 23.8333C17.7946 24.4195 16.3238 24.7126 14.7851 24.7126C12.824 24.7126 10.9886 24.2534 9.27889 23.3351L2.98828 25.2987L5.03989 19.3637C3.95375 17.6247 3.41067 15.7246 3.41067 13.6632C3.41067 12.1684 3.71238 10.7396 4.3158 9.37676C4.91921 8.01391 5.72879 6.83912 6.74454 5.85239C7.76029 4.86566 8.96964 4.07921 10.3726 3.49303C11.7755 2.90686 13.2463 2.61377 14.7851 2.61377Z" fill="#5F5E5E"/>
<path id="Vector_2" d="M19.4042 16.2989C18.5543 15.8691 18.0641 15.6541 17.9333 15.6541C17.8026 15.6541 17.5411 15.8911 17.1489 16.3649C16.7567 16.8387 16.4851 17.0756 16.3343 17.0756C16.2337 17.0756 16.1231 17.0414 16.0024 16.973C15.047 16.5041 14.2877 16.0107 13.7245 15.4929C13.0406 14.8677 12.5277 14.1985 12.1858 13.4853C12.1355 13.4071 12.1104 13.3339 12.1104 13.2655C12.1104 13.1678 12.2838 12.9406 12.6308 12.584C12.9778 12.2275 13.1513 11.9466 13.1513 11.7414C13.1513 11.673 13.0255 11.3067 12.7741 10.6423C12.5227 9.97801 12.3568 9.54815 12.2763 9.35276C12.1958 9.1476 12.1179 9.01327 12.0425 8.94976C11.9671 8.88626 11.8338 8.85451 11.6427 8.85451C11.5723 8.85451 11.4768 8.84718 11.3561 8.83253C11.2354 8.81787 11.1449 8.81055 11.0846 8.81055C10.803 8.81055 10.5415 8.91801 10.3001 9.13294C9.58608 9.78751 9.21397 10.5593 9.1838 11.4483V11.5656C9.17374 12.4155 9.53076 13.3632 10.2549 14.4085C11.0192 15.5027 11.7634 16.4064 12.4875 17.1196C13.2116 17.8328 14.0664 18.4092 15.052 18.8488C16.3896 19.4545 17.345 19.7574 17.9182 19.7574C18.3909 19.7574 18.9038 19.6279 19.457 19.369C20.0101 19.1101 20.3671 18.7902 20.528 18.4092C20.699 17.9891 20.7845 17.6178 20.7845 17.2954C20.7845 17.1977 20.7744 17.1245 20.7543 17.0756C20.704 16.9877 20.254 16.7288 19.4042 16.2989Z" fill="#8B8B8B"/>
</g>
</g>
</svg>
