<svg width="29" height="29" viewBox="0 0 29 29" fill="none" xmlns="http://www.w3.org/2000/svg">
<g id="Icon">
<g id="Iconly/Bold/Paper-Negative">
<g id="Paper-Negative">
<path id="Vector" d="M15.9248 2.66699C16.2251 2.66699 16.4561 2.91199 16.4561 3.20366V6.96032C16.4561 9.09532 18.2003 10.8453 20.3142 10.857C21.1921 10.857 21.8852 10.8687 22.4165 10.8687C22.7746 10.8687 23.3637 10.857 23.8604 10.857C24.1492 10.857 24.3802 11.0903 24.3802 11.382V20.762C24.3802 23.6553 22.0584 26.0003 19.1822 26.0003H9.99902C6.99572 26.0003 4.54688 23.5387 4.54688 20.5053V7.92866C4.54688 5.03533 6.88021 2.66699 9.75644 2.66699H15.9248ZM17.103 14.6137H11.3967C10.9231 14.6137 10.5304 14.9987 10.5304 15.4887C10.5304 15.967 10.9231 16.352 11.3967 16.352H17.103C17.5766 16.352 17.9693 15.967 17.9693 15.4887C17.9693 14.9987 17.5766 14.6137 17.103 14.6137ZM18.1381 3.72423C18.1381 3.22139 18.7422 2.97173 19.0876 3.33456C20.3363 4.64589 22.5183 6.93839 23.7381 8.21939C24.0754 8.57289 23.8282 9.15972 23.3419 9.16089C22.3924 9.16439 21.2731 9.16089 20.4679 9.15272C19.1904 9.15272 18.1381 8.08989 18.1381 6.79956V3.72423Z" fill="white"/>
</g>
</g>
</g>
</svg>
